<svg viewBox="0 0 345 234" fill="none" 
    xmlns="http://www.w3.org/2000/svg">
    <g clip-path="url(#clip0)">
        <rect width="345" height="233.094" fill="#292984"/>
        <path d="M-41.8955 4.59123C-140.683 -106 -419 24 -477 -40.6682L-488.409 330.41L909 169L901 -16C768 184 738.807 12.03 678 39C634.211 58.4219 618.583 74.5486 507.174 -8.95128C347 -129 309 23.9998 213 105C108.233 193.397 7.29419 59.6582 -41.8955 4.59123Z" fill="url(#paint0_linear)"/>
        <path d="M-421 84C-270 167 -246.464 -43.7883 -114.999 43.7431C-26.0001 103 27.9213 279.311 112 172C188 74.9999 236 -50.0001 360.144 43.7431C413.887 84.3249 472 82 535 -10.0001C619.697 -133.684 661 86.7431 736 43.7432" stroke="#373798" stroke-width="3"/>
        <path d="M-422 92C-264 202 -254 30.0003 -131 99.0003C-38.3262 150.988 33.9208 295.311 117.999 188C193.999 91.0001 253.999 30.0002 360.144 83.7434C409.999 108.987 475.671 130.912 549 53C645 -49 674 160 779 13" stroke="#5454B0" stroke-width="3"/>
        <path d="M-422 131.958C-264 241.958 -300 92.9579 -185 131.958C-86.9519 165.209 33.9206 335.269 117.999 227.958C193.999 130.958 255 96.0421 317 118C368.688 136.306 434.745 198.659 527 141C631 76 695 214.958 770 171.958" stroke="#1A1A6F" stroke-width="3"/>
        <path d="M-421 70.0002C-270 153 -246.463 -127.531 -114.999 -39.9997C-25.9999 19.257 47.62 263.372 112 142C173 27 219.316 -137.237 360.144 -17.9998C444 53 484 40 529 -45.9999C598.963 -179.707 696 57.9999 771 15" stroke="#262691" stroke-width="3"/>
    </g>
    <defs>
        <linearGradient id="paint0_linear" x1="-179.076" y1="-19.0002" x2="-232.721" y2="221.01" gradientUnits="userSpaceOnUse">
            <stop stop-color="#1F1F76"/>
            <stop offset="1" stop-color="#1F1F76" stop-opacity="0"/>
        </linearGradient>
        <clipPath id="clip0">
            <rect width="345" height="233.094" fill="white"/>
        </clipPath>
    </defs>
</svg>
