<svg version="1.1" viewBox="0.0 0.0 904.0 559.0" fill="none" stroke="none" stroke-linecap="square" stroke-miterlimit="10" width="904" height="559" xmlns:xlink="http://www.w3.org/1999/xlink" xmlns="http://www.w3.org/2000/svg"><path fill="#ffffff" d="M0 0L904.0 0L904.0 559.0L0 559.0L0 0Z" fill-rule="nonzero"/><path fill="#5891ad" d="M452.0 122.38583C488.57773 122.38583 524.629 128.48639 557.16766 140.18216L452.0 283.54916Z" fill-rule="nonzero"/><path fill="#004561" d="M557.16766 140.18216C589.9674 151.97176 618.2424 169.10323 639.6137 190.13527L452.0 283.54916Z" fill-rule="nonzero"/><path fill="#ff6f31" d="M639.6137 190.13527C659.1161 209.32797 672.3719 231.27962 678.44806 254.44504L452.0 283.54916Z" fill-rule="nonzero"/><path fill="#14535d" d="M682.23334 318.08417C682.23334 328.1502 680.8861 338.1941 678.2093 348.0842L678.2093 313.5492C680.8861 303.6591 682.23334 293.6152 682.23334 283.54916Z" fill-rule="nonzero"/><path fill="#1c7685" d="M678.44806 254.44504C683.57416 273.98828 683.49316 294.02658 678.2093 313.5492L452.0 283.54916Z" fill-rule="nonzero"/><path fill="#0b3076" d="M678.2093 348.0842C668.39343 384.35138 641.08997 417.1608 600.8635 441.02744L600.8635 406.49243C641.08997 382.6258 668.39343 349.81638 678.2093 313.5492Z" fill-rule="nonzero"/><path fill="#0f45a8" d="M678.2093 313.5492C668.39343 349.81638 641.08997 382.6258 600.8635 406.49243L452.0 283.54916Z" fill-rule="nonzero"/><path fill="#609faa" d="M322.70935 150.19722C360.8563 132.07448 405.89728 122.38583 452.0 122.38583L452.0 283.54916Z" fill-rule="nonzero"/><path fill="#ff9a6f" d="M240.07538 220.56728C257.37976 192.03621 286.07065 167.60341 322.70935 150.19722L452.0 283.54916Z" fill-rule="nonzero"/><path fill="#365865" d="M222.60674 331.83902C222.04694 327.26456 221.76666 322.6754 221.76666 318.08417L221.76666 283.54916C221.76666 288.1404 222.04694 292.72955 222.60674 297.30405Z" fill-rule="nonzero"/><path fill="#4d7d90" d="M222.60674 297.30405C219.40141 271.11063 225.3986 244.766 240.07538 220.56728L452.0 283.54916Z" fill-rule="nonzero"/><path fill="#617d8b" d="M256.30096 402.98145C237.23871 381.45038 225.69516 357.07718 222.60674 331.83902L222.60674 297.30405C225.69516 322.54218 237.23871 346.91537 256.30096 368.44644Z" fill-rule="nonzero"/><path fill="#8ab2c6" d="M256.30096 368.44644C237.23871 346.91537 225.69516 322.54218 222.60674 297.30405L452.0 283.54916Z" fill-rule="nonzero"/><path fill="#359a61" d="M600.8635 441.02744C549.7532 471.3516 482.3075 484.58673 416.12646 477.2791C349.94543 469.97153 291.59473 442.84616 256.30096 402.98145L256.30096 368.44644C291.59473 408.3112 349.94543 435.43652 416.12646 442.7441C482.3075 450.05173 549.7532 436.8166 600.8635 406.49243Z" fill-rule="nonzero"/><path fill="#4cdc8b" d="M600.8635 406.49243C549.7532 436.8166 482.3075 450.05173 416.12646 442.7441C349.94543 435.43652 291.59473 408.3112 256.30096 368.44644L452.0 283.54916Z" fill-rule="nonzero"/><path fill="#1a1a1a" d="M28.10625 131.69818L28.10625 129.87006L33.371876 123.370056L28.7 123.370056L28.7 121.682556L36.028126 121.682556L36.028126 123.245056L30.54375 130.01068L36.246876 130.01068L36.246876 131.69818L28.10625 131.69818ZM37.98125 131.69818L37.98125 121.682556L42.23125 121.682556Q43.840626 121.682556 44.559376 121.94818Q45.29375 122.213806 45.73125 122.91693Q46.16875 123.60443 46.16875 124.47943Q46.16875 125.620056 45.496876 126.35443Q44.840626 127.088806 43.528126 127.276306Q44.184376 127.651306 44.60625 128.12006Q45.04375 128.57318 45.7625 129.74506L46.98125 131.69818L44.559376 131.69818L43.10625 129.51068Q42.325 128.35443 42.028126 128.05756Q41.746876 127.745056 41.41875 127.63568Q41.10625 127.51068 40.403126 127.51068L39.996876 127.51068L39.996876 131.69818L37.98125 131.69818ZM39.996876 125.91693L41.496876 125.91693Q42.95 125.91693 43.309376 125.79193Q43.684376 125.66693 43.8875 125.370056Q44.090626 125.07318 44.090626 124.620056Q44.090626 124.10443 43.809376 123.807556Q43.54375 123.495056 43.059376 123.401306Q42.809376 123.370056 41.575 123.370056L39.996876 123.370056L39.996876 125.91693ZM46.95 131.69818L50.371876 126.463806L47.278126 121.682556L49.6375 121.682556L51.653126 124.901306L53.621876 121.682556L55.965626 121.682556L52.840626 126.54193L56.2625 131.69818L53.825 131.69818L51.60625 128.22943L49.371876 131.69818L46.95 131.69818Z" fill-rule="nonzero"/><path fill="#9e9e9e" d="M28.590626 149.38568L30.45 149.18256Q30.5125 149.74506 30.79375 150.0263Q31.090626 150.29193 31.559376 150.29193Q32.153126 150.29193 32.559376 149.74506Q32.98125 149.19818 33.10625 147.47943Q32.3875 148.30756 31.29375 148.30756Q30.10625 148.30756 29.246876 147.4013Q28.3875 146.49506 28.3875 145.0263Q28.3875 143.49506 29.29375 142.57318Q30.2 141.63568 31.60625 141.63568Q33.1375 141.63568 34.10625 142.82318Q35.090626 143.99506 35.090626 146.69818Q35.090626 149.44818 34.059376 150.66693Q33.04375 151.87006 31.41875 151.87006Q30.246876 151.87006 29.5125 151.24506Q28.79375 150.62006 28.590626 149.38568ZM32.934376 145.18256Q32.934376 144.26068 32.496876 143.74506Q32.075 143.22943 31.5125 143.22943Q30.98125 143.22943 30.621876 143.6513Q30.278126 144.07318 30.278126 145.0263Q30.278126 145.99506 30.653126 146.44818Q31.04375 146.9013 31.621876 146.9013Q32.16875 146.9013 32.54375 146.4638Q32.934376 146.0263 32.934376 145.18256ZM36.903126 149.7763L38.825 149.7763L38.825 151.1513Q38.825 151.97943 38.684376 152.4638Q38.54375 152.94818 38.1375 153.32318Q37.746876 153.7138 37.121876 153.93256L36.746876 153.13568Q37.325 152.94818 37.575 152.60443Q37.825 152.2763 37.840626 151.69818L36.903126 151.69818L36.903126 149.7763ZM40.575 149.12006L42.48125 148.91693Q42.575 149.57318 42.965626 149.94818Q43.371876 150.32318 43.903126 150.32318Q44.496876 150.32318 44.91875 149.8388Q45.340626 149.35443 45.340626 148.37006Q45.340626 147.44818 44.91875 146.99506Q44.5125 146.5263 43.840626 146.5263Q43.0125 146.5263 42.35625 147.26068L40.809376 147.0263L41.79375 141.80756L46.871876 141.80756L46.871876 143.60443L43.246876 143.60443L42.95 145.30756Q43.590626 144.99506 44.2625 144.99506Q45.528126 144.99506 46.41875 145.93256Q47.309376 146.85443 47.309376 148.3388Q47.309376 149.57318 46.590626 150.54193Q45.621876 151.87006 43.8875 151.87006Q42.496876 151.87006 41.621876 151.13568Q40.746876 150.38568 40.575 149.12006ZM48.559376 144.1513Q48.559376 142.80756 49.153126 142.16693Q49.746876 141.51068 50.746876 141.51068Q51.79375 141.51068 52.3875 142.1513Q52.98125 142.79193 52.98125 144.1513Q52.98125 145.49506 52.3875 146.1513Q51.79375 146.79193 50.79375 146.79193Q49.746876 146.79193 49.153126 146.1513Q48.559376 145.51068 48.559376 144.1513ZM50.059376 144.13568Q50.059376 145.12006 50.278126 145.44818Q50.45 145.69818 50.746876 145.69818Q51.059376 145.69818 51.23125 145.44818Q51.45 145.12006 51.45 144.13568Q51.45 143.16693 51.23125 142.8388Q51.059376 142.57318 50.746876 142.57318Q50.45 142.57318 50.278126 142.82318Q50.059376 143.16693 50.059376 144.13568ZM52.215626 152.0888L50.79375 152.0888L56.1375 141.51068L57.5125 141.51068L52.215626 152.0888ZM55.325 149.44818Q55.325 148.10443 55.903126 147.4638Q56.496876 146.80756 57.528126 146.80756Q58.559376 146.80756 59.153126 147.4638Q59.746876 148.10443 59.746876 149.44818Q59.746876 150.80756 59.153126 151.4638Q58.559376 152.10443 57.54375 152.10443Q56.496876 152.10443 55.903126 151.4638Q55.325 150.80756 55.325 149.44818ZM56.809376 149.44818Q56.809376 150.41693 57.04375 150.74506Q57.215626 150.99506 57.5125 150.99506Q57.825 150.99506 57.98125 150.76068Q58.215626 150.41693 58.215626 149.44818Q58.215626 148.4638 57.996876 148.13568Q57.825 147.88568 57.5125 147.88568Q57.2 147.88568 57.04375 148.13568Q56.809376 148.4638 56.809376 149.44818Z" fill-rule="nonzero"/><path stroke="#757575" stroke-width="1.0" stroke-linecap="butt" d="M27.95 137.19818L215.76666 137.19818L387.7527 137.19818" fill-rule="nonzero"/><path fill="#9e9e9e" d="M389.7527 137.19818C389.7527 136.09361 388.85727 135.19818 387.7527 135.19818C386.64813 135.19818 385.7527 136.09361 385.7527 137.19818C385.7527 138.30275 386.64813 139.19818 387.7527 139.19818C388.85727 139.19818 389.7527 138.30275 389.7527 137.19818" fill-rule="nonzero"/><path fill="#1a1a1a" d="M28.45 177.56172L30.41875 177.37422Q30.60625 178.3586 31.1375 178.82735Q31.684376 179.2961 32.60625 179.2961Q33.590626 179.2961 34.075 178.88985Q34.575 178.46797 34.575 177.9211Q34.575 177.56172 34.371876 177.31172Q34.16875 177.06172 33.6375 176.87422Q33.29375 176.74922 32.028126 176.43672Q30.403126 176.03047 29.746876 175.45235Q28.825 174.62422 28.825 173.43672Q28.825 172.6711 29.246876 171.99922Q29.684376 171.32735 30.496876 170.9836Q31.325 170.63985 32.48125 170.63985Q34.35625 170.63985 35.309376 171.46797Q36.2625 172.2961 36.325 173.6711L34.29375 173.76485Q34.16875 172.9836 33.73125 172.65547Q33.309376 172.31172 32.45 172.31172Q31.575 172.31172 31.075 172.6711Q30.746876 172.90547 30.746876 173.2961Q30.746876 173.65547 31.059376 173.90547Q31.434376 174.21797 32.903126 174.57735Q34.3875 174.9211 35.090626 175.2961Q35.809376 175.6711 36.2 176.31172Q36.60625 176.95235 36.60625 177.90547Q36.60625 178.76485 36.121876 179.53047Q35.653126 180.28047 34.778126 180.63985Q33.903126 180.99922 32.590626 180.99922Q30.684376 180.99922 29.66875 180.12422Q28.653126 179.24922 28.45 177.56172ZM36.95 180.82735L40.371876 175.59297L37.278126 170.81172L39.6375 170.81172L41.653126 174.03047L43.621876 170.81172L45.965626 170.81172L42.840626 175.6711L46.2625 180.82735L43.825 180.82735L41.60625 177.3586L39.371876 180.82735L36.95 180.82735ZM46.965626 180.82735L46.965626 170.81172L50.215626 170.81172Q52.059376 170.81172 52.621876 170.95235Q53.48125 171.18672 54.059376 171.93672Q54.653126 172.68672 54.653126 173.88985Q54.653126 174.81172 54.309376 175.43672Q53.98125 176.06172 53.465626 176.4211Q52.95 176.78047 52.403126 176.90547Q51.684376 177.0461 50.309376 177.0461L48.996876 177.0461L48.996876 180.82735L46.965626 180.82735ZM48.996876 172.49922L48.996876 175.34297L50.10625 175.34297Q51.29375 175.34297 51.7 175.18672Q52.10625 175.03047 52.325 174.70235Q52.559376 174.3586 52.559376 173.9211Q52.559376 173.37422 52.23125 173.01485Q51.91875 172.65547 51.41875 172.56172Q51.059376 172.49922 49.965626 172.49922L48.996876 172.49922Z" fill-rule="nonzero"/><path fill="#9e9e9e" d="M28.590626 198.51485L30.45 198.31172Q30.5125 198.87422 30.79375 199.15547Q31.090626 199.4211 31.559376 199.4211Q32.153126 199.4211 32.559376 198.87422Q32.98125 198.32735 33.10625 196.6086Q32.3875 197.43672 31.29375 197.43672Q30.10625 197.43672 29.246876 196.53047Q28.3875 195.62422 28.3875 194.15547Q28.3875 192.62422 29.29375 191.70235Q30.2 190.76485 31.60625 190.76485Q33.1375 190.76485 34.10625 191.95235Q35.090626 193.12422 35.090626 195.82735Q35.090626 198.57735 34.059376 199.7961Q33.04375 200.99922 31.41875 200.99922Q30.246876 200.99922 29.5125 200.37422Q28.79375 199.74922 28.590626 198.51485ZM32.934376 194.31172Q32.934376 193.38985 32.496876 192.87422Q32.075 192.3586 31.5125 192.3586Q30.98125 192.3586 30.621876 192.78047Q30.278126 193.20235 30.278126 194.15547Q30.278126 195.12422 30.653126 195.57735Q31.04375 196.03047 31.621876 196.03047Q32.16875 196.03047 32.54375 195.59297Q32.934376 195.15547 32.934376 194.31172ZM36.903126 198.90547L38.825 198.90547L38.825 200.28047Q38.825 201.1086 38.684376 201.59297Q38.54375 202.07735 38.1375 202.45235Q37.746876 202.84297 37.121876 203.06172L36.746876 202.26485Q37.325 202.07735 37.575 201.7336Q37.825 201.40547 37.840626 200.82735L36.903126 200.82735L36.903126 198.90547ZM45.465626 200.82735L43.54375 200.82735L43.54375 193.59297Q42.48125 194.57735 41.059376 195.0461L41.059376 193.2961Q41.809376 193.06172 42.684376 192.37422Q43.575 191.68672 43.903126 190.76485L45.465626 190.76485L45.465626 200.82735ZM48.559376 193.28047Q48.559376 191.93672 49.153126 191.2961Q49.746876 190.63985 50.746876 190.63985Q51.79375 190.63985 52.3875 191.28047Q52.98125 191.9211 52.98125 193.28047Q52.98125 194.62422 52.3875 195.28047Q51.79375 195.9211 50.79375 195.9211Q49.746876 195.9211 49.153126 195.28047Q48.559376 194.63985 48.559376 193.28047ZM50.059376 193.26485Q50.059376 194.24922 50.278126 194.57735Q50.45 194.82735 50.746876 194.82735Q51.059376 194.82735 51.23125 194.57735Q51.45 194.24922 51.45 193.26485Q51.45 192.2961 51.23125 191.96797Q51.059376 191.70235 50.746876 191.70235Q50.45 191.70235 50.278126 191.95235Q50.059376 192.2961 50.059376 193.26485ZM52.215626 201.21797L50.79375 201.21797L56.1375 190.63985L57.5125 190.63985L52.215626 201.21797ZM55.325 198.57735Q55.325 197.2336 55.903126 196.59297Q56.496876 195.93672 57.528126 195.93672Q58.559376 195.93672 59.153126 196.59297Q59.746876 197.2336 59.746876 198.57735Q59.746876 199.93672 59.153126 200.59297Q58.559376 201.2336 57.54375 201.2336Q56.496876 201.2336 55.903126 200.59297Q55.325 199.93672 55.325 198.57735ZM56.809376 198.57735Q56.809376 199.5461 57.04375 199.87422Q57.215626 200.12422 57.5125 200.12422Q57.825 200.12422 57.98125 199.88985Q58.215626 199.5461 58.215626 198.57735Q58.215626 197.59297 57.996876 197.26485Q57.825 197.01485 57.5125 197.01485Q57.2 197.01485 57.04375 197.26485Q56.809376 197.59297 56.809376 198.57735Z" fill-rule="nonzero"/><path stroke="#757575" stroke-width="1.0" stroke-linecap="butt" d="M27.95 186.32735L215.76666 186.32735L283.03488 186.32735" fill-rule="nonzero"/><path fill="#9e9e9e" d="M285.03488 186.32735C285.03488 185.22278 284.13947 184.32735 283.03488 184.32735C281.93033 184.32735 281.03488 185.22278 281.03488 186.32735C281.03488 187.43193 281.93033 188.32735 283.03488 188.32735C284.13947 188.32735 285.03488 187.43193 285.03488 186.32735" fill-rule="nonzero"/><path fill="#1a1a1a" d="M28.45 250.69011L30.41875 250.50261Q30.60625 251.48698 31.1375 251.95573Q31.684376 252.42448 32.60625 252.42448Q33.590626 252.42448 34.075 252.01823Q34.575 251.59636 34.575 251.04948Q34.575 250.69011 34.371876 250.44011Q34.16875 250.19011 33.6375 250.00261Q33.29375 249.87761 32.028126 249.56511Q30.403126 249.15886 29.746876 248.58073Q28.825 247.75261 28.825 246.56511Q28.825 245.79948 29.246876 245.12761Q29.684376 244.45573 30.496876 244.11198Q31.325 243.76823 32.48125 243.76823Q34.35625 243.76823 35.309376 244.59636Q36.2625 245.42448 36.325 246.79948L34.29375 246.89323Q34.16875 246.11198 33.73125 245.78386Q33.309376 245.44011 32.45 245.44011Q31.575 245.44011 31.075 245.79948Q30.746876 246.03386 30.746876 246.42448Q30.746876 246.78386 31.059376 247.03386Q31.434376 247.34636 32.903126 247.70573Q34.3875 248.04948 35.090626 248.42448Q35.809376 248.79948 36.2 249.44011Q36.60625 250.08073 36.60625 251.03386Q36.60625 251.89323 36.121876 252.65886Q35.653126 253.40886 34.778126 253.76823Q33.903126 254.12761 32.590626 254.12761Q30.684376 254.12761 29.66875 253.25261Q28.653126 252.37761 28.45 250.69011ZM37.996876 253.95573L37.996876 243.94011L39.965626 243.94011L44.059376 250.62761L44.059376 243.94011L45.934376 243.94011L45.934376 253.95573L43.903126 253.95573L39.871876 247.42448L39.871876 253.95573L37.996876 253.95573ZM46.95 253.95573L50.371876 248.72136L47.278126 243.94011L49.6375 243.94011L51.653126 247.15886L53.621876 243.94011L55.965626 243.94011L52.840626 248.79948L56.2625 253.95573L53.825 253.95573L51.60625 250.48698L49.371876 253.95573L46.95 253.95573Z" fill-rule="nonzero"/><path fill="#9e9e9e" d="M28.54375 265.86197L28.54375 264.0651L35.121876 264.0651L35.121876 265.47134Q34.29375 266.26822 33.45 267.76822Q32.621876 269.2526 32.16875 270.9401Q31.73125 272.6276 31.746876 273.95572L29.8875 273.95572Q29.934376 271.8776 30.746876 269.72134Q31.559376 267.54947 32.91875 265.86197L28.54375 265.86197ZM36.903126 272.03384L38.825 272.03384L38.825 273.40884Q38.825 274.23697 38.684376 274.72134Q38.54375 275.20572 38.1375 275.58072Q37.746876 275.97134 37.121876 276.1901L36.746876 275.39322Q37.325 275.20572 37.575 274.86197Q37.825 274.53384 37.840626 273.95572L36.903126 273.95572L36.903126 272.03384ZM42.2 268.54947Q41.45 268.23697 41.10625 267.6901Q40.778126 267.1276 40.778126 266.47134Q40.778126 265.36197 41.559376 264.6276Q42.340626 263.89322 43.778126 263.89322Q45.2 263.89322 45.996876 264.6276Q46.79375 265.36197 46.79375 266.47134Q46.79375 267.17447 46.41875 267.72134Q46.059376 268.26822 45.403126 268.54947Q46.246876 268.8776 46.66875 269.53384Q47.10625 270.17447 47.10625 271.0026Q47.10625 272.39322 46.215626 273.26822Q45.340626 274.1276 43.871876 274.1276Q42.496876 274.1276 41.590626 273.40884Q40.5125 272.5651 40.5125 271.09634Q40.5125 270.28384 40.91875 269.61197Q41.325 268.92447 42.2 268.54947ZM42.590626 266.61197Q42.590626 267.1901 42.903126 267.51822Q43.23125 267.83072 43.778126 267.83072Q44.325 267.83072 44.653126 267.5026Q44.98125 267.17447 44.98125 266.61197Q44.98125 266.0651 44.653126 265.7526Q44.325 265.42447 43.79375 265.42447Q43.246876 265.42447 42.91875 265.7526Q42.590626 266.08072 42.590626 266.61197ZM42.41875 270.90884Q42.41875 271.70572 42.825 272.14322Q43.23125 272.58072 43.840626 272.58072Q44.434376 272.58072 44.809376 272.15884Q45.2 271.73697 45.2 270.92447Q45.2 270.22134 44.809376 269.79947Q44.41875 269.36197 43.809376 269.36197Q43.10625 269.36197 42.7625 269.86197Q42.41875 270.34634 42.41875 270.90884ZM48.559376 266.40884Q48.559376 265.0651 49.153126 264.42447Q49.746876 263.76822 50.746876 263.76822Q51.79375 263.76822 52.3875 264.40884Q52.98125 265.04947 52.98125 266.40884Q52.98125 267.7526 52.3875 268.40884Q51.79375 269.04947 50.79375 269.04947Q49.746876 269.04947 49.153126 268.40884Q48.559376 267.76822 48.559376 266.40884ZM50.059376 266.39322Q50.059376 267.3776 50.278126 267.70572Q50.45 267.95572 50.746876 267.95572Q51.059376 267.95572 51.23125 267.70572Q51.45 267.3776 51.45 266.39322Q51.45 265.42447 51.23125 265.09634Q51.059376 264.83072 50.746876 264.83072Q50.45 264.83072 50.278126 265.08072Q50.059376 265.42447 50.059376 266.39322ZM52.215626 274.34634L50.79375 274.34634L56.1375 263.76822L57.5125 263.76822L52.215626 274.34634ZM55.325 271.70572Q55.325 270.36197 55.903126 269.72134Q56.496876 269.0651 57.528126 269.0651Q58.559376 269.0651 59.153126 269.72134Q59.746876 270.36197 59.746876 271.70572Q59.746876 273.0651 59.153126 273.72134Q58.559376 274.36197 57.54375 274.36197Q56.496876 274.36197 55.903126 273.72134Q55.325 273.0651 55.325 271.70572ZM56.809376 271.70572Q56.809376 272.67447 57.04375 273.0026Q57.215626 273.2526 57.5125 273.2526Q57.825 273.2526 57.98125 273.01822Q58.215626 272.67447 58.215626 271.70572Q58.215626 270.72134 57.996876 270.39322Q57.825 270.14322 57.5125 270.14322Q57.2 270.14322 57.04375 270.39322Q56.809376 270.72134 56.809376 271.70572Z" fill-rule="nonzero"/><path stroke="#757575" stroke-width="1.0" stroke-linecap="butt" d="M27.95 259.45572L215.76666 259.45572L236.00351 259.45572" fill-rule="nonzero"/><path fill="#9e9e9e" d="M238.00351 259.45572C238.00351 258.35117 237.10808 257.45572 236.00351 257.45572C234.89894 257.45572 234.00351 258.35117 234.00351 259.45572C234.00351 260.5603 234.89894 261.45572 236.00351 261.45572C237.10808 261.45572 238.00351 260.5603 238.00351 259.45572" fill-rule="nonzero"/><path fill="#1a1a1a" d="M28.934376 326.22958L28.934376 316.21396L31.965626 316.21396L33.79375 323.04208L35.590626 316.21396L38.621876 316.21396L38.621876 326.22958L36.746876 326.22958L36.746876 318.33896L34.746876 326.22958L32.809376 326.22958L30.825 318.33896L30.825 326.22958L28.934376 326.22958ZM40.996876 326.22958L40.996876 316.21396L43.0125 316.21396L43.0125 320.65146L47.10625 316.21396L49.825 316.21396L46.059376 320.10458L50.028126 326.22958L47.41875 326.22958L44.653126 321.52646L43.0125 323.19833L43.0125 326.22958L40.996876 326.22958ZM50.98125 326.22958L50.98125 316.21396L55.23125 316.21396Q56.840626 316.21396 57.559376 316.47958Q58.29375 316.7452 58.73125 317.44833Q59.16875 318.13583 59.16875 319.01083Q59.16875 320.15146 58.496876 320.88583Q57.840626 321.6202 56.528126 321.8077Q57.184376 322.1827 57.60625 322.65146Q58.04375 323.10458 58.7625 324.27646L59.98125 326.22958L57.559376 326.22958L56.10625 324.04208Q55.325 322.88583 55.028126 322.58896Q54.746876 322.27646 54.41875 322.16708Q54.10625 322.04208 53.403126 322.04208L52.996876 322.04208L52.996876 326.22958L50.98125 326.22958ZM52.996876 320.44833L54.496876 320.44833Q55.95 320.44833 56.309376 320.32333Q56.684376 320.19833 56.8875 319.90146Q57.090626 319.60458 57.090626 319.15146Q57.090626 318.63583 56.809376 318.33896Q56.54375 318.02646 56.059376 317.9327Q55.809376 317.90146 54.575 317.90146L52.996876 317.90146L52.996876 320.44833Z" fill-rule="nonzero"/><path fill="#9e9e9e" d="M28.54375 338.13583L28.54375 336.33896L35.121876 336.33896L35.121876 337.7452Q34.29375 338.54208 33.45 340.04208Q32.621876 341.52646 32.16875 343.21396Q31.73125 344.90146 31.746876 346.22958L29.8875 346.22958Q29.934376 344.15146 30.746876 341.9952Q31.559376 339.82333 32.91875 338.13583L28.54375 338.13583ZM36.903126 344.3077L38.825 344.3077L38.825 345.6827Q38.825 346.51083 38.684376 346.9952Q38.54375 347.47958 38.1375 347.85458Q37.746876 348.2452 37.121876 348.46396L36.746876 347.66708Q37.325 347.47958 37.575 347.13583Q37.825 346.8077 37.840626 346.22958L36.903126 346.22958L36.903126 344.3077ZM40.575 343.65146L42.48125 343.44833Q42.575 344.10458 42.965626 344.47958Q43.371876 344.85458 43.903126 344.85458Q44.496876 344.85458 44.91875 344.3702Q45.340626 343.88583 45.340626 342.90146Q45.340626 341.97958 44.91875 341.52646Q44.5125 341.0577 43.840626 341.0577Q43.0125 341.0577 42.35625 341.79208L40.809376 341.5577L41.79375 336.33896L46.871876 336.33896L46.871876 338.13583L43.246876 338.13583L42.95 339.83896Q43.590626 339.52646 44.2625 339.52646Q45.528126 339.52646 46.41875 340.46396Q47.309376 341.38583 47.309376 342.8702Q47.309376 344.10458 46.590626 345.07333Q45.621876 346.40146 43.8875 346.40146Q42.496876 346.40146 41.621876 345.66708Q40.746876 344.91708 40.575 343.65146ZM48.559376 338.6827Q48.559376 337.33896 49.153126 336.69833Q49.746876 336.04208 50.746876 336.04208Q51.79375 336.04208 52.3875 336.6827Q52.98125 337.32333 52.98125 338.6827Q52.98125 340.02646 52.3875 340.6827Q51.79375 341.32333 50.79375 341.32333Q49.746876 341.32333 49.153126 340.6827Q48.559376 340.04208 48.559376 338.6827ZM50.059376 338.66708Q50.059376 339.65146 50.278126 339.97958Q50.45 340.22958 50.746876 340.22958Q51.059376 340.22958 51.23125 339.97958Q51.45 339.65146 51.45 338.66708Q51.45 337.69833 51.23125 337.3702Q51.059376 337.10458 50.746876 337.10458Q50.45 337.10458 50.278126 337.35458Q50.059376 337.69833 50.059376 338.66708ZM52.215626 346.6202L50.79375 346.6202L56.1375 336.04208L57.5125 336.04208L52.215626 346.6202ZM55.325 343.97958Q55.325 342.63583 55.903126 341.9952Q56.496876 341.33896 57.528126 341.33896Q58.559376 341.33896 59.153126 341.9952Q59.746876 342.63583 59.746876 343.97958Q59.746876 345.33896 59.153126 345.9952Q58.559376 346.63583 57.54375 346.63583Q56.496876 346.63583 55.903126 345.9952Q55.325 345.33896 55.325 343.97958ZM56.809376 343.97958Q56.809376 344.94833 57.04375 345.27646Q57.215626 345.52646 57.5125 345.52646Q57.825 345.52646 57.98125 345.29208Q58.215626 344.94833 58.215626 343.97958Q58.215626 342.9952 57.996876 342.66708Q57.825 342.41708 57.5125 342.41708Q57.2 342.41708 57.04375 342.66708Q56.809376 342.9952 56.809376 343.97958Z" fill-rule="nonzero"/><path stroke="#757575" stroke-width="1.0" stroke-linecap="butt" d="M27.95 331.72958L215.76666 331.72958L244.39047 331.72958" fill-rule="nonzero"/><path fill="#9e9e9e" d="M246.39047 331.72958C246.39047 330.625 245.49504 329.72958 244.39047 329.72958C243.2859 329.72958 242.39047 330.625 242.39047 331.72958C242.39047 332.83414 243.2859 333.72958 244.39047 333.72958C245.49504 333.72958 246.39047 332.83414 246.39047 331.72958" fill-rule="nonzero"/><path fill="#1a1a1a" d="M29.028126 429.28436L29.028126 419.34686L31.04375 419.34686L31.04375 427.59686L36.075 427.59686L36.075 429.28436L29.028126 429.28436ZM37.903126 429.28436L37.903126 419.26874L39.934376 419.26874L39.934376 429.28436L37.903126 429.28436ZM41.996876 429.28436L41.996876 419.26874L43.965626 419.26874L48.059376 425.95624L48.059376 419.26874L49.934376 419.26874L49.934376 429.28436L47.903126 429.28436L43.871876 422.7531L43.871876 429.28436L41.996876 429.28436ZM51.996876 429.28436L51.996876 419.26874L54.0125 419.26874L54.0125 423.70624L58.10625 419.26874L60.825 419.26874L57.059376 423.15936L61.028126 429.28436L58.41875 429.28436L55.653126 424.58124L54.0125 426.2531L54.0125 429.28436L51.996876 429.28436Z" fill-rule="nonzero"/><path fill="#9e9e9e" d="M35.028126 447.5031L35.028126 449.28436L28.29375 449.28436Q28.403126 448.26874 28.95 447.3625Q29.496876 446.45624 31.121876 444.95624Q32.41875 443.7531 32.715626 443.3156Q33.10625 442.72186 33.10625 442.14374Q33.10625 441.5031 32.7625 441.15936Q32.41875 440.8156 31.809376 440.8156Q31.2 440.8156 30.840626 441.175Q30.496876 441.53436 30.434376 442.3781L28.528126 442.1906Q28.7 440.59686 29.590626 439.90936Q30.496876 439.22186 31.85625 439.22186Q33.340626 439.22186 34.184376 440.01874Q35.028126 440.8156 35.028126 442.0031Q35.028126 442.6906 34.778126 443.3Q34.54375 443.90936 34.028126 444.58124Q33.66875 445.01874 32.7625 445.8625Q31.85625 446.6906 31.60625 446.97186Q31.371876 447.2375 31.215626 447.5031L35.028126 447.5031ZM36.54375 441.1906L36.54375 439.39374L43.121876 439.39374L43.121876 440.8Q42.29375 441.59686 41.45 443.09686Q40.621876 444.58124 40.16875 446.26874Q39.73125 447.95624 39.746876 449.28436L37.8875 449.28436Q37.934376 447.20624 38.746876 445.05Q39.559376 442.8781 40.91875 441.1906L36.54375 441.1906ZM44.903126 447.3625L46.825 447.3625L46.825 448.7375Q46.825 449.5656 46.684376 450.05Q46.54375 450.53436 46.1375 450.90936Q45.746876 451.3 45.121876 451.51874L44.746876 450.72186Q45.325 450.53436 45.575 450.1906Q45.825 449.8625 45.840626 449.28436L44.903126 449.28436L44.903126 447.3625ZM52.309376 449.28436L52.309376 447.26874L48.215626 447.26874L48.215626 445.58124L52.559376 439.22186L54.16875 439.22186L54.16875 445.58124L55.41875 445.58124L55.41875 447.26874L54.16875 447.26874L54.16875 449.28436L52.309376 449.28436ZM52.309376 445.58124L52.309376 442.15936L50.0125 445.58124L52.309376 445.58124ZM56.559376 441.7375Q56.559376 440.39374 57.153126 439.7531Q57.746876 439.09686 58.746876 439.09686Q59.79375 439.09686 60.3875 439.7375Q60.98125 440.3781 60.98125 441.7375Q60.98125 443.08124 60.3875 443.7375Q59.79375 444.3781 58.79375 444.3781Q57.746876 444.3781 57.153126 443.7375Q56.559376 443.09686 56.559376 441.7375ZM58.059376 441.72186Q58.059376 442.70624 58.278126 443.03436Q58.45 443.28436 58.746876 443.28436Q59.059376 443.28436 59.23125 443.03436Q59.45 442.70624 59.45 441.72186Q59.45 440.7531 59.23125 440.425Q59.059376 440.15936 58.746876 440.15936Q58.45 440.15936 58.278126 440.40936Q58.059376 440.7531 58.059376 441.72186ZM60.215626 449.675L58.79375 449.675L64.1375 439.09686L65.5125 439.09686L60.215626 449.675ZM63.325 447.03436Q63.325 445.6906 63.903126 445.05Q64.49687 444.39374 65.52812 444.39374Q66.55937 444.39374 67.15312 445.05Q67.74687 445.6906 67.74687 447.03436Q67.74687 448.39374 67.15312 449.05Q66.55937 449.6906 65.54375 449.6906Q64.49687 449.6906 63.903126 449.05Q63.325 448.39374 63.325 447.03436ZM64.80937 447.03436Q64.80937 448.0031 65.04375 448.33124Q65.21562 448.58124 65.5125 448.58124Q65.825 448.58124 65.98125 448.34686Q66.21562 448.0031 66.21562 447.03436Q66.21562 446.05 65.99687 445.72186Q65.825 445.47186 65.5125 445.47186Q65.2 445.47186 65.04375 445.72186Q64.80937 446.05 64.80937 447.03436Z" fill-rule="nonzero"/><path stroke="#757575" stroke-width="1.0" stroke-linecap="butt" d="M27.95 434.78436L215.76666 434.78436L417.92014 434.78436" fill-rule="nonzero"/><path fill="#9e9e9e" d="M419.92014 434.78436C419.92014 433.6798 419.02472 432.78436 417.92014 432.78436C416.81555 432.78436 415.92014 433.6798 415.92014 434.78436C415.92014 435.88895 416.81555 436.78436 417.92014 436.78436C419.02472 436.78436 419.92014 435.88895 419.92014 434.78436" fill-rule="nonzero"/><path fill="#1a1a1a" d="M837.08124 117.2425L841.08124 117.2425Q842.26874 117.2425 842.84686 117.33625Q843.4406 117.43 843.89374 117.758125Q844.3625 118.070625 844.65936 118.58625Q844.97186 119.101875 844.97186 119.758125Q844.97186 120.46125 844.59686 121.055Q844.22186 121.633125 843.5656 121.93Q844.4875 122.195625 844.97186 122.83625Q845.47186 123.476875 845.47186 124.351875Q845.47186 125.039375 845.14374 125.68Q844.83124 126.320625 844.28436 126.71125Q843.7375 127.101875 842.925 127.195625Q842.425 127.2425 840.4875 127.258125L837.08124 127.258125L837.08124 117.2425ZM839.09686 118.89875L839.09686 121.226875L840.425 121.226875Q841.6125 121.226875 841.89374 121.18Q842.40936 121.133125 842.70624 120.83625Q843.0031 120.52375 843.0031 120.039375Q843.0031 119.58625 842.7531 119.289375Q842.5031 118.9925 841.9875 118.945625Q841.6906 118.89875 840.26874 118.89875L839.09686 118.89875ZM839.09686 122.883125L839.09686 125.570625L840.97186 125.570625Q842.0656 125.570625 842.3625 125.508125Q842.8156 125.43 843.09686 125.1175Q843.3781 124.789375 843.3781 124.258125Q843.3781 123.805 843.15936 123.4925Q842.9406 123.18 842.51874 123.039375Q842.1125 122.883125 840.7375 122.883125L839.09686 122.883125ZM856.1125 127.258125L853.90936 127.258125L853.03436 124.976875L849.01874 124.976875L848.1906 127.258125L846.05 127.258125L849.95624 117.2425L852.09686 117.2425L856.1125 127.258125ZM852.3781 123.289375L851.0031 119.570625L849.64374 123.289375L852.3781 123.289375ZM857.09686 127.258125L857.09686 117.2425L859.0656 117.2425L863.15936 123.93L863.15936 117.2425L865.03436 117.2425L865.03436 127.258125L863.0031 127.258125L858.97186 120.726875L858.97186 127.258125L857.09686 127.258125ZM867.0656 117.2425L870.7531 117.2425Q872.01874 117.2425 872.675 117.43Q873.55 117.68 874.175 118.351875Q874.8 119.008125 875.1281 119.976875Q875.45624 120.93 875.45624 122.33625Q875.45624 123.58625 875.15936 124.476875Q874.78436 125.570625 874.08124 126.2425Q873.55 126.758125 872.65936 127.039375Q871.9875 127.258125 870.8625 127.258125L867.0656 127.258125L867.0656 117.2425ZM869.08124 118.93L869.08124 125.570625L870.59686 125.570625Q871.4406 125.570625 871.8156 125.476875Q872.3156 125.351875 872.6281 125.055Q872.95624 124.758125 873.15936 124.08625Q873.3781 123.414375 873.3781 122.258125Q873.3781 121.08625 873.15936 120.476875Q872.95624 119.851875 872.58124 119.508125Q872.22186 119.14875 871.65936 119.02375Q871.2375 118.93 869.9875 118.93L869.08124 118.93Z" fill-rule="nonzero"/><path fill="#9e9e9e" d="M844.64374 139.16437L844.64374 137.3675L851.22186 137.3675L851.22186 138.77374Q850.39374 139.57062 849.55 141.07062Q848.72186 142.555 848.26874 144.2425Q847.83124 145.93 847.84686 147.25812L845.9875 147.25812Q846.03436 145.18 846.84686 143.02374Q847.65936 140.85187 849.01874 139.16437L844.64374 139.16437ZM853.0031 145.33624L854.925 145.33624L854.925 146.71124Q854.925 147.53937 854.78436 148.02374Q854.64374 148.50812 854.2375 148.88312Q853.84686 149.27374 853.22186 149.4925L852.84686 148.69562Q853.425 148.50812 853.675 148.16437Q853.925 147.83624 853.9406 147.25812L853.0031 147.25812L853.0031 145.33624ZM863.15936 139.69562L861.3 139.89874Q861.22186 139.32062 860.925 139.055Q860.64374 138.77374 860.1906 138.77374Q859.58124 138.77374 859.15936 139.32062Q858.7375 139.8675 858.6281 141.60187Q859.34686 140.7425 860.425 140.7425Q861.6281 140.7425 862.47186 141.66437Q863.33124 142.58624 863.33124 144.02374Q863.33124 145.57062 862.425 146.50812Q861.53436 147.43 860.1125 147.43Q858.59686 147.43 857.6125 146.25812Q856.64374 145.07062 856.64374 142.38312Q856.64374 139.63312 857.65936 138.41437Q858.675 137.19562 860.3156 137.19562Q861.45624 137.19562 862.1906 137.83624Q862.9406 138.47687 863.15936 139.69562ZM858.8 143.88312Q858.8 144.82062 859.22186 145.33624Q859.65936 145.83624 860.20624 145.83624Q860.7531 145.83624 861.09686 145.43Q861.45624 145.00812 861.45624 144.055Q861.45624 143.07062 861.0656 142.6175Q860.6906 142.16437 860.1125 142.16437Q859.5656 142.16437 859.175 142.60187Q858.8 143.03937 858.8 143.88312ZM864.65936 139.71124Q864.65936 138.3675 865.2531 137.72687Q865.84686 137.07062 866.84686 137.07062Q867.89374 137.07062 868.4875 137.71124Q869.08124 138.35187 869.08124 139.71124Q869.08124 141.055 868.4875 141.71124Q867.89374 142.35187 866.89374 142.35187Q865.84686 142.35187 865.2531 141.71124Q864.65936 141.07062 864.65936 139.71124ZM866.15936 139.69562Q866.15936 140.68 866.3781 141.00812Q866.55 141.25812 866.84686 141.25812Q867.15936 141.25812 867.33124 141.00812Q867.55 140.68 867.55 139.69562Q867.55 138.72687 867.33124 138.39874Q867.15936 138.13312 866.84686 138.13312Q866.55 138.13312 866.3781 138.38312Q866.15936 138.72687 866.15936 139.69562ZM868.3156 147.64874L866.89374 147.64874L872.2375 137.07062L873.6125 137.07062L868.3156 147.64874ZM871.425 145.00812Q871.425 143.66437 872.0031 143.02374Q872.59686 142.3675 873.6281 142.3675Q874.65936 142.3675 875.2531 143.02374Q875.84686 143.66437 875.84686 145.00812Q875.84686 146.3675 875.2531 147.02374Q874.65936 147.66437 873.64374 147.66437Q872.59686 147.66437 872.0031 147.02374Q871.425 146.3675 871.425 145.00812ZM872.90936 145.00812Q872.90936 145.97687 873.14374 146.305Q873.3156 146.555 873.6125 146.555Q873.925 146.555 874.08124 146.32062Q874.3156 145.97687 874.3156 145.00812Q874.3156 144.02374 874.09686 143.69562Q873.925 143.44562 873.6125 143.44562Q873.3 143.44562 873.14374 143.69562Q872.90936 144.02374 872.90936 145.00812Z" fill-rule="nonzero"/><path stroke="#757575" stroke-width="1.0" stroke-linecap="butt" d="M876.05 132.75812L688.23334 132.75812L503.3936 134.73064" fill-rule="nonzero"/><path fill="#9e9e9e" d="M505.3936 134.73064C505.3936 133.62607 504.49814 132.73064 503.3936 132.73064C502.289 132.73064 501.3936 133.62607 501.3936 134.73064C501.3936 135.8352 502.289 136.73064 503.3936 136.73064C504.49814 136.73064 505.3936 135.8352 505.3936 134.73064" fill-rule="nonzero"/><path fill="#1a1a1a" d="M841.4875 160.57062L843.4406 161.19562Q842.9875 162.83624 841.9406 163.63312Q840.89374 164.43 839.28436 164.43Q837.28436 164.43 835.9875 163.07062Q834.70624 161.69562 834.70624 159.33624Q834.70624 156.83624 836.0031 155.46124Q837.3 154.07062 839.40936 154.07062Q841.2375 154.07062 842.39374 155.14874Q843.08124 155.78937 843.40936 156.9925L841.40936 157.47687Q841.2375 156.69562 840.675 156.2425Q840.1125 155.78937 839.3 155.78937Q838.1906 155.78937 837.4875 156.60187Q836.8 157.39874 836.8 159.18Q836.8 161.08624 837.47186 161.89874Q838.15936 162.69562 839.2531 162.69562Q840.0656 162.69562 840.64374 162.19562Q841.22186 161.68 841.4875 160.57062ZM844.65936 159.305Q844.65936 157.77374 845.1125 156.7425Q845.45624 155.97687 846.05 155.3675Q846.64374 154.75812 847.34686 154.46124Q848.28436 154.07062 849.5031 154.07062Q851.72186 154.07062 853.05 155.44562Q854.3781 156.82062 854.3781 159.25812Q854.3781 161.68 853.05 163.055Q851.7375 164.43 849.53436 164.43Q847.3 164.43 845.97186 163.07062Q844.65936 161.69562 844.65936 159.305ZM846.7375 159.2425Q846.7375 160.94562 847.51874 161.82062Q848.3156 162.69562 849.51874 162.69562Q850.7375 162.69562 851.5031 161.83624Q852.28436 160.96124 852.28436 159.21124Q852.28436 157.4925 851.53436 156.64874Q850.78436 155.78937 849.51874 155.78937Q848.26874 155.78937 847.5031 156.64874Q846.7375 157.50812 846.7375 159.2425ZM856.03436 164.25812L856.03436 154.2425L859.0656 154.2425L860.89374 161.07062L862.6906 154.2425L865.72186 154.2425L865.72186 164.25812L863.84686 164.25812L863.84686 156.3675L861.84686 164.25812L859.90936 164.25812L857.925 156.3675L857.925 164.25812L856.03436 164.25812ZM868.0656 164.25812L868.0656 154.2425L871.3156 154.2425Q873.15936 154.2425 873.72186 154.38312Q874.58124 154.6175 875.15936 155.3675Q875.7531 156.1175 875.7531 157.32062Q875.7531 158.2425 875.40936 158.8675Q875.08124 159.4925 874.5656 159.85187Q874.05 160.21124 873.5031 160.33624Q872.78436 160.47687 871.40936 160.47687L870.09686 160.47687L870.09686 164.25812L868.0656 164.25812ZM870.09686 155.93L870.09686 158.77374L871.20624 158.77374Q872.39374 158.77374 872.8 158.6175Q873.20624 158.46124 873.425 158.13312Q873.65936 157.78937 873.65936 157.35187Q873.65936 156.805 873.33124 156.44562Q873.01874 156.08624 872.51874 155.9925Q872.15936 155.93 871.0656 155.93L870.09686 155.93Z" fill-rule="nonzero"/><path fill="#9e9e9e" d="M844.64374 176.16437L844.64374 174.3675L851.22186 174.3675L851.22186 175.77374Q850.39374 176.57062 849.55 178.07062Q848.72186 179.555 848.26874 181.2425Q847.83124 182.93 847.84686 184.25812L845.9875 184.25812Q846.03436 182.18 846.84686 180.02374Q847.65936 177.85187 849.01874 176.16437L844.64374 176.16437ZM853.0031 182.33624L854.925 182.33624L854.925 183.71124Q854.925 184.53937 854.78436 185.02374Q854.64374 185.50812 854.2375 185.88312Q853.84686 186.27374 853.22186 186.4925L852.84686 185.69562Q853.425 185.50812 853.675 185.16437Q853.925 184.83624 853.9406 184.25812L853.0031 184.25812L853.0031 182.33624ZM863.15936 176.69562L861.3 176.89874Q861.22186 176.32062 860.925 176.055Q860.64374 175.77374 860.1906 175.77374Q859.58124 175.77374 859.15936 176.32062Q858.7375 176.8675 858.6281 178.60187Q859.34686 177.7425 860.425 177.7425Q861.6281 177.7425 862.47186 178.66437Q863.33124 179.58624 863.33124 181.02374Q863.33124 182.57062 862.425 183.50812Q861.53436 184.43 860.1125 184.43Q858.59686 184.43 857.6125 183.25812Q856.64374 182.07062 856.64374 179.38312Q856.64374 176.63312 857.65936 175.41437Q858.675 174.19562 860.3156 174.19562Q861.45624 174.19562 862.1906 174.83624Q862.9406 175.47687 863.15936 176.69562ZM858.8 180.88312Q858.8 181.82062 859.22186 182.33624Q859.65936 182.83624 860.20624 182.83624Q860.7531 182.83624 861.09686 182.43Q861.45624 182.00812 861.45624 181.055Q861.45624 180.07062 861.0656 179.6175Q860.6906 179.16437 860.1125 179.16437Q859.5656 179.16437 859.175 179.60187Q858.8 180.03937 858.8 180.88312ZM864.65936 176.71124Q864.65936 175.3675 865.2531 174.72687Q865.84686 174.07062 866.84686 174.07062Q867.89374 174.07062 868.4875 174.71124Q869.08124 175.35187 869.08124 176.71124Q869.08124 178.055 868.4875 178.71124Q867.89374 179.35187 866.89374 179.35187Q865.84686 179.35187 865.2531 178.71124Q864.65936 178.07062 864.65936 176.71124ZM866.15936 176.69562Q866.15936 177.68 866.3781 178.00812Q866.55 178.25812 866.84686 178.25812Q867.15936 178.25812 867.33124 178.00812Q867.55 177.68 867.55 176.69562Q867.55 175.72687 867.33124 175.39874Q867.15936 175.13312 866.84686 175.13312Q866.55 175.13312 866.3781 175.38312Q866.15936 175.72687 866.15936 176.69562ZM868.3156 184.64874L866.89374 184.64874L872.2375 174.07062L873.6125 174.07062L868.3156 184.64874ZM871.425 182.00812Q871.425 180.66437 872.0031 180.02374Q872.59686 179.3675 873.6281 179.3675Q874.65936 179.3675 875.2531 180.02374Q875.84686 180.66437 875.84686 182.00812Q875.84686 183.3675 875.2531 184.02374Q874.65936 184.66437 873.64374 184.66437Q872.59686 184.66437 872.0031 184.02374Q871.425 183.3675 871.425 182.00812ZM872.90936 182.00812Q872.90936 182.97687 873.14374 183.305Q873.3156 183.555 873.6125 183.555Q873.925 183.555 874.08124 183.32062Q874.3156 182.97687 874.3156 182.00812Q874.3156 181.02374 874.09686 180.69562Q873.925 180.44562 873.6125 180.44562Q873.3 180.44562 873.14374 180.69562Q872.90936 181.02374 872.90936 182.00812Z" fill-rule="nonzero"/><path stroke="#757575" stroke-width="1.0" stroke-linecap="butt" d="M876.05 169.75812L688.23334 169.75812L595.1425 167.78561" fill-rule="nonzero"/><path fill="#9e9e9e" d="M597.1425 167.78561C597.1425 166.68105 596.2471 165.78561 595.1425 165.78561C594.03796 165.78561 593.1425 166.68105 593.1425 167.78561C593.1425 168.89018 594.03796 169.78561 595.1425 169.78561C596.2471 169.78561 597.1425 168.89018 597.1425 167.78561" fill-rule="nonzero"/><path fill="#1a1a1a" d="M838.09686 218.43782L838.09686 208.4222L840.1125 208.4222L840.1125 212.8597L844.20624 208.4222L846.925 208.4222L843.15936 212.31282L847.1281 218.43782L844.51874 218.43782L841.7531 213.7347L840.1125 215.40657L840.1125 218.43782L838.09686 218.43782ZM857.1125 218.43782L854.90936 218.43782L854.03436 216.15657L850.01874 216.15657L849.1906 218.43782L847.05 218.43782L850.95624 208.4222L853.09686 208.4222L857.1125 218.43782ZM853.3781 214.46907L852.0031 210.75032L850.64374 214.46907L853.3781 214.46907ZM860.6281 218.43782L857.05 208.4222L859.2375 208.4222L861.76874 215.82845L864.22186 208.4222L866.3781 208.4222L862.78436 218.43782L860.6281 218.43782ZM876.1125 218.43782L873.90936 218.43782L873.03436 216.15657L869.01874 216.15657L868.1906 218.43782L866.05 218.43782L869.95624 208.4222L872.09686 208.4222L876.1125 218.43782ZM872.3781 214.46907L871.0031 210.75032L869.64374 214.46907L872.3781 214.46907Z" fill-rule="nonzero"/><path fill="#9e9e9e" d="M844.64374 230.34407L844.64374 228.5472L851.22186 228.5472L851.22186 229.95345Q850.39374 230.75032 849.55 232.25032Q848.72186 233.7347 848.26874 235.4222Q847.83124 237.1097 847.84686 238.43782L845.9875 238.43782Q846.03436 236.3597 846.84686 234.20345Q847.65936 232.03157 849.01874 230.34407L844.64374 230.34407ZM853.0031 236.51595L854.925 236.51595L854.925 237.89095Q854.925 238.71907 854.78436 239.20345Q854.64374 239.68782 854.2375 240.06282Q853.84686 240.45345 853.22186 240.6722L852.84686 239.87532Q853.425 239.68782 853.675 239.34407Q853.925 239.01595 853.9406 238.43782L853.0031 238.43782L853.0031 236.51595ZM859.89374 228.37532Q861.34686 228.37532 862.175 229.40657Q863.14374 230.64095 863.14374 233.50032Q863.14374 236.34407 862.15936 237.57845Q861.34686 238.6097 859.89374 238.6097Q858.425 238.6097 857.53436 237.4847Q856.64374 236.3597 856.64374 233.46907Q856.64374 230.64095 857.6281 229.40657Q858.4406 228.37532 859.89374 228.37532ZM859.89374 229.96907Q859.55 229.96907 859.26874 230.18782Q859.0031 230.40657 858.84686 230.9847Q858.64374 231.7347 858.64374 233.50032Q858.64374 235.26595 858.8156 235.9222Q859.0031 236.57845 859.26874 236.7972Q859.55 237.01595 859.89374 237.01595Q860.2375 237.01595 860.5031 236.7972Q860.78436 236.57845 860.9406 236.00032Q861.14374 235.26595 861.14374 233.50032Q861.14374 231.7347 860.95624 231.07845Q860.78436 230.40657 860.5031 230.18782Q860.2375 229.96907 859.89374 229.96907ZM864.65936 230.89095Q864.65936 229.5472 865.2531 228.90657Q865.84686 228.25032 866.84686 228.25032Q867.89374 228.25032 868.4875 228.89095Q869.08124 229.53157 869.08124 230.89095Q869.08124 232.2347 868.4875 232.89095Q867.89374 233.53157 866.89374 233.53157Q865.84686 233.53157 865.2531 232.89095Q864.65936 232.25032 864.65936 230.89095ZM866.15936 230.87532Q866.15936 231.8597 866.3781 232.18782Q866.55 232.43782 866.84686 232.43782Q867.15936 232.43782 867.33124 232.18782Q867.55 231.8597 867.55 230.87532Q867.55 229.90657 867.33124 229.57845Q867.15936 229.31282 866.84686 229.31282Q866.55 229.31282 866.3781 229.56282Q866.15936 229.90657 866.15936 230.87532ZM868.3156 238.82845L866.89374 238.82845L872.2375 228.25032L873.6125 228.25032L868.3156 238.82845ZM871.425 236.18782Q871.425 234.84407 872.0031 234.20345Q872.59686 233.5472 873.6281 233.5472Q874.65936 233.5472 875.2531 234.20345Q875.84686 234.84407 875.84686 236.18782Q875.84686 237.5472 875.2531 238.20345Q874.65936 238.84407 873.64374 238.84407Q872.59686 238.84407 872.0031 238.20345Q871.425 237.5472 871.425 236.18782ZM872.90936 236.18782Q872.90936 237.15657 873.14374 237.4847Q873.3156 237.7347 873.6125 237.7347Q873.925 237.7347 874.08124 237.50032Q874.3156 237.15657 874.3156 236.18782Q874.3156 235.20345 874.09686 234.87532Q873.925 234.62532 873.6125 234.62532Q873.3 234.62532 873.14374 234.87532Q872.90936 235.20345 872.90936 236.18782Z" fill-rule="nonzero"/><path stroke="#757575" stroke-width="1.0" stroke-linecap="butt" d="M876.05 223.93782L688.23334 223.93782L653.4624 223.93782" fill-rule="nonzero"/><path fill="#9e9e9e" d="M655.4624 223.93782C655.4624 222.83325 654.56696 221.93782 653.4624 221.93782C652.35785 221.93782 651.4624 222.83325 651.4624 223.93782C651.4624 225.04239 652.35785 225.93782 653.4624 225.93782C654.56696 225.93782 655.4624 225.04239 655.4624 223.93782" fill-rule="nonzero"/><path fill="#1a1a1a" d="M847.09686 278.48206L847.09686 268.46643L849.1125 268.46643L849.1125 272.90393L853.20624 268.46643L855.925 268.46643L852.15936 272.35706L856.1281 278.48206L853.51874 278.48206L850.7531 273.77893L849.1125 275.4508L849.1125 278.48206L847.09686 278.48206ZM857.09686 278.48206L857.09686 268.46643L859.0656 268.46643L863.15936 275.15393L863.15936 268.46643L865.03436 268.46643L865.03436 278.48206L863.0031 278.48206L858.97186 271.9508L858.97186 278.48206L857.09686 278.48206ZM873.4875 274.79456L875.4406 275.41956Q874.9875 277.06018 873.9406 277.85706Q872.89374 278.65393 871.28436 278.65393Q869.28436 278.65393 867.9875 277.29456Q866.70624 275.91956 866.70624 273.56018Q866.70624 271.06018 868.0031 269.68518Q869.3 268.29456 871.40936 268.29456Q873.2375 268.29456 874.39374 269.37268Q875.08124 270.0133 875.40936 271.21643L873.40936 271.7008Q873.2375 270.91956 872.675 270.46643Q872.1125 270.0133 871.3 270.0133Q870.1906 270.0133 869.4875 270.8258Q868.8 271.62268 868.8 273.40393Q868.8 275.31018 869.47186 276.12268Q870.15936 276.91956 871.2531 276.91956Q872.0656 276.91956 872.64374 276.41956Q873.22186 275.90393 873.4875 274.79456Z" fill-rule="nonzero"/><path fill="#9e9e9e" d="M844.675 295.90393L846.58124 295.7008Q846.675 296.35706 847.0656 296.73206Q847.47186 297.10706 848.0031 297.10706Q848.59686 297.10706 849.01874 296.62268Q849.4406 296.1383 849.4406 295.15393Q849.4406 294.23206 849.01874 293.77893Q848.6125 293.31018 847.9406 293.31018Q847.1125 293.31018 846.45624 294.04456L844.90936 293.81018L845.89374 288.59143L850.97186 288.59143L850.97186 290.3883L847.34686 290.3883L847.05 292.09143Q847.6906 291.77893 848.3625 291.77893Q849.6281 291.77893 850.51874 292.71643Q851.40936 293.6383 851.40936 295.12268Q851.40936 296.35706 850.6906 297.3258Q849.72186 298.65393 847.9875 298.65393Q846.59686 298.65393 845.72186 297.91956Q844.84686 297.16956 844.675 295.90393ZM853.0031 296.56018L854.925 296.56018L854.925 297.93518Q854.925 298.7633 854.78436 299.24768Q854.64374 299.73206 854.2375 300.10706Q853.84686 300.49768 853.22186 300.71643L852.84686 299.91956Q853.425 299.73206 853.675 299.3883Q853.925 299.06018 853.9406 298.48206L853.0031 298.48206L853.0031 296.56018ZM856.6906 296.16956L858.55 295.96643Q858.6125 296.52893 858.89374 296.81018Q859.1906 297.0758 859.65936 297.0758Q860.2531 297.0758 860.65936 296.52893Q861.08124 295.98206 861.20624 294.2633Q860.4875 295.09143 859.39374 295.09143Q858.20624 295.09143 857.34686 294.18518Q856.4875 293.27893 856.4875 291.81018Q856.4875 290.27893 857.39374 289.35706Q858.3 288.41956 859.70624 288.41956Q861.2375 288.41956 862.20624 289.60706Q863.1906 290.77893 863.1906 293.48206Q863.1906 296.23206 862.15936 297.4508Q861.14374 298.65393 859.51874 298.65393Q858.34686 298.65393 857.6125 298.02893Q856.89374 297.40393 856.6906 296.16956ZM861.03436 291.96643Q861.03436 291.04456 860.59686 290.52893Q860.175 290.0133 859.6125 290.0133Q859.08124 290.0133 858.72186 290.43518Q858.3781 290.85706 858.3781 291.81018Q858.3781 292.77893 858.7531 293.23206Q859.14374 293.68518 859.72186 293.68518Q860.26874 293.68518 860.64374 293.24768Q861.03436 292.81018 861.03436 291.96643ZM864.65936 290.93518Q864.65936 289.59143 865.2531 288.9508Q865.84686 288.29456 866.84686 288.29456Q867.89374 288.29456 868.4875 288.93518Q869.08124 289.5758 869.08124 290.93518Q869.08124 292.27893 868.4875 292.93518Q867.89374 293.5758 866.89374 293.5758Q865.84686 293.5758 865.2531 292.93518Q864.65936 292.29456 864.65936 290.93518ZM866.15936 290.91956Q866.15936 291.90393 866.3781 292.23206Q866.55 292.48206 866.84686 292.48206Q867.15936 292.48206 867.33124 292.23206Q867.55 291.90393 867.55 290.91956Q867.55 289.9508 867.33124 289.62268Q867.15936 289.35706 866.84686 289.35706Q866.55 289.35706 866.3781 289.60706Q866.15936 289.9508 866.15936 290.91956ZM868.3156 298.87268L866.89374 298.87268L872.2375 288.29456L873.6125 288.29456L868.3156 298.87268ZM871.425 296.23206Q871.425 294.8883 872.0031 294.24768Q872.59686 293.59143 873.6281 293.59143Q874.65936 293.59143 875.2531 294.24768Q875.84686 294.8883 875.84686 296.23206Q875.84686 297.59143 875.2531 298.24768Q874.65936 298.8883 873.64374 298.8883Q872.59686 298.8883 872.0031 298.24768Q871.425 297.59143 871.425 296.23206ZM872.90936 296.23206Q872.90936 297.2008 873.14374 297.52893Q873.3156 297.77893 873.6125 297.77893Q873.925 297.77893 874.08124 297.54456Q874.3156 297.2008 874.3156 296.23206Q874.3156 295.24768 874.09686 294.91956Q873.925 294.66956 873.6125 294.66956Q873.3 294.66956 873.14374 294.91956Q872.90936 295.24768 872.90936 296.23206Z" fill-rule="nonzero"/><path stroke="#757575" stroke-width="1.0" stroke-linecap="butt" d="M876.05 283.98206L688.23334 283.98206L670.72076 283.98206" fill-rule="nonzero"/><path fill="#9e9e9e" d="M672.72076 283.98206C672.72076 282.8775 671.8254 281.98206 670.72076 281.98206C669.6162 281.98206 668.72076 282.8775 668.72076 283.98206C668.72076 285.08664 669.6162 285.98206 670.72076 285.98206C671.8254 285.98206 672.72076 285.08664 672.72076 283.98206" fill-rule="nonzero"/><path fill="#1a1a1a" d="M839.1281 355.11493L839.1281 345.17743L841.14374 345.17743L841.14374 353.42743L846.175 353.42743L846.175 355.11493L839.1281 355.11493ZM848.0656 355.11493L848.0656 345.0993L855.5031 345.0993L855.5031 346.7868L850.09686 346.7868L850.09686 349.00555L855.1281 349.00555L855.1281 350.69305L850.09686 350.69305L850.09686 353.42743L855.6906 353.42743L855.6906 355.11493L848.0656 355.11493ZM857.09686 355.11493L857.09686 345.0993L859.0656 345.0993L863.15936 351.7868L863.15936 345.0993L865.03436 345.0993L865.03436 355.11493L863.0031 355.11493L858.97186 348.58368L858.97186 355.11493L857.09686 355.11493ZM867.0656 345.0993L870.7531 345.0993Q872.01874 345.0993 872.675 345.2868Q873.55 345.5368 874.175 346.20868Q874.8 346.86493 875.1281 347.83368Q875.45624 348.7868 875.45624 350.19305Q875.45624 351.44305 875.15936 352.33368Q874.78436 353.42743 874.08124 354.0993Q873.55 354.61493 872.65936 354.89618Q871.9875 355.11493 870.8625 355.11493L867.0656 355.11493L867.0656 345.0993ZM869.08124 346.7868L869.08124 353.42743L870.59686 353.42743Q871.4406 353.42743 871.8156 353.33368Q872.3156 353.20868 872.6281 352.9118Q872.95624 352.61493 873.15936 351.94305Q873.3781 351.27118 873.3781 350.11493Q873.3781 348.94305 873.15936 348.33368Q872.95624 347.70868 872.58124 347.36493Q872.22186 347.00555 871.65936 346.88055Q871.2375 346.7868 869.9875 346.7868L869.08124 346.7868Z" fill-rule="nonzero"/><path fill="#9e9e9e" d="M841.5656 375.11493L839.64374 375.11493L839.64374 367.88055Q838.58124 368.86493 837.15936 369.33368L837.15936 367.58368Q837.90936 367.3493 838.78436 366.6618Q839.675 365.9743 840.0031 365.05243L841.5656 365.05243L841.5656 375.11493ZM847.89374 365.05243Q849.34686 365.05243 850.175 366.08368Q851.14374 367.31805 851.14374 370.17743Q851.14374 373.02118 850.15936 374.25555Q849.34686 375.2868 847.89374 375.2868Q846.425 375.2868 845.53436 374.1618Q844.64374 373.0368 844.64374 370.14618Q844.64374 367.31805 845.6281 366.08368Q846.4406 365.05243 847.89374 365.05243ZM847.89374 366.64618Q847.55 366.64618 847.26874 366.86493Q847.0031 367.08368 846.84686 367.6618Q846.64374 368.4118 846.64374 370.17743Q846.64374 371.94305 846.8156 372.5993Q847.0031 373.25555 847.26874 373.4743Q847.55 373.69305 847.89374 373.69305Q848.2375 373.69305 848.5031 373.4743Q848.78436 373.25555 848.9406 372.67743Q849.14374 371.94305 849.14374 370.17743Q849.14374 368.4118 848.95624 367.75555Q848.78436 367.08368 848.5031 366.86493Q848.2375 366.64618 847.89374 366.64618ZM853.0031 373.19305L854.925 373.19305L854.925 374.56805Q854.925 375.39618 854.78436 375.88055Q854.64374 376.36493 854.2375 376.73993Q853.84686 377.13055 853.22186 377.3493L852.84686 376.55243Q853.425 376.36493 853.675 376.02118Q853.925 375.69305 853.9406 375.11493L853.0031 375.11493L853.0031 373.19305ZM858.3 369.70868Q857.55 369.39618 857.20624 368.8493Q856.8781 368.2868 856.8781 367.63055Q856.8781 366.52118 857.65936 365.7868Q858.4406 365.05243 859.8781 365.05243Q861.3 365.05243 862.09686 365.7868Q862.89374 366.52118 862.89374 367.63055Q862.89374 368.33368 862.51874 368.88055Q862.15936 369.42743 861.5031 369.70868Q862.34686 370.0368 862.76874 370.69305Q863.20624 371.33368 863.20624 372.1618Q863.20624 373.55243 862.3156 374.42743Q861.4406 375.2868 859.97186 375.2868Q858.59686 375.2868 857.6906 374.56805Q856.6125 373.7243 856.6125 372.25555Q856.6125 371.44305 857.01874 370.77118Q857.425 370.08368 858.3 369.70868ZM858.6906 367.77118Q858.6906 368.3493 859.0031 368.67743Q859.33124 368.98993 859.8781 368.98993Q860.425 368.98993 860.7531 368.6618Q861.08124 368.33368 861.08124 367.77118Q861.08124 367.2243 860.7531 366.9118Q860.425 366.58368 859.89374 366.58368Q859.34686 366.58368 859.01874 366.9118Q858.6906 367.23993 858.6906 367.77118ZM858.51874 372.06805Q858.51874 372.86493 858.925 373.30243Q859.33124 373.73993 859.9406 373.73993Q860.53436 373.73993 860.90936 373.31805Q861.3 372.89618 861.3 372.08368Q861.3 371.38055 860.90936 370.95868Q860.51874 370.52118 859.90936 370.52118Q859.20624 370.52118 858.8625 371.02118Q858.51874 371.50555 858.51874 372.06805ZM864.65936 367.56805Q864.65936 366.2243 865.2531 365.58368Q865.84686 364.92743 866.84686 364.92743Q867.89374 364.92743 868.4875 365.56805Q869.08124 366.20868 869.08124 367.56805Q869.08124 368.9118 868.4875 369.56805Q867.89374 370.20868 866.89374 370.20868Q865.84686 370.20868 865.2531 369.56805Q864.65936 368.92743 864.65936 367.56805ZM866.15936 367.55243Q866.15936 368.5368 866.3781 368.86493Q866.55 369.11493 866.84686 369.11493Q867.15936 369.11493 867.33124 368.86493Q867.55 368.5368 867.55 367.55243Q867.55 366.58368 867.33124 366.25555Q867.15936 365.98993 866.84686 365.98993Q866.55 365.98993 866.3781 366.23993Q866.15936 366.58368 866.15936 367.55243ZM868.3156 375.50555L866.89374 375.50555L872.2375 364.92743L873.6125 364.92743L868.3156 375.50555ZM871.425 372.86493Q871.425 371.52118 872.0031 370.88055Q872.59686 370.2243 873.6281 370.2243Q874.65936 370.2243 875.2531 370.88055Q875.84686 371.52118 875.84686 372.86493Q875.84686 374.2243 875.2531 374.88055Q874.65936 375.52118 873.64374 375.52118Q872.59686 375.52118 872.0031 374.88055Q871.425 374.2243 871.425 372.86493ZM872.90936 372.86493Q872.90936 373.83368 873.14374 374.1618Q873.3156 374.4118 873.6125 374.4118Q873.925 374.4118 874.08124 374.17743Q874.3156 373.83368 874.3156 372.86493Q874.3156 371.88055 874.09686 371.55243Q873.925 371.30243 873.6125 371.30243Q873.3 371.30243 873.14374 371.55243Q872.90936 371.88055 872.90936 372.86493Z" fill-rule="nonzero"/><path stroke="#757575" stroke-width="1.0" stroke-linecap="butt" d="M876.05 360.61493L688.23334 360.61493L640.99335 360.61493" fill-rule="nonzero"/><path fill="#9e9e9e" d="M642.99335 360.61493C642.99335 359.51035 642.09796 358.61493 640.99335 358.61493C639.8888 358.61493 638.99335 359.51035 638.99335 360.61493C638.99335 361.71948 639.8888 362.61493 640.99335 362.61493C642.09796 362.61493 642.99335 361.71948 642.99335 360.61493" fill-rule="nonzero"/><path fill="#000000" d="M29.41875 46.95L29.41875 32.6375L34.79375 32.6375Q36.434376 32.6375 37.41875 33.075Q38.403126 33.496876 38.965626 34.403126Q39.528126 35.309376 39.528126 36.29375Q39.528126 37.215626 39.028126 38.028126Q38.54375 38.840626 37.528126 39.325Q38.825 39.715626 39.528126 40.6375Q40.23125 41.54375 40.23125 42.79375Q40.23125 43.809376 39.79375 44.66875Q39.371876 45.528126 38.746876 45.996876Q38.121876 46.465626 37.184376 46.715626Q36.246876 46.95 34.871876 46.95L29.41875 46.95ZM31.309376 38.653126L34.403126 38.653126Q35.66875 38.653126 36.215626 38.48125Q36.934376 38.2625 37.29375 37.778126Q37.66875 37.278126 37.66875 36.5125Q37.66875 35.809376 37.325 35.2625Q36.98125 34.715626 36.340626 34.528126Q35.715626 34.325 34.16875 34.325L31.309376 34.325L31.309376 38.653126ZM31.309376 45.2625L34.871876 45.2625Q35.79375 45.2625 36.16875 45.184376Q36.825 45.075 37.2625 44.809376Q37.7 44.528126 37.98125 44.0125Q38.2625 43.48125 38.2625 42.79375Q38.2625 41.996876 37.85625 41.403126Q37.45 40.809376 36.715626 40.575Q35.98125 40.340626 34.621876 40.340626L31.309376 40.340626L31.309376 45.2625ZM42.278126 34.653126L42.278126 32.6375L44.04375 32.6375L44.04375 34.653126L42.278126 34.653126ZM42.278126 46.95L42.278126 36.575L44.04375 36.575L44.04375 46.95L42.278126 46.95ZM46.2625 46.95L46.2625 36.575L47.85625 36.575L47.85625 38.059376Q48.996876 36.340626 51.153126 36.340626Q52.090626 36.340626 52.871876 36.684376Q53.66875 37.0125 54.059376 37.559376Q54.45 38.10625 54.60625 38.85625Q54.7 39.35625 54.7 40.575L54.7 46.95L52.934376 46.95L52.934376 40.6375Q52.934376 39.559376 52.73125 39.028126Q52.528126 38.496876 51.996876 38.184376Q51.48125 37.871876 50.778126 37.871876Q49.653126 37.871876 48.840626 38.590626Q48.028126 39.29375 48.028126 41.278126L48.028126 46.95L46.2625 46.95ZM64.04375 45.66875Q63.059376 46.496876 62.153126 46.840626Q61.246876 47.184376 60.215626 47.184376Q58.5125 47.184376 57.590626 46.35625Q56.66875 45.5125 56.66875 44.215626Q56.66875 43.45 57.0125 42.825Q57.371876 42.2 57.934376 41.825Q58.496876 41.434376 59.2 41.23125Q59.715626 41.10625 60.7625 40.965626Q62.8875 40.715626 63.8875 40.371876Q63.903126 40.0125 63.903126 39.903126Q63.903126 38.840626 63.403126 38.3875Q62.73125 37.79375 61.403126 37.79375Q60.153126 37.79375 59.559376 38.23125Q58.98125 38.66875 58.7 39.778126L56.98125 39.54375Q57.215626 38.434376 57.746876 37.7625Q58.278126 37.075 59.29375 36.715626Q60.309376 36.340626 61.653126 36.340626Q62.98125 36.340626 63.809376 36.653126Q64.6375 36.965626 65.02812 37.45Q65.41875 37.91875 65.575 38.6375Q65.66875 39.090626 65.66875 40.2625L65.66875 42.60625Q65.66875 45.059376 65.77812 45.715626Q65.8875 46.35625 66.23125 46.95L64.3875 46.95Q64.12187 46.403126 64.04375 45.66875ZM63.8875 41.746876Q62.934376 42.1375 61.0125 42.403126Q59.934376 42.559376 59.48125 42.7625Q59.04375 42.95 58.79375 43.325Q58.54375 43.7 58.54375 44.16875Q58.54375 44.871876 59.075 45.340626Q59.60625 45.809376 60.6375 45.809376Q61.653126 45.809376 62.434376 45.371876Q63.23125 44.91875 63.60625 44.153126Q63.8875 43.54375 63.8875 42.3875L63.8875 41.746876ZM68.2625 46.95L68.2625 36.575L69.85625 36.575L69.85625 38.059376Q70.99687 36.340626 73.15312 36.340626Q74.09062 36.340626 74.87187 36.684376Q75.66875 37.0125 76.05937 37.559376Q76.45 38.10625 76.60625 38.85625Q76.7 39.35625 76.7 40.575L76.7 46.95L74.93437 46.95L74.93437 40.6375Q74.93437 39.559376 74.73125 39.028126Q74.52812 38.496876 73.99687 38.184376Q73.48125 37.871876 72.77812 37.871876Q71.65312 37.871876 70.84062 38.590626Q70.02812 39.29375 70.02812 41.278126L70.02812 46.95L68.2625 46.95ZM86.04375 43.153126L87.7625 43.371876Q87.48125 45.16875 86.30937 46.184376Q85.15312 47.184376 83.45 47.184376Q81.325 47.184376 80.02812 45.79375Q78.73125 44.403126 78.73125 41.809376Q78.73125 40.121876 79.27812 38.871876Q79.84062 37.60625 80.98125 36.98125Q82.12187 36.340626 83.46562 36.340626Q85.15312 36.340626 86.21562 37.2Q87.29375 38.059376 87.60625 39.621876L85.8875 39.8875Q85.65312 38.840626 85.02812 38.325Q84.40312 37.79375 83.52812 37.79375Q82.2 37.79375 81.37187 38.746876Q80.54375 39.7 80.54375 41.746876Q80.54375 43.840626 81.34062 44.79375Q82.1375 45.73125 83.43437 45.73125Q84.46562 45.73125 85.15312 45.10625Q85.85625 44.465626 86.04375 43.153126ZM96.37187 43.60625L98.18437 43.840626Q97.7625 45.41875 96.59062 46.309376Q95.43437 47.184376 93.62187 47.184376Q91.35625 47.184376 90.0125 45.79375Q88.68437 44.3875 88.68437 41.85625Q88.68437 39.23125 90.02812 37.79375Q91.37187 36.340626 93.52812 36.340626Q95.60625 36.340626 96.91875 37.7625Q98.24687 39.16875 98.24687 41.746876Q98.24687 41.903126 98.23125 42.215626L90.49687 42.215626Q90.59062 43.91875 91.46562 44.825Q92.34062 45.73125 93.6375 45.73125Q94.60625 45.73125 95.27812 45.23125Q95.96562 44.715626 96.37187 43.60625ZM90.59062 40.7625L96.3875 40.7625Q96.27812 39.465626 95.73125 38.809376Q94.8875 37.79375 93.54375 37.79375Q92.34062 37.79375 91.5125 38.60625Q90.68437 39.403126 90.59062 40.7625Z" fill-rule="nonzero"/></svg>