<svg version="1.1" viewBox="0.0 0.0 904.0 559.0" fill="none" stroke="none" stroke-linecap="square" stroke-miterlimit="10" width="904" height="559" xmlns:xlink="http://www.w3.org/1999/xlink" xmlns="http://www.w3.org/2000/svg"><path fill="#ffffff" d="M0 0L904.0 0L904.0 559.0L0 559.0L0 0Z" fill-rule="nonzero"/><path fill="#5891ad" d="M452.0 122.38583C511.54214 122.38583 568.7689 138.5331 611.6665 167.43777L452.0 283.54916Z" fill-rule="nonzero"/><path fill="#003044" d="M682.23334 318.08417C682.23334 324.5007 681.6859 330.91153 680.594 337.28238L680.594 302.74738C681.6859 296.37653 682.23334 289.9657 682.23334 283.54916Z" fill-rule="nonzero"/><path fill="#004561" d="M611.6665 167.43777C663.6764 202.48236 689.1934 252.57416 680.594 302.74738L452.0 283.54916Z" fill-rule="nonzero"/><path fill="#b34e22" d="M680.594 337.28238C669.01733 404.82584 598.1005 460.00732 503.36758 475.18506L503.36758 440.65005C598.1005 425.47232 669.01733 370.29083 680.594 302.74738Z" fill-rule="nonzero"/><path fill="#ff6f31" d="M680.594 302.74738C669.01733 370.29083 598.1005 425.47232 503.36758 440.65005L452.0 283.54916Z" fill-rule="nonzero"/><path fill="#4cdc8b" d="M414.59628 124.52687C426.96017 123.10189 439.46964 122.38583 452.0 122.38583L452.0 283.54916Z" fill-rule="nonzero"/><path fill="#0f45a8" d="M368.67957 133.30971C383.51053 129.27945 398.89832 126.336105 414.59628 124.52687L452.0 283.54916Z" fill-rule="nonzero"/><path fill="#14535d" d="M503.36758 475.18506C435.04422 486.13156 363.3182 474.69586 308.50635 444.11713C253.69447 413.53842 221.76666 367.14725 221.76666 318.08417L221.76666 283.54916C221.76666 332.61224 253.69447 379.00342 308.50635 409.58212C363.3182 440.16086 435.04422 451.5966 503.36758 440.65005Z" fill-rule="nonzero"/><path fill="#1c7685" d="M503.36758 440.65005C385.7388 459.4961 267.28046 411.56967 231.8906 330.81464C196.50072 250.0596 256.18823 163.87881 368.67957 133.30971L452.0 283.54916Z" fill-rule="nonzero"/><path fill="#1a1a1a" d="M28.934376 109.40597L28.934376 99.39034L31.965626 99.39034L33.79375 106.21847L35.590626 99.39034L38.621876 99.39034L38.621876 109.40597L36.746876 109.40597L36.746876 101.51534L34.746876 109.40597L32.809376 109.40597L30.825 101.51534L30.825 109.40597L28.934376 109.40597ZM41.028126 109.40597L41.028126 99.46847L43.04375 99.46847L43.04375 107.71847L48.075 107.71847L48.075 109.40597L41.028126 109.40597ZM49.996876 109.40597L49.996876 99.39034L51.965626 99.39034L56.059376 106.07784L56.059376 99.39034L57.934376 99.39034L57.934376 109.40597L55.903126 109.40597L51.871876 102.87472L51.871876 109.40597L49.996876 109.40597Z" fill-rule="nonzero"/><path fill="#9e9e9e" d="M35.028126 127.624725L35.028126 129.40598L28.29375 129.40598Q28.403126 128.39035 28.95 127.4841Q29.496876 126.57785 31.121876 125.07785Q32.41875 123.874725 32.715626 123.437225Q33.10625 122.843475 33.10625 122.26535Q33.10625 121.624725 32.7625 121.280975Q32.41875 120.937225 31.809376 120.937225Q31.2 120.937225 30.840626 121.2966Q30.496876 121.655975 30.434376 122.499725L28.528126 122.312225Q28.7 120.718475 29.590626 120.030975Q30.496876 119.343475 31.85625 119.343475Q33.340626 119.343475 34.184376 120.14035Q35.028126 120.937225 35.028126 122.124725Q35.028126 122.812225 34.778126 123.4216Q34.54375 124.030975 34.028126 124.70285Q33.66875 125.14035 32.7625 125.9841Q31.85625 126.812225 31.60625 127.093475Q31.371876 127.3591 31.215626 127.624725L35.028126 127.624725ZM36.903126 127.4841L38.825 127.4841L38.825 128.8591Q38.825 129.68723 38.684376 130.1716Q38.54375 130.65598 38.1375 131.03098Q37.746876 131.4216 37.121876 131.64035L36.746876 130.84348Q37.325 130.65598 37.575 130.31223Q37.825 129.9841 37.840626 129.40598L36.903126 129.40598L36.903126 127.4841ZM47.059376 121.843475L45.2 122.0466Q45.121876 121.468475 44.825 121.20285Q44.54375 120.9216 44.090626 120.9216Q43.48125 120.9216 43.059376 121.468475Q42.6375 122.01535 42.528126 123.749725Q43.246876 122.89035 44.325 122.89035Q45.528126 122.89035 46.371876 123.812225Q47.23125 124.7341 47.23125 126.1716Q47.23125 127.718475 46.325 128.65598Q45.434376 129.57785 44.0125 129.57785Q42.496876 129.57785 41.5125 128.40598Q40.54375 127.218475 40.54375 124.530975Q40.54375 121.780975 41.559376 120.562225Q42.575 119.343475 44.215626 119.343475Q45.35625 119.343475 46.090626 119.9841Q46.840626 120.624725 47.059376 121.843475ZM42.7 126.030975Q42.7 126.968475 43.121876 127.4841Q43.559376 127.9841 44.10625 127.9841Q44.653126 127.9841 44.996876 127.57785Q45.35625 127.155975 45.35625 126.20285Q45.35625 125.218475 44.965626 124.76535Q44.590626 124.312225 44.0125 124.312225Q43.465626 124.312225 43.075 124.749725Q42.7 125.187225 42.7 126.030975ZM48.559376 121.8591Q48.559376 120.51535 49.153126 119.874725Q49.746876 119.218475 50.746876 119.218475Q51.79375 119.218475 52.3875 119.8591Q52.98125 120.499725 52.98125 121.8591Q52.98125 123.20285 52.3875 123.8591Q51.79375 124.499725 50.79375 124.499725Q49.746876 124.499725 49.153126 123.8591Q48.559376 123.218475 48.559376 121.8591ZM50.059376 121.843475Q50.059376 122.82785 50.278126 123.155975Q50.45 123.405975 50.746876 123.405975Q51.059376 123.405975 51.23125 123.155975Q51.45 122.82785 51.45 121.843475Q51.45 120.874725 51.23125 120.5466Q51.059376 120.280975 50.746876 120.280975Q50.45 120.280975 50.278126 120.530975Q50.059376 120.874725 50.059376 121.843475ZM52.215626 129.7966L50.79375 129.7966L56.1375 119.218475L57.5125 119.218475L52.215626 129.7966ZM55.325 127.155975Q55.325 125.812225 55.903126 125.1716Q56.496876 124.51535 57.528126 124.51535Q58.559376 124.51535 59.153126 125.1716Q59.746876 125.812225 59.746876 127.155975Q59.746876 128.51535 59.153126 129.1716Q58.559376 129.81223 57.54375 129.81223Q56.496876 129.81223 55.903126 129.1716Q55.325 128.51535 55.325 127.155975ZM56.809376 127.155975Q56.809376 128.12473 57.04375 128.45285Q57.215626 128.70285 57.5125 128.70285Q57.825 128.70285 57.98125 128.46848Q58.215626 128.12473 58.215626 127.155975Q58.215626 126.1716 57.996876 125.843475Q57.825 125.593475 57.5125 125.593475Q57.2 125.593475 57.04375 125.843475Q56.809376 126.1716 56.809376 127.155975Z" fill-rule="nonzero"/><path stroke="#757575" stroke-width="1.0" stroke-linecap="butt" d="M27.95 114.90597L215.76666 114.90597L434.17392 130.95334" fill-rule="nonzero"/><path fill="#9e9e9e" d="M436.17392 130.95334C436.17392 129.84877 435.2785 128.95334 434.17392 128.95334C433.06937 128.95334 432.17392 129.84877 432.17392 130.95334C432.17392 132.0579 433.06937 132.95334 434.17392 132.95334C435.2785 132.95334 436.17392 132.0579 436.17392 130.95334" fill-rule="nonzero"/><path fill="#1a1a1a" d="M28.965626 146.40598L28.965626 136.39035L32.215626 136.39035Q34.059376 136.39035 34.621876 136.53098Q35.48125 136.76535 36.059376 137.51535Q36.653126 138.26535 36.653126 139.46848Q36.653126 140.39035 36.309376 141.01535Q35.98125 141.64035 35.465626 141.99973Q34.95 142.3591 34.403126 142.4841Q33.684376 142.62473 32.309376 142.62473L30.996876 142.62473L30.996876 146.40598L28.965626 146.40598ZM30.996876 138.07785L30.996876 140.9216L32.10625 140.9216Q33.29375 140.9216 33.7 140.76535Q34.10625 140.6091 34.325 140.28098Q34.559376 139.93723 34.559376 139.49973Q34.559376 138.95285 34.23125 138.59348Q33.91875 138.2341 33.41875 138.14035Q33.059376 138.07785 31.965626 138.07785L30.996876 138.07785ZM37.996876 146.40598L37.996876 136.39035L39.965626 136.39035L44.059376 143.07785L44.059376 136.39035L45.934376 136.39035L45.934376 146.40598L43.903126 146.40598L39.871876 139.87473L39.871876 146.40598L37.996876 146.40598ZM50.23125 146.40598L50.23125 138.07785L47.246876 138.07785L47.246876 136.39035L55.215626 136.39035L55.215626 138.07785L52.246876 138.07785L52.246876 146.40598L50.23125 146.40598Z" fill-rule="nonzero"/><path fill="#9e9e9e" d="M28.48125 163.74973L30.340626 163.51535Q30.41875 164.2341 30.809376 164.6091Q31.2 164.9841 31.7625 164.9841Q32.35625 164.9841 32.7625 164.53098Q33.16875 164.07785 33.16875 163.31223Q33.16875 162.59348 32.778126 162.1716Q32.3875 161.74973 31.825 161.74973Q31.45 161.74973 30.95 161.89035L31.153126 160.32785Q31.934376 160.34348 32.340626 159.9841Q32.7625 159.62473 32.7625 159.03098Q32.7625 158.53098 32.45 158.2341Q32.153126 157.9216 31.653126 157.9216Q31.16875 157.9216 30.809376 158.26535Q30.465626 158.6091 30.3875 159.26535L28.621876 158.96848Q28.809376 158.0466 29.16875 157.51535Q29.54375 156.96848 30.215626 156.65598Q30.8875 156.34348 31.715626 156.34348Q33.121876 156.34348 33.98125 157.24973Q34.684376 157.9841 34.684376 158.90598Q34.684376 160.2341 33.246876 161.01535Q34.10625 161.20285 34.621876 161.84348Q35.1375 162.4841 35.1375 163.39035Q35.1375 164.71848 34.16875 165.65598Q33.2 166.57785 31.778126 166.57785Q30.41875 166.57785 29.5125 165.7966Q28.621876 165.01535 28.48125 163.74973ZM36.903126 164.4841L38.825 164.4841L38.825 165.8591Q38.825 166.68723 38.684376 167.1716Q38.54375 167.65598 38.1375 168.03098Q37.746876 168.4216 37.121876 168.64035L36.746876 167.84348Q37.325 167.65598 37.575 167.31223Q37.825 166.9841 37.840626 166.40598L36.903126 166.40598L36.903126 164.4841ZM40.48125 163.74973L42.340626 163.51535Q42.41875 164.2341 42.809376 164.6091Q43.2 164.9841 43.7625 164.9841Q44.35625 164.9841 44.7625 164.53098Q45.16875 164.07785 45.16875 163.31223Q45.16875 162.59348 44.778126 162.1716Q44.3875 161.74973 43.825 161.74973Q43.45 161.74973 42.95 161.89035L43.153126 160.32785Q43.934376 160.34348 44.340626 159.9841Q44.7625 159.62473 44.7625 159.03098Q44.7625 158.53098 44.45 158.2341Q44.153126 157.9216 43.653126 157.9216Q43.16875 157.9216 42.809376 158.26535Q42.465626 158.6091 42.3875 159.26535L40.621876 158.96848Q40.809376 158.0466 41.16875 157.51535Q41.54375 156.96848 42.215626 156.65598Q42.8875 156.34348 43.715626 156.34348Q45.121876 156.34348 45.98125 157.24973Q46.684376 157.9841 46.684376 158.90598Q46.684376 160.2341 45.246876 161.01535Q46.10625 161.20285 46.621876 161.84348Q47.1375 162.4841 47.1375 163.39035Q47.1375 164.71848 46.16875 165.65598Q45.2 166.57785 43.778126 166.57785Q42.41875 166.57785 41.5125 165.7966Q40.621876 165.01535 40.48125 163.74973ZM48.559376 158.8591Q48.559376 157.51535 49.153126 156.87473Q49.746876 156.21848 50.746876 156.21848Q51.79375 156.21848 52.3875 156.8591Q52.98125 157.49973 52.98125 158.8591Q52.98125 160.20285 52.3875 160.8591Q51.79375 161.49973 50.79375 161.49973Q49.746876 161.49973 49.153126 160.8591Q48.559376 160.21848 48.559376 158.8591ZM50.059376 158.84348Q50.059376 159.82785 50.278126 160.15598Q50.45 160.40598 50.746876 160.40598Q51.059376 160.40598 51.23125 160.15598Q51.45 159.82785 51.45 158.84348Q51.45 157.87473 51.23125 157.5466Q51.059376 157.28098 50.746876 157.28098Q50.45 157.28098 50.278126 157.53098Q50.059376 157.87473 50.059376 158.84348ZM52.215626 166.7966L50.79375 166.7966L56.1375 156.21848L57.5125 156.21848L52.215626 166.7966ZM55.325 164.15598Q55.325 162.81223 55.903126 162.1716Q56.496876 161.51535 57.528126 161.51535Q58.559376 161.51535 59.153126 162.1716Q59.746876 162.81223 59.746876 164.15598Q59.746876 165.51535 59.153126 166.1716Q58.559376 166.81223 57.54375 166.81223Q56.496876 166.81223 55.903126 166.1716Q55.325 165.51535 55.325 164.15598ZM56.809376 164.15598Q56.809376 165.12473 57.04375 165.45285Q57.215626 165.70285 57.5125 165.70285Q57.825 165.70285 57.98125 165.46848Q58.215626 165.12473 58.215626 164.15598Q58.215626 163.1716 57.996876 162.84348Q57.825 162.59348 57.5125 162.59348Q57.2 162.59348 57.04375 162.84348Q56.809376 163.1716 56.809376 164.15598Z" fill-rule="nonzero"/><path stroke="#757575" stroke-width="1.0" stroke-linecap="butt" d="M27.95 151.90598L215.76666 151.90598L394.34714 135.8586" fill-rule="nonzero"/><path fill="#9e9e9e" d="M396.34714 135.8586C396.34714 134.75403 395.45172 133.8586 394.34714 133.8586C393.24258 133.8586 392.34714 134.75403 392.34714 135.8586C392.34714 136.96317 393.24258 137.8586 394.34714 137.8586C395.45172 137.8586 396.34714 136.96317 396.34714 135.8586" fill-rule="nonzero"/><path fill="#1a1a1a" d="M28.95 312.93576L30.98125 312.93576L30.98125 318.35764Q30.98125 319.6545 31.059376 320.0295Q31.184376 320.6545 31.66875 321.0295Q32.16875 321.3889 33.0125 321.3889Q33.871876 321.3889 34.309376 321.04514Q34.746876 320.68576 34.825 320.18576Q34.91875 319.67014 34.91875 318.467L34.91875 312.93576L36.95 312.93576L36.95 318.18576Q36.95 319.99826 36.778126 320.74826Q36.621876 321.48264 36.16875 321.99826Q35.73125 322.5139 34.996876 322.8264Q34.2625 323.12326 33.075 323.12326Q31.6375 323.12326 30.8875 322.79514Q30.153126 322.4514 29.715626 321.93576Q29.29375 321.4045 29.153126 320.81076Q28.95 319.9514 28.95 318.2795L28.95 312.93576ZM38.934376 322.9514L38.934376 312.93576L41.965626 312.93576L43.79375 319.7639L45.590626 312.93576L48.621876 312.93576L48.621876 322.9514L46.746876 322.9514L46.746876 315.06076L44.746876 322.9514L42.809376 322.9514L40.825 315.06076L40.825 322.9514L38.934376 322.9514ZM60.0125 322.9514L57.809376 322.9514L56.934376 320.67014L52.91875 320.67014L52.090626 322.9514L49.95 322.9514L53.85625 312.93576L55.996876 312.93576L60.0125 322.9514ZM56.278126 318.98264L54.903126 315.2639L53.54375 318.98264L56.278126 318.98264Z" fill-rule="nonzero"/><path fill="#9e9e9e" d="M32.309376 342.9514L32.309376 340.93576L28.215626 340.93576L28.215626 339.24826L32.559376 332.8889L34.16875 332.8889L34.16875 339.24826L35.41875 339.24826L35.41875 340.93576L34.16875 340.93576L34.16875 342.9514L32.309376 342.9514ZM32.309376 339.24826L32.309376 335.8264L30.0125 339.24826L32.309376 339.24826ZM36.54375 334.85764L36.54375 333.06076L43.121876 333.06076L43.121876 334.467Q42.29375 335.2639 41.45 336.7639Q40.621876 338.24826 40.16875 339.93576Q39.73125 341.62326 39.746876 342.9514L37.8875 342.9514Q37.934376 340.87326 38.746876 338.717Q39.559376 336.54514 40.91875 334.85764L36.54375 334.85764ZM44.903126 341.0295L46.825 341.0295L46.825 342.4045Q46.825 343.23264 46.684376 343.717Q46.54375 344.2014 46.1375 344.5764Q45.746876 344.967 45.121876 345.18576L44.746876 344.3889Q45.325 344.2014 45.575 343.85764Q45.825 343.5295 45.840626 342.9514L44.903126 342.9514L44.903126 341.0295ZM48.54375 334.85764L48.54375 333.06076L55.121876 333.06076L55.121876 334.467Q54.29375 335.2639 53.45 336.7639Q52.621876 338.24826 52.16875 339.93576Q51.73125 341.62326 51.746876 342.9514L49.8875 342.9514Q49.934376 340.87326 50.746876 338.717Q51.559376 336.54514 52.91875 334.85764L48.54375 334.85764ZM56.559376 335.4045Q56.559376 334.06076 57.153126 333.42014Q57.746876 332.7639 58.746876 332.7639Q59.79375 332.7639 60.3875 333.4045Q60.98125 334.04514 60.98125 335.4045Q60.98125 336.74826 60.3875 337.4045Q59.79375 338.04514 58.79375 338.04514Q57.746876 338.04514 57.153126 337.4045Q56.559376 336.7639 56.559376 335.4045ZM58.059376 335.3889Q58.059376 336.37326 58.278126 336.7014Q58.45 336.9514 58.746876 336.9514Q59.059376 336.9514 59.23125 336.7014Q59.45 336.37326 59.45 335.3889Q59.45 334.42014 59.23125 334.092Q59.059376 333.8264 58.746876 333.8264Q58.45 333.8264 58.278126 334.0764Q58.059376 334.42014 58.059376 335.3889ZM60.215626 343.342L58.79375 343.342L64.1375 332.7639L65.5125 332.7639L60.215626 343.342ZM63.325 340.7014Q63.325 339.35764 63.903126 338.717Q64.49687 338.06076 65.52812 338.06076Q66.55937 338.06076 67.15312 338.717Q67.74687 339.35764 67.74687 340.7014Q67.74687 342.06076 67.15312 342.717Q66.55937 343.35764 65.54375 343.35764Q64.49687 343.35764 63.903126 342.717Q63.325 342.06076 63.325 340.7014ZM64.80937 340.7014Q64.80937 341.67014 65.04375 341.99826Q65.21562 342.24826 65.5125 342.24826Q65.825 342.24826 65.98125 342.0139Q66.21562 341.67014 66.21562 340.7014Q66.21562 339.717 65.99687 339.3889Q65.825 339.1389 65.5125 339.1389Q65.2 339.1389 65.04375 339.3889Q64.80937 339.717 64.80937 340.7014Z" fill-rule="nonzero"/><path stroke="#757575" stroke-width="1.0" stroke-linecap="butt" d="M27.95 328.4514L215.76666 328.4514L242.89606 328.4514" fill-rule="nonzero"/><path fill="#9e9e9e" d="M244.89606 328.4514C244.89606 327.3468 244.00063 326.4514 242.89606 326.4514C241.79149 326.4514 240.89606 327.3468 240.89606 328.4514C240.89606 329.55594 241.79149 330.4514 242.89606 330.4514C244.00063 330.4514 244.89606 329.55594 244.89606 328.4514" fill-rule="nonzero"/><path fill="#1a1a1a" d="M848.08124 126.03075L852.08124 126.03075Q853.26874 126.03075 853.84686 126.1245Q854.4406 126.21825 854.89374 126.54637Q855.3625 126.85887 855.65936 127.3745Q855.97186 127.89012 855.97186 128.54637Q855.97186 129.2495 855.59686 129.84325Q855.22186 130.42137 854.5656 130.71825Q855.4875 130.98387 855.97186 131.6245Q856.47186 132.26512 856.47186 133.14012Q856.47186 133.82762 856.14374 134.46825Q855.83124 135.10887 855.28436 135.4995Q854.7375 135.89012 853.925 135.98387Q853.425 136.03075 851.4875 136.04637L848.08124 136.04637L848.08124 126.03075ZM850.09686 127.687L850.09686 130.01512L851.425 130.01512Q852.6125 130.01512 852.89374 129.96825Q853.40936 129.92137 853.70624 129.6245Q854.0031 129.312 854.0031 128.82762Q854.0031 128.3745 853.7531 128.07762Q853.5031 127.78075 852.9875 127.73387Q852.6906 127.687 851.26874 127.687L850.09686 127.687ZM850.09686 131.67137L850.09686 134.35887L851.97186 134.35887Q853.0656 134.35887 853.3625 134.29637Q853.8156 134.21825 854.09686 133.90575Q854.3781 133.57762 854.3781 133.04637Q854.3781 132.59325 854.15936 132.28075Q853.9406 131.96825 853.51874 131.82762Q853.1125 131.67137 851.7375 131.67137L850.09686 131.67137ZM867.1125 136.04637L864.90936 136.04637L864.03436 133.76512L860.01874 133.76512L859.1906 136.04637L857.05 136.04637L860.95624 126.03075L863.09686 126.03075L867.1125 136.04637ZM863.3781 132.07762L862.0031 128.35887L860.64374 132.07762L863.3781 132.07762ZM868.1281 136.04637L868.1281 126.10887L870.14374 126.10887L870.14374 134.35887L875.175 134.35887L875.175 136.04637L868.1281 136.04637Z" fill-rule="nonzero"/><path fill="#9e9e9e" d="M841.5656 156.04637L839.64374 156.04637L839.64374 148.812Q838.58124 149.79637 837.15936 150.26512L837.15936 148.51512Q837.90936 148.28075 838.78436 147.59325Q839.675 146.90575 840.0031 145.98387L841.5656 145.98387L841.5656 156.04637ZM851.1281 154.26512L851.1281 156.04637L844.39374 156.04637Q844.5031 155.03075 845.05 154.1245Q845.59686 153.21825 847.22186 151.71825Q848.51874 150.51512 848.8156 150.07762Q849.20624 149.48387 849.20624 148.90575Q849.20624 148.26512 848.8625 147.92137Q848.51874 147.57762 847.90936 147.57762Q847.3 147.57762 846.9406 147.937Q846.59686 148.29637 846.53436 149.14012L844.6281 148.95262Q844.8 147.35887 845.6906 146.67137Q846.59686 145.98387 847.95624 145.98387Q849.4406 145.98387 850.28436 146.78075Q851.1281 147.57762 851.1281 148.76512Q851.1281 149.45262 850.8781 150.062Q850.64374 150.67137 850.1281 151.34325Q849.76874 151.78075 848.8625 152.6245Q847.95624 153.45262 847.70624 153.73387Q847.47186 153.9995 847.3156 154.26512L851.1281 154.26512ZM853.0031 154.1245L854.925 154.1245L854.925 155.4995Q854.925 156.32762 854.78436 156.812Q854.64374 157.29637 854.2375 157.67137Q853.84686 158.062 853.22186 158.28075L852.84686 157.48387Q853.425 157.29637 853.675 156.95262Q853.925 156.6245 853.9406 156.04637L853.0031 156.04637L853.0031 154.1245ZM863.1281 154.26512L863.1281 156.04637L856.39374 156.04637Q856.5031 155.03075 857.05 154.1245Q857.59686 153.21825 859.22186 151.71825Q860.51874 150.51512 860.8156 150.07762Q861.20624 149.48387 861.20624 148.90575Q861.20624 148.26512 860.8625 147.92137Q860.51874 147.57762 859.90936 147.57762Q859.3 147.57762 858.9406 147.937Q858.59686 148.29637 858.53436 149.14012L856.6281 148.95262Q856.8 147.35887 857.6906 146.67137Q858.59686 145.98387 859.95624 145.98387Q861.4406 145.98387 862.28436 146.78075Q863.1281 147.57762 863.1281 148.76512Q863.1281 149.45262 862.8781 150.062Q862.64374 150.67137 862.1281 151.34325Q861.76874 151.78075 860.8625 152.6245Q859.95624 153.45262 859.70624 153.73387Q859.47186 153.9995 859.3156 154.26512L863.1281 154.26512ZM864.65936 148.4995Q864.65936 147.15575 865.2531 146.51512Q865.84686 145.85887 866.84686 145.85887Q867.89374 145.85887 868.4875 146.4995Q869.08124 147.14012 869.08124 148.4995Q869.08124 149.84325 868.4875 150.4995Q867.89374 151.14012 866.89374 151.14012Q865.84686 151.14012 865.2531 150.4995Q864.65936 149.85887 864.65936 148.4995ZM866.15936 148.48387Q866.15936 149.46825 866.3781 149.79637Q866.55 150.04637 866.84686 150.04637Q867.15936 150.04637 867.33124 149.79637Q867.55 149.46825 867.55 148.48387Q867.55 147.51512 867.33124 147.187Q867.15936 146.92137 866.84686 146.92137Q866.55 146.92137 866.3781 147.17137Q866.15936 147.51512 866.15936 148.48387ZM868.3156 156.437L866.89374 156.437L872.2375 145.85887L873.6125 145.85887L868.3156 156.437ZM871.425 153.79637Q871.425 152.45262 872.0031 151.812Q872.59686 151.15575 873.6281 151.15575Q874.65936 151.15575 875.2531 151.812Q875.84686 152.45262 875.84686 153.79637Q875.84686 155.15575 875.2531 155.812Q874.65936 156.45262 873.64374 156.45262Q872.59686 156.45262 872.0031 155.812Q871.425 155.15575 871.425 153.79637ZM872.90936 153.79637Q872.90936 154.76512 873.14374 155.09325Q873.3156 155.34325 873.6125 155.34325Q873.925 155.34325 874.08124 155.10887Q874.3156 154.76512 874.3156 153.79637Q874.3156 152.812 874.09686 152.48387Q873.925 152.23387 873.6125 152.23387Q873.3 152.23387 873.14374 152.48387Q872.90936 152.812 872.90936 153.79637Z" fill-rule="nonzero"/><path stroke="#757575" stroke-width="1.0" stroke-linecap="butt" d="M876.05 141.54637L688.23334 141.54637L533.7712 141.54637" fill-rule="nonzero"/><path fill="#9e9e9e" d="M535.7712 141.54637C535.7712 140.4418 534.8758 139.54637 533.7712 139.54637C532.6666 139.54637 531.7712 140.4418 531.7712 141.54637C531.7712 142.65094 532.6666 143.54637 533.7712 143.54637C534.8758 143.54637 535.7712 142.65094 535.7712 141.54637" fill-rule="nonzero"/><path fill="#1a1a1a" d="M848.1281 226.62584L848.1281 216.68834L850.14374 216.68834L850.14374 224.93834L855.175 224.93834L855.175 226.62584L848.1281 226.62584ZM857.08124 226.62584L857.08124 216.61021L861.33124 216.61021Q862.9406 216.61021 863.65936 216.87584Q864.39374 217.14146 864.83124 217.84459Q865.26874 218.53209 865.26874 219.40709Q865.26874 220.54771 864.59686 221.28209Q863.9406 222.01646 862.6281 222.20396Q863.28436 222.57896 863.70624 223.04771Q864.14374 223.50084 864.8625 224.67271L866.08124 226.62584L863.65936 226.62584L862.20624 224.43834Q861.425 223.28209 861.1281 222.98521Q860.84686 222.67271 860.51874 222.56334Q860.20624 222.43834 859.5031 222.43834L859.09686 222.43834L859.09686 226.62584L857.08124 226.62584ZM859.09686 220.84459L860.59686 220.84459Q862.05 220.84459 862.40936 220.71959Q862.78436 220.59459 862.9875 220.29771Q863.1906 220.00084 863.1906 219.54771Q863.1906 219.03209 862.90936 218.73521Q862.64374 218.42271 862.15936 218.32896Q861.90936 218.29771 860.675 218.29771L859.09686 218.29771L859.09686 220.84459ZM873.4875 222.93834L875.4406 223.56334Q874.9875 225.20396 873.9406 226.00084Q872.89374 226.79771 871.28436 226.79771Q869.28436 226.79771 867.9875 225.43834Q866.70624 224.06334 866.70624 221.70396Q866.70624 219.20396 868.0031 217.82896Q869.3 216.43834 871.40936 216.43834Q873.2375 216.43834 874.39374 217.51646Q875.08124 218.15709 875.40936 219.36021L873.40936 219.84459Q873.2375 219.06334 872.675 218.61021Q872.1125 218.15709 871.3 218.15709Q870.1906 218.15709 869.4875 218.96959Q868.8 219.76646 868.8 221.54771Q868.8 223.45396 869.47186 224.26646Q870.15936 225.06334 871.2531 225.06334Q872.0656 225.06334 872.64374 224.56334Q873.22186 224.04771 873.4875 222.93834Z" fill-rule="nonzero"/><path fill="#9e9e9e" d="M841.5656 246.62584L839.64374 246.62584L839.64374 239.39146Q838.58124 240.37584 837.15936 240.84459L837.15936 239.09459Q837.90936 238.86021 838.78436 238.17271Q839.675 237.48521 840.0031 236.56334L841.5656 236.56334L841.5656 246.62584ZM848.40936 246.62584L848.40936 244.61021L844.3156 244.61021L844.3156 242.92271L848.65936 236.56334L850.26874 236.56334L850.26874 242.92271L851.51874 242.92271L851.51874 244.61021L850.26874 244.61021L850.26874 246.62584L848.40936 246.62584ZM848.40936 242.92271L848.40936 239.50084L846.1125 242.92271L848.40936 242.92271ZM853.0031 244.70396L854.925 244.70396L854.925 246.07896Q854.925 246.90709 854.78436 247.39146Q854.64374 247.87584 854.2375 248.25084Q853.84686 248.64146 853.22186 248.86021L852.84686 248.06334Q853.425 247.87584 853.675 247.53209Q853.925 247.20396 853.9406 246.62584L853.0031 246.62584L853.0031 244.70396ZM856.64374 238.53209L856.64374 236.73521L863.22186 236.73521L863.22186 238.14146Q862.39374 238.93834 861.55 240.43834Q860.72186 241.92271 860.26874 243.61021Q859.83124 245.29771 859.84686 246.62584L857.9875 246.62584Q858.03436 244.54771 858.84686 242.39146Q859.65936 240.21959 861.01874 238.53209L856.64374 238.53209ZM864.65936 239.07896Q864.65936 237.73521 865.2531 237.09459Q865.84686 236.43834 866.84686 236.43834Q867.89374 236.43834 868.4875 237.07896Q869.08124 237.71959 869.08124 239.07896Q869.08124 240.42271 868.4875 241.07896Q867.89374 241.71959 866.89374 241.71959Q865.84686 241.71959 865.2531 241.07896Q864.65936 240.43834 864.65936 239.07896ZM866.15936 239.06334Q866.15936 240.04771 866.3781 240.37584Q866.55 240.62584 866.84686 240.62584Q867.15936 240.62584 867.33124 240.37584Q867.55 240.04771 867.55 239.06334Q867.55 238.09459 867.33124 237.76646Q867.15936 237.50084 866.84686 237.50084Q866.55 237.50084 866.3781 237.75084Q866.15936 238.09459 866.15936 239.06334ZM868.3156 247.01646L866.89374 247.01646L872.2375 236.43834L873.6125 236.43834L868.3156 247.01646ZM871.425 244.37584Q871.425 243.03209 872.0031 242.39146Q872.59686 241.73521 873.6281 241.73521Q874.65936 241.73521 875.2531 242.39146Q875.84686 243.03209 875.84686 244.37584Q875.84686 245.73521 875.2531 246.39146Q874.65936 247.03209 873.64374 247.03209Q872.59686 247.03209 872.0031 246.39146Q871.425 245.73521 871.425 244.37584ZM872.90936 244.37584Q872.90936 245.34459 873.14374 245.67271Q873.3156 245.92271 873.6125 245.92271Q873.925 245.92271 874.08124 245.68834Q874.3156 245.34459 874.3156 244.37584Q874.3156 243.39146 874.09686 243.06334Q873.925 242.81334 873.6125 242.81334Q873.3 242.81334 873.14374 243.06334Q872.90936 243.39146 872.90936 244.37584Z" fill-rule="nonzero"/><path stroke="#757575" stroke-width="1.0" stroke-linecap="butt" d="M876.05 232.12584L688.23334 232.12584L658.0158 232.12584" fill-rule="nonzero"/><path fill="#9e9e9e" d="M660.0158 232.12584C660.0158 231.02126 659.12036 230.12584 658.0158 230.12584C656.91125 230.12584 656.0158 231.02126 656.0158 232.12584C656.0158 233.23041 656.91125 234.12584 658.0158 234.12584C659.12036 234.12584 660.0158 233.23041 660.0158 232.12584" fill-rule="nonzero"/><path fill="#1a1a1a" d="M848.08124 380.44653L848.08124 370.4309L852.33124 370.4309Q853.9406 370.4309 854.65936 370.69653Q855.39374 370.96216 855.83124 371.66528Q856.26874 372.35278 856.26874 373.22778Q856.26874 374.3684 855.59686 375.10278Q854.9406 375.83716 853.6281 376.02466Q854.28436 376.39966 854.70624 376.8684Q855.14374 377.32153 855.8625 378.4934L857.08124 380.44653L854.65936 380.44653L853.20624 378.25903Q852.425 377.10278 852.1281 376.8059Q851.84686 376.4934 851.51874 376.38403Q851.20624 376.25903 850.5031 376.25903L850.09686 376.25903L850.09686 380.44653L848.08124 380.44653ZM850.09686 374.66528L851.59686 374.66528Q853.05 374.66528 853.40936 374.54028Q853.78436 374.41528 853.9875 374.1184Q854.1906 373.82153 854.1906 373.3684Q854.1906 372.85278 853.90936 372.5559Q853.64374 372.2434 853.15936 372.14966Q852.90936 372.1184 851.675 372.1184L850.09686 372.1184L850.09686 374.66528ZM858.0656 380.44653L858.0656 370.4309L865.5031 370.4309L865.5031 372.1184L860.09686 372.1184L860.09686 374.33716L865.1281 374.33716L865.1281 376.02466L860.09686 376.02466L860.09686 378.75903L865.6906 378.75903L865.6906 380.44653L858.0656 380.44653ZM867.09686 380.44653L867.09686 370.4309L869.0656 370.4309L873.15936 377.1184L873.15936 370.4309L875.03436 370.4309L875.03436 380.44653L873.0031 380.44653L868.97186 373.91528L868.97186 380.44653L867.09686 380.44653Z" fill-rule="nonzero"/><path fill="#9e9e9e" d="M841.5656 400.44653L839.64374 400.44653L839.64374 393.21216Q838.58124 394.19653 837.15936 394.66528L837.15936 392.91528Q837.90936 392.6809 838.78436 391.9934Q839.675 391.3059 840.0031 390.38403L841.5656 390.38403L841.5656 400.44653ZM844.6906 398.13403L846.55 397.9309Q846.6125 398.4934 846.89374 398.77466Q847.1906 399.04028 847.65936 399.04028Q848.2531 399.04028 848.65936 398.4934Q849.08124 397.94653 849.20624 396.22778Q848.4875 397.0559 847.39374 397.0559Q846.20624 397.0559 845.34686 396.14966Q844.4875 395.2434 844.4875 393.77466Q844.4875 392.2434 845.39374 391.32153Q846.3 390.38403 847.70624 390.38403Q849.2375 390.38403 850.20624 391.57153Q851.1906 392.7434 851.1906 395.44653Q851.1906 398.19653 850.15936 399.41528Q849.14374 400.6184 847.51874 400.6184Q846.34686 400.6184 845.6125 399.9934Q844.89374 399.3684 844.6906 398.13403ZM849.03436 393.9309Q849.03436 393.00903 848.59686 392.4934Q848.175 391.97778 847.6125 391.97778Q847.08124 391.97778 846.72186 392.39966Q846.3781 392.82153 846.3781 393.77466Q846.3781 394.7434 846.7531 395.19653Q847.14374 395.64966 847.72186 395.64966Q848.26874 395.64966 848.64374 395.21216Q849.03436 394.77466 849.03436 393.9309ZM853.0031 398.52466L854.925 398.52466L854.925 399.89966Q854.925 400.72778 854.78436 401.21216Q854.64374 401.69653 854.2375 402.07153Q853.84686 402.46216 853.22186 402.6809L852.84686 401.88403Q853.425 401.69653 853.675 401.35278Q853.925 401.02466 853.9406 400.44653L853.0031 400.44653L853.0031 398.52466ZM856.675 397.8684L858.58124 397.66528Q858.675 398.32153 859.0656 398.69653Q859.47186 399.07153 860.0031 399.07153Q860.59686 399.07153 861.01874 398.58716Q861.4406 398.10278 861.4406 397.1184Q861.4406 396.19653 861.01874 395.7434Q860.6125 395.27466 859.9406 395.27466Q859.1125 395.27466 858.45624 396.00903L856.90936 395.77466L857.89374 390.5559L862.97186 390.5559L862.97186 392.35278L859.34686 392.35278L859.05 394.0559Q859.6906 393.7434 860.3625 393.7434Q861.6281 393.7434 862.51874 394.6809Q863.40936 395.60278 863.40936 397.08716Q863.40936 398.32153 862.6906 399.29028Q861.72186 400.6184 859.9875 400.6184Q858.59686 400.6184 857.72186 399.88403Q856.84686 399.13403 856.675 397.8684ZM864.65936 392.89966Q864.65936 391.5559 865.2531 390.91528Q865.84686 390.25903 866.84686 390.25903Q867.89374 390.25903 868.4875 390.89966Q869.08124 391.54028 869.08124 392.89966Q869.08124 394.2434 868.4875 394.89966Q867.89374 395.54028 866.89374 395.54028Q865.84686 395.54028 865.2531 394.89966Q864.65936 394.25903 864.65936 392.89966ZM866.15936 392.88403Q866.15936 393.8684 866.3781 394.19653Q866.55 394.44653 866.84686 394.44653Q867.15936 394.44653 867.33124 394.19653Q867.55 393.8684 867.55 392.88403Q867.55 391.91528 867.33124 391.58716Q867.15936 391.32153 866.84686 391.32153Q866.55 391.32153 866.3781 391.57153Q866.15936 391.91528 866.15936 392.88403ZM868.3156 400.83716L866.89374 400.83716L872.2375 390.25903L873.6125 390.25903L868.3156 400.83716ZM871.425 398.19653Q871.425 396.85278 872.0031 396.21216Q872.59686 395.5559 873.6281 395.5559Q874.65936 395.5559 875.2531 396.21216Q875.84686 396.85278 875.84686 398.19653Q875.84686 399.5559 875.2531 400.21216Q874.65936 400.85278 873.64374 400.85278Q872.59686 400.85278 872.0031 400.21216Q871.425 399.5559 871.425 398.19653ZM872.90936 398.19653Q872.90936 399.16528 873.14374 399.4934Q873.3156 399.7434 873.6125 399.7434Q873.925 399.7434 874.08124 399.50903Q874.3156 399.16528 874.3156 398.19653Q874.3156 397.21216 874.09686 396.88403Q873.925 396.63403 873.6125 396.63403Q873.3 396.63403 873.14374 396.88403Q872.90936 397.21216 872.90936 398.19653Z" fill-rule="nonzero"/><path stroke="#757575" stroke-width="1.0" stroke-linecap="butt" d="M876.05 385.94653L688.23334 385.94653L614.60614 385.94653" fill-rule="nonzero"/><path fill="#9e9e9e" d="M616.60614 385.94653C616.60614 384.84195 615.71075 383.94653 614.60614 383.94653C613.5016 383.94653 612.60614 384.84195 612.60614 385.94653C612.60614 387.0511 613.5016 387.94653 614.60614 387.94653C615.71075 387.94653 616.60614 387.0511 616.60614 385.94653" fill-rule="nonzero"/><path fill="#000000" d="M29.496876 46.95L29.496876 32.6375L34.8875 32.6375Q36.325 32.6375 37.075 32.7625Q38.121876 32.95 38.840626 33.45Q39.559376 33.934376 39.98125 34.825Q40.41875 35.715626 40.41875 36.778126Q40.41875 38.60625 39.246876 39.871876Q38.090626 41.121876 35.059376 41.121876L31.3875 41.121876L31.3875 46.95L29.496876 46.95ZM31.3875 39.434376L35.090626 39.434376Q36.91875 39.434376 37.684376 38.7625Q38.465626 38.075 38.465626 36.825Q38.465626 35.934376 38.0125 35.29375Q37.559376 34.653126 36.825 34.45Q36.340626 34.325 35.04375 34.325L31.3875 34.325L31.3875 39.434376ZM42.278126 34.653126L42.278126 32.6375L44.04375 32.6375L44.04375 34.653126L42.278126 34.653126ZM42.278126 46.95L42.278126 36.575L44.04375 36.575L44.04375 46.95L42.278126 46.95ZM53.371876 43.60625L55.184376 43.840626Q54.7625 45.41875 53.590626 46.309376Q52.434376 47.184376 50.621876 47.184376Q48.35625 47.184376 47.0125 45.79375Q45.684376 44.3875 45.684376 41.85625Q45.684376 39.23125 47.028126 37.79375Q48.371876 36.340626 50.528126 36.340626Q52.60625 36.340626 53.91875 37.7625Q55.246876 39.16875 55.246876 41.746876Q55.246876 41.903126 55.23125 42.215626L47.496876 42.215626Q47.590626 43.91875 48.465626 44.825Q49.340626 45.73125 50.6375 45.73125Q51.60625 45.73125 52.278126 45.23125Q52.965626 44.715626 53.371876 43.60625ZM47.590626 40.7625L53.3875 40.7625Q53.278126 39.465626 52.73125 38.809376Q51.8875 37.79375 50.54375 37.79375Q49.340626 37.79375 48.5125 38.60625Q47.684376 39.403126 47.590626 40.7625ZM57.496876 46.95L57.496876 32.6375L62.41875 32.6375Q64.09062 32.6375 64.98125 32.840626Q66.2 33.121876 67.075 33.85625Q68.2 34.825 68.7625 36.309376Q69.325 37.79375 69.325 39.715626Q69.325 41.340626 68.95 42.60625Q68.575 43.85625 67.96562 44.684376Q67.37187 45.5125 66.66875 45.996876Q65.96562 46.465626 64.96562 46.715626Q63.965626 46.95 62.653126 46.95L57.496876 46.95ZM59.3875 45.2625L62.45 45.2625Q63.85625 45.2625 64.65312 44.996876Q65.46562 44.73125 65.95 44.246876Q66.62187 43.575 66.99687 42.45Q67.37187 41.309376 67.37187 39.684376Q67.37187 37.434376 66.6375 36.23125Q65.90312 35.028126 64.84062 34.621876Q64.09062 34.325 62.403126 34.325L59.3875 34.325L59.3875 45.2625ZM69.91875 46.95L75.41875 32.6375L77.46562 32.6375L83.325 46.95L81.16875 46.95L79.49687 42.60625L73.5125 42.60625L71.93437 46.95L69.91875 46.95ZM74.05937 41.075L78.90312 41.075L77.41875 37.10625Q76.73125 35.29375 76.40312 34.1375Q76.12187 35.5125 75.62187 36.871876L74.05937 41.075ZM83.91875 39.98125Q83.91875 36.41875 85.825 34.403126Q87.74687 32.371876 90.77812 32.371876Q92.7625 32.371876 94.34062 33.325Q95.93437 34.278126 96.7625 35.98125Q97.60625 37.66875 97.60625 39.809376Q97.60625 41.98125 96.73125 43.7Q95.85625 45.41875 94.23125 46.309376Q92.62187 47.2 90.7625 47.2Q88.74687 47.2 87.15312 46.23125Q85.55937 45.246876 84.73125 43.559376Q83.91875 41.85625 83.91875 39.98125ZM85.87187 40.0125Q85.87187 42.590626 87.2625 44.090626Q88.65312 45.575 90.74687 45.575Q92.8875 45.575 94.2625 44.075Q95.65312 42.559376 95.65312 39.79375Q95.65312 38.059376 95.05937 36.7625Q94.48125 35.45 93.34062 34.73125Q92.2 34.0125 90.77812 34.0125Q88.77812 34.0125 87.325 35.403126Q85.87187 36.778126 85.87187 40.0125ZM106.49687 46.95L106.49687 32.6375L111.41875 32.6375Q113.09062 32.6375 113.98125 32.840626Q115.2 33.121876 116.075 33.85625Q117.2 34.825 117.7625 36.309376Q118.325 37.79375 118.325 39.715626Q118.325 41.340626 117.95 42.60625Q117.575 43.85625 116.96562 44.684376Q116.37187 45.5125 115.66875 45.996876Q114.96562 46.465626 113.96562 46.715626Q112.96562 46.95 111.65312 46.95L106.49687 46.95ZM108.3875 45.2625L111.45 45.2625Q112.85625 45.2625 113.65312 44.996876Q114.46562 44.73125 114.95 44.246876Q115.62187 43.575 115.99687 42.45Q116.37187 41.309376 116.37187 39.684376Q116.37187 37.434376 115.6375 36.23125Q114.90312 35.028126 113.84062 34.621876Q113.09062 34.325 111.40312 34.325L108.3875 34.325L108.3875 45.2625ZM120.52812 46.95L120.52812 32.6375L130.8875 32.6375L130.8875 34.325L122.43437 34.325L122.43437 38.7L130.34062 38.7L130.34062 40.3875L122.43437 40.3875L122.43437 45.2625L131.21562 45.2625L131.21562 46.95L120.52812 46.95ZM133.59062 46.95L133.59062 32.6375L143.24687 32.6375L143.24687 34.325L135.48125 34.325L135.48125 38.7625L142.2 38.7625L142.2 40.45L135.48125 40.45L135.48125 46.95L133.59062 46.95ZM145.80937 46.95L145.80937 32.6375L147.71562 32.6375L147.71562 46.95L145.80937 46.95ZM154.96562 44.6375L154.96562 40.715626L151.05937 40.715626L151.05937 39.075L154.96562 39.075L154.96562 35.16875L156.62187 35.16875L156.62187 39.075L160.5125 39.075L160.5125 40.715626L156.62187 40.715626L156.62187 44.6375L154.96562 44.6375ZM162.85625 42.35625L164.6375 42.2Q164.7625 43.2625 165.21562 43.95Q165.68437 44.6375 166.65312 45.075Q167.6375 45.496876 168.87187 45.496876Q169.95 45.496876 170.77812 45.184376Q171.60625 44.85625 172.0125 44.29375Q172.41875 43.73125 172.41875 43.059376Q172.41875 42.3875 172.02812 41.8875Q171.6375 41.3875 170.74687 41.04375Q170.16875 40.809376 168.18437 40.340626Q166.21562 39.871876 165.43437 39.45Q164.40312 38.91875 163.90312 38.121876Q163.40312 37.325 163.40312 36.340626Q163.40312 35.246876 164.0125 34.309376Q164.62187 33.371876 165.80937 32.8875Q166.99687 32.3875 168.43437 32.3875Q170.02812 32.3875 171.24687 32.903126Q172.46562 33.41875 173.10625 34.41875Q173.7625 35.403126 173.80937 36.66875L171.99687 36.809376Q171.85625 35.45 171.0125 34.7625Q170.16875 34.059376 168.5125 34.059376Q166.79375 34.059376 165.99687 34.7Q165.21562 35.325 165.21562 36.2Q165.21562 36.98125 165.77812 37.48125Q166.325 37.98125 168.6375 38.496876Q170.95 39.0125 171.80937 39.403126Q173.05937 39.98125 173.65312 40.871876Q174.24687 41.746876 174.24687 42.903126Q174.24687 44.04375 173.59062 45.059376Q172.93437 46.075 171.7 46.6375Q170.48125 47.2 168.95 47.2Q167.0125 47.2 165.7 46.6375Q164.3875 46.059376 163.6375 44.91875Q162.8875 43.778126 162.85625 42.35625Z" fill-rule="nonzero"/></svg>