<svg version="1.1" viewBox="0.0 0.0 904.0 559.0" fill="none" stroke="none" stroke-linecap="square" stroke-miterlimit="10" width="904" height="559" xmlns:xlink="http://www.w3.org/1999/xlink" xmlns="http://www.w3.org/2000/svg"><path fill="#ffffff" d="M0 0L904.0 0L904.0 559.0L0 559.0L0 0Z" fill-rule="nonzero"/><path fill="#5891ad" d="M452.0 122.38583C546.3632 122.38583 631.17303 162.69254 665.98926 224.08633L452.0 283.54916Z" fill-rule="nonzero"/><path fill="#003044" d="M682.23334 318.08417C682.23334 359.88483 659.03186 400.05023 617.52606 430.10278L617.52606 395.56778C659.03186 365.51523 682.23334 325.34982 682.23334 283.54916Z" fill-rule="nonzero"/><path fill="#004561" d="M665.98926 224.08633C699.3692 282.9474 680.4086 350.0373 617.52606 395.56778L452.0 283.54916Z" fill-rule="nonzero"/><path fill="#8ab2c6" d="M316.87134 153.06415C356.1686 133.12323 403.46356 122.38583 452.0 122.38583L452.0 283.54916Z" fill-rule="nonzero"/><path fill="#4cdc8b" d="M231.04553 238.25687C245.3815 203.98787 275.57007 174.02197 316.87134 153.06415L452.0 283.54916Z" fill-rule="nonzero"/><path fill="#0b3076" d="M251.2989 397.05228C231.93697 372.93976 221.76666 345.74475 221.76666 318.08417L221.76666 283.54916C221.76666 311.20975 231.93697 338.40475 251.2989 362.5173Z" fill-rule="nonzero"/><path fill="#0f45a8" d="M251.2989 362.5173C220.92769 324.69427 213.62608 279.89673 231.04553 238.25687L452.0 283.54916Z" fill-rule="nonzero"/><path fill="#14535d" d="M400.5617 475.17374C337.30154 465.02374 283.09946 436.65536 251.2989 397.05228L251.2989 362.5173C283.09946 402.12036 337.30154 430.48874 400.5617 440.63873Z" fill-rule="nonzero"/><path fill="#1c7685" d="M400.5617 440.63873C337.30154 430.48874 283.09946 402.12036 251.2989 362.5173L452.0 283.54916Z" fill-rule="nonzero"/><path fill="#b34e22" d="M617.52606 430.10278C561.47253 470.6887 479.16852 487.78607 400.5617 475.17374L400.5617 440.63873C479.16852 453.25107 561.47253 436.1537 617.52606 395.56778Z" fill-rule="nonzero"/><path fill="#ff6f31" d="M617.52606 395.56778C561.47253 436.1537 479.16852 453.25107 400.5617 440.63873L452.0 283.54916Z" fill-rule="nonzero"/><path fill="#1a1a1a" d="M28.934376 132.41225L28.934376 122.39662L31.965626 122.39662L33.79375 129.22475L35.590626 122.39662L38.621876 122.39662L38.621876 132.41225L36.746876 132.41225L36.746876 124.52162L34.746876 132.41225L32.809376 132.41225L30.825 124.52162L30.825 132.41225L28.934376 132.41225ZM40.996876 132.41225L40.996876 122.39662L43.0125 122.39662L43.0125 126.83412L47.10625 122.39662L49.825 122.39662L46.059376 126.28725L50.028126 132.41225L47.41875 132.41225L44.653126 127.70912L43.0125 129.381L43.0125 132.41225L40.996876 132.41225ZM50.98125 132.41225L50.98125 122.39662L55.23125 122.39662Q56.840626 122.39662 57.559376 122.66225Q58.29375 122.92787 58.73125 123.631Q59.16875 124.3185 59.16875 125.1935Q59.16875 126.33412 58.496876 127.0685Q57.840626 127.80287 56.528126 127.99037Q57.184376 128.36537 57.60625 128.83412Q58.04375 129.28725 58.7625 130.45912L59.98125 132.41225L57.559376 132.41225L56.10625 130.22475Q55.325 129.0685 55.028126 128.77162Q54.746876 128.45912 54.41875 128.34975Q54.10625 128.22475 53.403126 128.22475L52.996876 128.22475L52.996876 132.41225L50.98125 132.41225ZM52.996876 126.631L54.496876 126.631Q55.95 126.631 56.309376 126.506Q56.684376 126.381 56.8875 126.08412Q57.090626 125.78725 57.090626 125.33412Q57.090626 124.8185 56.809376 124.52162Q56.54375 124.20912 56.059376 124.11537Q55.809376 124.08412 54.575 124.08412L52.996876 124.08412L52.996876 126.631Z" fill-rule="nonzero"/><path fill="#9e9e9e" d="M33.465626 152.41225L31.54375 152.41225L31.54375 145.17787Q30.48125 146.16225 29.059376 146.631L29.059376 144.881Q29.809376 144.64662 30.684376 143.95912Q31.575 143.27162 31.903126 142.34975L33.465626 142.34975L33.465626 152.41225ZM39.79375 142.34975Q41.246876 142.34975 42.075 143.381Q43.04375 144.61537 43.04375 147.47475Q43.04375 150.3185 42.059376 151.55287Q41.246876 152.58412 39.79375 152.58412Q38.325 152.58412 37.434376 151.45912Q36.54375 150.33412 36.54375 147.4435Q36.54375 144.61537 37.528126 143.381Q38.340626 142.34975 39.79375 142.34975ZM39.79375 143.9435Q39.45 143.9435 39.16875 144.16225Q38.903126 144.381 38.746876 144.95912Q38.54375 145.70912 38.54375 147.47475Q38.54375 149.24037 38.715626 149.89662Q38.903126 150.55287 39.16875 150.77162Q39.45 150.99037 39.79375 150.99037Q40.1375 150.99037 40.403126 150.77162Q40.684376 150.55287 40.840626 149.97475Q41.04375 149.24037 41.04375 147.47475Q41.04375 145.70912 40.85625 145.05287Q40.684376 144.381 40.403126 144.16225Q40.1375 143.9435 39.79375 143.9435ZM44.903126 150.49037L46.825 150.49037L46.825 151.86537Q46.825 152.6935 46.684376 153.17787Q46.54375 153.66225 46.1375 154.03725Q45.746876 154.42787 45.121876 154.64662L44.746876 153.84975Q45.325 153.66225 45.575 153.3185Q45.825 152.99037 45.840626 152.41225L44.903126 152.41225L44.903126 150.49037ZM51.79375 142.34975Q53.246876 142.34975 54.075 143.381Q55.04375 144.61537 55.04375 147.47475Q55.04375 150.3185 54.059376 151.55287Q53.246876 152.58412 51.79375 152.58412Q50.325 152.58412 49.434376 151.45912Q48.54375 150.33412 48.54375 147.4435Q48.54375 144.61537 49.528126 143.381Q50.340626 142.34975 51.79375 142.34975ZM51.79375 143.9435Q51.45 143.9435 51.16875 144.16225Q50.903126 144.381 50.746876 144.95912Q50.54375 145.70912 50.54375 147.47475Q50.54375 149.24037 50.715626 149.89662Q50.903126 150.55287 51.16875 150.77162Q51.45 150.99037 51.79375 150.99037Q52.1375 150.99037 52.403126 150.77162Q52.684376 150.55287 52.840626 149.97475Q53.04375 149.24037 53.04375 147.47475Q53.04375 145.70912 52.85625 145.05287Q52.684376 144.381 52.403126 144.16225Q52.1375 143.9435 51.79375 143.9435ZM56.559376 144.86537Q56.559376 143.52162 57.153126 142.881Q57.746876 142.22475 58.746876 142.22475Q59.79375 142.22475 60.3875 142.86537Q60.98125 143.506 60.98125 144.86537Q60.98125 146.20912 60.3875 146.86537Q59.79375 147.506 58.79375 147.506Q57.746876 147.506 57.153126 146.86537Q56.559376 146.22475 56.559376 144.86537ZM58.059376 144.84975Q58.059376 145.83412 58.278126 146.16225Q58.45 146.41225 58.746876 146.41225Q59.059376 146.41225 59.23125 146.16225Q59.45 145.83412 59.45 144.84975Q59.45 143.881 59.23125 143.55287Q59.059376 143.28725 58.746876 143.28725Q58.45 143.28725 58.278126 143.53725Q58.059376 143.881 58.059376 144.84975ZM60.215626 152.80287L58.79375 152.80287L64.1375 142.22475L65.5125 142.22475L60.215626 152.80287ZM63.325 150.16225Q63.325 148.8185 63.903126 148.17787Q64.49687 147.52162 65.52812 147.52162Q66.55937 147.52162 67.15312 148.17787Q67.74687 148.8185 67.74687 150.16225Q67.74687 151.52162 67.15312 152.17787Q66.55937 152.8185 65.54375 152.8185Q64.49687 152.8185 63.903126 152.17787Q63.325 151.52162 63.325 150.16225ZM64.80937 150.16225Q64.80937 151.131 65.04375 151.45912Q65.21562 151.70912 65.5125 151.70912Q65.825 151.70912 65.98125 151.47475Q66.21562 151.131 66.21562 150.16225Q66.21562 149.17787 65.99687 148.84975Q65.825 148.59975 65.5125 148.59975Q65.2 148.59975 65.04375 148.84975Q64.80937 149.17787 64.80937 150.16225Z" fill-rule="nonzero"/><path stroke="#757575" stroke-width="1.0" stroke-linecap="butt" d="M27.95 137.91225L215.76666 137.91225L384.52243 137.91225" fill-rule="nonzero"/><path fill="#9e9e9e" d="M386.52243 137.91225C386.52243 136.80768 385.62698 135.91225 384.52243 135.91225C383.41785 135.91225 382.52243 136.80768 382.52243 137.91225C382.52243 139.01682 383.41785 139.91225 384.52243 139.91225C385.62698 139.91225 386.52243 139.01682 386.52243 137.91225" fill-rule="nonzero"/><path fill="#1a1a1a" d="M35.3875 186.12534L37.340626 186.75034Q36.8875 188.39096 35.840626 189.18784Q34.79375 189.98471 33.184376 189.98471Q31.184376 189.98471 29.8875 188.62534Q28.60625 187.25034 28.60625 184.89096Q28.60625 182.39096 29.903126 181.01596Q31.2 179.62534 33.309376 179.62534Q35.1375 179.62534 36.29375 180.70346Q36.98125 181.34409 37.309376 182.54721L35.309376 183.03159Q35.1375 182.25034 34.575 181.79721Q34.0125 181.34409 33.2 181.34409Q32.090626 181.34409 31.3875 182.15659Q30.7 182.95346 30.7 184.73471Q30.7 186.64096 31.371876 187.45346Q32.059376 188.25034 33.153126 188.25034Q33.965626 188.25034 34.54375 187.75034Q35.121876 187.23471 35.3875 186.12534ZM38.559376 184.85971Q38.559376 183.32846 39.0125 182.29721Q39.35625 181.53159 39.95 180.92221Q40.54375 180.31284 41.246876 180.01596Q42.184376 179.62534 43.403126 179.62534Q45.621876 179.62534 46.95 181.00034Q48.278126 182.37534 48.278126 184.81284Q48.278126 187.23471 46.95 188.60971Q45.6375 189.98471 43.434376 189.98471Q41.2 189.98471 39.871876 188.62534Q38.559376 187.25034 38.559376 184.85971ZM40.6375 184.79721Q40.6375 186.50034 41.41875 187.37534Q42.215626 188.25034 43.41875 188.25034Q44.6375 188.25034 45.403126 187.39096Q46.184376 186.51596 46.184376 184.76596Q46.184376 183.04721 45.434376 182.20346Q44.684376 181.34409 43.41875 181.34409Q42.16875 181.34409 41.403126 182.20346Q40.6375 183.06284 40.6375 184.79721ZM49.934376 189.81284L49.934376 179.79721L52.965626 179.79721L54.79375 186.62534L56.590626 179.79721L59.621876 179.79721L59.621876 189.81284L57.746876 189.81284L57.746876 181.92221L55.746876 189.81284L53.809376 189.81284L51.825 181.92221L51.825 189.81284L49.934376 189.81284ZM61.965626 189.81284L61.965626 179.79721L65.21562 179.79721Q67.05937 179.79721 67.62187 179.93784Q68.48125 180.17221 69.05937 180.92221Q69.65312 181.67221 69.65312 182.87534Q69.65312 183.79721 69.30937 184.42221Q68.98125 185.04721 68.46562 185.40659Q67.95 185.76596 67.40312 185.89096Q66.68437 186.03159 65.30937 186.03159L63.996876 186.03159L63.996876 189.81284L61.965626 189.81284ZM63.996876 181.48471L63.996876 184.32846L65.10625 184.32846Q66.29375 184.32846 66.7 184.17221Q67.10625 184.01596 67.325 183.68784Q67.55937 183.34409 67.55937 182.90659Q67.55937 182.35971 67.23125 182.00034Q66.91875 181.64096 66.41875 181.54721Q66.05937 181.48471 64.96562 181.48471L63.996876 181.48471Z" fill-rule="nonzero"/><path fill="#9e9e9e" d="M33.465626 209.81284L31.54375 209.81284L31.54375 202.57846Q30.48125 203.56284 29.059376 204.03159L29.059376 202.28159Q29.809376 202.04721 30.684376 201.35971Q31.575 200.67221 31.903126 199.75034L33.465626 199.75034L33.465626 209.81284ZM39.79375 199.75034Q41.246876 199.75034 42.075 200.78159Q43.04375 202.01596 43.04375 204.87534Q43.04375 207.71909 42.059376 208.95346Q41.246876 209.98471 39.79375 209.98471Q38.325 209.98471 37.434376 208.85971Q36.54375 207.73471 36.54375 204.84409Q36.54375 202.01596 37.528126 200.78159Q38.340626 199.75034 39.79375 199.75034ZM39.79375 201.34409Q39.45 201.34409 39.16875 201.56284Q38.903126 201.78159 38.746876 202.35971Q38.54375 203.10971 38.54375 204.87534Q38.54375 206.64096 38.715626 207.29721Q38.903126 207.95346 39.16875 208.17221Q39.45 208.39096 39.79375 208.39096Q40.1375 208.39096 40.403126 208.17221Q40.684376 207.95346 40.840626 207.37534Q41.04375 206.64096 41.04375 204.87534Q41.04375 203.10971 40.85625 202.45346Q40.684376 201.78159 40.403126 201.56284Q40.1375 201.34409 39.79375 201.34409ZM44.903126 207.89096L46.825 207.89096L46.825 209.26596Q46.825 210.09409 46.684376 210.57846Q46.54375 211.06284 46.1375 211.43784Q45.746876 211.82846 45.121876 212.04721L44.746876 211.25034Q45.325 211.06284 45.575 210.71909Q45.825 210.39096 45.840626 209.81284L44.903126 209.81284L44.903126 207.89096ZM48.575 207.23471L50.48125 207.03159Q50.575 207.68784 50.965626 208.06284Q51.371876 208.43784 51.903126 208.43784Q52.496876 208.43784 52.91875 207.95346Q53.340626 207.46909 53.340626 206.48471Q53.340626 205.56284 52.91875 205.10971Q52.5125 204.64096 51.840626 204.64096Q51.0125 204.64096 50.35625 205.37534L48.809376 205.14096L49.79375 199.92221L54.871876 199.92221L54.871876 201.71909L51.246876 201.71909L50.95 203.42221Q51.590626 203.10971 52.2625 203.10971Q53.528126 203.10971 54.41875 204.04721Q55.309376 204.96909 55.309376 206.45346Q55.309376 207.68784 54.590626 208.65659Q53.621876 209.98471 51.8875 209.98471Q50.496876 209.98471 49.621876 209.25034Q48.746876 208.50034 48.575 207.23471ZM56.559376 202.26596Q56.559376 200.92221 57.153126 200.28159Q57.746876 199.62534 58.746876 199.62534Q59.79375 199.62534 60.3875 200.26596Q60.98125 200.90659 60.98125 202.26596Q60.98125 203.60971 60.3875 204.26596Q59.79375 204.90659 58.79375 204.90659Q57.746876 204.90659 57.153126 204.26596Q56.559376 203.62534 56.559376 202.26596ZM58.059376 202.25034Q58.059376 203.23471 58.278126 203.56284Q58.45 203.81284 58.746876 203.81284Q59.059376 203.81284 59.23125 203.56284Q59.45 203.23471 59.45 202.25034Q59.45 201.28159 59.23125 200.95346Q59.059376 200.68784 58.746876 200.68784Q58.45 200.68784 58.278126 200.93784Q58.059376 201.28159 58.059376 202.25034ZM60.215626 210.20346L58.79375 210.20346L64.1375 199.62534L65.5125 199.62534L60.215626 210.20346ZM63.325 207.56284Q63.325 206.21909 63.903126 205.57846Q64.49687 204.92221 65.52812 204.92221Q66.55937 204.92221 67.15312 205.57846Q67.74687 206.21909 67.74687 207.56284Q67.74687 208.92221 67.15312 209.57846Q66.55937 210.21909 65.54375 210.21909Q64.49687 210.21909 63.903126 209.57846Q63.325 208.92221 63.325 207.56284ZM64.80937 207.56284Q64.80937 208.53159 65.04375 208.85971Q65.21562 209.10971 65.5125 209.10971Q65.825 209.10971 65.98125 208.87534Q66.21562 208.53159 66.21562 207.56284Q66.21562 206.57846 65.99687 206.25034Q65.825 206.00034 65.5125 206.00034Q65.2 206.00034 65.04375 206.25034Q64.80937 206.57846 64.80937 207.56284Z" fill-rule="nonzero"/><path stroke="#757575" stroke-width="1.0" stroke-linecap="butt" d="M27.95 195.31284L215.76666 195.31284L273.25412 195.31284" fill-rule="nonzero"/><path fill="#9e9e9e" d="M275.25412 195.31284C275.25412 194.20827 274.3587 193.31284 273.25412 193.31284C272.14957 193.31284 271.25412 194.20827 271.25412 195.31284C271.25412 196.4174 272.14957 197.31284 273.25412 197.31284C274.3587 197.31284 275.25412 196.4174 275.25412 195.31284" fill-rule="nonzero"/><path fill="#1a1a1a" d="M28.45 292.1393L30.41875 291.9518Q30.60625 292.9362 31.1375 293.40494Q31.684376 293.8737 32.60625 293.8737Q33.590626 293.8737 34.075 293.46744Q34.575 293.04556 34.575 292.4987Q34.575 292.1393 34.371876 291.8893Q34.16875 291.6393 33.6375 291.4518Q33.29375 291.3268 32.028126 291.0143Q30.403126 290.60806 29.746876 290.02994Q28.825 289.2018 28.825 288.0143Q28.825 287.2487 29.246876 286.5768Q29.684376 285.90494 30.496876 285.5612Q31.325 285.21744 32.48125 285.21744Q34.35625 285.21744 35.309376 286.04556Q36.2625 286.8737 36.325 288.2487L34.29375 288.34244Q34.16875 287.5612 33.73125 287.23306Q33.309376 286.8893 32.45 286.8893Q31.575 286.8893 31.075 287.2487Q30.746876 287.48306 30.746876 287.8737Q30.746876 288.23306 31.059376 288.48306Q31.434376 288.79556 32.903126 289.15494Q34.3875 289.4987 35.090626 289.8737Q35.809376 290.2487 36.2 290.8893Q36.60625 291.52994 36.60625 292.48306Q36.60625 293.34244 36.121876 294.10806Q35.653126 294.85806 34.778126 295.21744Q33.903126 295.5768 32.590626 295.5768Q30.684376 295.5768 29.66875 294.7018Q28.653126 293.8268 28.45 292.1393ZM37.996876 295.40494L37.996876 285.3893L39.965626 285.3893L44.059376 292.0768L44.059376 285.3893L45.934376 285.3893L45.934376 295.40494L43.903126 295.40494L39.871876 288.8737L39.871876 295.40494L37.996876 295.40494ZM46.95 295.40494L50.371876 290.17056L47.278126 285.3893L49.6375 285.3893L51.653126 288.60806L53.621876 285.3893L55.965626 285.3893L52.840626 290.2487L56.2625 295.40494L53.825 295.40494L51.60625 291.9362L49.371876 295.40494L46.95 295.40494Z" fill-rule="nonzero"/><path fill="#9e9e9e" d="M33.465626 315.40494L31.54375 315.40494L31.54375 308.17056Q30.48125 309.15494 29.059376 309.6237L29.059376 307.8737Q29.809376 307.6393 30.684376 306.9518Q31.575 306.2643 31.903126 305.34244L33.465626 305.34244L33.465626 315.40494ZM43.028126 313.6237L43.028126 315.40494L36.29375 315.40494Q36.403126 314.3893 36.95 313.48306Q37.496876 312.5768 39.121876 311.0768Q40.41875 309.8737 40.715626 309.4362Q41.10625 308.84244 41.10625 308.2643Q41.10625 307.6237 40.7625 307.27994Q40.41875 306.9362 39.809376 306.9362Q39.2 306.9362 38.840626 307.29556Q38.496876 307.65494 38.434376 308.4987L36.528126 308.3112Q36.7 306.71744 37.590626 306.02994Q38.496876 305.34244 39.85625 305.34244Q41.340626 305.34244 42.184376 306.1393Q43.028126 306.9362 43.028126 308.1237Q43.028126 308.8112 42.778126 309.42056Q42.54375 310.02994 42.028126 310.7018Q41.66875 311.1393 40.7625 311.98306Q39.85625 312.8112 39.60625 313.09244Q39.371876 313.35806 39.215626 313.6237L43.028126 313.6237ZM44.903126 313.48306L46.825 313.48306L46.825 314.85806Q46.825 315.6862 46.684376 316.17056Q46.54375 316.65494 46.1375 317.02994Q45.746876 317.42056 45.121876 317.6393L44.746876 316.84244Q45.325 316.65494 45.575 316.3112Q45.825 315.98306 45.840626 315.40494L44.903126 315.40494L44.903126 313.48306ZM48.54375 307.3112L48.54375 305.5143L55.121876 305.5143L55.121876 306.92056Q54.29375 307.71744 53.45 309.21744Q52.621876 310.7018 52.16875 312.3893Q51.73125 314.0768 51.746876 315.40494L49.8875 315.40494Q49.934376 313.3268 50.746876 311.17056Q51.559376 308.9987 52.91875 307.3112L48.54375 307.3112ZM56.559376 307.85806Q56.559376 306.5143 57.153126 305.8737Q57.746876 305.21744 58.746876 305.21744Q59.79375 305.21744 60.3875 305.85806Q60.98125 306.4987 60.98125 307.85806Q60.98125 309.2018 60.3875 309.85806Q59.79375 310.4987 58.79375 310.4987Q57.746876 310.4987 57.153126 309.85806Q56.559376 309.21744 56.559376 307.85806ZM58.059376 307.84244Q58.059376 308.8268 58.278126 309.15494Q58.45 309.40494 58.746876 309.40494Q59.059376 309.40494 59.23125 309.15494Q59.45 308.8268 59.45 307.84244Q59.45 306.8737 59.23125 306.54556Q59.059376 306.27994 58.746876 306.27994Q58.45 306.27994 58.278126 306.52994Q58.059376 306.8737 58.059376 307.84244ZM60.215626 315.79556L58.79375 315.79556L64.1375 305.21744L65.5125 305.21744L60.215626 315.79556ZM63.325 313.15494Q63.325 311.8112 63.903126 311.17056Q64.49687 310.5143 65.52812 310.5143Q66.55937 310.5143 67.15312 311.17056Q67.74687 311.8112 67.74687 313.15494Q67.74687 314.5143 67.15312 315.17056Q66.55937 315.8112 65.54375 315.8112Q64.49687 315.8112 63.903126 315.17056Q63.325 314.5143 63.325 313.15494ZM64.80937 313.15494Q64.80937 314.1237 65.04375 314.4518Q65.21562 314.7018 65.5125 314.7018Q65.825 314.7018 65.98125 314.46744Q66.21562 314.1237 66.21562 313.15494Q66.21562 312.17056 65.99687 311.84244Q65.825 311.59244 65.5125 311.59244Q65.2 311.59244 65.04375 311.84244Q64.80937 312.17056 64.80937 313.15494Z" fill-rule="nonzero"/><path stroke="#757575" stroke-width="1.0" stroke-linecap="butt" d="M27.95 300.90494L215.76666 300.90494L234.68819 300.90494" fill-rule="nonzero"/><path fill="#9e9e9e" d="M236.68819 300.90494C236.68819 299.80035 235.79276 298.90494 234.68819 298.90494C233.5836 298.90494 232.68819 299.80035 232.68819 300.90494C232.68819 302.0095 233.5836 302.90494 234.68819 302.90494C235.79276 302.90494 236.68819 302.0095 236.68819 300.90494" fill-rule="nonzero"/><path fill="#1a1a1a" d="M28.95 390.6536L30.98125 390.6536L30.98125 396.07547Q30.98125 397.37234 31.059376 397.74734Q31.184376 398.37234 31.66875 398.74734Q32.16875 399.10672 33.0125 399.10672Q33.871876 399.10672 34.309376 398.76297Q34.746876 398.4036 34.825 397.9036Q34.91875 397.38797 34.91875 396.18484L34.91875 390.6536L36.95 390.6536L36.95 395.9036Q36.95 397.7161 36.778126 398.4661Q36.621876 399.20047 36.16875 399.7161Q35.73125 400.23172 34.996876 400.54422Q34.2625 400.8411 33.075 400.8411Q31.6375 400.8411 30.8875 400.51297Q30.153126 400.16922 29.715626 399.6536Q29.29375 399.12234 29.153126 398.5286Q28.95 397.66922 28.95 395.99734L28.95 390.6536ZM38.996876 400.66922L38.996876 390.6536L40.965626 390.6536L45.059376 397.3411L45.059376 390.6536L46.934376 390.6536L46.934376 400.66922L44.903126 400.66922L40.871876 394.13797L40.871876 400.66922L38.996876 400.66922ZM48.903126 400.66922L48.903126 390.6536L50.934376 390.6536L50.934376 400.66922L48.903126 400.66922Z" fill-rule="nonzero"/><path fill="#9e9e9e" d="M33.465626 420.66922L31.54375 420.66922L31.54375 413.43484Q30.48125 414.41922 29.059376 414.88797L29.059376 413.13797Q29.809376 412.9036 30.684376 412.2161Q31.575 411.5286 31.903126 410.60672L33.465626 410.60672L33.465626 420.66922ZM36.48125 418.01297L38.340626 417.7786Q38.41875 418.49734 38.809376 418.87234Q39.2 419.24734 39.7625 419.24734Q40.35625 419.24734 40.7625 418.79422Q41.16875 418.3411 41.16875 417.57547Q41.16875 416.85672 40.778126 416.43484Q40.3875 416.01297 39.825 416.01297Q39.45 416.01297 38.95 416.1536L39.153126 414.5911Q39.934376 414.60672 40.340626 414.24734Q40.7625 413.88797 40.7625 413.29422Q40.7625 412.79422 40.45 412.49734Q40.153126 412.18484 39.653126 412.18484Q39.16875 412.18484 38.809376 412.5286Q38.465626 412.87234 38.3875 413.5286L36.621876 413.23172Q36.809376 412.30984 37.16875 411.7786Q37.54375 411.23172 38.215626 410.91922Q38.8875 410.60672 39.715626 410.60672Q41.121876 410.60672 41.98125 411.51297Q42.684376 412.24734 42.684376 413.16922Q42.684376 414.49734 41.246876 415.2786Q42.10625 415.4661 42.621876 416.10672Q43.1375 416.74734 43.1375 417.6536Q43.1375 418.98172 42.16875 419.91922Q41.2 420.8411 39.778126 420.8411Q38.41875 420.8411 37.5125 420.05984Q36.621876 419.2786 36.48125 418.01297ZM44.903126 418.74734L46.825 418.74734L46.825 420.12234Q46.825 420.95047 46.684376 421.43484Q46.54375 421.91922 46.1375 422.29422Q45.746876 422.68484 45.121876 422.9036L44.746876 422.10672Q45.325 421.91922 45.575 421.57547Q45.825 421.24734 45.840626 420.66922L44.903126 420.66922L44.903126 418.74734ZM48.48125 418.01297L50.340626 417.7786Q50.41875 418.49734 50.809376 418.87234Q51.2 419.24734 51.7625 419.24734Q52.35625 419.24734 52.7625 418.79422Q53.16875 418.3411 53.16875 417.57547Q53.16875 416.85672 52.778126 416.43484Q52.3875 416.01297 51.825 416.01297Q51.45 416.01297 50.95 416.1536L51.153126 414.5911Q51.934376 414.60672 52.340626 414.24734Q52.7625 413.88797 52.7625 413.29422Q52.7625 412.79422 52.45 412.49734Q52.153126 412.18484 51.653126 412.18484Q51.16875 412.18484 50.809376 412.5286Q50.465626 412.87234 50.3875 413.5286L48.621876 413.23172Q48.809376 412.30984 49.16875 411.7786Q49.54375 411.23172 50.215626 410.91922Q50.8875 410.60672 51.715626 410.60672Q53.121876 410.60672 53.98125 411.51297Q54.684376 412.24734 54.684376 413.16922Q54.684376 414.49734 53.246876 415.2786Q54.10625 415.4661 54.621876 416.10672Q55.1375 416.74734 55.1375 417.6536Q55.1375 418.98172 54.16875 419.91922Q53.2 420.8411 51.778126 420.8411Q50.41875 420.8411 49.5125 420.05984Q48.621876 419.2786 48.48125 418.01297ZM56.559376 413.12234Q56.559376 411.7786 57.153126 411.13797Q57.746876 410.48172 58.746876 410.48172Q59.79375 410.48172 60.3875 411.12234Q60.98125 411.76297 60.98125 413.12234Q60.98125 414.4661 60.3875 415.12234Q59.79375 415.76297 58.79375 415.76297Q57.746876 415.76297 57.153126 415.12234Q56.559376 414.48172 56.559376 413.12234ZM58.059376 413.10672Q58.059376 414.0911 58.278126 414.41922Q58.45 414.66922 58.746876 414.66922Q59.059376 414.66922 59.23125 414.41922Q59.45 414.0911 59.45 413.10672Q59.45 412.13797 59.23125 411.80984Q59.059376 411.54422 58.746876 411.54422Q58.45 411.54422 58.278126 411.79422Q58.059376 412.13797 58.059376 413.10672ZM60.215626 421.05984L58.79375 421.05984L64.1375 410.48172L65.5125 410.48172L60.215626 421.05984ZM63.325 418.41922Q63.325 417.07547 63.903126 416.43484Q64.49687 415.7786 65.52812 415.7786Q66.55937 415.7786 67.15312 416.43484Q67.74687 417.07547 67.74687 418.41922Q67.74687 419.7786 67.15312 420.43484Q66.55937 421.07547 65.54375 421.07547Q64.49687 421.07547 63.903126 420.43484Q63.325 419.7786 63.325 418.41922ZM64.80937 418.41922Q64.80937 419.38797 65.04375 419.7161Q65.21562 419.9661 65.5125 419.9661Q65.825 419.9661 65.98125 419.73172Q66.21562 419.38797 66.21562 418.41922Q66.21562 417.43484 65.99687 417.10672Q65.825 416.85672 65.5125 416.85672Q65.2 416.85672 65.04375 417.10672Q64.80937 417.43484 64.80937 418.41922Z" fill-rule="nonzero"/><path stroke="#757575" stroke-width="1.0" stroke-linecap="butt" d="M27.95 406.16922L215.76666 406.16922L321.0263 406.16922" fill-rule="nonzero"/><path fill="#9e9e9e" d="M323.0263 406.16922C323.0263 405.06467 322.1309 404.16922 321.0263 404.16922C319.92172 404.16922 319.0263 405.06467 319.0263 406.16922C319.0263 407.2738 319.92172 408.16922 321.0263 408.16922C322.1309 408.16922 323.0263 407.2738 323.0263 406.16922" fill-rule="nonzero"/><path fill="#1a1a1a" d="M844.1281 151.3802L844.1281 141.4427L846.14374 141.4427L846.14374 149.6927L851.175 149.6927L851.175 151.3802L844.1281 151.3802ZM853.0031 151.3802L853.0031 141.36458L855.03436 141.36458L855.03436 151.3802L853.0031 151.3802ZM857.09686 151.3802L857.09686 141.36458L859.0656 141.36458L863.15936 148.05208L863.15936 141.36458L865.03436 141.36458L865.03436 151.3802L863.0031 151.3802L858.97186 144.84895L858.97186 151.3802L857.09686 151.3802ZM867.09686 151.3802L867.09686 141.36458L869.1125 141.36458L869.1125 145.80208L873.20624 141.36458L875.925 141.36458L872.15936 145.2552L876.1281 151.3802L873.51874 151.3802L870.7531 146.67708L869.1125 148.34895L869.1125 151.3802L867.09686 151.3802Z" fill-rule="nonzero"/><path fill="#9e9e9e" d="M841.5656 171.3802L839.64374 171.3802L839.64374 164.14583Q838.58124 165.1302 837.15936 165.59895L837.15936 163.84895Q837.90936 163.61458 838.78436 162.92708Q839.675 162.23958 840.0031 161.3177L841.5656 161.3177L841.5656 171.3802ZM844.6906 169.0677L846.55 168.86458Q846.6125 169.42708 846.89374 169.70833Q847.1906 169.97395 847.65936 169.97395Q848.2531 169.97395 848.65936 169.42708Q849.08124 168.8802 849.20624 167.16145Q848.4875 167.98958 847.39374 167.98958Q846.20624 167.98958 845.34686 167.08333Q844.4875 166.17708 844.4875 164.70833Q844.4875 163.17708 845.39374 162.2552Q846.3 161.3177 847.70624 161.3177Q849.2375 161.3177 850.20624 162.5052Q851.1906 163.67708 851.1906 166.3802Q851.1906 169.1302 850.15936 170.34895Q849.14374 171.55208 847.51874 171.55208Q846.34686 171.55208 845.6125 170.92708Q844.89374 170.30208 844.6906 169.0677ZM849.03436 164.86458Q849.03436 163.9427 848.59686 163.42708Q848.175 162.91145 847.6125 162.91145Q847.08124 162.91145 846.72186 163.33333Q846.3781 163.7552 846.3781 164.70833Q846.3781 165.67708 846.7531 166.1302Q847.14374 166.58333 847.72186 166.58333Q848.26874 166.58333 848.64374 166.14583Q849.03436 165.70833 849.03436 164.86458ZM853.0031 169.45833L854.925 169.45833L854.925 170.83333Q854.925 171.66145 854.78436 172.14583Q854.64374 172.6302 854.2375 173.0052Q853.84686 173.39583 853.22186 173.61458L852.84686 172.8177Q853.425 172.6302 853.675 172.28645Q853.925 171.95833 853.9406 171.3802L853.0031 171.3802L853.0031 169.45833ZM859.89374 161.3177Q861.34686 161.3177 862.175 162.34895Q863.14374 163.58333 863.14374 166.4427Q863.14374 169.28645 862.15936 170.52083Q861.34686 171.55208 859.89374 171.55208Q858.425 171.55208 857.53436 170.42708Q856.64374 169.30208 856.64374 166.41145Q856.64374 163.58333 857.6281 162.34895Q858.4406 161.3177 859.89374 161.3177ZM859.89374 162.91145Q859.55 162.91145 859.26874 163.1302Q859.0031 163.34895 858.84686 163.92708Q858.64374 164.67708 858.64374 166.4427Q858.64374 168.20833 858.8156 168.86458Q859.0031 169.52083 859.26874 169.73958Q859.55 169.95833 859.89374 169.95833Q860.2375 169.95833 860.5031 169.73958Q860.78436 169.52083 860.9406 168.9427Q861.14374 168.20833 861.14374 166.4427Q861.14374 164.67708 860.95624 164.02083Q860.78436 163.34895 860.5031 163.1302Q860.2375 162.91145 859.89374 162.91145ZM864.65936 163.83333Q864.65936 162.48958 865.2531 161.84895Q865.84686 161.1927 866.84686 161.1927Q867.89374 161.1927 868.4875 161.83333Q869.08124 162.47395 869.08124 163.83333Q869.08124 165.17708 868.4875 165.83333Q867.89374 166.47395 866.89374 166.47395Q865.84686 166.47395 865.2531 165.83333Q864.65936 165.1927 864.65936 163.83333ZM866.15936 163.8177Q866.15936 164.80208 866.3781 165.1302Q866.55 165.3802 866.84686 165.3802Q867.15936 165.3802 867.33124 165.1302Q867.55 164.80208 867.55 163.8177Q867.55 162.84895 867.33124 162.52083Q867.15936 162.2552 866.84686 162.2552Q866.55 162.2552 866.3781 162.5052Q866.15936 162.84895 866.15936 163.8177ZM868.3156 171.77083L866.89374 171.77083L872.2375 161.1927L873.6125 161.1927L868.3156 171.77083ZM871.425 169.1302Q871.425 167.78645 872.0031 167.14583Q872.59686 166.48958 873.6281 166.48958Q874.65936 166.48958 875.2531 167.14583Q875.84686 167.78645 875.84686 169.1302Q875.84686 170.48958 875.2531 171.14583Q874.65936 171.78645 873.64374 171.78645Q872.59686 171.78645 872.0031 171.14583Q871.425 170.48958 871.425 169.1302ZM872.90936 169.1302Q872.90936 170.09895 873.14374 170.42708Q873.3156 170.67708 873.6125 170.67708Q873.925 170.67708 874.08124 170.4427Q874.3156 170.09895 874.3156 169.1302Q874.3156 168.14583 874.09686 167.8177Q873.925 167.5677 873.6125 167.5677Q873.3 167.5677 873.14374 167.8177Q872.90936 168.14583 872.90936 169.1302Z" fill-rule="nonzero"/><path stroke="#757575" stroke-width="1.0" stroke-linecap="butt" d="M876.05 156.8802L688.23334 156.8802L574.8585 156.8802" fill-rule="nonzero"/><path fill="#9e9e9e" d="M576.8585 156.8802C576.8585 155.77563 575.9631 154.8802 574.8585 154.8802C573.75397 154.8802 572.8585 155.77563 572.8585 156.8802C572.8585 157.98477 573.75397 158.8802 574.8585 158.8802C575.9631 158.8802 576.8585 157.98477 576.8585 156.8802" fill-rule="nonzero"/><path fill="#1a1a1a" d="M857.70624 307.76218L857.70624 303.54343L854.03436 297.74655L856.40936 297.74655L858.7531 301.69968L861.0656 297.74655L863.40936 297.74655L859.72186 303.55905L859.72186 307.76218L857.70624 307.76218ZM864.08124 307.76218L864.08124 297.74655L870.95624 297.74655L870.95624 299.43405L866.1125 299.43405L866.1125 301.80905L870.28436 301.80905L870.28436 303.49655L866.1125 303.49655L866.1125 307.76218L864.08124 307.76218ZM873.0031 307.76218L873.0031 297.74655L875.03436 297.74655L875.03436 307.76218L873.0031 307.76218Z" fill-rule="nonzero"/><path fill="#9e9e9e" d="M841.5656 327.76218L839.64374 327.76218L839.64374 320.5278Q838.58124 321.51218 837.15936 321.98093L837.15936 320.23093Q837.90936 319.99655 838.78436 319.30905Q839.675 318.62155 840.0031 317.69968L841.5656 317.69968L841.5656 327.76218ZM846.3 322.35593Q845.55 322.04343 845.20624 321.49655Q844.8781 320.93405 844.8781 320.2778Q844.8781 319.16843 845.65936 318.43405Q846.4406 317.69968 847.8781 317.69968Q849.3 317.69968 850.09686 318.43405Q850.89374 319.16843 850.89374 320.2778Q850.89374 320.98093 850.51874 321.5278Q850.15936 322.07468 849.5031 322.35593Q850.34686 322.68405 850.76874 323.3403Q851.20624 323.98093 851.20624 324.80905Q851.20624 326.19968 850.3156 327.07468Q849.4406 327.93405 847.97186 327.93405Q846.59686 327.93405 845.6906 327.2153Q844.6125 326.37155 844.6125 324.9028Q844.6125 324.0903 845.01874 323.41843Q845.425 322.73093 846.3 322.35593ZM846.6906 320.41843Q846.6906 320.99655 847.0031 321.32468Q847.33124 321.63718 847.8781 321.63718Q848.425 321.63718 848.7531 321.30905Q849.08124 320.98093 849.08124 320.41843Q849.08124 319.87155 848.7531 319.55905Q848.425 319.23093 847.89374 319.23093Q847.34686 319.23093 847.01874 319.55905Q846.6906 319.88718 846.6906 320.41843ZM846.51874 324.7153Q846.51874 325.51218 846.925 325.94968Q847.33124 326.38718 847.9406 326.38718Q848.53436 326.38718 848.90936 325.9653Q849.3 325.54343 849.3 324.73093Q849.3 324.0278 848.90936 323.60593Q848.51874 323.16843 847.90936 323.16843Q847.20624 323.16843 846.8625 323.66843Q846.51874 324.1528 846.51874 324.7153ZM853.0031 325.8403L854.925 325.8403L854.925 327.2153Q854.925 328.04343 854.78436 328.5278Q854.64374 329.01218 854.2375 329.38718Q853.84686 329.7778 853.22186 329.99655L852.84686 329.19968Q853.425 329.01218 853.675 328.66843Q853.925 328.3403 853.9406 327.76218L853.0031 327.76218L853.0031 325.8403ZM863.1281 325.98093L863.1281 327.76218L856.39374 327.76218Q856.5031 326.74655 857.05 325.8403Q857.59686 324.93405 859.22186 323.43405Q860.51874 322.23093 860.8156 321.79343Q861.20624 321.19968 861.20624 320.62155Q861.20624 319.98093 860.8625 319.63718Q860.51874 319.29343 859.90936 319.29343Q859.3 319.29343 858.9406 319.6528Q858.59686 320.01218 858.53436 320.85593L856.6281 320.66843Q856.8 319.07468 857.6906 318.38718Q858.59686 317.69968 859.95624 317.69968Q861.4406 317.69968 862.28436 318.49655Q863.1281 319.29343 863.1281 320.48093Q863.1281 321.16843 862.8781 321.7778Q862.64374 322.38718 862.1281 323.05905Q861.76874 323.49655 860.8625 324.3403Q859.95624 325.16843 859.70624 325.44968Q859.47186 325.7153 859.3156 325.98093L863.1281 325.98093ZM864.65936 320.2153Q864.65936 318.87155 865.2531 318.23093Q865.84686 317.57468 866.84686 317.57468Q867.89374 317.57468 868.4875 318.2153Q869.08124 318.85593 869.08124 320.2153Q869.08124 321.55905 868.4875 322.2153Q867.89374 322.85593 866.89374 322.85593Q865.84686 322.85593 865.2531 322.2153Q864.65936 321.57468 864.65936 320.2153ZM866.15936 320.19968Q866.15936 321.18405 866.3781 321.51218Q866.55 321.76218 866.84686 321.76218Q867.15936 321.76218 867.33124 321.51218Q867.55 321.18405 867.55 320.19968Q867.55 319.23093 867.33124 318.9028Q867.15936 318.63718 866.84686 318.63718Q866.55 318.63718 866.3781 318.88718Q866.15936 319.23093 866.15936 320.19968ZM868.3156 328.1528L866.89374 328.1528L872.2375 317.57468L873.6125 317.57468L868.3156 328.1528ZM871.425 325.51218Q871.425 324.16843 872.0031 323.5278Q872.59686 322.87155 873.6281 322.87155Q874.65936 322.87155 875.2531 323.5278Q875.84686 324.16843 875.84686 325.51218Q875.84686 326.87155 875.2531 327.5278Q874.65936 328.16843 873.64374 328.16843Q872.59686 328.16843 872.0031 327.5278Q871.425 326.87155 871.425 325.51218ZM872.90936 325.51218Q872.90936 326.48093 873.14374 326.80905Q873.3156 327.05905 873.6125 327.05905Q873.925 327.05905 874.08124 326.82468Q874.3156 326.48093 874.3156 325.51218Q874.3156 324.5278 874.09686 324.19968Q873.925 323.94968 873.6125 323.94968Q873.3 323.94968 873.14374 324.19968Q872.90936 324.5278 872.90936 325.51218Z" fill-rule="nonzero"/><path stroke="#757575" stroke-width="1.0" stroke-linecap="butt" d="M876.05 313.26218L688.23334 313.26218L666.5633 313.26218" fill-rule="nonzero"/><path fill="#9e9e9e" d="M668.5633 313.26218C668.5633 312.1576 667.66785 311.26218 666.5633 311.26218C665.45874 311.26218 664.5633 312.1576 664.5633 313.26218C664.5633 314.36673 665.45874 315.26218 666.5633 315.26218C667.66785 315.26218 668.5633 314.36673 668.5633 313.26218" fill-rule="nonzero"/><path fill="#1a1a1a" d="M848.1125 424.82742L845.90936 424.82742L845.03436 422.54617L841.01874 422.54617L840.1906 424.82742L838.05 424.82742L841.95624 414.8118L844.09686 414.8118L848.1125 424.82742ZM844.3781 420.85867L843.0031 417.13992L841.64374 420.85867L844.3781 420.85867ZM858.1125 424.82742L855.90936 424.82742L855.03436 422.54617L851.01874 422.54617L850.1906 424.82742L848.05 424.82742L851.95624 414.8118L854.09686 414.8118L858.1125 424.82742ZM854.3781 420.85867L853.0031 417.13992L851.64374 420.85867L854.3781 420.85867ZM861.6281 424.82742L858.05 414.8118L860.2375 414.8118L862.76874 422.21805L865.22186 414.8118L867.3781 414.8118L863.78436 424.82742L861.6281 424.82742ZM868.0656 424.82742L868.0656 414.8118L875.5031 414.8118L875.5031 416.4993L870.09686 416.4993L870.09686 418.71805L875.1281 418.71805L875.1281 420.40555L870.09686 420.40555L870.09686 423.13992L875.6906 423.13992L875.6906 424.82742L868.0656 424.82742Z" fill-rule="nonzero"/><path fill="#9e9e9e" d="M841.5656 444.82742L839.64374 444.82742L839.64374 437.59305Q838.58124 438.57742 837.15936 439.04617L837.15936 437.29617Q837.90936 437.0618 838.78436 436.3743Q839.675 435.6868 840.0031 434.76492L841.5656 434.76492L841.5656 444.82742ZM851.15936 437.26492L849.3 437.46805Q849.22186 436.88992 848.925 436.6243Q848.64374 436.34305 848.1906 436.34305Q847.58124 436.34305 847.15936 436.88992Q846.7375 437.4368 846.6281 439.17117Q847.34686 438.3118 848.425 438.3118Q849.6281 438.3118 850.47186 439.23367Q851.33124 440.15555 851.33124 441.59305Q851.33124 443.13992 850.425 444.07742Q849.53436 444.9993 848.1125 444.9993Q846.59686 444.9993 845.6125 443.82742Q844.64374 442.63992 844.64374 439.95242Q844.64374 437.20242 845.65936 435.98367Q846.675 434.76492 848.3156 434.76492Q849.45624 434.76492 850.1906 435.40555Q850.9406 436.04617 851.15936 437.26492ZM846.8 441.45242Q846.8 442.38992 847.22186 442.90555Q847.65936 443.40555 848.20624 443.40555Q848.7531 443.40555 849.09686 442.9993Q849.45624 442.57742 849.45624 441.6243Q849.45624 440.63992 849.0656 440.1868Q848.6906 439.73367 848.1125 439.73367Q847.5656 439.73367 847.175 440.17117Q846.8 440.60867 846.8 441.45242ZM853.0031 442.90555L854.925 442.90555L854.925 444.28055Q854.925 445.10867 854.78436 445.59305Q854.64374 446.07742 854.2375 446.45242Q853.84686 446.84305 853.22186 447.0618L852.84686 446.26492Q853.425 446.07742 853.675 445.73367Q853.925 445.40555 853.9406 444.82742L853.0031 444.82742L853.0031 442.90555ZM860.40936 444.82742L860.40936 442.8118L856.3156 442.8118L856.3156 441.1243L860.65936 434.76492L862.26874 434.76492L862.26874 441.1243L863.51874 441.1243L863.51874 442.8118L862.26874 442.8118L862.26874 444.82742L860.40936 444.82742ZM860.40936 441.1243L860.40936 437.70242L858.1125 441.1243L860.40936 441.1243ZM864.65936 437.28055Q864.65936 435.9368 865.2531 435.29617Q865.84686 434.63992 866.84686 434.63992Q867.89374 434.63992 868.4875 435.28055Q869.08124 435.92117 869.08124 437.28055Q869.08124 438.6243 868.4875 439.28055Q867.89374 439.92117 866.89374 439.92117Q865.84686 439.92117 865.2531 439.28055Q864.65936 438.63992 864.65936 437.28055ZM866.15936 437.26492Q866.15936 438.2493 866.3781 438.57742Q866.55 438.82742 866.84686 438.82742Q867.15936 438.82742 867.33124 438.57742Q867.55 438.2493 867.55 437.26492Q867.55 436.29617 867.33124 435.96805Q867.15936 435.70242 866.84686 435.70242Q866.55 435.70242 866.3781 435.95242Q866.15936 436.29617 866.15936 437.26492ZM868.3156 445.21805L866.89374 445.21805L872.2375 434.63992L873.6125 434.63992L868.3156 445.21805ZM871.425 442.57742Q871.425 441.23367 872.0031 440.59305Q872.59686 439.9368 873.6281 439.9368Q874.65936 439.9368 875.2531 440.59305Q875.84686 441.23367 875.84686 442.57742Q875.84686 443.9368 875.2531 444.59305Q874.65936 445.23367 873.64374 445.23367Q872.59686 445.23367 872.0031 444.59305Q871.425 443.9368 871.425 442.57742ZM872.90936 442.57742Q872.90936 443.54617 873.14374 443.8743Q873.3156 444.1243 873.6125 444.1243Q873.925 444.1243 874.08124 443.88992Q874.3156 443.54617 874.3156 442.57742Q874.3156 441.59305 874.09686 441.26492Q873.925 441.01492 873.6125 441.01492Q873.3 441.01492 873.14374 441.26492Q872.90936 441.59305 872.90936 442.57742Z" fill-rule="nonzero"/><path stroke="#757575" stroke-width="1.0" stroke-linecap="butt" d="M876.05 430.32742L688.23334 430.32742L514.2263 430.32742" fill-rule="nonzero"/><path fill="#9e9e9e" d="M516.2263 430.32742C516.2263 429.22287 515.3309 428.32742 514.2263 428.32742C513.1217 428.32742 512.2263 429.22287 512.2263 430.32742C512.2263 431.432 513.1217 432.32742 514.2263 432.32742C515.3309 432.32742 516.2263 431.432 516.2263 430.32742" fill-rule="nonzero"/><path fill="#000000" d="M29.496876 46.95L29.496876 32.6375L34.8875 32.6375Q36.325 32.6375 37.075 32.7625Q38.121876 32.95 38.840626 33.45Q39.559376 33.934376 39.98125 34.825Q40.41875 35.715626 40.41875 36.778126Q40.41875 38.60625 39.246876 39.871876Q38.090626 41.121876 35.059376 41.121876L31.3875 41.121876L31.3875 46.95L29.496876 46.95ZM31.3875 39.434376L35.090626 39.434376Q36.91875 39.434376 37.684376 38.7625Q38.465626 38.075 38.465626 36.825Q38.465626 35.934376 38.0125 35.29375Q37.559376 34.653126 36.825 34.45Q36.340626 34.325 35.04375 34.325L31.3875 34.325L31.3875 39.434376ZM42.278126 34.653126L42.278126 32.6375L44.04375 32.6375L44.04375 34.653126L42.278126 34.653126ZM42.278126 46.95L42.278126 36.575L44.04375 36.575L44.04375 46.95L42.278126 46.95ZM53.371876 43.60625L55.184376 43.840626Q54.7625 45.41875 53.590626 46.309376Q52.434376 47.184376 50.621876 47.184376Q48.35625 47.184376 47.0125 45.79375Q45.684376 44.3875 45.684376 41.85625Q45.684376 39.23125 47.028126 37.79375Q48.371876 36.340626 50.528126 36.340626Q52.60625 36.340626 53.91875 37.7625Q55.246876 39.16875 55.246876 41.746876Q55.246876 41.903126 55.23125 42.215626L47.496876 42.215626Q47.590626 43.91875 48.465626 44.825Q49.340626 45.73125 50.6375 45.73125Q51.60625 45.73125 52.278126 45.23125Q52.965626 44.715626 53.371876 43.60625ZM47.590626 40.7625L53.3875 40.7625Q53.278126 39.465626 52.73125 38.809376Q51.8875 37.79375 50.54375 37.79375Q49.340626 37.79375 48.5125 38.60625Q47.684376 39.403126 47.590626 40.7625ZM57.496876 46.95L57.496876 32.6375L62.41875 32.6375Q64.09062 32.6375 64.98125 32.840626Q66.2 33.121876 67.075 33.85625Q68.2 34.825 68.7625 36.309376Q69.325 37.79375 69.325 39.715626Q69.325 41.340626 68.95 42.60625Q68.575 43.85625 67.96562 44.684376Q67.37187 45.5125 66.66875 45.996876Q65.96562 46.465626 64.96562 46.715626Q63.965626 46.95 62.653126 46.95L57.496876 46.95ZM59.3875 45.2625L62.45 45.2625Q63.85625 45.2625 64.65312 44.996876Q65.46562 44.73125 65.95 44.246876Q66.62187 43.575 66.99687 42.45Q67.37187 41.309376 67.37187 39.684376Q67.37187 37.434376 66.6375 36.23125Q65.90312 35.028126 64.84062 34.621876Q64.09062 34.325 62.403126 34.325L59.3875 34.325L59.3875 45.2625ZM69.91875 46.95L75.41875 32.6375L77.46562 32.6375L83.325 46.95L81.16875 46.95L79.49687 42.60625L73.5125 42.60625L71.93437 46.95L69.91875 46.95ZM74.05937 41.075L78.90312 41.075L77.41875 37.10625Q76.73125 35.29375 76.40312 34.1375Q76.12187 35.5125 75.62187 36.871876L74.05937 41.075ZM83.91875 39.98125Q83.91875 36.41875 85.825 34.403126Q87.74687 32.371876 90.77812 32.371876Q92.7625 32.371876 94.34062 33.325Q95.93437 34.278126 96.7625 35.98125Q97.60625 37.66875 97.60625 39.809376Q97.60625 41.98125 96.73125 43.7Q95.85625 45.41875 94.23125 46.309376Q92.62187 47.2 90.7625 47.2Q88.74687 47.2 87.15312 46.23125Q85.55937 45.246876 84.73125 43.559376Q83.91875 41.85625 83.91875 39.98125ZM85.87187 40.0125Q85.87187 42.590626 87.2625 44.090626Q88.65312 45.575 90.74687 45.575Q92.8875 45.575 94.2625 44.075Q95.65312 42.559376 95.65312 39.79375Q95.65312 38.059376 95.05937 36.7625Q94.48125 35.45 93.34062 34.73125Q92.2 34.0125 90.77812 34.0125Q88.77812 34.0125 87.325 35.403126Q85.87187 36.778126 85.87187 40.0125ZM106.49687 46.95L106.49687 32.6375L111.41875 32.6375Q113.09062 32.6375 113.98125 32.840626Q115.2 33.121876 116.075 33.85625Q117.2 34.825 117.7625 36.309376Q118.325 37.79375 118.325 39.715626Q118.325 41.340626 117.95 42.60625Q117.575 43.85625 116.96562 44.684376Q116.37187 45.5125 115.66875 45.996876Q114.96562 46.465626 113.96562 46.715626Q112.96562 46.95 111.65312 46.95L106.49687 46.95ZM108.3875 45.2625L111.45 45.2625Q112.85625 45.2625 113.65312 44.996876Q114.46562 44.73125 114.95 44.246876Q115.62187 43.575 115.99687 42.45Q116.37187 41.309376 116.37187 39.684376Q116.37187 37.434376 115.6375 36.23125Q114.90312 35.028126 113.84062 34.621876Q113.09062 34.325 111.40312 34.325L108.3875 34.325L108.3875 45.2625ZM120.52812 46.95L120.52812 32.6375L130.8875 32.6375L130.8875 34.325L122.43437 34.325L122.43437 38.7L130.34062 38.7L130.34062 40.3875L122.43437 40.3875L122.43437 45.2625L131.21562 45.2625L131.21562 46.95L120.52812 46.95ZM133.59062 46.95L133.59062 32.6375L143.24687 32.6375L143.24687 34.325L135.48125 34.325L135.48125 38.7625L142.2 38.7625L142.2 40.45L135.48125 40.45L135.48125 46.95L133.59062 46.95ZM145.80937 46.95L145.80937 32.6375L147.71562 32.6375L147.71562 46.95L145.80937 46.95ZM154.96562 44.6375L154.96562 40.715626L151.05937 40.715626L151.05937 39.075L154.96562 39.075L154.96562 35.16875L156.62187 35.16875L156.62187 39.075L160.5125 39.075L160.5125 40.715626L156.62187 40.715626L156.62187 44.6375L154.96562 44.6375ZM162.85625 42.35625L164.6375 42.2Q164.7625 43.2625 165.21562 43.95Q165.68437 44.6375 166.65312 45.075Q167.6375 45.496876 168.87187 45.496876Q169.95 45.496876 170.77812 45.184376Q171.60625 44.85625 172.0125 44.29375Q172.41875 43.73125 172.41875 43.059376Q172.41875 42.3875 172.02812 41.8875Q171.6375 41.3875 170.74687 41.04375Q170.16875 40.809376 168.18437 40.340626Q166.21562 39.871876 165.43437 39.45Q164.40312 38.91875 163.90312 38.121876Q163.40312 37.325 163.40312 36.340626Q163.40312 35.246876 164.0125 34.309376Q164.62187 33.371876 165.80937 32.8875Q166.99687 32.3875 168.43437 32.3875Q170.02812 32.3875 171.24687 32.903126Q172.46562 33.41875 173.10625 34.41875Q173.7625 35.403126 173.80937 36.66875L171.99687 36.809376Q171.85625 35.45 171.0125 34.7625Q170.16875 34.059376 168.5125 34.059376Q166.79375 34.059376 165.99687 34.7Q165.21562 35.325 165.21562 36.2Q165.21562 36.98125 165.77812 37.48125Q166.325 37.98125 168.6375 38.496876Q170.95 39.0125 171.80937 39.403126Q173.05937 39.98125 173.65312 40.871876Q174.24687 41.746876 174.24687 42.903126Q174.24687 44.04375 173.59062 45.059376Q172.93437 46.075 171.7 46.6375Q170.48125 47.2 168.95 47.2Q167.0125 47.2 165.7 46.6375Q164.3875 46.059376 163.6375 44.91875Q162.8875 43.778126 162.85625 42.35625Z" fill-rule="nonzero"/></svg>