<svg version="1.1" viewBox="0.0 0.0 904.0 559.0" fill="none" stroke="none" stroke-linecap="square" stroke-miterlimit="10" width="904" height="559" xmlns:xlink="http://www.w3.org/1999/xlink" xmlns="http://www.w3.org/2000/svg"><path fill="#ffffff" d="M0 0L904.0 0L904.0 559.0L0 559.0L0 0Z" fill-rule="nonzero"/><path fill="#5891ad" d="M452.0 122.38583C545.3183 122.38583 629.4069 161.81662 664.915 222.22577L452.0 283.54916Z" fill-rule="nonzero"/><path fill="#003044" d="M682.23334 318.08417C682.23334 359.82776 659.095 399.94296 617.6897 429.98416L617.6897 395.4492C659.095 365.40796 682.23334 325.2928 682.23334 283.54916Z" fill-rule="nonzero"/><path fill="#004561" d="M664.915 222.22577C699.7024 281.40894 681.1681 349.39304 617.6897 395.4492L452.0 283.54916Z" fill-rule="nonzero"/><path fill="#8ab2c6" d="M317.6811 152.65512C356.8245 132.97299 403.80466 122.38583 452.0 122.38583L452.0 283.54916Z" fill-rule="nonzero"/><path fill="#4cdc8b" d="M230.63506 239.2499C244.88988 204.3463 275.5614 173.83379 317.6811 152.65512L452.0 283.54916Z" fill-rule="nonzero"/><path fill="#0b3076" d="M252.03574 397.96298C232.19936 373.6309 221.76666 346.09946 221.76666 318.08417L221.76666 283.54916C221.76666 311.56445 232.19936 339.0959 252.03574 363.42798Z" fill-rule="nonzero"/><path fill="#0f45a8" d="M252.03574 363.42798C221.31111 325.73993 213.59576 280.9714 230.63506 239.2499L452.0 283.54916Z" fill-rule="nonzero"/><path fill="#14535d" d="M400.90936 475.2293C338.0133 465.2095 284.0066 437.17966 252.03574 397.96298L252.03574 363.42798C284.0066 402.64465 338.0133 430.6745 400.90936 440.6943Z" fill-rule="nonzero"/><path fill="#1c7685" d="M400.90936 440.6943C338.0133 430.6745 284.0066 402.64465 252.03574 363.42798L452.0 283.54916Z" fill-rule="nonzero"/><path fill="#b34e22" d="M617.6897 429.98416C561.72546 470.58847 479.50192 487.7497 400.90936 475.2293L400.90936 440.6943C479.50192 453.2147 561.72546 436.0535 617.6897 395.4492Z" fill-rule="nonzero"/><path fill="#ff6f31" d="M617.6897 395.4492C561.72546 436.0535 479.50192 453.2147 400.90936 440.6943L452.0 283.54916Z" fill-rule="nonzero"/><path fill="#1a1a1a" d="M28.934376 132.31015L28.934376 122.294525L31.965626 122.294525L33.79375 129.12265L35.590626 122.294525L38.621876 122.294525L38.621876 132.31015L36.746876 132.31015L36.746876 124.419525L34.746876 132.31015L32.809376 132.31015L30.825 124.419525L30.825 132.31015L28.934376 132.31015ZM40.996876 132.31015L40.996876 122.294525L43.0125 122.294525L43.0125 126.732025L47.10625 122.294525L49.825 122.294525L46.059376 126.18515L50.028126 132.31015L47.41875 132.31015L44.653126 127.607025L43.0125 129.2789L43.0125 132.31015L40.996876 132.31015ZM50.98125 132.31015L50.98125 122.294525L55.23125 122.294525Q56.840626 122.294525 57.559376 122.56015Q58.29375 122.825775 58.73125 123.5289Q59.16875 124.2164 59.16875 125.0914Q59.16875 126.232025 58.496876 126.9664Q57.840626 127.700775 56.528126 127.888275Q57.184376 128.26328 57.60625 128.73203Q58.04375 129.18515 58.7625 130.35703L59.98125 132.31015L57.559376 132.31015L56.10625 130.12265Q55.325 128.9664 55.028126 128.66953Q54.746876 128.35703 54.41875 128.24765Q54.10625 128.12265 53.403126 128.12265L52.996876 128.12265L52.996876 132.31015L50.98125 132.31015ZM52.996876 126.5289L54.496876 126.5289Q55.95 126.5289 56.309376 126.4039Q56.684376 126.2789 56.8875 125.982025Q57.090626 125.68515 57.090626 125.232025Q57.090626 124.7164 56.809376 124.419525Q56.54375 124.107025 56.059376 124.013275Q55.809376 123.982025 54.575 123.982025L52.996876 123.982025L52.996876 126.5289Z" fill-rule="nonzero"/><path fill="#9e9e9e" d="M28.590626 149.99765L30.45 149.79453Q30.5125 150.35703 30.79375 150.63828Q31.090626 150.9039 31.559376 150.9039Q32.153126 150.9039 32.559376 150.35703Q32.98125 149.81015 33.10625 148.0914Q32.3875 148.91953 31.29375 148.91953Q30.10625 148.91953 29.246876 148.01328Q28.3875 147.10703 28.3875 145.63828Q28.3875 144.10703 29.29375 143.18515Q30.2 142.24765 31.60625 142.24765Q33.1375 142.24765 34.10625 143.43515Q35.090626 144.60703 35.090626 147.31015Q35.090626 150.06015 34.059376 151.2789Q33.04375 152.48203 31.41875 152.48203Q30.246876 152.48203 29.5125 151.85703Q28.79375 151.23203 28.590626 149.99765ZM32.934376 145.79453Q32.934376 144.87265 32.496876 144.35703Q32.075 143.8414 31.5125 143.8414Q30.98125 143.8414 30.621876 144.26328Q30.278126 144.68515 30.278126 145.63828Q30.278126 146.60703 30.653126 147.06015Q31.04375 147.51328 31.621876 147.51328Q32.16875 147.51328 32.54375 147.07578Q32.934376 146.63828 32.934376 145.79453ZM36.903126 150.38828L38.825 150.38828L38.825 151.76328Q38.825 152.5914 38.684376 153.07578Q38.54375 153.56015 38.1375 153.93515Q37.746876 154.32578 37.121876 154.54453L36.746876 153.74765Q37.325 153.56015 37.575 153.2164Q37.825 152.88828 37.840626 152.31015L36.903126 152.31015L36.903126 150.38828ZM40.590626 149.99765L42.45 149.79453Q42.5125 150.35703 42.79375 150.63828Q43.090626 150.9039 43.559376 150.9039Q44.153126 150.9039 44.559376 150.35703Q44.98125 149.81015 45.10625 148.0914Q44.3875 148.91953 43.29375 148.91953Q42.10625 148.91953 41.246876 148.01328Q40.3875 147.10703 40.3875 145.63828Q40.3875 144.10703 41.29375 143.18515Q42.2 142.24765 43.60625 142.24765Q45.1375 142.24765 46.10625 143.43515Q47.090626 144.60703 47.090626 147.31015Q47.090626 150.06015 46.059376 151.2789Q45.04375 152.48203 43.41875 152.48203Q42.246876 152.48203 41.5125 151.85703Q40.79375 151.23203 40.590626 149.99765ZM44.934376 145.79453Q44.934376 144.87265 44.496876 144.35703Q44.075 143.8414 43.5125 143.8414Q42.98125 143.8414 42.621876 144.26328Q42.278126 144.68515 42.278126 145.63828Q42.278126 146.60703 42.653126 147.06015Q43.04375 147.51328 43.621876 147.51328Q44.16875 147.51328 44.54375 147.07578Q44.934376 146.63828 44.934376 145.79453ZM48.559376 144.76328Q48.559376 143.41953 49.153126 142.7789Q49.746876 142.12265 50.746876 142.12265Q51.79375 142.12265 52.3875 142.76328Q52.98125 143.4039 52.98125 144.76328Q52.98125 146.10703 52.3875 146.76328Q51.79375 147.4039 50.79375 147.4039Q49.746876 147.4039 49.153126 146.76328Q48.559376 146.12265 48.559376 144.76328ZM50.059376 144.74765Q50.059376 145.73203 50.278126 146.06015Q50.45 146.31015 50.746876 146.31015Q51.059376 146.31015 51.23125 146.06015Q51.45 145.73203 51.45 144.74765Q51.45 143.7789 51.23125 143.45078Q51.059376 143.18515 50.746876 143.18515Q50.45 143.18515 50.278126 143.43515Q50.059376 143.7789 50.059376 144.74765ZM52.215626 152.70078L50.79375 152.70078L56.1375 142.12265L57.5125 142.12265L52.215626 152.70078ZM55.325 150.06015Q55.325 148.7164 55.903126 148.07578Q56.496876 147.41953 57.528126 147.41953Q58.559376 147.41953 59.153126 148.07578Q59.746876 148.7164 59.746876 150.06015Q59.746876 151.41953 59.153126 152.07578Q58.559376 152.7164 57.54375 152.7164Q56.496876 152.7164 55.903126 152.07578Q55.325 151.41953 55.325 150.06015ZM56.809376 150.06015Q56.809376 151.0289 57.04375 151.35703Q57.215626 151.60703 57.5125 151.60703Q57.825 151.60703 57.98125 151.37265Q58.215626 151.0289 58.215626 150.06015Q58.215626 149.07578 57.996876 148.74765Q57.825 148.49765 57.5125 148.49765Q57.2 148.49765 57.04375 148.74765Q56.809376 149.07578 56.809376 150.06015Z" fill-rule="nonzero"/><path stroke="#757575" stroke-width="1.0" stroke-linecap="butt" d="M27.95 137.81015L215.76666 137.81015L384.9738 137.81015" fill-rule="nonzero"/><path fill="#9e9e9e" d="M386.9738 137.81015C386.9738 136.70558 386.07834 135.81015 384.9738 135.81015C383.8692 135.81015 382.9738 136.70558 382.9738 137.81015C382.9738 138.91472 383.8692 139.81015 384.9738 139.81015C386.07834 139.81015 386.9738 138.91472 386.9738 137.81015" fill-rule="nonzero"/><path fill="#1a1a1a" d="M35.3875 186.25533L37.340626 186.88033Q36.8875 188.52095 35.840626 189.31783Q34.79375 190.1147 33.184376 190.1147Q31.184376 190.1147 29.8875 188.75533Q28.60625 187.38033 28.60625 185.02095Q28.60625 182.52095 29.903126 181.14595Q31.2 179.75533 33.309376 179.75533Q35.1375 179.75533 36.29375 180.83345Q36.98125 181.47408 37.309376 182.6772L35.309376 183.16158Q35.1375 182.38033 34.575 181.9272Q34.0125 181.47408 33.2 181.47408Q32.090626 181.47408 31.3875 182.28658Q30.7 183.08345 30.7 184.8647Q30.7 186.77095 31.371876 187.58345Q32.059376 188.38033 33.153126 188.38033Q33.965626 188.38033 34.54375 187.88033Q35.121876 187.3647 35.3875 186.25533ZM38.559376 184.9897Q38.559376 183.45845 39.0125 182.4272Q39.35625 181.66158 39.95 181.0522Q40.54375 180.44283 41.246876 180.14595Q42.184376 179.75533 43.403126 179.75533Q45.621876 179.75533 46.95 181.13033Q48.278126 182.50533 48.278126 184.94283Q48.278126 187.3647 46.95 188.7397Q45.6375 190.1147 43.434376 190.1147Q41.2 190.1147 39.871876 188.75533Q38.559376 187.38033 38.559376 184.9897ZM40.6375 184.9272Q40.6375 186.63033 41.41875 187.50533Q42.215626 188.38033 43.41875 188.38033Q44.6375 188.38033 45.403126 187.52095Q46.184376 186.64595 46.184376 184.89595Q46.184376 183.1772 45.434376 182.33345Q44.684376 181.47408 43.41875 181.47408Q42.16875 181.47408 41.403126 182.33345Q40.6375 183.19283 40.6375 184.9272ZM49.934376 189.94283L49.934376 179.9272L52.965626 179.9272L54.79375 186.75533L56.590626 179.9272L59.621876 179.9272L59.621876 189.94283L57.746876 189.94283L57.746876 182.0522L55.746876 189.94283L53.809376 189.94283L51.825 182.0522L51.825 189.94283L49.934376 189.94283ZM61.965626 189.94283L61.965626 179.9272L65.21562 179.9272Q67.05937 179.9272 67.62187 180.06783Q68.48125 180.3022 69.05937 181.0522Q69.65312 181.8022 69.65312 183.00533Q69.65312 183.9272 69.30937 184.5522Q68.98125 185.1772 68.46562 185.53658Q67.95 185.89595 67.40312 186.02095Q66.68437 186.16158 65.30937 186.16158L63.996876 186.16158L63.996876 189.94283L61.965626 189.94283ZM63.996876 181.6147L63.996876 184.45845L65.10625 184.45845Q66.29375 184.45845 66.7 184.3022Q67.10625 184.14595 67.325 183.81783Q67.55937 183.47408 67.55937 183.03658Q67.55937 182.4897 67.23125 182.13033Q66.91875 181.77095 66.41875 181.6772Q66.05937 181.6147 64.96562 181.6147L63.996876 181.6147Z" fill-rule="nonzero"/><path fill="#9e9e9e" d="M33.465626 209.94283L31.54375 209.94283L31.54375 202.70845Q30.48125 203.69283 29.059376 204.16158L29.059376 202.41158Q29.809376 202.1772 30.684376 201.4897Q31.575 200.8022 31.903126 199.88033L33.465626 199.88033L33.465626 209.94283ZM39.79375 199.88033Q41.246876 199.88033 42.075 200.91158Q43.04375 202.14595 43.04375 205.00533Q43.04375 207.84908 42.059376 209.08345Q41.246876 210.1147 39.79375 210.1147Q38.325 210.1147 37.434376 208.9897Q36.54375 207.8647 36.54375 204.97408Q36.54375 202.14595 37.528126 200.91158Q38.340626 199.88033 39.79375 199.88033ZM39.79375 201.47408Q39.45 201.47408 39.16875 201.69283Q38.903126 201.91158 38.746876 202.4897Q38.54375 203.2397 38.54375 205.00533Q38.54375 206.77095 38.715626 207.4272Q38.903126 208.08345 39.16875 208.3022Q39.45 208.52095 39.79375 208.52095Q40.1375 208.52095 40.403126 208.3022Q40.684376 208.08345 40.840626 207.50533Q41.04375 206.77095 41.04375 205.00533Q41.04375 203.2397 40.85625 202.58345Q40.684376 201.91158 40.403126 201.69283Q40.1375 201.47408 39.79375 201.47408ZM44.903126 208.02095L46.825 208.02095L46.825 209.39595Q46.825 210.22408 46.684376 210.70845Q46.54375 211.19283 46.1375 211.56783Q45.746876 211.95845 45.121876 212.1772L44.746876 211.38033Q45.325 211.19283 45.575 210.84908Q45.825 210.52095 45.840626 209.94283L44.903126 209.94283L44.903126 208.02095ZM48.54375 201.84908L48.54375 200.0522L55.121876 200.0522L55.121876 201.45845Q54.29375 202.25533 53.45 203.75533Q52.621876 205.2397 52.16875 206.9272Q51.73125 208.6147 51.746876 209.94283L49.8875 209.94283Q49.934376 207.8647 50.746876 205.70845Q51.559376 203.53658 52.91875 201.84908L48.54375 201.84908ZM56.559376 202.39595Q56.559376 201.0522 57.153126 200.41158Q57.746876 199.75533 58.746876 199.75533Q59.79375 199.75533 60.3875 200.39595Q60.98125 201.03658 60.98125 202.39595Q60.98125 203.7397 60.3875 204.39595Q59.79375 205.03658 58.79375 205.03658Q57.746876 205.03658 57.153126 204.39595Q56.559376 203.75533 56.559376 202.39595ZM58.059376 202.38033Q58.059376 203.3647 58.278126 203.69283Q58.45 203.94283 58.746876 203.94283Q59.059376 203.94283 59.23125 203.69283Q59.45 203.3647 59.45 202.38033Q59.45 201.41158 59.23125 201.08345Q59.059376 200.81783 58.746876 200.81783Q58.45 200.81783 58.278126 201.06783Q58.059376 201.41158 58.059376 202.38033ZM60.215626 210.33345L58.79375 210.33345L64.1375 199.75533L65.5125 199.75533L60.215626 210.33345ZM63.325 207.69283Q63.325 206.34908 63.903126 205.70845Q64.49687 205.0522 65.52812 205.0522Q66.55937 205.0522 67.15312 205.70845Q67.74687 206.34908 67.74687 207.69283Q67.74687 209.0522 67.15312 209.70845Q66.55937 210.34908 65.54375 210.34908Q64.49687 210.34908 63.903126 209.70845Q63.325 209.0522 63.325 207.69283ZM64.80937 207.69283Q64.80937 208.66158 65.04375 208.9897Q65.21562 209.2397 65.5125 209.2397Q65.825 209.2397 65.98125 209.00533Q66.21562 208.66158 66.21562 207.69283Q66.21562 206.70845 65.99687 206.38033Q65.825 206.13033 65.5125 206.13033Q65.2 206.13033 65.04375 206.38033Q64.80937 206.70845 64.80937 207.69283Z" fill-rule="nonzero"/><path stroke="#757575" stroke-width="1.0" stroke-linecap="butt" d="M27.95 195.44283L215.76666 195.44283L273.12332 195.44283" fill-rule="nonzero"/><path fill="#9e9e9e" d="M275.12332 195.44283C275.12332 194.33826 274.22787 193.44283 273.12332 193.44283C272.01874 193.44283 271.12332 194.33826 271.12332 195.44283C271.12332 196.5474 272.01874 197.44283 273.12332 197.44283C274.22787 197.44283 275.12332 196.5474 275.12332 195.44283" fill-rule="nonzero"/><path fill="#1a1a1a" d="M28.45 293.12073L30.41875 292.93323Q30.60625 293.9176 31.1375 294.38635Q31.684376 294.8551 32.60625 294.8551Q33.590626 294.8551 34.075 294.44885Q34.575 294.02698 34.575 293.4801Q34.575 293.12073 34.371876 292.87073Q34.16875 292.62073 33.6375 292.43323Q33.29375 292.30823 32.028126 291.99573Q30.403126 291.58948 29.746876 291.01135Q28.825 290.18323 28.825 288.99573Q28.825 288.2301 29.246876 287.55823Q29.684376 286.88635 30.496876 286.5426Q31.325 286.19885 32.48125 286.19885Q34.35625 286.19885 35.309376 287.02698Q36.2625 287.8551 36.325 289.2301L34.29375 289.32385Q34.16875 288.5426 33.73125 288.21448Q33.309376 287.87073 32.45 287.87073Q31.575 287.87073 31.075 288.2301Q30.746876 288.46448 30.746876 288.8551Q30.746876 289.21448 31.059376 289.46448Q31.434376 289.77698 32.903126 290.13635Q34.3875 290.4801 35.090626 290.8551Q35.809376 291.2301 36.2 291.87073Q36.60625 292.51135 36.60625 293.46448Q36.60625 294.32385 36.121876 295.08948Q35.653126 295.83948 34.778126 296.19885Q33.903126 296.55823 32.590626 296.55823Q30.684376 296.55823 29.66875 295.68323Q28.653126 294.80823 28.45 293.12073ZM37.996876 296.38635L37.996876 286.37073L39.965626 286.37073L44.059376 293.05823L44.059376 286.37073L45.934376 286.37073L45.934376 296.38635L43.903126 296.38635L39.871876 289.8551L39.871876 296.38635L37.996876 296.38635ZM46.95 296.38635L50.371876 291.15198L47.278126 286.37073L49.6375 286.37073L51.653126 289.58948L53.621876 286.37073L55.965626 286.37073L52.840626 291.2301L56.2625 296.38635L53.825 296.38635L51.60625 292.9176L49.371876 296.38635L46.95 296.38635Z" fill-rule="nonzero"/><path fill="#9e9e9e" d="M33.465626 316.38635L31.54375 316.38635L31.54375 309.15198Q30.48125 310.13635 29.059376 310.6051L29.059376 308.8551Q29.809376 308.62073 30.684376 307.93323Q31.575 307.24573 31.903126 306.32385L33.465626 306.32385L33.465626 316.38635ZM43.028126 314.6051L43.028126 316.38635L36.29375 316.38635Q36.403126 315.37073 36.95 314.46448Q37.496876 313.55823 39.121876 312.05823Q40.41875 310.8551 40.715626 310.4176Q41.10625 309.82385 41.10625 309.24573Q41.10625 308.6051 40.7625 308.26135Q40.41875 307.9176 39.809376 307.9176Q39.2 307.9176 38.840626 308.27698Q38.496876 308.63635 38.434376 309.4801L36.528126 309.2926Q36.7 307.69885 37.590626 307.01135Q38.496876 306.32385 39.85625 306.32385Q41.340626 306.32385 42.184376 307.12073Q43.028126 307.9176 43.028126 309.1051Q43.028126 309.7926 42.778126 310.40198Q42.54375 311.01135 42.028126 311.68323Q41.66875 312.12073 40.7625 312.96448Q39.85625 313.7926 39.60625 314.07385Q39.371876 314.33948 39.215626 314.6051L43.028126 314.6051ZM44.903126 314.46448L46.825 314.46448L46.825 315.83948Q46.825 316.6676 46.684376 317.15198Q46.54375 317.63635 46.1375 318.01135Q45.746876 318.40198 45.121876 318.62073L44.746876 317.82385Q45.325 317.63635 45.575 317.2926Q45.825 316.96448 45.840626 316.38635L44.903126 316.38635L44.903126 314.46448ZM48.54375 308.2926L48.54375 306.49573L55.121876 306.49573L55.121876 307.90198Q54.29375 308.69885 53.45 310.19885Q52.621876 311.68323 52.16875 313.37073Q51.73125 315.05823 51.746876 316.38635L49.8875 316.38635Q49.934376 314.30823 50.746876 312.15198Q51.559376 309.9801 52.91875 308.2926L48.54375 308.2926ZM56.559376 308.83948Q56.559376 307.49573 57.153126 306.8551Q57.746876 306.19885 58.746876 306.19885Q59.79375 306.19885 60.3875 306.83948Q60.98125 307.4801 60.98125 308.83948Q60.98125 310.18323 60.3875 310.83948Q59.79375 311.4801 58.79375 311.4801Q57.746876 311.4801 57.153126 310.83948Q56.559376 310.19885 56.559376 308.83948ZM58.059376 308.82385Q58.059376 309.80823 58.278126 310.13635Q58.45 310.38635 58.746876 310.38635Q59.059376 310.38635 59.23125 310.13635Q59.45 309.80823 59.45 308.82385Q59.45 307.8551 59.23125 307.52698Q59.059376 307.26135 58.746876 307.26135Q58.45 307.26135 58.278126 307.51135Q58.059376 307.8551 58.059376 308.82385ZM60.215626 316.77698L58.79375 316.77698L64.1375 306.19885L65.5125 306.19885L60.215626 316.77698ZM63.325 314.13635Q63.325 312.7926 63.903126 312.15198Q64.49687 311.49573 65.52812 311.49573Q66.55937 311.49573 67.15312 312.15198Q67.74687 312.7926 67.74687 314.13635Q67.74687 315.49573 67.15312 316.15198Q66.55937 316.7926 65.54375 316.7926Q64.49687 316.7926 63.903126 316.15198Q63.325 315.49573 63.325 314.13635ZM64.80937 314.13635Q64.80937 315.1051 65.04375 315.43323Q65.21562 315.68323 65.5125 315.68323Q65.825 315.68323 65.98125 315.44885Q66.21562 315.1051 66.21562 314.13635Q66.21562 313.15198 65.99687 312.82385Q65.825 312.57385 65.5125 312.57385Q65.2 312.57385 65.04375 312.82385Q64.80937 313.15198 64.80937 314.13635Z" fill-rule="nonzero"/><path stroke="#757575" stroke-width="1.0" stroke-linecap="butt" d="M27.95 301.88635L215.76666 301.88635L234.85272 301.88635" fill-rule="nonzero"/><path fill="#9e9e9e" d="M236.85272 301.88635C236.85272 300.7818 235.9573 299.88635 234.85272 299.88635C233.74815 299.88635 232.85272 300.7818 232.85272 301.88635C232.85272 302.99094 233.74815 303.88635 234.85272 303.88635C235.9573 303.88635 236.85272 302.99094 236.85272 301.88635" fill-rule="nonzero"/><path fill="#1a1a1a" d="M28.95 391.0213L30.98125 391.0213L30.98125 396.44318Q30.98125 397.74005 31.059376 398.11505Q31.184376 398.74005 31.66875 399.11505Q32.16875 399.47443 33.0125 399.47443Q33.871876 399.47443 34.309376 399.13068Q34.746876 398.7713 34.825 398.2713Q34.91875 397.75568 34.91875 396.55255L34.91875 391.0213L36.95 391.0213L36.95 396.2713Q36.95 398.0838 36.778126 398.8338Q36.621876 399.56818 36.16875 400.0838Q35.73125 400.59943 34.996876 400.91193Q34.2625 401.2088 33.075 401.2088Q31.6375 401.2088 30.8875 400.88068Q30.153126 400.53693 29.715626 400.0213Q29.29375 399.49005 29.153126 398.8963Q28.95 398.03693 28.95 396.36505L28.95 391.0213ZM38.996876 401.03693L38.996876 391.0213L40.965626 391.0213L45.059376 397.7088L45.059376 391.0213L46.934376 391.0213L46.934376 401.03693L44.903126 401.03693L40.871876 394.50568L40.871876 401.03693L38.996876 401.03693ZM48.903126 401.03693L48.903126 391.0213L50.934376 391.0213L50.934376 401.03693L48.903126 401.03693Z" fill-rule="nonzero"/><path fill="#9e9e9e" d="M33.465626 421.03693L31.54375 421.03693L31.54375 413.80255Q30.48125 414.78693 29.059376 415.25568L29.059376 413.50568Q29.809376 413.2713 30.684376 412.5838Q31.575 411.8963 31.903126 410.97443L33.465626 410.97443L33.465626 421.03693ZM36.48125 418.38068L38.340626 418.1463Q38.41875 418.86505 38.809376 419.24005Q39.2 419.61505 39.7625 419.61505Q40.35625 419.61505 40.7625 419.16193Q41.16875 418.7088 41.16875 417.94318Q41.16875 417.22443 40.778126 416.80255Q40.3875 416.38068 39.825 416.38068Q39.45 416.38068 38.95 416.5213L39.153126 414.9588Q39.934376 414.97443 40.340626 414.61505Q40.7625 414.25568 40.7625 413.66193Q40.7625 413.16193 40.45 412.86505Q40.153126 412.55255 39.653126 412.55255Q39.16875 412.55255 38.809376 412.8963Q38.465626 413.24005 38.3875 413.8963L36.621876 413.59943Q36.809376 412.67755 37.16875 412.1463Q37.54375 411.59943 38.215626 411.28693Q38.8875 410.97443 39.715626 410.97443Q41.121876 410.97443 41.98125 411.88068Q42.684376 412.61505 42.684376 413.53693Q42.684376 414.86505 41.246876 415.6463Q42.10625 415.8338 42.621876 416.47443Q43.1375 417.11505 43.1375 418.0213Q43.1375 419.34943 42.16875 420.28693Q41.2 421.2088 39.778126 421.2088Q38.41875 421.2088 37.5125 420.42755Q36.621876 419.6463 36.48125 418.38068ZM44.903126 419.11505L46.825 419.11505L46.825 420.49005Q46.825 421.31818 46.684376 421.80255Q46.54375 422.28693 46.1375 422.66193Q45.746876 423.05255 45.121876 423.2713L44.746876 422.47443Q45.325 422.28693 45.575 421.94318Q45.825 421.61505 45.840626 421.03693L44.903126 421.03693L44.903126 419.11505ZM55.028126 419.25568L55.028126 421.03693L48.29375 421.03693Q48.403126 420.0213 48.95 419.11505Q49.496876 418.2088 51.121876 416.7088Q52.41875 415.50568 52.715626 415.06818Q53.10625 414.47443 53.10625 413.8963Q53.10625 413.25568 52.7625 412.91193Q52.41875 412.56818 51.809376 412.56818Q51.2 412.56818 50.840626 412.92755Q50.496876 413.28693 50.434376 414.13068L48.528126 413.94318Q48.7 412.34943 49.590626 411.66193Q50.496876 410.97443 51.85625 410.97443Q53.340626 410.97443 54.184376 411.7713Q55.028126 412.56818 55.028126 413.75568Q55.028126 414.44318 54.778126 415.05255Q54.54375 415.66193 54.028126 416.3338Q53.66875 416.7713 52.7625 417.61505Q51.85625 418.44318 51.60625 418.72443Q51.371876 418.99005 51.215626 419.25568L55.028126 419.25568ZM56.559376 413.49005Q56.559376 412.1463 57.153126 411.50568Q57.746876 410.84943 58.746876 410.84943Q59.79375 410.84943 60.3875 411.49005Q60.98125 412.13068 60.98125 413.49005Q60.98125 414.8338 60.3875 415.49005Q59.79375 416.13068 58.79375 416.13068Q57.746876 416.13068 57.153126 415.49005Q56.559376 414.84943 56.559376 413.49005ZM58.059376 413.47443Q58.059376 414.4588 58.278126 414.78693Q58.45 415.03693 58.746876 415.03693Q59.059376 415.03693 59.23125 414.78693Q59.45 414.4588 59.45 413.47443Q59.45 412.50568 59.23125 412.17755Q59.059376 411.91193 58.746876 411.91193Q58.45 411.91193 58.278126 412.16193Q58.059376 412.50568 58.059376 413.47443ZM60.215626 421.42755L58.79375 421.42755L64.1375 410.84943L65.5125 410.84943L60.215626 421.42755ZM63.325 418.78693Q63.325 417.44318 63.903126 416.80255Q64.49687 416.1463 65.52812 416.1463Q66.55937 416.1463 67.15312 416.80255Q67.74687 417.44318 67.74687 418.78693Q67.74687 420.1463 67.15312 420.80255Q66.55937 421.44318 65.54375 421.44318Q64.49687 421.44318 63.903126 420.80255Q63.325 420.1463 63.325 418.78693ZM64.80937 418.78693Q64.80937 419.75568 65.04375 420.0838Q65.21562 420.3338 65.5125 420.3338Q65.825 420.3338 65.98125 420.09943Q66.21562 419.75568 66.21562 418.78693Q66.21562 417.80255 65.99687 417.47443Q65.825 417.22443 65.5125 417.22443Q65.2 417.22443 65.04375 417.47443Q64.80937 417.80255 64.80937 418.78693Z" fill-rule="nonzero"/><path stroke="#757575" stroke-width="1.0" stroke-linecap="butt" d="M27.95 406.53693L215.76666 406.53693L321.7318 406.53693" fill-rule="nonzero"/><path fill="#9e9e9e" d="M323.7318 406.53693C323.7318 405.43237 322.8364 404.53693 321.7318 404.53693C320.62723 404.53693 319.7318 405.43237 319.7318 406.53693C319.7318 407.6415 320.62723 408.53693 321.7318 408.53693C322.8364 408.53693 323.7318 407.6415 323.7318 406.53693" fill-rule="nonzero"/><path fill="#1a1a1a" d="M844.1281 150.84721L844.1281 140.90971L846.14374 140.90971L846.14374 149.15971L851.175 149.15971L851.175 150.84721L844.1281 150.84721ZM853.0031 150.84721L853.0031 140.83159L855.03436 140.83159L855.03436 150.84721L853.0031 150.84721ZM857.09686 150.84721L857.09686 140.83159L859.0656 140.83159L863.15936 147.51909L863.15936 140.83159L865.03436 140.83159L865.03436 150.84721L863.0031 150.84721L858.97186 144.31596L858.97186 150.84721L857.09686 150.84721ZM867.09686 150.84721L867.09686 140.83159L869.1125 140.83159L869.1125 145.26909L873.20624 140.83159L875.925 140.83159L872.15936 144.72221L876.1281 150.84721L873.51874 150.84721L870.7531 146.14409L869.1125 147.81596L869.1125 150.84721L867.09686 150.84721Z" fill-rule="nonzero"/><path fill="#9e9e9e" d="M841.5656 170.84721L839.64374 170.84721L839.64374 163.61284Q838.58124 164.59721 837.15936 165.06596L837.15936 163.31596Q837.90936 163.08159 838.78436 162.39409Q839.675 161.70659 840.0031 160.78471L841.5656 160.78471L841.5656 170.84721ZM846.3 165.44096Q845.55 165.12846 845.20624 164.58159Q844.8781 164.01909 844.8781 163.36284Q844.8781 162.25346 845.65936 161.51909Q846.4406 160.78471 847.8781 160.78471Q849.3 160.78471 850.09686 161.51909Q850.89374 162.25346 850.89374 163.36284Q850.89374 164.06596 850.51874 164.61284Q850.15936 165.15971 849.5031 165.44096Q850.34686 165.76909 850.76874 166.42534Q851.20624 167.06596 851.20624 167.89409Q851.20624 169.28471 850.3156 170.15971Q849.4406 171.01909 847.97186 171.01909Q846.59686 171.01909 845.6906 170.30034Q844.6125 169.45659 844.6125 167.98784Q844.6125 167.17534 845.01874 166.50346Q845.425 165.81596 846.3 165.44096ZM846.6906 163.50346Q846.6906 164.08159 847.0031 164.40971Q847.33124 164.72221 847.8781 164.72221Q848.425 164.72221 848.7531 164.39409Q849.08124 164.06596 849.08124 163.50346Q849.08124 162.95659 848.7531 162.64409Q848.425 162.31596 847.89374 162.31596Q847.34686 162.31596 847.01874 162.64409Q846.6906 162.97221 846.6906 163.50346ZM846.51874 167.80034Q846.51874 168.59721 846.925 169.03471Q847.33124 169.47221 847.9406 169.47221Q848.53436 169.47221 848.90936 169.05034Q849.3 168.62846 849.3 167.81596Q849.3 167.11284 848.90936 166.69096Q848.51874 166.25346 847.90936 166.25346Q847.20624 166.25346 846.8625 166.75346Q846.51874 167.23784 846.51874 167.80034ZM853.0031 168.92534L854.925 168.92534L854.925 170.30034Q854.925 171.12846 854.78436 171.61284Q854.64374 172.09721 854.2375 172.47221Q853.84686 172.86284 853.22186 173.08159L852.84686 172.28471Q853.425 172.09721 853.675 171.75346Q853.925 171.42534 853.9406 170.84721L853.0031 170.84721L853.0031 168.92534ZM858.3 165.44096Q857.55 165.12846 857.20624 164.58159Q856.8781 164.01909 856.8781 163.36284Q856.8781 162.25346 857.65936 161.51909Q858.4406 160.78471 859.8781 160.78471Q861.3 160.78471 862.09686 161.51909Q862.89374 162.25346 862.89374 163.36284Q862.89374 164.06596 862.51874 164.61284Q862.15936 165.15971 861.5031 165.44096Q862.34686 165.76909 862.76874 166.42534Q863.20624 167.06596 863.20624 167.89409Q863.20624 169.28471 862.3156 170.15971Q861.4406 171.01909 859.97186 171.01909Q858.59686 171.01909 857.6906 170.30034Q856.6125 169.45659 856.6125 167.98784Q856.6125 167.17534 857.01874 166.50346Q857.425 165.81596 858.3 165.44096ZM858.6906 163.50346Q858.6906 164.08159 859.0031 164.40971Q859.33124 164.72221 859.8781 164.72221Q860.425 164.72221 860.7531 164.39409Q861.08124 164.06596 861.08124 163.50346Q861.08124 162.95659 860.7531 162.64409Q860.425 162.31596 859.89374 162.31596Q859.34686 162.31596 859.01874 162.64409Q858.6906 162.97221 858.6906 163.50346ZM858.51874 167.80034Q858.51874 168.59721 858.925 169.03471Q859.33124 169.47221 859.9406 169.47221Q860.53436 169.47221 860.90936 169.05034Q861.3 168.62846 861.3 167.81596Q861.3 167.11284 860.90936 166.69096Q860.51874 166.25346 859.90936 166.25346Q859.20624 166.25346 858.8625 166.75346Q858.51874 167.23784 858.51874 167.80034ZM864.65936 163.30034Q864.65936 161.95659 865.2531 161.31596Q865.84686 160.65971 866.84686 160.65971Q867.89374 160.65971 868.4875 161.30034Q869.08124 161.94096 869.08124 163.30034Q869.08124 164.64409 868.4875 165.30034Q867.89374 165.94096 866.89374 165.94096Q865.84686 165.94096 865.2531 165.30034Q864.65936 164.65971 864.65936 163.30034ZM866.15936 163.28471Q866.15936 164.26909 866.3781 164.59721Q866.55 164.84721 866.84686 164.84721Q867.15936 164.84721 867.33124 164.59721Q867.55 164.26909 867.55 163.28471Q867.55 162.31596 867.33124 161.98784Q867.15936 161.72221 866.84686 161.72221Q866.55 161.72221 866.3781 161.97221Q866.15936 162.31596 866.15936 163.28471ZM868.3156 171.23784L866.89374 171.23784L872.2375 160.65971L873.6125 160.65971L868.3156 171.23784ZM871.425 168.59721Q871.425 167.25346 872.0031 166.61284Q872.59686 165.95659 873.6281 165.95659Q874.65936 165.95659 875.2531 166.61284Q875.84686 167.25346 875.84686 168.59721Q875.84686 169.95659 875.2531 170.61284Q874.65936 171.25346 873.64374 171.25346Q872.59686 171.25346 872.0031 170.61284Q871.425 169.95659 871.425 168.59721ZM872.90936 168.59721Q872.90936 169.56596 873.14374 169.89409Q873.3156 170.14409 873.6125 170.14409Q873.925 170.14409 874.08124 169.90971Q874.3156 169.56596 874.3156 168.59721Q874.3156 167.61284 874.09686 167.28471Q873.925 167.03471 873.6125 167.03471Q873.3 167.03471 873.14374 167.28471Q872.90936 167.61284 872.90936 168.59721Z" fill-rule="nonzero"/><path stroke="#757575" stroke-width="1.0" stroke-linecap="butt" d="M876.05 156.34721L688.23334 156.34721L573.7295 156.34721" fill-rule="nonzero"/><path fill="#9e9e9e" d="M575.7295 156.34721C575.7295 155.24265 574.83405 154.34721 573.7295 154.34721C572.62494 154.34721 571.7295 155.24265 571.7295 156.34721C571.7295 157.45178 572.62494 158.34721 573.7295 158.34721C574.83405 158.34721 575.7295 157.45178 575.7295 156.34721" fill-rule="nonzero"/><path fill="#1a1a1a" d="M857.70624 306.74957L857.70624 302.53082L854.03436 296.73395L856.40936 296.73395L858.7531 300.68707L861.0656 296.73395L863.40936 296.73395L859.72186 302.54645L859.72186 306.74957L857.70624 306.74957ZM864.08124 306.74957L864.08124 296.73395L870.95624 296.73395L870.95624 298.42145L866.1125 298.42145L866.1125 300.79645L870.28436 300.79645L870.28436 302.48395L866.1125 302.48395L866.1125 306.74957L864.08124 306.74957ZM873.0031 306.74957L873.0031 296.73395L875.03436 296.73395L875.03436 306.74957L873.0031 306.74957Z" fill-rule="nonzero"/><path fill="#9e9e9e" d="M841.5656 326.74957L839.64374 326.74957L839.64374 319.5152Q838.58124 320.49957 837.15936 320.96832L837.15936 319.21832Q837.90936 318.98395 838.78436 318.29645Q839.675 317.60895 840.0031 316.68707L841.5656 316.68707L841.5656 326.74957ZM846.3 321.34332Q845.55 321.03082 845.20624 320.48395Q844.8781 319.92145 844.8781 319.2652Q844.8781 318.15582 845.65936 317.42145Q846.4406 316.68707 847.8781 316.68707Q849.3 316.68707 850.09686 317.42145Q850.89374 318.15582 850.89374 319.2652Q850.89374 319.96832 850.51874 320.5152Q850.15936 321.06207 849.5031 321.34332Q850.34686 321.67145 850.76874 322.3277Q851.20624 322.96832 851.20624 323.79645Q851.20624 325.18707 850.3156 326.06207Q849.4406 326.92145 847.97186 326.92145Q846.59686 326.92145 845.6906 326.2027Q844.6125 325.35895 844.6125 323.8902Q844.6125 323.0777 845.01874 322.40582Q845.425 321.71832 846.3 321.34332ZM846.6906 319.40582Q846.6906 319.98395 847.0031 320.31207Q847.33124 320.62457 847.8781 320.62457Q848.425 320.62457 848.7531 320.29645Q849.08124 319.96832 849.08124 319.40582Q849.08124 318.85895 848.7531 318.54645Q848.425 318.21832 847.89374 318.21832Q847.34686 318.21832 847.01874 318.54645Q846.6906 318.87457 846.6906 319.40582ZM846.51874 323.7027Q846.51874 324.49957 846.925 324.93707Q847.33124 325.37457 847.9406 325.37457Q848.53436 325.37457 848.90936 324.9527Q849.3 324.53082 849.3 323.71832Q849.3 323.0152 848.90936 322.59332Q848.51874 322.15582 847.90936 322.15582Q847.20624 322.15582 846.8625 322.65582Q846.51874 323.1402 846.51874 323.7027ZM853.0031 324.8277L854.925 324.8277L854.925 326.2027Q854.925 327.03082 854.78436 327.5152Q854.64374 327.99957 854.2375 328.37457Q853.84686 328.7652 853.22186 328.98395L852.84686 328.18707Q853.425 327.99957 853.675 327.65582Q853.925 327.3277 853.9406 326.74957L853.0031 326.74957L853.0031 324.8277ZM860.40936 326.74957L860.40936 324.73395L856.3156 324.73395L856.3156 323.04645L860.65936 316.68707L862.26874 316.68707L862.26874 323.04645L863.51874 323.04645L863.51874 324.73395L862.26874 324.73395L862.26874 326.74957L860.40936 326.74957ZM860.40936 323.04645L860.40936 319.62457L858.1125 323.04645L860.40936 323.04645ZM864.65936 319.2027Q864.65936 317.85895 865.2531 317.21832Q865.84686 316.56207 866.84686 316.56207Q867.89374 316.56207 868.4875 317.2027Q869.08124 317.84332 869.08124 319.2027Q869.08124 320.54645 868.4875 321.2027Q867.89374 321.84332 866.89374 321.84332Q865.84686 321.84332 865.2531 321.2027Q864.65936 320.56207 864.65936 319.2027ZM866.15936 319.18707Q866.15936 320.17145 866.3781 320.49957Q866.55 320.74957 866.84686 320.74957Q867.15936 320.74957 867.33124 320.49957Q867.55 320.17145 867.55 319.18707Q867.55 318.21832 867.33124 317.8902Q867.15936 317.62457 866.84686 317.62457Q866.55 317.62457 866.3781 317.87457Q866.15936 318.21832 866.15936 319.18707ZM868.3156 327.1402L866.89374 327.1402L872.2375 316.56207L873.6125 316.56207L868.3156 327.1402ZM871.425 324.49957Q871.425 323.15582 872.0031 322.5152Q872.59686 321.85895 873.6281 321.85895Q874.65936 321.85895 875.2531 322.5152Q875.84686 323.15582 875.84686 324.49957Q875.84686 325.85895 875.2531 326.5152Q874.65936 327.15582 873.64374 327.15582Q872.59686 327.15582 872.0031 326.5152Q871.425 325.85895 871.425 324.49957ZM872.90936 324.49957Q872.90936 325.46832 873.14374 325.79645Q873.3156 326.04645 873.6125 326.04645Q873.925 326.04645 874.08124 325.81207Q874.3156 325.46832 874.3156 324.49957Q874.3156 323.5152 874.09686 323.18707Q873.925 322.93707 873.6125 322.93707Q873.3 322.93707 873.14374 323.18707Q872.90936 323.5152 872.90936 324.49957Z" fill-rule="nonzero"/><path stroke="#757575" stroke-width="1.0" stroke-linecap="butt" d="M876.05 312.24957L688.23334 312.24957L666.8444 312.24957" fill-rule="nonzero"/><path fill="#9e9e9e" d="M668.8444 312.24957C668.8444 311.145 667.949 310.24957 666.8444 310.24957C665.73987 310.24957 664.8444 311.145 664.8444 312.24957C664.8444 313.35413 665.73987 314.24957 666.8444 314.24957C667.949 314.24957 668.8444 313.35413 668.8444 312.24957" fill-rule="nonzero"/><path fill="#1a1a1a" d="M848.1125 424.7713L845.90936 424.7713L845.03436 422.49005L841.01874 422.49005L840.1906 424.7713L838.05 424.7713L841.95624 414.75568L844.09686 414.75568L848.1125 424.7713ZM844.3781 420.80255L843.0031 417.0838L841.64374 420.80255L844.3781 420.80255ZM858.1125 424.7713L855.90936 424.7713L855.03436 422.49005L851.01874 422.49005L850.1906 424.7713L848.05 424.7713L851.95624 414.75568L854.09686 414.75568L858.1125 424.7713ZM854.3781 420.80255L853.0031 417.0838L851.64374 420.80255L854.3781 420.80255ZM861.6281 424.7713L858.05 414.75568L860.2375 414.75568L862.76874 422.16193L865.22186 414.75568L867.3781 414.75568L863.78436 424.7713L861.6281 424.7713ZM868.0656 424.7713L868.0656 414.75568L875.5031 414.75568L875.5031 416.44318L870.09686 416.44318L870.09686 418.66193L875.1281 418.66193L875.1281 420.34943L870.09686 420.34943L870.09686 423.0838L875.6906 423.0838L875.6906 424.7713L868.0656 424.7713Z" fill-rule="nonzero"/><path fill="#9e9e9e" d="M841.5656 444.7713L839.64374 444.7713L839.64374 437.53693Q838.58124 438.5213 837.15936 438.99005L837.15936 437.24005Q837.90936 437.00568 838.78436 436.31818Q839.675 435.63068 840.0031 434.7088L841.5656 434.7088L841.5656 444.7713ZM851.15936 437.2088L849.3 437.41193Q849.22186 436.8338 848.925 436.56818Q848.64374 436.28693 848.1906 436.28693Q847.58124 436.28693 847.15936 436.8338Q846.7375 437.38068 846.6281 439.11505Q847.34686 438.25568 848.425 438.25568Q849.6281 438.25568 850.47186 439.17755Q851.33124 440.09943 851.33124 441.53693Q851.33124 443.0838 850.425 444.0213Q849.53436 444.94318 848.1125 444.94318Q846.59686 444.94318 845.6125 443.7713Q844.64374 442.5838 844.64374 439.8963Q844.64374 437.1463 845.65936 435.92755Q846.675 434.7088 848.3156 434.7088Q849.45624 434.7088 850.1906 435.34943Q850.9406 435.99005 851.15936 437.2088ZM846.8 441.3963Q846.8 442.3338 847.22186 442.84943Q847.65936 443.34943 848.20624 443.34943Q848.7531 443.34943 849.09686 442.94318Q849.45624 442.5213 849.45624 441.56818Q849.45624 440.5838 849.0656 440.13068Q848.6906 439.67755 848.1125 439.67755Q847.5656 439.67755 847.175 440.11505Q846.8 440.55255 846.8 441.3963ZM853.0031 442.84943L854.925 442.84943L854.925 444.22443Q854.925 445.05255 854.78436 445.53693Q854.64374 446.0213 854.2375 446.3963Q853.84686 446.78693 853.22186 447.00568L852.84686 446.2088Q853.425 446.0213 853.675 445.67755Q853.925 445.34943 853.9406 444.7713L853.0031 444.7713L853.0031 442.84943ZM856.58124 442.11505L858.4406 441.88068Q858.51874 442.59943 858.90936 442.97443Q859.3 443.34943 859.8625 443.34943Q860.45624 443.34943 860.8625 442.8963Q861.26874 442.44318 861.26874 441.67755Q861.26874 440.9588 860.8781 440.53693Q860.4875 440.11505 859.925 440.11505Q859.55 440.11505 859.05 440.25568L859.2531 438.69318Q860.03436 438.7088 860.4406 438.34943Q860.8625 437.99005 860.8625 437.3963Q860.8625 436.8963 860.55 436.59943Q860.2531 436.28693 859.7531 436.28693Q859.26874 436.28693 858.90936 436.63068Q858.5656 436.97443 858.4875 437.63068L856.72186 437.3338Q856.90936 436.41193 857.26874 435.88068Q857.64374 435.3338 858.3156 435.0213Q858.9875 434.7088 859.8156 434.7088Q861.22186 434.7088 862.08124 435.61505Q862.78436 436.34943 862.78436 437.2713Q862.78436 438.59943 861.34686 439.38068Q862.20624 439.56818 862.72186 440.2088Q863.2375 440.84943 863.2375 441.75568Q863.2375 443.0838 862.26874 444.0213Q861.3 444.94318 859.8781 444.94318Q858.51874 444.94318 857.6125 444.16193Q856.72186 443.38068 856.58124 442.11505ZM864.65936 437.22443Q864.65936 435.88068 865.2531 435.24005Q865.84686 434.5838 866.84686 434.5838Q867.89374 434.5838 868.4875 435.22443Q869.08124 435.86505 869.08124 437.22443Q869.08124 438.56818 868.4875 439.22443Q867.89374 439.86505 866.89374 439.86505Q865.84686 439.86505 865.2531 439.22443Q864.65936 438.5838 864.65936 437.22443ZM866.15936 437.2088Q866.15936 438.19318 866.3781 438.5213Q866.55 438.7713 866.84686 438.7713Q867.15936 438.7713 867.33124 438.5213Q867.55 438.19318 867.55 437.2088Q867.55 436.24005 867.33124 435.91193Q867.15936 435.6463 866.84686 435.6463Q866.55 435.6463 866.3781 435.8963Q866.15936 436.24005 866.15936 437.2088ZM868.3156 445.16193L866.89374 445.16193L872.2375 434.5838L873.6125 434.5838L868.3156 445.16193ZM871.425 442.5213Q871.425 441.17755 872.0031 440.53693Q872.59686 439.88068 873.6281 439.88068Q874.65936 439.88068 875.2531 440.53693Q875.84686 441.17755 875.84686 442.5213Q875.84686 443.88068 875.2531 444.53693Q874.65936 445.17755 873.64374 445.17755Q872.59686 445.17755 872.0031 444.53693Q871.425 443.88068 871.425 442.5213ZM872.90936 442.5213Q872.90936 443.49005 873.14374 443.81818Q873.3156 444.06818 873.6125 444.06818Q873.925 444.06818 874.08124 443.8338Q874.3156 443.49005 874.3156 442.5213Q874.3156 441.53693 874.09686 441.2088Q873.925 440.9588 873.6125 440.9588Q873.3 440.9588 873.14374 441.2088Q872.90936 441.53693 872.90936 442.5213Z" fill-rule="nonzero"/><path stroke="#757575" stroke-width="1.0" stroke-linecap="butt" d="M876.05 430.2713L688.23334 430.2713L514.4959 430.2713" fill-rule="nonzero"/><path fill="#9e9e9e" d="M516.4959 430.2713C516.4959 429.16672 515.60046 428.2713 514.4959 428.2713C513.39136 428.2713 512.4959 429.16672 512.4959 430.2713C512.4959 431.37585 513.39136 432.2713 514.4959 432.2713C515.60046 432.2713 516.4959 431.37585 516.4959 430.2713" fill-rule="nonzero"/><path fill="#000000" d="M29.496876 46.95L29.496876 32.6375L34.8875 32.6375Q36.325 32.6375 37.075 32.7625Q38.121876 32.95 38.840626 33.45Q39.559376 33.934376 39.98125 34.825Q40.41875 35.715626 40.41875 36.778126Q40.41875 38.60625 39.246876 39.871876Q38.090626 41.121876 35.059376 41.121876L31.3875 41.121876L31.3875 46.95L29.496876 46.95ZM31.3875 39.434376L35.090626 39.434376Q36.91875 39.434376 37.684376 38.7625Q38.465626 38.075 38.465626 36.825Q38.465626 35.934376 38.0125 35.29375Q37.559376 34.653126 36.825 34.45Q36.340626 34.325 35.04375 34.325L31.3875 34.325L31.3875 39.434376ZM42.278126 34.653126L42.278126 32.6375L44.04375 32.6375L44.04375 34.653126L42.278126 34.653126ZM42.278126 46.95L42.278126 36.575L44.04375 36.575L44.04375 46.95L42.278126 46.95ZM53.371876 43.60625L55.184376 43.840626Q54.7625 45.41875 53.590626 46.309376Q52.434376 47.184376 50.621876 47.184376Q48.35625 47.184376 47.0125 45.79375Q45.684376 44.3875 45.684376 41.85625Q45.684376 39.23125 47.028126 37.79375Q48.371876 36.340626 50.528126 36.340626Q52.60625 36.340626 53.91875 37.7625Q55.246876 39.16875 55.246876 41.746876Q55.246876 41.903126 55.23125 42.215626L47.496876 42.215626Q47.590626 43.91875 48.465626 44.825Q49.340626 45.73125 50.6375 45.73125Q51.60625 45.73125 52.278126 45.23125Q52.965626 44.715626 53.371876 43.60625ZM47.590626 40.7625L53.3875 40.7625Q53.278126 39.465626 52.73125 38.809376Q51.8875 37.79375 50.54375 37.79375Q49.340626 37.79375 48.5125 38.60625Q47.684376 39.403126 47.590626 40.7625ZM57.496876 46.95L57.496876 32.6375L62.41875 32.6375Q64.09062 32.6375 64.98125 32.840626Q66.2 33.121876 67.075 33.85625Q68.2 34.825 68.7625 36.309376Q69.325 37.79375 69.325 39.715626Q69.325 41.340626 68.95 42.60625Q68.575 43.85625 67.96562 44.684376Q67.37187 45.5125 66.66875 45.996876Q65.96562 46.465626 64.96562 46.715626Q63.965626 46.95 62.653126 46.95L57.496876 46.95ZM59.3875 45.2625L62.45 45.2625Q63.85625 45.2625 64.65312 44.996876Q65.46562 44.73125 65.95 44.246876Q66.62187 43.575 66.99687 42.45Q67.37187 41.309376 67.37187 39.684376Q67.37187 37.434376 66.6375 36.23125Q65.90312 35.028126 64.84062 34.621876Q64.09062 34.325 62.403126 34.325L59.3875 34.325L59.3875 45.2625ZM69.91875 46.95L75.41875 32.6375L77.46562 32.6375L83.325 46.95L81.16875 46.95L79.49687 42.60625L73.5125 42.60625L71.93437 46.95L69.91875 46.95ZM74.05937 41.075L78.90312 41.075L77.41875 37.10625Q76.73125 35.29375 76.40312 34.1375Q76.12187 35.5125 75.62187 36.871876L74.05937 41.075ZM83.91875 39.98125Q83.91875 36.41875 85.825 34.403126Q87.74687 32.371876 90.77812 32.371876Q92.7625 32.371876 94.34062 33.325Q95.93437 34.278126 96.7625 35.98125Q97.60625 37.66875 97.60625 39.809376Q97.60625 41.98125 96.73125 43.7Q95.85625 45.41875 94.23125 46.309376Q92.62187 47.2 90.7625 47.2Q88.74687 47.2 87.15312 46.23125Q85.55937 45.246876 84.73125 43.559376Q83.91875 41.85625 83.91875 39.98125ZM85.87187 40.0125Q85.87187 42.590626 87.2625 44.090626Q88.65312 45.575 90.74687 45.575Q92.8875 45.575 94.2625 44.075Q95.65312 42.559376 95.65312 39.79375Q95.65312 38.059376 95.05937 36.7625Q94.48125 35.45 93.34062 34.73125Q92.2 34.0125 90.77812 34.0125Q88.77812 34.0125 87.325 35.403126Q85.87187 36.778126 85.87187 40.0125ZM106.49687 46.95L106.49687 32.6375L111.41875 32.6375Q113.09062 32.6375 113.98125 32.840626Q115.2 33.121876 116.075 33.85625Q117.2 34.825 117.7625 36.309376Q118.325 37.79375 118.325 39.715626Q118.325 41.340626 117.95 42.60625Q117.575 43.85625 116.96562 44.684376Q116.37187 45.5125 115.66875 45.996876Q114.96562 46.465626 113.96562 46.715626Q112.96562 46.95 111.65312 46.95L106.49687 46.95ZM108.3875 45.2625L111.45 45.2625Q112.85625 45.2625 113.65312 44.996876Q114.46562 44.73125 114.95 44.246876Q115.62187 43.575 115.99687 42.45Q116.37187 41.309376 116.37187 39.684376Q116.37187 37.434376 115.6375 36.23125Q114.90312 35.028126 113.84062 34.621876Q113.09062 34.325 111.40312 34.325L108.3875 34.325L108.3875 45.2625ZM120.52812 46.95L120.52812 32.6375L130.8875 32.6375L130.8875 34.325L122.43437 34.325L122.43437 38.7L130.34062 38.7L130.34062 40.3875L122.43437 40.3875L122.43437 45.2625L131.21562 45.2625L131.21562 46.95L120.52812 46.95ZM133.59062 46.95L133.59062 32.6375L143.24687 32.6375L143.24687 34.325L135.48125 34.325L135.48125 38.7625L142.2 38.7625L142.2 40.45L135.48125 40.45L135.48125 46.95L133.59062 46.95ZM145.80937 46.95L145.80937 32.6375L147.71562 32.6375L147.71562 46.95L145.80937 46.95ZM154.96562 44.6375L154.96562 40.715626L151.05937 40.715626L151.05937 39.075L154.96562 39.075L154.96562 35.16875L156.62187 35.16875L156.62187 39.075L160.5125 39.075L160.5125 40.715626L156.62187 40.715626L156.62187 44.6375L154.96562 44.6375ZM163.41875 46.95L163.41875 32.6375L165.30937 32.6375L165.30937 45.2625L172.35625 45.2625L172.35625 46.95L163.41875 46.95Z" fill-rule="nonzero"/></svg>