<svg version="1.1" viewBox="0.0 0.0 904.0 559.0" fill="none" stroke="none" stroke-linecap="square" stroke-miterlimit="10" width="904" height="559" xmlns:xlink="http://www.w3.org/1999/xlink" xmlns="http://www.w3.org/2000/svg"><path fill="#ffffff" d="M0 0L904.0 0L904.0 559.0L0 559.0L0 0Z" fill-rule="nonzero"/><path fill="#f6b26b" d="M452.0 122.38583C525.69885 122.38583 594.9436 147.0832 638.2627 188.81973L452.0 283.54916Z" fill-rule="nonzero"/><path fill="#003044" d="M682.23334 318.08417C682.23334 334.99594 678.43066 351.80234 670.9649 367.88638L670.9649 333.35138C678.43066 317.26733 682.23334 300.46094 682.23334 283.54916Z" fill-rule="nonzero"/><path fill="#004561" d="M638.2627 188.81973C681.5818 230.55627 693.73914 284.28714 670.9649 333.35138L452.0 283.54916Z" fill-rule="nonzero"/><path fill="#b34e22" d="M670.9649 367.88638C648.19073 416.95062 593.2378 455.41766 523.146 471.35962L523.146 436.82462C593.2378 420.88266 648.19073 382.41562 670.9649 333.35138Z" fill-rule="nonzero"/><path fill="#ff6f31" d="M670.9649 333.35138C648.19073 382.41562 593.2378 420.88266 523.146 436.82462L452.0 283.54916Z" fill-rule="nonzero"/><path fill="#82e7ae" d="M380.85397 130.27373C403.8312 125.04771 427.84033 122.38583 452.0 122.38583L452.0 283.54916Z" fill-rule="nonzero"/><path fill="#577dc2" d="M316.67224 153.1653C336.21783 143.22481 357.87677 135.49976 380.85397 130.27373L452.0 283.54916Z" fill-rule="nonzero"/><path fill="#609faa" d="M265.73734 188.81973C279.93802 175.13782 297.12665 163.10579 316.67224 153.1653L452.0 283.54916Z" fill-rule="nonzero"/><path fill="#ff9a6f" d="M233.0351 233.74696C240.50084 217.6629 251.53662 202.50165 265.73734 188.81973L452.0 283.54916Z" fill-rule="nonzero"/><path fill="#365865" d="M221.76666 318.08417C221.76666 318.08417 221.76666 318.08417 221.76666 318.08417L221.76666 283.54916C221.76666 283.54916 221.76666 283.54916 221.76666 283.54916Z" fill-rule="nonzero"/><path fill="#4d7d90" d="M221.76666 283.54916C221.76666 266.6374 225.56934 249.83101 233.0351 233.74696L452.0 283.54916Z" fill-rule="nonzero"/><path fill="#617d8b" d="M233.0351 367.88638C225.56934 351.80234 221.76666 334.99594 221.76666 318.08417L221.76666 283.54916C221.76666 300.46094 225.56934 317.26733 233.0351 333.35138Z" fill-rule="nonzero"/><path fill="#8ab2c6" d="M233.0351 333.35138C225.56934 317.26733 221.76666 300.46094 221.76666 283.54916L452.0 283.54916Z" fill-rule="nonzero"/><path fill="#359a61" d="M289.20044 432.04385C263.50897 414.0598 244.26266 392.07483 233.0351 367.88638L233.0351 333.35138C244.26266 357.53983 263.50897 379.52484 289.20044 397.50885Z" fill-rule="nonzero"/><path fill="#4cdc8b" d="M289.20044 397.50885C263.50897 379.52484 244.26266 357.53983 233.0351 333.35138L452.0 283.54916Z" fill-rule="nonzero"/><path fill="#0b3076" d="M380.85397 471.35962C346.29904 463.5003 314.8919 450.02786 289.20044 432.04385L289.20044 397.50885C314.8919 415.4929 346.29904 428.9653 380.85397 436.82462Z" fill-rule="nonzero"/><path fill="#0f45a8" d="M380.85397 436.82462C346.29904 428.9653 314.8919 415.4929 289.20044 397.50885L452.0 283.54916Z" fill-rule="nonzero"/><path fill="#14535d" d="M523.146 471.35962C476.90515 481.8768 427.09485 481.8768 380.85397 471.35962L380.85397 436.82462C427.09485 447.3418 476.90515 447.3418 523.146 436.82462Z" fill-rule="nonzero"/><path fill="#1c7685" d="M523.146 436.82462C476.90515 447.3418 427.09485 447.3418 380.85397 436.82462L452.0 283.54916Z" fill-rule="nonzero"/><path fill="#1a1a1a" d="M35.3875 112.77611L37.340626 113.40111Q36.8875 115.04173 35.840626 115.83861Q34.79375 116.63548 33.184376 116.63548Q31.184376 116.63548 29.8875 115.27611Q28.60625 113.90111 28.60625 111.54173Q28.60625 109.04173 29.903126 107.66673Q31.2 106.27611 33.309376 106.27611Q35.1375 106.27611 36.29375 107.35423Q36.98125 107.99486 37.309376 109.19798L35.309376 109.68236Q35.1375 108.90111 34.575 108.44798Q34.0125 107.99486 33.2 107.99486Q32.090626 107.99486 31.3875 108.80736Q30.7 109.60423 30.7 111.38548Q30.7 113.29173 31.371876 114.10423Q32.059376 114.90111 33.153126 114.90111Q33.965626 114.90111 34.54375 114.40111Q35.121876 113.88548 35.3875 112.77611ZM38.98125 116.46361L38.98125 106.44798L43.23125 106.44798Q44.840626 106.44798 45.559376 106.71361Q46.29375 106.97923 46.73125 107.68236Q47.16875 108.36986 47.16875 109.24486Q47.16875 110.38548 46.496876 111.11986Q45.840626 111.85423 44.528126 112.04173Q45.184376 112.41673 45.60625 112.88548Q46.04375 113.33861 46.7625 114.51048L47.98125 116.46361L45.559376 116.46361L44.10625 114.27611Q43.325 113.11986 43.028126 112.82298Q42.746876 112.51048 42.41875 112.40111Q42.10625 112.27611 41.403126 112.27611L40.996876 112.27611L40.996876 116.46361L38.98125 116.46361ZM40.996876 110.68236L42.496876 110.68236Q43.95 110.68236 44.309376 110.55736Q44.684376 110.43236 44.8875 110.13548Q45.090626 109.83861 45.090626 109.38548Q45.090626 108.86986 44.809376 108.57298Q44.54375 108.26048 44.059376 108.16673Q43.809376 108.13548 42.575 108.13548L40.996876 108.13548L40.996876 110.68236ZM51.528126 116.46361L47.95 106.44798L50.1375 106.44798L52.66875 113.85423L55.121876 106.44798L57.278126 106.44798L53.684376 116.46361L51.528126 116.46361Z" fill-rule="nonzero"/><path fill="#9e9e9e" d="M28.575 133.88548L30.48125 133.68236Q30.575 134.33861 30.965626 134.71361Q31.371876 135.08861 31.903126 135.08861Q32.496876 135.08861 32.91875 134.60423Q33.340626 134.11986 33.340626 133.13548Q33.340626 132.21361 32.91875 131.76048Q32.5125 131.29173 31.840626 131.29173Q31.0125 131.29173 30.35625 132.02611L28.809376 131.79173L29.79375 126.57298L34.871876 126.57298L34.871876 128.36986L31.246876 128.36986L30.95 130.07298Q31.590626 129.76048 32.2625 129.76048Q33.528126 129.76048 34.41875 130.69798Q35.309376 131.61986 35.309376 133.10423Q35.309376 134.33861 34.590626 135.30736Q33.621876 136.63548 31.8875 136.63548Q30.496876 136.63548 29.621876 135.90111Q28.746876 135.15111 28.575 133.88548ZM36.903126 134.54173L38.825 134.54173L38.825 135.91673Q38.825 136.74486 38.684376 137.22923Q38.54375 137.71361 38.1375 138.08861Q37.746876 138.47923 37.121876 138.69798L36.746876 137.90111Q37.325 137.71361 37.575 137.36986Q37.825 137.04173 37.840626 136.46361L36.903126 136.46361L36.903126 134.54173ZM43.79375 126.40111Q45.246876 126.40111 46.075 127.43236Q47.04375 128.66673 47.04375 131.52611Q47.04375 134.36986 46.059376 135.60423Q45.246876 136.63548 43.79375 136.63548Q42.325 136.63548 41.434376 135.51048Q40.54375 134.38548 40.54375 131.49486Q40.54375 128.66673 41.528126 127.43236Q42.340626 126.40111 43.79375 126.40111ZM43.79375 127.99486Q43.45 127.99486 43.16875 128.21361Q42.903126 128.43236 42.746876 129.01048Q42.54375 129.76048 42.54375 131.52611Q42.54375 133.29173 42.715626 133.94798Q42.903126 134.60423 43.16875 134.82298Q43.45 135.04173 43.79375 135.04173Q44.1375 135.04173 44.403126 134.82298Q44.684376 134.60423 44.840626 134.02611Q45.04375 133.29173 45.04375 131.52611Q45.04375 129.76048 44.85625 129.10423Q44.684376 128.43236 44.403126 128.21361Q44.1375 127.99486 43.79375 127.99486ZM48.559376 128.91673Q48.559376 127.57298 49.153126 126.93236Q49.746876 126.27611 50.746876 126.27611Q51.79375 126.27611 52.3875 126.91673Q52.98125 127.55736 52.98125 128.91673Q52.98125 130.26048 52.3875 130.91673Q51.79375 131.55736 50.79375 131.55736Q49.746876 131.55736 49.153126 130.91673Q48.559376 130.27611 48.559376 128.91673ZM50.059376 128.90111Q50.059376 129.88548 50.278126 130.21361Q50.45 130.46361 50.746876 130.46361Q51.059376 130.46361 51.23125 130.21361Q51.45 129.88548 51.45 128.90111Q51.45 127.93236 51.23125 127.60423Q51.059376 127.33861 50.746876 127.33861Q50.45 127.33861 50.278126 127.58861Q50.059376 127.93236 50.059376 128.90111ZM52.215626 136.85423L50.79375 136.85423L56.1375 126.27611L57.5125 126.27611L52.215626 136.85423ZM55.325 134.21361Q55.325 132.86986 55.903126 132.22923Q56.496876 131.57298 57.528126 131.57298Q58.559376 131.57298 59.153126 132.22923Q59.746876 132.86986 59.746876 134.21361Q59.746876 135.57298 59.153126 136.22923Q58.559376 136.86986 57.54375 136.86986Q56.496876 136.86986 55.903126 136.22923Q55.325 135.57298 55.325 134.21361ZM56.809376 134.21361Q56.809376 135.18236 57.04375 135.51048Q57.215626 135.76048 57.5125 135.76048Q57.825 135.76048 57.98125 135.52611Q58.215626 135.18236 58.215626 134.21361Q58.215626 133.22923 57.996876 132.90111Q57.825 132.65111 57.5125 132.65111Q57.2 132.65111 57.04375 132.90111Q56.809376 133.22923 56.809376 134.21361Z" fill-rule="nonzero"/><path stroke="#757575" stroke-width="1.0" stroke-linecap="butt" d="M27.95 121.96361L215.76666 121.96361L417.7844 132.32898" fill-rule="nonzero"/><path fill="#9e9e9e" d="M419.7844 132.32898C419.7844 131.22441 418.88898 130.32898 417.7844 130.32898C416.6798 130.32898 415.7844 131.22441 415.7844 132.32898C415.7844 133.43355 416.6798 134.32898 417.7844 134.32898C418.88898 134.32898 419.7844 133.43355 419.7844 132.32898" fill-rule="nonzero"/><path fill="#1a1a1a" d="M28.98125 143.44798L32.98125 143.44798Q34.16875 143.44798 34.746876 143.54173Q35.340626 143.63548 35.79375 143.96361Q36.2625 144.27611 36.559376 144.79173Q36.871876 145.30736 36.871876 145.96361Q36.871876 146.66673 36.496876 147.26048Q36.121876 147.83861 35.465626 148.13548Q36.3875 148.40111 36.871876 149.04173Q37.371876 149.68236 37.371876 150.55736Q37.371876 151.24486 37.04375 151.88548Q36.73125 152.52611 36.184376 152.91673Q35.6375 153.30736 34.825 153.40111Q34.325 153.44798 32.3875 153.46361L28.98125 153.46361L28.98125 143.44798ZM30.996876 145.10423L30.996876 147.43236L32.325 147.43236Q33.5125 147.43236 33.79375 147.38548Q34.309376 147.33861 34.60625 147.04173Q34.903126 146.72923 34.903126 146.24486Q34.903126 145.79173 34.653126 145.49486Q34.403126 145.19798 33.8875 145.15111Q33.590626 145.10423 32.16875 145.10423L30.996876 145.10423ZM30.996876 149.08861L30.996876 151.77611L32.871876 151.77611Q33.965626 151.77611 34.2625 151.71361Q34.715626 151.63548 34.996876 151.32298Q35.278126 150.99486 35.278126 150.46361Q35.278126 150.01048 35.059376 149.69798Q34.840626 149.38548 34.41875 149.24486Q34.0125 149.08861 32.6375 149.08861L30.996876 149.08861ZM48.0125 153.46361L45.809376 153.46361L44.934376 151.18236L40.91875 151.18236L40.090626 153.46361L37.95 153.46361L41.85625 143.44798L43.996876 143.44798L48.0125 153.46361ZM44.278126 149.49486L42.903126 145.77611L41.54375 149.49486L44.278126 149.49486ZM49.028126 153.46361L49.028126 143.52611L51.04375 143.52611L51.04375 151.77611L56.075 151.77611L56.075 153.46361L49.028126 153.46361Z" fill-rule="nonzero"/><path fill="#9e9e9e" d="M28.575 170.88548L30.48125 170.68236Q30.575 171.33861 30.965626 171.71361Q31.371876 172.08861 31.903126 172.08861Q32.496876 172.08861 32.91875 171.60423Q33.340626 171.11986 33.340626 170.13548Q33.340626 169.21361 32.91875 168.76048Q32.5125 168.29173 31.840626 168.29173Q31.0125 168.29173 30.35625 169.02611L28.809376 168.79173L29.79375 163.57298L34.871876 163.57298L34.871876 165.36986L31.246876 165.36986L30.95 167.07298Q31.590626 166.76048 32.2625 166.76048Q33.528126 166.76048 34.41875 167.69798Q35.309376 168.61986 35.309376 170.10423Q35.309376 171.33861 34.590626 172.30736Q33.621876 173.63548 31.8875 173.63548Q30.496876 173.63548 29.621876 172.90111Q28.746876 172.15111 28.575 170.88548ZM36.903126 171.54173L38.825 171.54173L38.825 172.91673Q38.825 173.74486 38.684376 174.22923Q38.54375 174.71361 38.1375 175.08861Q37.746876 175.47923 37.121876 175.69798L36.746876 174.90111Q37.325 174.71361 37.575 174.36986Q37.825 174.04173 37.840626 173.46361L36.903126 173.46361L36.903126 171.54173ZM43.79375 163.40111Q45.246876 163.40111 46.075 164.43236Q47.04375 165.66673 47.04375 168.52611Q47.04375 171.36986 46.059376 172.60423Q45.246876 173.63548 43.79375 173.63548Q42.325 173.63548 41.434376 172.51048Q40.54375 171.38548 40.54375 168.49486Q40.54375 165.66673 41.528126 164.43236Q42.340626 163.40111 43.79375 163.40111ZM43.79375 164.99486Q43.45 164.99486 43.16875 165.21361Q42.903126 165.43236 42.746876 166.01048Q42.54375 166.76048 42.54375 168.52611Q42.54375 170.29173 42.715626 170.94798Q42.903126 171.60423 43.16875 171.82298Q43.45 172.04173 43.79375 172.04173Q44.1375 172.04173 44.403126 171.82298Q44.684376 171.60423 44.840626 171.02611Q45.04375 170.29173 45.04375 168.52611Q45.04375 166.76048 44.85625 166.10423Q44.684376 165.43236 44.403126 165.21361Q44.1375 164.99486 43.79375 164.99486ZM48.559376 165.91673Q48.559376 164.57298 49.153126 163.93236Q49.746876 163.27611 50.746876 163.27611Q51.79375 163.27611 52.3875 163.91673Q52.98125 164.55736 52.98125 165.91673Q52.98125 167.26048 52.3875 167.91673Q51.79375 168.55736 50.79375 168.55736Q49.746876 168.55736 49.153126 167.91673Q48.559376 167.27611 48.559376 165.91673ZM50.059376 165.90111Q50.059376 166.88548 50.278126 167.21361Q50.45 167.46361 50.746876 167.46361Q51.059376 167.46361 51.23125 167.21361Q51.45 166.88548 51.45 165.90111Q51.45 164.93236 51.23125 164.60423Q51.059376 164.33861 50.746876 164.33861Q50.45 164.33861 50.278126 164.58861Q50.059376 164.93236 50.059376 165.90111ZM52.215626 173.85423L50.79375 173.85423L56.1375 163.27611L57.5125 163.27611L52.215626 173.85423ZM55.325 171.21361Q55.325 169.86986 55.903126 169.22923Q56.496876 168.57298 57.528126 168.57298Q58.559376 168.57298 59.153126 169.22923Q59.746876 169.86986 59.746876 171.21361Q59.746876 172.57298 59.153126 173.22923Q58.559376 173.86986 57.54375 173.86986Q56.496876 173.86986 55.903126 173.22923Q55.325 172.57298 55.325 171.21361ZM56.809376 171.21361Q56.809376 172.18236 57.04375 172.51048Q57.215626 172.76048 57.5125 172.76048Q57.825 172.76048 57.98125 172.52611Q58.215626 172.18236 58.215626 171.21361Q58.215626 170.22923 57.996876 169.90111Q57.825 169.65111 57.5125 169.65111Q57.2 169.65111 57.04375 169.90111Q56.809376 170.22923 56.809376 171.21361Z" fill-rule="nonzero"/><path stroke="#757575" stroke-width="1.0" stroke-linecap="butt" d="M27.95 158.96361L215.76666 158.96361L352.70245 147.13147" fill-rule="nonzero"/><path fill="#9e9e9e" d="M354.70245 147.13147C354.70245 146.0269 353.807 145.13147 352.70245 145.13147C351.59787 145.13147 350.70245 146.0269 350.70245 147.13147C350.70245 148.23604 351.59787 149.13147 352.70245 149.13147C353.807 149.13147 354.70245 148.23604 354.70245 147.13147" fill-rule="nonzero"/><path fill="#1a1a1a" d="M28.996876 190.46361L28.996876 180.44798L31.0125 180.44798L31.0125 184.88548L35.10625 180.44798L37.825 180.44798L34.059376 184.33861L38.028126 190.46361L35.41875 190.46361L32.653126 185.76048L31.0125 187.43236L31.0125 190.46361L28.996876 190.46361ZM38.996876 190.46361L38.996876 180.44798L40.965626 180.44798L45.059376 187.13548L45.059376 180.44798L46.934376 180.44798L46.934376 190.46361L44.903126 190.46361L40.871876 183.93236L40.871876 190.46361L38.996876 190.46361ZM55.3875 186.77611L57.340626 187.40111Q56.8875 189.04173 55.840626 189.83861Q54.79375 190.63548 53.184376 190.63548Q51.184376 190.63548 49.8875 189.27611Q48.60625 187.90111 48.60625 185.54173Q48.60625 183.04173 49.903126 181.66673Q51.2 180.27611 53.309376 180.27611Q55.1375 180.27611 56.29375 181.35423Q56.98125 181.99486 57.309376 183.19798L55.309376 183.68236Q55.1375 182.90111 54.575 182.44798Q54.0125 181.99486 53.2 181.99486Q52.090626 181.99486 51.3875 182.80736Q50.7 183.60423 50.7 185.38548Q50.7 187.29173 51.371876 188.10423Q52.059376 188.90111 53.153126 188.90111Q53.965626 188.90111 54.54375 188.40111Q55.121876 187.88548 55.3875 186.77611Z" fill-rule="nonzero"/><path fill="#9e9e9e" d="M28.575 207.88548L30.48125 207.68236Q30.575 208.33861 30.965626 208.71361Q31.371876 209.08861 31.903126 209.08861Q32.496876 209.08861 32.91875 208.60423Q33.340626 208.11986 33.340626 207.13548Q33.340626 206.21361 32.91875 205.76048Q32.5125 205.29173 31.840626 205.29173Q31.0125 205.29173 30.35625 206.02611L28.809376 205.79173L29.79375 200.57298L34.871876 200.57298L34.871876 202.36986L31.246876 202.36986L30.95 204.07298Q31.590626 203.76048 32.2625 203.76048Q33.528126 203.76048 34.41875 204.69798Q35.309376 205.61986 35.309376 207.10423Q35.309376 208.33861 34.590626 209.30736Q33.621876 210.63548 31.8875 210.63548Q30.496876 210.63548 29.621876 209.90111Q28.746876 209.15111 28.575 207.88548ZM36.903126 208.54173L38.825 208.54173L38.825 209.91673Q38.825 210.74486 38.684376 211.22923Q38.54375 211.71361 38.1375 212.08861Q37.746876 212.47923 37.121876 212.69798L36.746876 211.90111Q37.325 211.71361 37.575 211.36986Q37.825 211.04173 37.840626 210.46361L36.903126 210.46361L36.903126 208.54173ZM43.79375 200.40111Q45.246876 200.40111 46.075 201.43236Q47.04375 202.66673 47.04375 205.52611Q47.04375 208.36986 46.059376 209.60423Q45.246876 210.63548 43.79375 210.63548Q42.325 210.63548 41.434376 209.51048Q40.54375 208.38548 40.54375 205.49486Q40.54375 202.66673 41.528126 201.43236Q42.340626 200.40111 43.79375 200.40111ZM43.79375 201.99486Q43.45 201.99486 43.16875 202.21361Q42.903126 202.43236 42.746876 203.01048Q42.54375 203.76048 42.54375 205.52611Q42.54375 207.29173 42.715626 207.94798Q42.903126 208.60423 43.16875 208.82298Q43.45 209.04173 43.79375 209.04173Q44.1375 209.04173 44.403126 208.82298Q44.684376 208.60423 44.840626 208.02611Q45.04375 207.29173 45.04375 205.52611Q45.04375 203.76048 44.85625 203.10423Q44.684376 202.43236 44.403126 202.21361Q44.1375 201.99486 43.79375 201.99486ZM48.559376 202.91673Q48.559376 201.57298 49.153126 200.93236Q49.746876 200.27611 50.746876 200.27611Q51.79375 200.27611 52.3875 200.91673Q52.98125 201.55736 52.98125 202.91673Q52.98125 204.26048 52.3875 204.91673Q51.79375 205.55736 50.79375 205.55736Q49.746876 205.55736 49.153126 204.91673Q48.559376 204.27611 48.559376 202.91673ZM50.059376 202.90111Q50.059376 203.88548 50.278126 204.21361Q50.45 204.46361 50.746876 204.46361Q51.059376 204.46361 51.23125 204.21361Q51.45 203.88548 51.45 202.90111Q51.45 201.93236 51.23125 201.60423Q51.059376 201.33861 50.746876 201.33861Q50.45 201.33861 50.278126 201.58861Q50.059376 201.93236 50.059376 202.90111ZM52.215626 210.85423L50.79375 210.85423L56.1375 200.27611L57.5125 200.27611L52.215626 210.85423ZM55.325 208.21361Q55.325 206.86986 55.903126 206.22923Q56.496876 205.57298 57.528126 205.57298Q58.559376 205.57298 59.153126 206.22923Q59.746876 206.86986 59.746876 208.21361Q59.746876 209.57298 59.153126 210.22923Q58.559376 210.86986 57.54375 210.86986Q56.496876 210.86986 55.903126 210.22923Q55.325 209.57298 55.325 208.21361ZM56.809376 208.21361Q56.809376 209.18236 57.04375 209.51048Q57.215626 209.76048 57.5125 209.76048Q57.825 209.76048 57.98125 209.52611Q58.215626 209.18236 58.215626 208.21361Q58.215626 207.22923 57.996876 206.90111Q57.825 206.65111 57.5125 206.65111Q57.2 206.65111 57.04375 206.90111Q56.809376 207.22923 56.809376 208.21361Z" fill-rule="nonzero"/><path stroke="#757575" stroke-width="1.0" stroke-linecap="butt" d="M27.95 195.96361L215.76666 195.96361L297.34042 175.28746" fill-rule="nonzero"/><path fill="#9e9e9e" d="M299.34042 175.28746C299.34042 174.18289 298.445 173.28746 297.34042 173.28746C296.23587 173.28746 295.34042 174.18289 295.34042 175.28746C295.34042 176.39203 296.23587 177.28746 297.34042 177.28746C298.445 177.28746 299.34042 176.39203 299.34042 175.28746" fill-rule="nonzero"/><path fill="#1a1a1a" d="M28.98125 227.46361L28.98125 217.44798L33.23125 217.44798Q34.840626 217.44798 35.559376 217.71361Q36.29375 217.97923 36.73125 218.68236Q37.16875 219.36986 37.16875 220.24486Q37.16875 221.38548 36.496876 222.11986Q35.840626 222.85423 34.528126 223.04173Q35.184376 223.41673 35.60625 223.88548Q36.04375 224.33861 36.7625 225.51048L37.98125 227.46361L35.559376 227.46361L34.10625 225.27611Q33.325 224.11986 33.028126 223.82298Q32.746876 223.51048 32.41875 223.40111Q32.10625 223.27611 31.403126 223.27611L30.996876 223.27611L30.996876 227.46361L28.98125 227.46361ZM30.996876 221.68236L32.496876 221.68236Q33.95 221.68236 34.309376 221.55736Q34.684376 221.43236 34.8875 221.13548Q35.090626 220.83861 35.090626 220.38548Q35.090626 219.86986 34.809376 219.57298Q34.54375 219.26048 34.059376 219.16673Q33.809376 219.13548 32.575 219.13548L30.996876 219.13548L30.996876 221.68236ZM38.965626 227.46361L38.965626 217.44798L46.403126 217.44798L46.403126 219.13548L40.996876 219.13548L40.996876 221.35423L46.028126 221.35423L46.028126 223.04173L40.996876 223.04173L40.996876 225.77611L46.590626 225.77611L46.590626 227.46361L38.965626 227.46361ZM47.996876 227.46361L47.996876 217.44798L49.965626 217.44798L54.059376 224.13548L54.059376 217.44798L55.934376 217.44798L55.934376 227.46361L53.903126 227.46361L49.871876 220.93236L49.871876 227.46361L47.996876 227.46361Z" fill-rule="nonzero"/><path fill="#9e9e9e" d="M28.575 244.88548L30.48125 244.68236Q30.575 245.33861 30.965626 245.71361Q31.371876 246.08861 31.903126 246.08861Q32.496876 246.08861 32.91875 245.60423Q33.340626 245.11986 33.340626 244.13548Q33.340626 243.21361 32.91875 242.76048Q32.5125 242.29173 31.840626 242.29173Q31.0125 242.29173 30.35625 243.02611L28.809376 242.79173L29.79375 237.57298L34.871876 237.57298L34.871876 239.36986L31.246876 239.36986L30.95 241.07298Q31.590626 240.76048 32.2625 240.76048Q33.528126 240.76048 34.41875 241.69798Q35.309376 242.61986 35.309376 244.10423Q35.309376 245.33861 34.590626 246.30736Q33.621876 247.63548 31.8875 247.63548Q30.496876 247.63548 29.621876 246.90111Q28.746876 246.15111 28.575 244.88548ZM36.903126 245.54173L38.825 245.54173L38.825 246.91673Q38.825 247.74486 38.684376 248.22923Q38.54375 248.71361 38.1375 249.08861Q37.746876 249.47923 37.121876 249.69798L36.746876 248.90111Q37.325 248.71361 37.575 248.36986Q37.825 248.04173 37.840626 247.46361L36.903126 247.46361L36.903126 245.54173ZM43.79375 237.40111Q45.246876 237.40111 46.075 238.43236Q47.04375 239.66673 47.04375 242.52611Q47.04375 245.36986 46.059376 246.60423Q45.246876 247.63548 43.79375 247.63548Q42.325 247.63548 41.434376 246.51048Q40.54375 245.38548 40.54375 242.49486Q40.54375 239.66673 41.528126 238.43236Q42.340626 237.40111 43.79375 237.40111ZM43.79375 238.99486Q43.45 238.99486 43.16875 239.21361Q42.903126 239.43236 42.746876 240.01048Q42.54375 240.76048 42.54375 242.52611Q42.54375 244.29173 42.715626 244.94798Q42.903126 245.60423 43.16875 245.82298Q43.45 246.04173 43.79375 246.04173Q44.1375 246.04173 44.403126 245.82298Q44.684376 245.60423 44.840626 245.02611Q45.04375 244.29173 45.04375 242.52611Q45.04375 240.76048 44.85625 240.10423Q44.684376 239.43236 44.403126 239.21361Q44.1375 238.99486 43.79375 238.99486ZM48.559376 239.91673Q48.559376 238.57298 49.153126 237.93236Q49.746876 237.27611 50.746876 237.27611Q51.79375 237.27611 52.3875 237.91673Q52.98125 238.55736 52.98125 239.91673Q52.98125 241.26048 52.3875 241.91673Q51.79375 242.55736 50.79375 242.55736Q49.746876 242.55736 49.153126 241.91673Q48.559376 241.27611 48.559376 239.91673ZM50.059376 239.90111Q50.059376 240.88548 50.278126 241.21361Q50.45 241.46361 50.746876 241.46361Q51.059376 241.46361 51.23125 241.21361Q51.45 240.88548 51.45 239.90111Q51.45 238.93236 51.23125 238.60423Q51.059376 238.33861 50.746876 238.33861Q50.45 238.33861 50.278126 238.58861Q50.059376 238.93236 50.059376 239.90111ZM52.215626 247.85423L50.79375 247.85423L56.1375 237.27611L57.5125 237.27611L52.215626 247.85423ZM55.325 245.21361Q55.325 243.86986 55.903126 243.22923Q56.496876 242.57298 57.528126 242.57298Q58.559376 242.57298 59.153126 243.22923Q59.746876 243.86986 59.746876 245.21361Q59.746876 246.57298 59.153126 247.22923Q58.559376 247.86986 57.54375 247.86986Q56.496876 247.86986 55.903126 247.22923Q55.325 246.57298 55.325 245.21361ZM56.809376 245.21361Q56.809376 246.18236 57.04375 246.51048Q57.215626 246.76048 57.5125 246.76048Q57.825 246.76048 57.98125 246.52611Q58.215626 246.18236 58.215626 245.21361Q58.215626 244.22923 57.996876 243.90111Q57.825 243.65111 57.5125 243.65111Q57.2 243.65111 57.04375 243.90111Q56.809376 244.22923 56.809376 245.21361Z" fill-rule="nonzero"/><path stroke="#757575" stroke-width="1.0" stroke-linecap="butt" d="M27.95 232.96361L215.76666 232.96361L257.11755 214.04088" fill-rule="nonzero"/><path fill="#9e9e9e" d="M259.11755 214.04088C259.11755 212.93631 258.22214 212.04088 257.11755 212.04088C256.013 212.04088 255.11757 212.93631 255.11757 214.04088C255.11757 215.14545 256.013 216.04088 257.11755 216.04088C258.22214 216.04088 259.11755 215.14545 259.11755 214.04088" fill-rule="nonzero"/><path fill="#1a1a1a" d="M28.95 254.448L30.98125 254.448L30.98125 259.86987Q30.98125 261.16675 31.059376 261.54175Q31.184376 262.16675 31.66875 262.54175Q32.16875 262.90112 33.0125 262.90112Q33.871876 262.90112 34.309376 262.55737Q34.746876 262.198 34.825 261.698Q34.91875 261.18237 34.91875 259.97925L34.91875 254.448L36.95 254.448L36.95 259.698Q36.95 261.5105 36.778126 262.2605Q36.621876 262.99487 36.16875 263.5105Q35.73125 264.02612 34.996876 264.33862Q34.2625 264.6355 33.075 264.6355Q31.6375 264.6355 30.8875 264.30737Q30.153126 263.96362 29.715626 263.448Q29.29375 262.91675 29.153126 262.323Q28.95 261.46362 28.95 259.79175L28.95 254.448ZM38.934376 264.46362L38.934376 254.448L41.965626 254.448L43.79375 261.27612L45.590626 254.448L48.621876 254.448L48.621876 264.46362L46.746876 264.46362L46.746876 256.573L44.746876 264.46362L42.809376 264.46362L40.825 256.573L40.825 264.46362L38.934376 264.46362ZM60.0125 264.46362L57.809376 264.46362L56.934376 262.18237L52.91875 262.18237L52.090626 264.46362L49.95 264.46362L53.85625 254.448L55.996876 254.448L60.0125 264.46362ZM56.278126 260.49487L54.903126 256.77612L53.54375 260.49487L56.278126 260.49487Z" fill-rule="nonzero"/><path fill="#9e9e9e" d="M28.575 281.8855L30.48125 281.68237Q30.575 282.33862 30.965626 282.71362Q31.371876 283.08862 31.903126 283.08862Q32.496876 283.08862 32.91875 282.60425Q33.340626 282.11987 33.340626 281.1355Q33.340626 280.21362 32.91875 279.7605Q32.5125 279.29175 31.840626 279.29175Q31.0125 279.29175 30.35625 280.02612L28.809376 279.79175L29.79375 274.573L34.871876 274.573L34.871876 276.36987L31.246876 276.36987L30.95 278.073Q31.590626 277.7605 32.2625 277.7605Q33.528126 277.7605 34.41875 278.698Q35.309376 279.61987 35.309376 281.10425Q35.309376 282.33862 34.590626 283.30737Q33.621876 284.6355 31.8875 284.6355Q30.496876 284.6355 29.621876 283.90112Q28.746876 283.15112 28.575 281.8855ZM36.903126 282.54175L38.825 282.54175L38.825 283.91675Q38.825 284.74487 38.684376 285.22925Q38.54375 285.71362 38.1375 286.08862Q37.746876 286.47925 37.121876 286.698L36.746876 285.90112Q37.325 285.71362 37.575 285.36987Q37.825 285.04175 37.840626 284.46362L36.903126 284.46362L36.903126 282.54175ZM43.79375 274.40112Q45.246876 274.40112 46.075 275.43237Q47.04375 276.66675 47.04375 279.52612Q47.04375 282.36987 46.059376 283.60425Q45.246876 284.6355 43.79375 284.6355Q42.325 284.6355 41.434376 283.5105Q40.54375 282.3855 40.54375 279.49487Q40.54375 276.66675 41.528126 275.43237Q42.340626 274.40112 43.79375 274.40112ZM43.79375 275.99487Q43.45 275.99487 43.16875 276.21362Q42.903126 276.43237 42.746876 277.0105Q42.54375 277.7605 42.54375 279.52612Q42.54375 281.29175 42.715626 281.948Q42.903126 282.60425 43.16875 282.823Q43.45 283.04175 43.79375 283.04175Q44.1375 283.04175 44.403126 282.823Q44.684376 282.60425 44.840626 282.02612Q45.04375 281.29175 45.04375 279.52612Q45.04375 277.7605 44.85625 277.10425Q44.684376 276.43237 44.403126 276.21362Q44.1375 275.99487 43.79375 275.99487ZM48.559376 276.91675Q48.559376 275.573 49.153126 274.93237Q49.746876 274.27612 50.746876 274.27612Q51.79375 274.27612 52.3875 274.91675Q52.98125 275.55737 52.98125 276.91675Q52.98125 278.2605 52.3875 278.91675Q51.79375 279.55737 50.79375 279.55737Q49.746876 279.55737 49.153126 278.91675Q48.559376 278.27612 48.559376 276.91675ZM50.059376 276.90112Q50.059376 277.8855 50.278126 278.21362Q50.45 278.46362 50.746876 278.46362Q51.059376 278.46362 51.23125 278.21362Q51.45 277.8855 51.45 276.90112Q51.45 275.93237 51.23125 275.60425Q51.059376 275.33862 50.746876 275.33862Q50.45 275.33862 50.278126 275.58862Q50.059376 275.93237 50.059376 276.90112ZM52.215626 284.85425L50.79375 284.85425L56.1375 274.27612L57.5125 274.27612L52.215626 284.85425ZM55.325 282.21362Q55.325 280.86987 55.903126 280.22925Q56.496876 279.573 57.528126 279.573Q58.559376 279.573 59.153126 280.22925Q59.746876 280.86987 59.746876 282.21362Q59.746876 283.573 59.153126 284.22925Q58.559376 284.86987 57.54375 284.86987Q56.496876 284.86987 55.903126 284.22925Q55.325 283.573 55.325 282.21362ZM56.809376 282.21362Q56.809376 283.18237 57.04375 283.5105Q57.215626 283.7605 57.5125 283.7605Q57.825 283.7605 57.98125 283.52612Q58.215626 283.18237 58.215626 282.21362Q58.215626 281.22925 57.996876 280.90112Q57.825 280.65112 57.5125 280.65112Q57.2 280.65112 57.04375 280.90112Q56.809376 281.22925 56.809376 282.21362Z" fill-rule="nonzero"/><path stroke="#757575" stroke-width="1.0" stroke-linecap="butt" d="M27.95 269.96362L215.76666 269.96362L235.97116 259.59824" fill-rule="nonzero"/><path fill="#9e9e9e" d="M237.97116 259.59824C237.97116 258.49368 237.07573 257.59824 235.97116 257.59824C234.8666 257.59824 233.97116 258.49368 233.97116 259.59824C233.97116 260.70282 234.8666 261.59824 235.97116 261.59824C237.07573 261.59824 237.97116 260.70282 237.97116 259.59824" fill-rule="nonzero"/><path fill="#1a1a1a" d="M30.3875 302.0001L27.996876 291.98447L30.075 291.98447L31.575 298.85947L33.41875 291.98447L35.825 291.98447L37.575 298.98447L39.10625 291.98447L41.153126 291.98447L38.715626 302.0001L36.575 302.0001L34.575 294.5001L32.590626 302.0001L30.3875 302.0001ZM41.996876 302.0001L41.996876 291.98447L43.965626 291.98447L48.059376 298.67197L48.059376 291.98447L49.934376 291.98447L49.934376 302.0001L47.903126 302.0001L43.871876 295.46884L43.871876 302.0001L41.996876 302.0001ZM50.95 302.0001L54.371876 296.76572L51.278126 291.98447L53.6375 291.98447L55.653126 295.20322L57.621876 291.98447L59.965626 291.98447L56.840626 296.84384L60.2625 302.0001L57.825 302.0001L55.60625 298.53134L53.371876 302.0001L50.95 302.0001ZM60.934376 302.0001L60.934376 291.98447L63.965626 291.98447L65.79375 298.8126L67.59062 291.98447L70.62187 291.98447L70.62187 302.0001L68.74687 302.0001L68.74687 294.10947L66.74687 302.0001L64.80937 302.0001L62.825 294.10947L62.825 302.0001L60.934376 302.0001Z" fill-rule="nonzero"/><path fill="#9e9e9e" d="M28.575 319.42197L30.48125 319.21884Q30.575 319.8751 30.965626 320.2501Q31.371876 320.6251 31.903126 320.6251Q32.496876 320.6251 32.91875 320.14072Q33.340626 319.65634 33.340626 318.67197Q33.340626 317.7501 32.91875 317.29697Q32.5125 316.82822 31.840626 316.82822Q31.0125 316.82822 30.35625 317.5626L28.809376 317.32822L29.79375 312.10947L34.871876 312.10947L34.871876 313.90634L31.246876 313.90634L30.95 315.60947Q31.590626 315.29697 32.2625 315.29697Q33.528126 315.29697 34.41875 316.23447Q35.309376 317.15634 35.309376 318.64072Q35.309376 319.8751 34.590626 320.84384Q33.621876 322.17197 31.8875 322.17197Q30.496876 322.17197 29.621876 321.4376Q28.746876 320.6876 28.575 319.42197ZM36.903126 320.07822L38.825 320.07822L38.825 321.45322Q38.825 322.28134 38.684376 322.76572Q38.54375 323.2501 38.1375 323.6251Q37.746876 324.01572 37.121876 324.23447L36.746876 323.4376Q37.325 323.2501 37.575 322.90634Q37.825 322.57822 37.840626 322.0001L36.903126 322.0001L36.903126 320.07822ZM43.79375 311.9376Q45.246876 311.9376 46.075 312.96884Q47.04375 314.20322 47.04375 317.0626Q47.04375 319.90634 46.059376 321.14072Q45.246876 322.17197 43.79375 322.17197Q42.325 322.17197 41.434376 321.04697Q40.54375 319.92197 40.54375 317.03134Q40.54375 314.20322 41.528126 312.96884Q42.340626 311.9376 43.79375 311.9376ZM43.79375 313.53134Q43.45 313.53134 43.16875 313.7501Q42.903126 313.96884 42.746876 314.54697Q42.54375 315.29697 42.54375 317.0626Q42.54375 318.82822 42.715626 319.48447Q42.903126 320.14072 43.16875 320.35947Q43.45 320.57822 43.79375 320.57822Q44.1375 320.57822 44.403126 320.35947Q44.684376 320.14072 44.840626 319.5626Q45.04375 318.82822 45.04375 317.0626Q45.04375 315.29697 44.85625 314.64072Q44.684376 313.96884 44.403126 313.7501Q44.1375 313.53134 43.79375 313.53134ZM48.559376 314.45322Q48.559376 313.10947 49.153126 312.46884Q49.746876 311.8126 50.746876 311.8126Q51.79375 311.8126 52.3875 312.45322Q52.98125 313.09384 52.98125 314.45322Q52.98125 315.79697 52.3875 316.45322Q51.79375 317.09384 50.79375 317.09384Q49.746876 317.09384 49.153126 316.45322Q48.559376 315.8126 48.559376 314.45322ZM50.059376 314.4376Q50.059376 315.42197 50.278126 315.7501Q50.45 316.0001 50.746876 316.0001Q51.059376 316.0001 51.23125 315.7501Q51.45 315.42197 51.45 314.4376Q51.45 313.46884 51.23125 313.14072Q51.059376 312.8751 50.746876 312.8751Q50.45 312.8751 50.278126 313.1251Q50.059376 313.46884 50.059376 314.4376ZM52.215626 322.39072L50.79375 322.39072L56.1375 311.8126L57.5125 311.8126L52.215626 322.39072ZM55.325 319.7501Q55.325 318.40634 55.903126 317.76572Q56.496876 317.10947 57.528126 317.10947Q58.559376 317.10947 59.153126 317.76572Q59.746876 318.40634 59.746876 319.7501Q59.746876 321.10947 59.153126 321.76572Q58.559376 322.40634 57.54375 322.40634Q56.496876 322.40634 55.903126 321.76572Q55.325 321.10947 55.325 319.7501ZM56.809376 319.7501Q56.809376 320.71884 57.04375 321.04697Q57.215626 321.29697 57.5125 321.29697Q57.825 321.29697 57.98125 321.0626Q58.215626 320.71884 58.215626 319.7501Q58.215626 318.76572 57.996876 318.4376Q57.825 318.1876 57.5125 318.1876Q57.2 318.1876 57.04375 318.4376Q56.809376 318.76572 56.809376 319.7501Z" fill-rule="nonzero"/><path stroke="#757575" stroke-width="1.0" stroke-linecap="butt" d="M27.95 307.5001L215.76666 307.5001L235.97116 307.5001" fill-rule="nonzero"/><path fill="#9e9e9e" d="M237.97116 307.5001C237.97116 306.3955 237.07573 305.5001 235.97116 305.5001C234.8666 305.5001 233.97116 306.3955 233.97116 307.5001C233.97116 308.60468 234.8666 309.5001 235.97116 309.5001C237.07573 309.5001 237.97116 308.60468 237.97116 307.5001" fill-rule="nonzero"/><path fill="#1a1a1a" d="M28.934376 358.0464L28.934376 348.03076L31.965626 348.03076L33.79375 354.8589L35.590626 348.03076L38.621876 348.03076L38.621876 358.0464L36.746876 358.0464L36.746876 350.15576L34.746876 358.0464L32.809376 358.0464L30.825 350.15576L30.825 358.0464L28.934376 358.0464ZM40.996876 358.0464L40.996876 348.03076L43.0125 348.03076L43.0125 352.46826L47.10625 348.03076L49.825 348.03076L46.059376 351.9214L50.028126 358.0464L47.41875 358.0464L44.653126 353.34326L43.0125 355.01514L43.0125 358.0464L40.996876 358.0464ZM50.98125 358.0464L50.98125 348.03076L55.23125 348.03076Q56.840626 348.03076 57.559376 348.2964Q58.29375 348.562 58.73125 349.26514Q59.16875 349.95264 59.16875 350.82764Q59.16875 351.96826 58.496876 352.70264Q57.840626 353.437 56.528126 353.6245Q57.184376 353.9995 57.60625 354.46826Q58.04375 354.9214 58.7625 356.09326L59.98125 358.0464L57.559376 358.0464L56.10625 355.8589Q55.325 354.70264 55.028126 354.40576Q54.746876 354.09326 54.41875 353.9839Q54.10625 353.8589 53.403126 353.8589L52.996876 353.8589L52.996876 358.0464L50.98125 358.0464ZM52.996876 352.26514L54.496876 352.26514Q55.95 352.26514 56.309376 352.14014Q56.684376 352.01514 56.8875 351.71826Q57.090626 351.4214 57.090626 350.96826Q57.090626 350.45264 56.809376 350.15576Q56.54375 349.84326 56.059376 349.7495Q55.809376 349.71826 54.575 349.71826L52.996876 349.71826L52.996876 352.26514Z" fill-rule="nonzero"/><path fill="#9e9e9e" d="M28.54375 369.95264L28.54375 368.15576L35.121876 368.15576L35.121876 369.562Q34.29375 370.3589 33.45 371.8589Q32.621876 373.34326 32.16875 375.03076Q31.73125 376.71826 31.746876 378.0464L29.8875 378.0464Q29.934376 375.96826 30.746876 373.812Q31.559376 371.64014 32.91875 369.95264L28.54375 369.95264ZM36.903126 376.1245L38.825 376.1245L38.825 377.4995Q38.825 378.32764 38.684376 378.812Q38.54375 379.2964 38.1375 379.6714Q37.746876 380.062 37.121876 380.28076L36.746876 379.4839Q37.325 379.2964 37.575 378.95264Q37.825 378.6245 37.840626 378.0464L36.903126 378.0464L36.903126 376.1245ZM40.575 375.46826L42.48125 375.26514Q42.575 375.9214 42.965626 376.2964Q43.371876 376.6714 43.903126 376.6714Q44.496876 376.6714 44.91875 376.187Q45.340626 375.70264 45.340626 374.71826Q45.340626 373.7964 44.91875 373.34326Q44.5125 372.8745 43.840626 372.8745Q43.0125 372.8745 42.35625 373.6089L40.809376 373.3745L41.79375 368.15576L46.871876 368.15576L46.871876 369.95264L43.246876 369.95264L42.95 371.65576Q43.590626 371.34326 44.2625 371.34326Q45.528126 371.34326 46.41875 372.28076Q47.309376 373.20264 47.309376 374.687Q47.309376 375.9214 46.590626 376.89014Q45.621876 378.21826 43.8875 378.21826Q42.496876 378.21826 41.621876 377.4839Q40.746876 376.7339 40.575 375.46826ZM48.559376 370.4995Q48.559376 369.15576 49.153126 368.51514Q49.746876 367.8589 50.746876 367.8589Q51.79375 367.8589 52.3875 368.4995Q52.98125 369.14014 52.98125 370.4995Q52.98125 371.84326 52.3875 372.4995Q51.79375 373.14014 50.79375 373.14014Q49.746876 373.14014 49.153126 372.4995Q48.559376 371.8589 48.559376 370.4995ZM50.059376 370.4839Q50.059376 371.46826 50.278126 371.7964Q50.45 372.0464 50.746876 372.0464Q51.059376 372.0464 51.23125 371.7964Q51.45 371.46826 51.45 370.4839Q51.45 369.51514 51.23125 369.187Q51.059376 368.9214 50.746876 368.9214Q50.45 368.9214 50.278126 369.1714Q50.059376 369.51514 50.059376 370.4839ZM52.215626 378.437L50.79375 378.437L56.1375 367.8589L57.5125 367.8589L52.215626 378.437ZM55.325 375.7964Q55.325 374.45264 55.903126 373.812Q56.496876 373.15576 57.528126 373.15576Q58.559376 373.15576 59.153126 373.812Q59.746876 374.45264 59.746876 375.7964Q59.746876 377.15576 59.153126 377.812Q58.559376 378.45264 57.54375 378.45264Q56.496876 378.45264 55.903126 377.812Q55.325 377.15576 55.325 375.7964ZM56.809376 375.7964Q56.809376 376.76514 57.04375 377.09326Q57.215626 377.34326 57.5125 377.34326Q57.825 377.34326 57.98125 377.1089Q58.215626 376.76514 58.215626 375.7964Q58.215626 374.812 57.996876 374.4839Q57.825 374.2339 57.5125 374.2339Q57.2 374.2339 57.04375 374.4839Q56.809376 374.812 56.809376 375.7964Z" fill-rule="nonzero"/><path stroke="#757575" stroke-width="1.0" stroke-linecap="butt" d="M27.95 363.5464L215.76666 363.5464L265.50912 363.5464" fill-rule="nonzero"/><path fill="#9e9e9e" d="M267.50912 363.5464C267.50912 362.44183 266.61368 361.5464 265.50912 361.5464C264.40454 361.5464 263.50912 362.44183 263.50912 363.5464C263.50912 364.65097 264.40454 365.5464 265.50912 365.5464C266.61368 365.5464 267.50912 364.65097 267.50912 363.5464" fill-rule="nonzero"/><path fill="#1a1a1a" d="M35.3875 404.90527L37.340626 405.53027Q36.8875 407.1709 35.840626 407.96777Q34.79375 408.76465 33.184376 408.76465Q31.184376 408.76465 29.8875 407.40527Q28.60625 406.03027 28.60625 403.6709Q28.60625 401.1709 29.903126 399.7959Q31.2 398.40527 33.309376 398.40527Q35.1375 398.40527 36.29375 399.4834Q36.98125 400.12402 37.309376 401.32715L35.309376 401.81152Q35.1375 401.03027 34.575 400.57715Q34.0125 400.12402 33.2 400.12402Q32.090626 400.12402 31.3875 400.93652Q30.7 401.7334 30.7 403.51465Q30.7 405.4209 31.371876 406.2334Q32.059376 407.03027 33.153126 407.03027Q33.965626 407.03027 34.54375 406.53027Q35.121876 406.01465 35.3875 404.90527ZM38.559376 403.63965Q38.559376 402.1084 39.0125 401.07715Q39.35625 400.31152 39.95 399.70215Q40.54375 399.09277 41.246876 398.7959Q42.184376 398.40527 43.403126 398.40527Q45.621876 398.40527 46.95 399.78027Q48.278126 401.15527 48.278126 403.59277Q48.278126 406.01465 46.95 407.38965Q45.6375 408.76465 43.434376 408.76465Q41.2 408.76465 39.871876 407.40527Q38.559376 406.03027 38.559376 403.63965ZM40.6375 403.57715Q40.6375 405.28027 41.41875 406.15527Q42.215626 407.03027 43.41875 407.03027Q44.6375 407.03027 45.403126 406.1709Q46.184376 405.2959 46.184376 403.5459Q46.184376 401.82715 45.434376 400.9834Q44.684376 400.12402 43.41875 400.12402Q42.16875 400.12402 41.403126 400.9834Q40.6375 401.84277 40.6375 403.57715ZM49.934376 408.59277L49.934376 398.57715L52.965626 398.57715L54.79375 405.40527L56.590626 398.57715L59.621876 398.57715L59.621876 408.59277L57.746876 408.59277L57.746876 400.70215L55.746876 408.59277L53.809376 408.59277L51.825 400.70215L51.825 408.59277L49.934376 408.59277ZM61.965626 408.59277L61.965626 398.57715L65.21562 398.57715Q67.05937 398.57715 67.62187 398.71777Q68.48125 398.95215 69.05937 399.70215Q69.65312 400.45215 69.65312 401.65527Q69.65312 402.57715 69.30937 403.20215Q68.98125 403.82715 68.46562 404.18652Q67.95 404.5459 67.40312 404.6709Q66.68437 404.81152 65.30937 404.81152L63.996876 404.81152L63.996876 408.59277L61.965626 408.59277ZM63.996876 400.26465L63.996876 403.1084L65.10625 403.1084Q66.29375 403.1084 66.7 402.95215Q67.10625 402.7959 67.325 402.46777Q67.55937 402.12402 67.55937 401.68652Q67.55937 401.13965 67.23125 400.78027Q66.91875 400.4209 66.41875 400.32715Q66.05937 400.26465 64.96562 400.26465L63.996876 400.26465Z" fill-rule="nonzero"/><path fill="#9e9e9e" d="M28.54375 420.49902L28.54375 418.70215L35.121876 418.70215L35.121876 420.1084Q34.29375 420.90527 33.45 422.40527Q32.621876 423.88965 32.16875 425.57715Q31.73125 427.26465 31.746876 428.59277L29.8875 428.59277Q29.934376 426.51465 30.746876 424.3584Q31.559376 422.18652 32.91875 420.49902L28.54375 420.49902ZM36.903126 426.6709L38.825 426.6709L38.825 428.0459Q38.825 428.87402 38.684376 429.3584Q38.54375 429.84277 38.1375 430.21777Q37.746876 430.6084 37.121876 430.82715L36.746876 430.03027Q37.325 429.84277 37.575 429.49902Q37.825 429.1709 37.840626 428.59277L36.903126 428.59277L36.903126 426.6709ZM40.575 426.01465L42.48125 425.81152Q42.575 426.46777 42.965626 426.84277Q43.371876 427.21777 43.903126 427.21777Q44.496876 427.21777 44.91875 426.7334Q45.340626 426.24902 45.340626 425.26465Q45.340626 424.34277 44.91875 423.88965Q44.5125 423.4209 43.840626 423.4209Q43.0125 423.4209 42.35625 424.15527L40.809376 423.9209L41.79375 418.70215L46.871876 418.70215L46.871876 420.49902L43.246876 420.49902L42.95 422.20215Q43.590626 421.88965 44.2625 421.88965Q45.528126 421.88965 46.41875 422.82715Q47.309376 423.74902 47.309376 425.2334Q47.309376 426.46777 46.590626 427.43652Q45.621876 428.76465 43.8875 428.76465Q42.496876 428.76465 41.621876 428.03027Q40.746876 427.28027 40.575 426.01465ZM48.559376 421.0459Q48.559376 419.70215 49.153126 419.06152Q49.746876 418.40527 50.746876 418.40527Q51.79375 418.40527 52.3875 419.0459Q52.98125 419.68652 52.98125 421.0459Q52.98125 422.38965 52.3875 423.0459Q51.79375 423.68652 50.79375 423.68652Q49.746876 423.68652 49.153126 423.0459Q48.559376 422.40527 48.559376 421.0459ZM50.059376 421.03027Q50.059376 422.01465 50.278126 422.34277Q50.45 422.59277 50.746876 422.59277Q51.059376 422.59277 51.23125 422.34277Q51.45 422.01465 51.45 421.03027Q51.45 420.06152 51.23125 419.7334Q51.059376 419.46777 50.746876 419.46777Q50.45 419.46777 50.278126 419.71777Q50.059376 420.06152 50.059376 421.03027ZM52.215626 428.9834L50.79375 428.9834L56.1375 418.40527L57.5125 418.40527L52.215626 428.9834ZM55.325 426.34277Q55.325 424.99902 55.903126 424.3584Q56.496876 423.70215 57.528126 423.70215Q58.559376 423.70215 59.153126 424.3584Q59.746876 424.99902 59.746876 426.34277Q59.746876 427.70215 59.153126 428.3584Q58.559376 428.99902 57.54375 428.99902Q56.496876 428.99902 55.903126 428.3584Q55.325 427.70215 55.325 426.34277ZM56.809376 426.34277Q56.809376 427.31152 57.04375 427.63965Q57.215626 427.88965 57.5125 427.88965Q57.825 427.88965 57.98125 427.65527Q58.215626 427.31152 58.215626 426.34277Q58.215626 425.3584 57.996876 425.03027Q57.825 424.78027 57.5125 424.78027Q57.2 424.78027 57.04375 425.03027Q56.809376 425.3584 56.809376 426.34277Z" fill-rule="nonzero"/><path stroke="#757575" stroke-width="1.0" stroke-linecap="butt" d="M27.95 414.09277L215.76666 414.09277L337.71823 414.09277" fill-rule="nonzero"/><path fill="#9e9e9e" d="M339.71823 414.09277C339.71823 412.98822 338.8228 412.09277 337.71823 412.09277C336.61368 412.09277 335.71823 412.98822 335.71823 414.09277C335.71823 415.19736 336.61368 416.09277 337.71823 416.09277C338.8228 416.09277 339.71823 415.19736 339.71823 414.09277" fill-rule="nonzero"/><path fill="#1a1a1a" d="M857.70624 141.63147L857.70624 137.41272L854.03436 131.61584L856.40936 131.61584L858.7531 135.56897L861.0656 131.61584L863.40936 131.61584L859.72186 137.42834L859.72186 141.63147L857.70624 141.63147ZM864.08124 141.63147L864.08124 131.61584L870.95624 131.61584L870.95624 133.30334L866.1125 133.30334L866.1125 135.67834L870.28436 135.67834L870.28436 137.36584L866.1125 137.36584L866.1125 141.63147L864.08124 141.63147ZM873.0031 141.63147L873.0031 131.61584L875.03436 131.61584L875.03436 141.63147L873.0031 141.63147Z" fill-rule="nonzero"/><path fill="#9e9e9e" d="M841.5656 161.63147L839.64374 161.63147L839.64374 154.3971Q838.58124 155.38147 837.15936 155.85022L837.15936 154.10022Q837.90936 153.86584 838.78436 153.17834Q839.675 152.49084 840.0031 151.56897L841.5656 151.56897L841.5656 161.63147ZM844.675 159.05334L846.58124 158.85022Q846.675 159.50647 847.0656 159.88147Q847.47186 160.25647 848.0031 160.25647Q848.59686 160.25647 849.01874 159.7721Q849.4406 159.28772 849.4406 158.30334Q849.4406 157.38147 849.01874 156.92834Q848.6125 156.4596 847.9406 156.4596Q847.1125 156.4596 846.45624 157.19397L844.90936 156.9596L845.89374 151.74084L850.97186 151.74084L850.97186 153.53772L847.34686 153.53772L847.05 155.24084Q847.6906 154.92834 848.3625 154.92834Q849.6281 154.92834 850.51874 155.86584Q851.40936 156.78772 851.40936 158.2721Q851.40936 159.50647 850.6906 160.47522Q849.72186 161.80334 847.9875 161.80334Q846.59686 161.80334 845.72186 161.06897Q844.84686 160.31897 844.675 159.05334ZM853.0031 159.7096L854.925 159.7096L854.925 161.0846Q854.925 161.91272 854.78436 162.3971Q854.64374 162.88147 854.2375 163.25647Q853.84686 163.6471 853.22186 163.86584L852.84686 163.06897Q853.425 162.88147 853.675 162.53772Q853.925 162.2096 853.9406 161.63147L853.0031 161.63147L853.0031 159.7096ZM859.89374 151.56897Q861.34686 151.56897 862.175 152.60022Q863.14374 153.8346 863.14374 156.69397Q863.14374 159.53772 862.15936 160.7721Q861.34686 161.80334 859.89374 161.80334Q858.425 161.80334 857.53436 160.67834Q856.64374 159.55334 856.64374 156.66272Q856.64374 153.8346 857.6281 152.60022Q858.4406 151.56897 859.89374 151.56897ZM859.89374 153.16272Q859.55 153.16272 859.26874 153.38147Q859.0031 153.60022 858.84686 154.17834Q858.64374 154.92834 858.64374 156.69397Q858.64374 158.4596 858.8156 159.11584Q859.0031 159.7721 859.26874 159.99084Q859.55 160.2096 859.89374 160.2096Q860.2375 160.2096 860.5031 159.99084Q860.78436 159.7721 860.9406 159.19397Q861.14374 158.4596 861.14374 156.69397Q861.14374 154.92834 860.95624 154.2721Q860.78436 153.60022 860.5031 153.38147Q860.2375 153.16272 859.89374 153.16272ZM864.65936 154.0846Q864.65936 152.74084 865.2531 152.10022Q865.84686 151.44397 866.84686 151.44397Q867.89374 151.44397 868.4875 152.0846Q869.08124 152.72522 869.08124 154.0846Q869.08124 155.42834 868.4875 156.0846Q867.89374 156.72522 866.89374 156.72522Q865.84686 156.72522 865.2531 156.0846Q864.65936 155.44397 864.65936 154.0846ZM866.15936 154.06897Q866.15936 155.05334 866.3781 155.38147Q866.55 155.63147 866.84686 155.63147Q867.15936 155.63147 867.33124 155.38147Q867.55 155.05334 867.55 154.06897Q867.55 153.10022 867.33124 152.7721Q867.15936 152.50647 866.84686 152.50647Q866.55 152.50647 866.3781 152.75647Q866.15936 153.10022 866.15936 154.06897ZM868.3156 162.0221L866.89374 162.0221L872.2375 151.44397L873.6125 151.44397L868.3156 162.0221ZM871.425 159.38147Q871.425 158.03772 872.0031 157.3971Q872.59686 156.74084 873.6281 156.74084Q874.65936 156.74084 875.2531 157.3971Q875.84686 158.03772 875.84686 159.38147Q875.84686 160.74084 875.2531 161.3971Q874.65936 162.03772 873.64374 162.03772Q872.59686 162.03772 872.0031 161.3971Q871.425 160.74084 871.425 159.38147ZM872.90936 159.38147Q872.90936 160.35022 873.14374 160.67834Q873.3156 160.92834 873.6125 160.92834Q873.925 160.92834 874.08124 160.69397Q874.3156 160.35022 874.3156 159.38147Q874.3156 158.3971 874.09686 158.06897Q873.925 157.81897 873.6125 157.81897Q873.3 157.81897 873.14374 158.06897Q872.90936 158.3971 872.90936 159.38147Z" fill-rule="nonzero"/><path stroke="#757575" stroke-width="1.0" stroke-linecap="butt" d="M876.05 147.13147L688.23334 147.13147L551.29755 147.13147" fill-rule="nonzero"/><path fill="#9e9e9e" d="M553.29755 147.13147C553.29755 146.0269 552.4021 145.13147 551.29755 145.13147C550.193 145.13147 549.29755 146.0269 549.29755 147.13147C549.29755 148.23604 550.193 149.13147 551.29755 149.13147C552.4021 149.13147 553.29755 148.23604 553.29755 147.13147" fill-rule="nonzero"/><path fill="#1a1a1a" d="M848.1125 254.09824L845.90936 254.09824L845.03436 251.81699L841.01874 251.81699L840.1906 254.09824L838.05 254.09824L841.95624 244.08261L844.09686 244.08261L848.1125 254.09824ZM844.3781 250.12949L843.0031 246.41074L841.64374 250.12949L844.3781 250.12949ZM858.1125 254.09824L855.90936 254.09824L855.03436 251.81699L851.01874 251.81699L850.1906 254.09824L848.05 254.09824L851.95624 244.08261L854.09686 244.08261L858.1125 254.09824ZM854.3781 250.12949L853.0031 246.41074L851.64374 250.12949L854.3781 250.12949ZM861.6281 254.09824L858.05 244.08261L860.2375 244.08261L862.76874 251.48886L865.22186 244.08261L867.3781 244.08261L863.78436 254.09824L861.6281 254.09824ZM868.0656 254.09824L868.0656 244.08261L875.5031 244.08261L875.5031 245.77011L870.09686 245.77011L870.09686 247.98886L875.1281 247.98886L875.1281 249.67636L870.09686 249.67636L870.09686 252.41074L875.6906 252.41074L875.6906 254.09824L868.0656 254.09824Z" fill-rule="nonzero"/><path fill="#9e9e9e" d="M841.5656 274.09824L839.64374 274.09824L839.64374 266.86386Q838.58124 267.84824 837.15936 268.317L837.15936 266.567Q837.90936 266.3326 838.78436 265.6451Q839.675 264.9576 840.0031 264.03574L841.5656 264.03574L841.5656 274.09824ZM844.675 271.5201L846.58124 271.317Q846.675 271.97324 847.0656 272.34824Q847.47186 272.72324 848.0031 272.72324Q848.59686 272.72324 849.01874 272.23886Q849.4406 271.7545 849.4406 270.7701Q849.4406 269.84824 849.01874 269.3951Q848.6125 268.92636 847.9406 268.92636Q847.1125 268.92636 846.45624 269.66074L844.90936 269.42636L845.89374 264.2076L850.97186 264.2076L850.97186 266.0045L847.34686 266.0045L847.05 267.7076Q847.6906 267.3951 848.3625 267.3951Q849.6281 267.3951 850.51874 268.3326Q851.40936 269.2545 851.40936 270.73886Q851.40936 271.97324 850.6906 272.942Q849.72186 274.2701 847.9875 274.2701Q846.59686 274.2701 845.72186 273.53574Q844.84686 272.78574 844.675 271.5201ZM853.0031 272.17636L854.925 272.17636L854.925 273.55136Q854.925 274.3795 854.78436 274.86386Q854.64374 275.34824 854.2375 275.72324Q853.84686 276.11386 853.22186 276.3326L852.84686 275.53574Q853.425 275.34824 853.675 275.0045Q853.925 274.67636 853.9406 274.09824L853.0031 274.09824L853.0031 272.17636ZM859.89374 264.03574Q861.34686 264.03574 862.175 265.067Q863.14374 266.30136 863.14374 269.16074Q863.14374 272.0045 862.15936 273.23886Q861.34686 274.2701 859.89374 274.2701Q858.425 274.2701 857.53436 273.1451Q856.64374 272.0201 856.64374 269.1295Q856.64374 266.30136 857.6281 265.067Q858.4406 264.03574 859.89374 264.03574ZM859.89374 265.6295Q859.55 265.6295 859.26874 265.84824Q859.0031 266.067 858.84686 266.6451Q858.64374 267.3951 858.64374 269.16074Q858.64374 270.92636 858.8156 271.5826Q859.0031 272.23886 859.26874 272.4576Q859.55 272.67636 859.89374 272.67636Q860.2375 272.67636 860.5031 272.4576Q860.78436 272.23886 860.9406 271.66074Q861.14374 270.92636 861.14374 269.16074Q861.14374 267.3951 860.95624 266.73886Q860.78436 266.067 860.5031 265.84824Q860.2375 265.6295 859.89374 265.6295ZM864.65936 266.55136Q864.65936 265.2076 865.2531 264.567Q865.84686 263.91074 866.84686 263.91074Q867.89374 263.91074 868.4875 264.55136Q869.08124 265.192 869.08124 266.55136Q869.08124 267.8951 868.4875 268.55136Q867.89374 269.192 866.89374 269.192Q865.84686 269.192 865.2531 268.55136Q864.65936 267.91074 864.65936 266.55136ZM866.15936 266.53574Q866.15936 267.5201 866.3781 267.84824Q866.55 268.09824 866.84686 268.09824Q867.15936 268.09824 867.33124 267.84824Q867.55 267.5201 867.55 266.53574Q867.55 265.567 867.33124 265.23886Q867.15936 264.97324 866.84686 264.97324Q866.55 264.97324 866.3781 265.22324Q866.15936 265.567 866.15936 266.53574ZM868.3156 274.48886L866.89374 274.48886L872.2375 263.91074L873.6125 263.91074L868.3156 274.48886ZM871.425 271.84824Q871.425 270.5045 872.0031 269.86386Q872.59686 269.2076 873.6281 269.2076Q874.65936 269.2076 875.2531 269.86386Q875.84686 270.5045 875.84686 271.84824Q875.84686 273.2076 875.2531 273.86386Q874.65936 274.5045 873.64374 274.5045Q872.59686 274.5045 872.0031 273.86386Q871.425 273.2076 871.425 271.84824ZM872.90936 271.84824Q872.90936 272.817 873.14374 273.1451Q873.3156 273.3951 873.6125 273.3951Q873.925 273.3951 874.08124 273.16074Q874.3156 272.817 874.3156 271.84824Q874.3156 270.86386 874.09686 270.53574Q873.925 270.28574 873.6125 270.28574Q873.3 270.28574 873.14374 270.53574Q872.90936 270.86386 872.90936 271.84824Z" fill-rule="nonzero"/><path stroke="#757575" stroke-width="1.0" stroke-linecap="butt" d="M876.05 259.59824L688.23334 259.59824L668.0289 259.59824" fill-rule="nonzero"/><path fill="#9e9e9e" d="M670.0289 259.59824C670.0289 258.49368 669.1334 257.59824 668.0289 257.59824C666.92426 257.59824 666.0289 258.49368 666.0289 259.59824C666.0289 260.70282 666.92426 261.59824 668.0289 261.59824C669.1334 261.59824 670.0289 260.70282 670.0289 259.59824" fill-rule="nonzero"/><path fill="#1a1a1a" d="M848.55 383.04526L850.51874 382.85776Q850.70624 383.84213 851.2375 384.31088Q851.78436 384.77963 852.70624 384.77963Q853.6906 384.77963 854.175 384.37338Q854.675 383.9515 854.675 383.40463Q854.675 383.04526 854.47186 382.79526Q854.26874 382.54526 853.7375 382.35776Q853.39374 382.23276 852.1281 381.92026Q850.5031 381.514 849.84686 380.93588Q848.925 380.10776 848.925 378.92026Q848.925 378.15463 849.34686 377.48276Q849.78436 376.81088 850.59686 376.46713Q851.425 376.12338 852.58124 376.12338Q854.45624 376.12338 855.40936 376.9515Q856.3625 377.77963 856.425 379.15463L854.39374 379.24838Q854.26874 378.46713 853.83124 378.139Q853.40936 377.79526 852.55 377.79526Q851.675 377.79526 851.175 378.15463Q850.84686 378.389 850.84686 378.77963Q850.84686 379.139 851.15936 379.389Q851.53436 379.7015 853.0031 380.06088Q854.4875 380.40463 855.1906 380.77963Q855.90936 381.15463 856.3 381.79526Q856.70624 382.43588 856.70624 383.389Q856.70624 384.24838 856.22186 385.014Q855.7531 385.764 854.8781 386.12338Q854.0031 386.48276 852.6906 386.48276Q850.78436 386.48276 849.76874 385.60776Q848.7531 384.73276 848.55 383.04526ZM858.09686 386.31088L858.09686 376.29526L860.0656 376.29526L864.15936 382.98276L864.15936 376.29526L866.03436 376.29526L866.03436 386.31088L864.0031 386.31088L859.97186 379.77963L859.97186 386.31088L858.09686 386.31088ZM867.05 386.31088L870.47186 381.0765L867.3781 376.29526L869.7375 376.29526L871.7531 379.514L873.72186 376.29526L876.0656 376.29526L872.9406 381.15463L876.3625 386.31088L873.925 386.31088L871.70624 382.84213L869.47186 386.31088L867.05 386.31088Z" fill-rule="nonzero"/><path fill="#9e9e9e" d="M841.5656 406.31088L839.64374 406.31088L839.64374 399.0765Q838.58124 400.06088 837.15936 400.52963L837.15936 398.77963Q837.90936 398.54526 838.78436 397.85776Q839.675 397.17026 840.0031 396.24838L841.5656 396.24838L841.5656 406.31088ZM844.675 403.73276L846.58124 403.52963Q846.675 404.18588 847.0656 404.56088Q847.47186 404.93588 848.0031 404.93588Q848.59686 404.93588 849.01874 404.4515Q849.4406 403.96713 849.4406 402.98276Q849.4406 402.06088 849.01874 401.60776Q848.6125 401.139 847.9406 401.139Q847.1125 401.139 846.45624 401.87338L844.90936 401.639L845.89374 396.42026L850.97186 396.42026L850.97186 398.21713L847.34686 398.21713L847.05 399.92026Q847.6906 399.60776 848.3625 399.60776Q849.6281 399.60776 850.51874 400.54526Q851.40936 401.46713 851.40936 402.9515Q851.40936 404.18588 850.6906 405.15463Q849.72186 406.48276 847.9875 406.48276Q846.59686 406.48276 845.72186 405.74838Q844.84686 404.99838 844.675 403.73276ZM853.0031 404.389L854.925 404.389L854.925 405.764Q854.925 406.59213 854.78436 407.0765Q854.64374 407.56088 854.2375 407.93588Q853.84686 408.3265 853.22186 408.54526L852.84686 407.74838Q853.425 407.56088 853.675 407.21713Q853.925 406.889 853.9406 406.31088L853.0031 406.31088L853.0031 404.389ZM859.89374 396.24838Q861.34686 396.24838 862.175 397.27963Q863.14374 398.514 863.14374 401.37338Q863.14374 404.21713 862.15936 405.4515Q861.34686 406.48276 859.89374 406.48276Q858.425 406.48276 857.53436 405.35776Q856.64374 404.23276 856.64374 401.34213Q856.64374 398.514 857.6281 397.27963Q858.4406 396.24838 859.89374 396.24838ZM859.89374 397.84213Q859.55 397.84213 859.26874 398.06088Q859.0031 398.27963 858.84686 398.85776Q858.64374 399.60776 858.64374 401.37338Q858.64374 403.139 858.8156 403.79526Q859.0031 404.4515 859.26874 404.67026Q859.55 404.889 859.89374 404.889Q860.2375 404.889 860.5031 404.67026Q860.78436 404.4515 860.9406 403.87338Q861.14374 403.139 861.14374 401.37338Q861.14374 399.60776 860.95624 398.9515Q860.78436 398.27963 860.5031 398.06088Q860.2375 397.84213 859.89374 397.84213ZM864.65936 398.764Q864.65936 397.42026 865.2531 396.77963Q865.84686 396.12338 866.84686 396.12338Q867.89374 396.12338 868.4875 396.764Q869.08124 397.40463 869.08124 398.764Q869.08124 400.10776 868.4875 400.764Q867.89374 401.40463 866.89374 401.40463Q865.84686 401.40463 865.2531 400.764Q864.65936 400.12338 864.65936 398.764ZM866.15936 398.74838Q866.15936 399.73276 866.3781 400.06088Q866.55 400.31088 866.84686 400.31088Q867.15936 400.31088 867.33124 400.06088Q867.55 399.73276 867.55 398.74838Q867.55 397.77963 867.33124 397.4515Q867.15936 397.18588 866.84686 397.18588Q866.55 397.18588 866.3781 397.43588Q866.15936 397.77963 866.15936 398.74838ZM868.3156 406.7015L866.89374 406.7015L872.2375 396.12338L873.6125 396.12338L868.3156 406.7015ZM871.425 404.06088Q871.425 402.71713 872.0031 402.0765Q872.59686 401.42026 873.6281 401.42026Q874.65936 401.42026 875.2531 402.0765Q875.84686 402.71713 875.84686 404.06088Q875.84686 405.42026 875.2531 406.0765Q874.65936 406.71713 873.64374 406.71713Q872.59686 406.71713 872.0031 406.0765Q871.425 405.42026 871.425 404.06088ZM872.90936 404.06088Q872.90936 405.02963 873.14374 405.35776Q873.3156 405.60776 873.6125 405.60776Q873.925 405.60776 874.08124 405.37338Q874.3156 405.02963 874.3156 404.06088Q874.3156 403.0765 874.09686 402.74838Q873.925 402.49838 873.6125 402.49838Q873.3 402.49838 873.14374 402.74838Q872.90936 403.0765 872.90936 404.06088Z" fill-rule="nonzero"/><path stroke="#757575" stroke-width="1.0" stroke-linecap="butt" d="M876.05 391.81088L688.23334 391.81088L606.65955 391.81088" fill-rule="nonzero"/><path fill="#9e9e9e" d="M608.65955 391.81088C608.65955 390.7063 607.76416 389.81088 606.65955 389.81088C605.555 389.81088 604.65955 390.7063 604.65955 391.81088C604.65955 392.91544 605.555 393.81088 606.65955 393.81088C607.76416 393.81088 608.65955 392.91544 608.65955 391.81088" fill-rule="nonzero"/><path fill="#1a1a1a" d="M853.05 421.1387L855.08124 421.1387L855.08124 426.56058Q855.08124 427.85745 855.15936 428.23245Q855.28436 428.85745 855.76874 429.23245Q856.26874 429.59183 857.1125 429.59183Q857.97186 429.59183 858.40936 429.24808Q858.84686 428.8887 858.925 428.3887Q859.01874 427.87308 859.01874 426.66995L859.01874 421.1387L861.05 421.1387L861.05 426.3887Q861.05 428.2012 860.8781 428.9512Q860.72186 429.68558 860.26874 430.2012Q859.83124 430.71683 859.09686 431.02933Q858.3625 431.3262 857.175 431.3262Q855.7375 431.3262 854.9875 430.99808Q854.2531 430.65433 853.8156 430.1387Q853.39374 429.60745 853.2531 429.0137Q853.05 428.15433 853.05 426.48245L853.05 421.1387ZM863.09686 431.15433L863.09686 421.1387L865.0656 421.1387L869.15936 427.8262L869.15936 421.1387L871.03436 421.1387L871.03436 431.15433L869.0031 431.15433L864.97186 424.62308L864.97186 431.15433L863.09686 431.15433ZM873.0031 431.15433L873.0031 421.1387L875.03436 421.1387L875.03436 431.15433L873.0031 431.15433Z" fill-rule="nonzero"/><path fill="#9e9e9e" d="M841.5656 451.15433L839.64374 451.15433L839.64374 443.91995Q838.58124 444.90433 837.15936 445.37308L837.15936 443.62308Q837.90936 443.3887 838.78436 442.7012Q839.675 442.0137 840.0031 441.09183L841.5656 441.09183L841.5656 451.15433ZM847.89374 441.09183Q849.34686 441.09183 850.175 442.12308Q851.14374 443.35745 851.14374 446.21683Q851.14374 449.06058 850.15936 450.29495Q849.34686 451.3262 847.89374 451.3262Q846.425 451.3262 845.53436 450.2012Q844.64374 449.0762 844.64374 446.18558Q844.64374 443.35745 845.6281 442.12308Q846.4406 441.09183 847.89374 441.09183ZM847.89374 442.68558Q847.55 442.68558 847.26874 442.90433Q847.0031 443.12308 846.84686 443.7012Q846.64374 444.4512 846.64374 446.21683Q846.64374 447.98245 846.8156 448.6387Q847.0031 449.29495 847.26874 449.5137Q847.55 449.73245 847.89374 449.73245Q848.2375 449.73245 848.5031 449.5137Q848.78436 449.29495 848.9406 448.71683Q849.14374 447.98245 849.14374 446.21683Q849.14374 444.4512 848.95624 443.79495Q848.78436 443.12308 848.5031 442.90433Q848.2375 442.68558 847.89374 442.68558ZM853.0031 449.23245L854.925 449.23245L854.925 450.60745Q854.925 451.43558 854.78436 451.91995Q854.64374 452.40433 854.2375 452.77933Q853.84686 453.16995 853.22186 453.3887L852.84686 452.59183Q853.425 452.40433 853.675 452.06058Q853.925 451.73245 853.9406 451.15433L853.0031 451.15433L853.0031 449.23245ZM859.89374 441.09183Q861.34686 441.09183 862.175 442.12308Q863.14374 443.35745 863.14374 446.21683Q863.14374 449.06058 862.15936 450.29495Q861.34686 451.3262 859.89374 451.3262Q858.425 451.3262 857.53436 450.2012Q856.64374 449.0762 856.64374 446.18558Q856.64374 443.35745 857.6281 442.12308Q858.4406 441.09183 859.89374 441.09183ZM859.89374 442.68558Q859.55 442.68558 859.26874 442.90433Q859.0031 443.12308 858.84686 443.7012Q858.64374 444.4512 858.64374 446.21683Q858.64374 447.98245 858.8156 448.6387Q859.0031 449.29495 859.26874 449.5137Q859.55 449.73245 859.89374 449.73245Q860.2375 449.73245 860.5031 449.5137Q860.78436 449.29495 860.9406 448.71683Q861.14374 447.98245 861.14374 446.21683Q861.14374 444.4512 860.95624 443.79495Q860.78436 443.12308 860.5031 442.90433Q860.2375 442.68558 859.89374 442.68558ZM864.65936 443.60745Q864.65936 442.2637 865.2531 441.62308Q865.84686 440.96683 866.84686 440.96683Q867.89374 440.96683 868.4875 441.60745Q869.08124 442.24808 869.08124 443.60745Q869.08124 444.9512 868.4875 445.60745Q867.89374 446.24808 866.89374 446.24808Q865.84686 446.24808 865.2531 445.60745Q864.65936 444.96683 864.65936 443.60745ZM866.15936 443.59183Q866.15936 444.5762 866.3781 444.90433Q866.55 445.15433 866.84686 445.15433Q867.15936 445.15433 867.33124 444.90433Q867.55 444.5762 867.55 443.59183Q867.55 442.62308 867.33124 442.29495Q867.15936 442.02933 866.84686 442.02933Q866.55 442.02933 866.3781 442.27933Q866.15936 442.62308 866.15936 443.59183ZM868.3156 451.54495L866.89374 451.54495L872.2375 440.96683L873.6125 440.96683L868.3156 451.54495ZM871.425 448.90433Q871.425 447.56058 872.0031 446.91995Q872.59686 446.2637 873.6281 446.2637Q874.65936 446.2637 875.2531 446.91995Q875.84686 447.56058 875.84686 448.90433Q875.84686 450.2637 875.2531 450.91995Q874.65936 451.56058 873.64374 451.56058Q872.59686 451.56058 872.0031 450.91995Q871.425 450.2637 871.425 448.90433ZM872.90936 448.90433Q872.90936 449.87308 873.14374 450.2012Q873.3156 450.4512 873.6125 450.4512Q873.925 450.4512 874.08124 450.21683Q874.3156 449.87308 874.3156 448.90433Q874.3156 447.91995 874.09686 447.59183Q873.925 447.34183 873.6125 447.34183Q873.3 447.34183 873.14374 447.59183Q872.90936 447.91995 872.90936 448.90433Z" fill-rule="nonzero"/><path stroke="#757575" stroke-width="1.0" stroke-linecap="butt" d="M876.05 436.65433L688.23334 436.65433L452.0 436.65433" fill-rule="nonzero"/><path fill="#9e9e9e" d="M454.0 436.65433C454.0 435.54977 453.10458 434.65433 452.0 434.65433C450.89542 434.65433 450.0 435.54977 450.0 436.65433C450.0 437.7589 450.89542 438.65433 452.0 438.65433C453.10458 438.65433 454.0 437.7589 454.0 436.65433" fill-rule="nonzero"/><path fill="#000000" d="M28.559376 43.85625L30.309376 43.575Q30.45 44.621876 31.121876 45.184376Q31.79375 45.73125 32.996876 45.73125Q34.2 45.73125 34.778126 45.246876Q35.371876 44.746876 35.371876 44.090626Q35.371876 43.496876 34.85625 43.153126Q34.496876 42.91875 33.059376 42.559376Q31.121876 42.059376 30.371876 41.715626Q29.6375 41.35625 29.246876 40.73125Q28.85625 40.090626 28.85625 39.325Q28.85625 38.6375 29.16875 38.04375Q29.496876 37.45 30.04375 37.059376Q30.45 36.7625 31.153126 36.559376Q31.871876 36.340626 32.684376 36.340626Q33.903126 36.340626 34.825 36.7Q35.746876 37.04375 36.184376 37.653126Q36.621876 38.246876 36.79375 39.246876L35.075 39.48125Q34.95 38.684376 34.3875 38.246876Q33.825 37.79375 32.809376 37.79375Q31.590626 37.79375 31.075 38.2Q30.559376 38.590626 30.559376 39.121876Q30.559376 39.465626 30.778126 39.746876Q30.98125 40.028126 31.45 40.215626Q31.715626 40.309376 32.996876 40.653126Q34.871876 41.153126 35.60625 41.48125Q36.340626 41.79375 36.7625 42.403126Q37.184376 42.996876 37.184376 43.903126Q37.184376 44.778126 36.66875 45.559376Q36.153126 46.340626 35.184376 46.7625Q34.215626 47.184376 32.996876 47.184376Q30.98125 47.184376 29.91875 46.340626Q28.85625 45.496876 28.559376 43.85625ZM39.496876 46.95L39.496876 32.6375L44.41875 32.6375Q46.090626 32.6375 46.98125 32.840626Q48.2 33.121876 49.075 33.85625Q50.2 34.825 50.7625 36.309376Q51.325 37.79375 51.325 39.715626Q51.325 41.340626 50.95 42.60625Q50.575 43.85625 49.965626 44.684376Q49.371876 45.5125 48.66875 45.996876Q47.965626 46.465626 46.965626 46.715626Q45.965626 46.95 44.653126 46.95L39.496876 46.95ZM41.3875 45.2625L44.45 45.2625Q45.85625 45.2625 46.653126 44.996876Q47.465626 44.73125 47.95 44.246876Q48.621876 43.575 48.996876 42.45Q49.371876 41.309376 49.371876 39.684376Q49.371876 37.434376 48.6375 36.23125Q47.903126 35.028126 46.840626 34.621876Q46.090626 34.325 44.403126 34.325L41.3875 34.325L41.3875 45.2625ZM53.528126 46.95L53.528126 32.6375L63.8875 32.6375L63.8875 34.325L55.434376 34.325L55.434376 38.7L63.340626 38.7L63.340626 40.3875L55.434376 40.3875L55.434376 45.2625L64.21562 45.2625L64.21562 46.95L53.528126 46.95ZM66.59062 46.95L66.59062 32.6375L76.24687 32.6375L76.24687 34.325L68.48125 34.325L68.48125 38.7625L75.2 38.7625L75.2 40.45L68.48125 40.45L68.48125 46.95L66.59062 46.95ZM78.80937 46.95L78.80937 32.6375L80.71562 32.6375L80.71562 46.95L78.80937 46.95Z" fill-rule="nonzero"/></svg>