<svg width="94" height="117" viewBox="0 0 94 117" fill="none"
  xmlns="http://www.w3.org/2000/svg">
  <path d="M24.5749 111.519C19.4777 111.519 14.9901 110.271 11.2368 107.775C6.14791 104.415 2.87771 99.0382 1.78061 92.2424C0.748917 85.8585 1.66668 78.3201 4.42842 70.4426C7.19015 62.5652 11.7494 54.5296 17.6168 47.1452C26.2966 36.2265 37.0819 27.6294 47.9832 22.9366C53.8295 20.4259 59.391 19.1611 64.522 19.1611C69.6193 19.1611 74.1068 20.4092 77.8602 22.9054C81.5671 25.3537 84.3352 28.917 85.9766 33.3206C86.2894 32.7456 86.5492 32.1441 86.753 31.5234L88.4409 26.1608L89.4177 31.6919C91.4326 43.118 88.2679 53.5062 84.7445 60.8678C85.6659 60.325 86.5296 59.6922 87.3227 58.979L91.4705 55.137L89.5527 60.4206C86.4429 68.9845 81.2106 76.7538 73.9803 83.56C75.5964 83.4143 77.2547 83.1294 78.5628 82.5948L83.8225 80.4481L80.1303 84.7207C71.2059 95.0548 58.8656 100.378 50.015 103.026C47.1756 104.82 44.1996 106.394 41.1137 107.735C35.2674 110.236 29.7039 111.519 24.5749 111.519ZM64.5051 28.087C60.6568 28.087 56.3212 29.1125 51.6184 31.1365C42.0673 35.2468 32.531 42.8934 24.7627 52.6637C14.412 65.6833 9.03834 80.317 10.7388 90.8363C11.4393 95.1775 13.3065 98.3767 16.2855 100.345C18.5282 101.824 21.3216 102.574 24.5918 102.574C28.4401 102.574 32.7758 101.549 37.4785 99.525C47.0296 95.4146 56.5659 87.7681 64.3342 77.9977C74.6849 64.9761 80.0586 50.3506 78.3581 39.8252C77.6577 35.4839 75.7905 32.2847 72.8114 30.3169C70.5687 28.8379 67.7753 28.087 64.5051 28.087Z" fill="#56A4CB"/>
  <path d="M80.668 49.8423C83.5584 46.0211 84.6407 40.9706 85.2378 37.6299C82.9529 40.4069 81.1954 41.6258 81.1954 41.6258C81.4591 44.1469 81.6174 46.6181 80.668 49.8423Z" fill="#277DAD"/>
  <path d="M42.5664 28.8549C66.6393 13.8218 81.9079 29.9428 82.1464 33.9304C81.1695 27.638 76.6609 23.2178 71.3146 20.732C66.6709 18.3627 52.7146 21.6577 52.7146 21.6577L42.5664 28.8549Z" fill="#DDEDF5"/>
  <path d="M34.3883 106.847C30.0801 109.674 19.2715 108.546 17.0879 107.775C17.0879 105.071 17.9761 102.188 17.9761 102.188H23.2802C23.2802 102.188 23.2127 104.315 28.8036 102.963C31.8249 104.49 34.3883 106.847 34.3883 106.847Z" fill="#277DAD"/>
  <path d="M2.18164 83.9567C7.04896 67.4446 23.7017 35.6977 55.4268 21.7608C50.3907 19.6577 28.8876 31.1671 17.6212 47.1384C3.76399 66.7956 3.76399 71.6839 2.18164 83.9567Z" fill="#DDEDF5"/>
  <path d="M71.3105 68.1821C71.3105 68.1821 76.6652 66.4036 79.9608 63.9511C82.4925 59.7763 86.7839 49.7604 86.7839 41.001C80.5937 55.2457 76.2348 56.8994 76.2348 56.8994C73.9373 63.7431 73.0701 64.7624 71.3105 68.1821Z" fill="#277DAD"/>
  <path d="M74.6862 86.6246C64.7701 94.2317 58.004 97.2791 49.2525 100.145L43.6404 103.197L42.3281 97.8573C42.3281 97.8573 63.4789 86.8077 70.5109 69.4989C73.9161 71.0944 83.0621 66.8301 85.2373 63.7432C81.0177 71.2316 66.6711 86.4873 66.6711 86.4873L74.6862 86.6246Z" fill="#277DAD"/>
  <path d="M64.5237 20.504C69.2918 20.504 73.5578 21.673 77.0981 24.0111C81.3325 26.8068 84.2208 31.1168 85.5373 36.548C86.5922 35.0919 87.5754 33.4486 88.0691 31.9052C90.2 43.9887 86.4488 54.926 82.2376 62.7702C82.0836 63.1467 81.9253 63.5253 81.7629 63.9018C84.0837 62.8617 86.5543 61.5284 88.2632 59.9495C84.3664 70.683 77.5032 78.8995 70.2792 85.0297H70.7624C73.2203 85.0297 76.6529 84.8217 79.0898 83.8274C70.5535 93.708 58.8356 98.9811 49.4386 101.775C46.6112 103.572 43.6448 105.146 40.5668 106.484C34.8704 108.935 29.465 110.16 24.5808 110.16C19.8127 110.16 15.5466 108.991 12.0064 106.653C7.24246 103.508 4.17691 98.4507 3.14521 92.0314C2.14939 85.8659 3.04605 78.5542 5.73816 70.8869C8.43871 63.1675 12.9263 55.2484 18.7029 47.9825C27.2434 37.2366 37.841 28.785 48.5377 24.1796C54.2341 21.7292 59.6395 20.504 64.5237 20.504ZM24.5935 103.928C28.581 103.928 33.134 102.871 38.0287 100.764C47.7845 96.5661 57.5086 88.7781 65.4161 78.833C75.9926 65.5201 81.4717 50.4995 79.7143 39.6142C78.9505 34.886 76.885 31.381 73.5768 29.1948C71.0894 27.5535 68.0175 26.7361 64.5047 26.7361C60.515 26.7361 55.9642 27.7928 51.0694 29.8979C41.3137 34.0976 31.5875 41.8857 23.6821 51.8308C13.1056 65.1436 7.62644 80.1643 9.38391 91.0496C10.1477 95.7777 12.2132 99.2828 15.5213 101.469C18.0067 103.11 21.0807 103.928 24.5935 103.928ZM64.5237 17.8102C59.2027 17.8102 53.4556 19.1228 47.4342 21.7125C36.3282 26.4968 25.3551 35.2334 16.5383 46.3247C10.5823 53.8131 5.94704 62.013 3.13889 70.0028C0.299087 78.0883 -0.633446 85.8534 0.421456 92.4558C1.58185 99.6385 5.06303 105.326 10.4683 108.889C14.4517 111.52 19.1966 112.854 24.5703 112.854C29.8891 112.854 35.6383 111.541 41.6597 108.951C44.754 107.609 47.7396 106.035 50.5905 104.244C55.9302 102.655 61.0766 100.493 65.9372 97.7955C76.6424 91.788 80.5877 87.5404 88.105 78.0696L78.153 81.2667C88.1683 70.5312 90.6958 64.0224 93.9048 51.7288L88.1535 56.3343C94.5188 41.6964 90.2992 25.7314 88.9489 22.4905C88.067 25.0553 86.6281 28.6581 85.8707 29.7481C84.1671 26.5339 81.6768 23.7898 78.6256 21.7645C74.6423 19.1332 69.8973 17.7998 64.5237 17.7998V17.8102ZM24.5935 101.224C21.5997 101.224 19.0616 100.55 17.0509 99.2224C14.401 97.471 12.7343 94.5796 12.095 90.6252C10.4536 80.4576 15.7218 66.2336 25.8425 53.499C33.4737 43.9013 42.8222 36.4004 52.1686 32.3774C56.6963 30.4283 60.8484 29.4402 64.5068 29.4402C67.5006 29.4402 70.0366 30.1142 72.0493 31.4413C74.6993 33.1928 76.366 36.0842 77.0053 40.0385C78.6467 50.2062 73.3785 64.4301 63.2578 77.1647C55.6266 86.7666 46.2781 94.2551 36.9316 98.2864C32.4019 100.235 28.2519 101.224 24.5935 101.224Z" fill="#083751"/>
  <path d="M24.5933 101.221C21.5995 101.221 19.0614 100.547 17.0508 99.2197C14.4008 97.4682 12.7341 94.5768 12.0948 90.6225C10.4534 80.4548 15.7216 66.2309 25.8423 53.4963C33.4735 43.8986 42.822 36.3976 52.1685 32.3746C56.6961 30.4256 60.8482 29.4375 64.5066 29.4375C67.5004 29.4375 70.0364 30.1115 72.0492 31.4386C74.6991 33.1901 76.3658 36.0814 77.0051 40.0358C78.6465 50.2035 73.3783 64.4274 63.2576 77.162C55.6264 86.7639 46.2779 94.2523 36.9314 98.2836C32.4017 100.233 28.2517 101.221 24.5933 101.221Z" fill="#083751"/>
  <path d="M10.7093 5.19356C10.5848 6.74326 10.6924 14.1631 13.5322 15.4257C11.5637 10.8494 13.6546 2.3209 23.5242 2.2793C21.7182 3.60642 20.3342 5.78432 19.7266 7.23833C19.0735 7.94041 18.4959 8.70721 18.0029 9.52648C18.7139 9.11045 21.022 5.24557 29.6827 5.21852C31.9824 5.21852 34.4804 5.46606 36.5185 6.61013C33.0162 5.7552 29.2861 7.6502 26.3788 9.57848C28.4274 8.92948 31.4086 6.98456 35.6029 7.79373C38.4216 8.33664 39.5798 10.8973 41.907 12.2182C43.8058 13.2978 46.5021 13.2166 47.7448 11.2031C48.0546 10.703 48.2094 10.1246 48.19 9.53896C48.7227 10.0943 49.1886 10.7086 49.5782 11.3695C50.4424 12.8448 50.8033 14.5547 50.6078 16.2474C48.555 16.0539 46.5338 16.7529 44.4746 16.5178C42.4806 16.2563 40.5962 15.4654 39.0229 14.2297C40.1427 15.8833 41.8332 17.08 43.7805 17.5974C46.2574 18.2526 48.6689 17.3374 51.1437 17.77C53.9687 18.261 57.5279 20.0769 60.7517 17.9635C61.3224 17.5801 61.8019 17.079 62.1569 16.4949C62.6712 17.8915 62.7112 19.4152 62.2708 20.8362C62.043 21.6352 61.6183 22.3662 61.0344 22.9641C60.5049 23.4821 59.8572 23.6589 59.2495 24.0167C57.2073 23.1846 54.9223 22.9038 52.7092 22.7686C54.6987 23.3926 56.7368 24.0167 58.6166 24.9049C60.4964 25.7931 61.7665 27.193 63.0831 28.7531C64.1781 30.0512 65.4545 31.2327 67.1698 31.6341C68.3479 31.9107 69.5815 31.8516 70.7269 31.4636C71.0328 33.1589 69.4399 35.9234 67.2183 36.2895C68.2933 36.9656 69.451 37.5045 70.6636 37.8933C69.8197 38.6421 67.8048 39.2017 66.5094 39.2682C69.6235 40.8782 71.191 45.1675 71.1193 48.6496C70.6193 47.5867 70.0454 46.3615 68.7416 45.4337C69.1087 46.921 69.0412 48.737 68.7627 50.4261C68.1466 49.8478 65.8089 47.1769 64.8131 45.8851C65.2962 44.3978 65.2119 43.3723 64.8785 41.858C64.4565 44.3541 62.6442 47.2185 61.7138 48.3667C62.1358 46.8129 61.9712 45.1404 61.7138 43.5824C61.3988 41.8264 60.8791 40.1121 60.1652 38.4736C58.6272 34.7731 58.6272 34.7731 57.298 31.5509C56.5279 34.6274 55.8675 36.0627 54.8443 37.3087C54.897 36.3231 54.829 35.3349 54.6417 34.3653C54.57 33.9618 53.9307 30.8062 50.9369 26.569C51.1964 28.5327 51.9918 30.8645 51.0487 33.0611C50.9876 31.4136 49.8841 26.6439 46.5401 24.7406C47.4768 26.3298 48.2997 31.3076 47.173 32.5848C47.2806 29.839 45.3417 27.3075 43.2277 25.6454C41.6622 24.414 32.9825 19.638 32.9951 19.6588C33.0078 19.6796 34.6049 26.544 31.1132 27.087C32.1808 24.7135 29.4971 19.7191 26.4716 18.7997C26.8261 17.1252 26.7311 15.1116 26.1446 13.5994C24.6424 15.2073 20.8363 15.276 18.7751 17.0399C17.8889 17.7929 16.9459 18.9412 16.564 20.2745L15.4205 21.8305C15.3966 21.6967 15.3465 21.5688 15.2728 21.454L9.57841 16.1163C8.28088 13.6826 7.92644 7.80829 10.7093 5.19356Z" fill="#E61C3F"/>
  <path d="M4.24609 12.957L7.47832 16.1729C7.3032 16.4829 7.06901 16.8282 6.72301 16.9072C6.92508 16.9535 7.1364 16.9414 7.3317 16.8724C7.527 16.8034 7.69802 16.6805 7.82433 16.5182L9.35182 18.0388C9.04168 18.7273 8.53111 19.5719 7.73782 19.7029C8.75264 19.99 9.52905 19.3534 9.88983 18.5755L11.8351 20.51C11.5777 21.4232 11.0144 22.5901 9.39191 22.7981C11.1536 23.2142 12.1515 22.2095 12.4786 21.1465L13.8499 22.5111C14.2993 23.9672 11.7676 25.6604 10.2633 25.2714L4.24609 12.957Z" fill="white"/>
  <path d="M16.7436 103.329C16.4989 106.541 15.5811 112.559 12.1527 114.073C11.0978 113.657 10.1737 112.272 9.43945 110.639C9.81922 108.245 10.9163 107.519 13.0261 105.953C14.2477 105.048 15.0874 103.456 15.6043 102.188C16.0896 102.691 16.5052 103.099 16.7436 103.329Z" fill="#9EA7AC"/>
  <path d="M39.5233 96.333C39.8967 97.2108 40.3989 98.4132 40.9031 99.6758C41.2196 100.47 41.536 101.29 41.8209 102.076C42.5741 104.142 43.1205 105.958 42.8758 106.376C42.631 106.794 41.2343 106.942 39.3777 106.792C38.2637 105.226 38.2975 104.061 38.5338 102.145C38.5654 101.879 38.6034 101.596 38.6414 101.296C38.7152 100.562 38.6596 99.8197 38.4768 99.1038C38.1907 97.9938 37.7655 96.9233 37.2109 95.917C37.9953 95.968 38.7712 96.1076 39.5233 96.333Z" fill="#9EA7AC"/>
  <path d="M73.0691 61.2975C70.4478 66.877 67.1706 72.1335 63.3049 76.9588C61.8618 78.781 60.3618 80.5242 58.8047 82.1883C59.3153 78.3816 58.2013 74.3836 55.7307 72.499C58.022 77.3291 57.4186 81.3978 55.4923 84.4743C52.6167 89.0319 47.2409 90.9935 44.0044 90.9248C41.5515 90.8515 39.157 90.1697 37.0421 88.9425C37.0421 88.9425 28.0585 86.7646 27.4699 88.7719C26.8813 90.7792 29.989 95.9172 29.989 95.9172C29.989 95.9172 32.1347 95.8173 32.3267 97.34C33.185 96.6385 34.2192 96.1779 35.3205 96.0066C36.1732 96.566 36.8107 97.3916 37.1307 98.3509C37.713 100.146 37.0906 102.137 36.7594 103.57C36.692 103.835 36.6399 104.104 36.6032 104.375C36.5593 104.7 36.5728 105.03 36.6433 105.351C36.7383 105.761 36.9186 106.147 37.1729 106.484C36.4458 106.346 35.7273 106.167 35.0209 105.948C34.2543 105.712 33.5073 105.419 32.7866 105.07C31.6609 104.553 30.6619 103.802 29.8582 102.869C26.5563 103.092 25.4276 103.788 24.417 101.972C24.1141 101.387 23.8655 100.776 23.6744 100.146C22.3621 96.1397 19.4083 92.0668 18.2015 90.411C16.9947 88.7552 18.5222 85.2731 21.4105 84.0209C24.2989 82.7686 36.042 79.8024 37.7784 77.5163C39.5148 75.2302 38.7236 70.3606 47.1607 67.2592C44.7492 66.4874 37.7742 69.9092 36.042 75.9624C32.7697 78.0758 24.4043 80.4722 22.1279 81.1378C18.3661 82.2361 16.2542 84.9195 15.6444 86.6169C13.7857 87.2659 10.7539 88.2997 10.7265 89.7371C10.6948 91.345 11.8552 93.6706 11.7814 97.003C11.7814 97.5272 12.3173 98.405 13.062 99.3494C13.5304 99.9464 14.079 100.57 14.6127 101.149C14.4876 102.27 13.9547 103.308 13.1127 104.071C12.5101 104.629 11.8455 105.117 11.1316 105.527C10.4248 105.956 9.76019 106.307 9.30447 106.644C8.90997 106.939 8.59839 107.327 8.39937 107.774C8.05985 106.65 7.83094 105.496 7.71579 104.329C5.89925 101.881 5.23677 101.209 4.90131 100.169C4.87487 100.076 4.85722 99.9804 4.84856 99.884C4.71354 98.6609 5.03423 95.0019 5.23677 92.8864C5.48783 92.8573 6.0174 93.2109 7.03432 93.7767L7.2453 93.9015L6.97314 93.4855C5.49627 91.2514 3.8232 88.7885 4.55952 86.5524C4.95616 85.3501 5.73046 84.6803 6.95626 83.9585C6.96316 83.9524 6.97099 83.9475 6.97947 83.9439C7.44995 83.6631 7.99006 83.3739 8.60191 83.0411C10.8088 81.8367 19.6995 79.0036 20.8557 76.6822C21.5135 75.3927 22.2475 74.1425 23.0541 72.9379C23.2434 74.632 23.6154 76.3014 24.1638 77.9178C24.033 66.269 28.3244 58.9719 30.0143 56.5485C30.2093 58.8742 30.2129 61.2116 30.0249 63.5378C32.3836 61.3557 32.5334 51.7393 29.527 43.9409C29.2766 43.2905 29.003 42.6546 28.7062 42.0334C28.3898 41.3698 28.048 40.7271 27.6809 40.1113C28.2773 38.8353 28.5378 37.4317 28.4383 36.0301C28.3928 35.3679 28.2753 34.7124 28.0881 34.0748C27.7699 32.9232 27.2027 31.8531 26.4255 30.9379C26.7589 32.4128 27.0585 33.6858 27.0943 34.9484C27.1242 35.8326 27.0015 36.7154 26.7315 37.559C26.6555 37.7941 26.5669 38.0312 26.4656 38.2746C26.4825 38.1061 26.4952 37.9397 26.4994 37.7733C26.5243 37.0682 26.4533 36.363 26.2884 35.6765C26.1923 35.2744 26.0653 34.8802 25.9086 34.4971C25.8854 34.443 25.801 34.4825 25.8137 34.5366C25.9221 34.9963 25.9864 35.465 26.0057 35.9365C26.0396 36.7982 25.9458 37.6601 25.7272 38.4951C25.6336 38.8668 25.5202 39.2334 25.3875 39.5934C25.1918 40.1243 24.9685 40.6451 24.7187 41.1535C23.0583 43.1629 20.4126 43.7932 19.0518 46.1791C18.9252 46.1271 18.7817 46.0688 18.6298 46.0085C18.1174 45.8104 17.5905 45.6504 17.0538 45.5301C16.098 45.3221 15.0305 45.2472 14.1507 45.5966C13.6958 45.7366 13.2638 45.9404 12.8679 46.202C12.5068 46.4321 12.2049 46.7419 11.986 47.1068C12.5029 46.5348 14.0958 46.0668 15.3617 46.0855C15.7121 46.1206 16.0468 46.2461 16.3322 46.4495C16.7481 46.7485 17.0687 47.1585 17.2563 47.631C17.2563 47.6643 17.2394 47.6851 17.2373 47.6976C17.2468 47.6822 17.2553 47.6662 17.2627 47.6497V47.6664C17.5517 48.3591 17.7163 49.3575 17.5918 50.797C17.2352 52.2344 16.8955 53.5199 16.4019 54.1065C15.4609 55.2381 12.3742 57.0519 10.7159 57.3702C10.5909 57.3997 10.464 57.4213 10.3362 57.4347C9.89569 57.4593 9.45439 57.4036 9.03442 57.2704C8.88884 57.2308 8.74115 57.1809 8.59347 57.1247C8.87882 56.9023 9.17527 56.694 9.4817 56.5007C9.80601 56.2941 10.1428 56.1073 10.4902 55.9412C10.8967 55.7484 11.28 55.5626 11.64 55.3837C14.2583 54.1023 15.6487 53.2495 16.0833 52.459C16.482 51.733 16.1824 50.7242 15.56 49.8484C15.278 49.4435 14.94 49.0795 14.5558 48.7668C14.3714 48.6162 14.1745 48.4813 13.9671 48.3632C14.2664 48.2833 14.58 48.2705 14.8849 48.3258C15.1587 48.3712 15.4298 48.4309 15.6972 48.5047C15.5389 48.3299 14.7351 48.1386 14.503 48.0054C13.7435 47.5645 13.0684 47.7537 12.5515 48.3279C11.8763 49.0767 10.9501 51.731 9.37199 53.549C8.29599 54.7971 6.26002 55.2526 5.07431 55.4211C3.38647 54.2438 2.33157 52.6296 2.19443 51.3482C2.04041 49.8235 2.40541 47.7662 3.973 46.8177C5.15871 44.0137 7.26007 36.3359 7.39299 35.1419C7.52591 33.9479 6.04904 30.7487 6.18196 29.253C6.27901 28.1922 7.84238 25.6586 8.26012 24.9971L8.77702 26.1724C8.78968 26.1848 8.84242 26.2452 8.93315 26.3263C8.16307 28.1984 8.08922 30.576 8.56393 32.4648C8.67575 31.2687 8.77491 30.0872 9.11459 28.9285C9.32557 28.1943 9.59773 27.4849 9.86146 26.7735C10.6104 26.9337 11.7877 26.8234 13.522 25.7501C14.2734 25.323 14.873 24.678 15.2394 23.9029L16.5052 22.4739C16.5934 22.8228 16.7252 23.1596 16.8977 23.4765C16.8977 22.5571 17.5306 21.024 18.2669 19.8758C19.6383 17.7041 22.2692 17.0531 23.9402 16.248C23.2735 16.8596 22.5773 17.4379 21.9295 18.0682C20.5603 19.3953 19.7311 20.9804 19.9505 22.8899C20.708 20.8514 21.9 19.3537 23.5963 17.9891C24.0182 17.6438 24.6512 17.1841 25.1892 16.6537C24.9571 18.1638 24.7672 19.674 23.7651 20.9762C22.5794 22.53 20.5392 24.0444 22.3726 26.0559C21.8663 24.7142 23.706 23.4328 24.4824 22.5945C25.1647 21.8545 25.7058 20.999 26.0795 20.0693C29.4552 22.0599 31.6811 27.0855 28.3265 28.007C29.7611 28.8141 35.7867 29.2759 34.8964 22.5509C36.5843 23.5909 38.3839 24.4563 40.1709 25.4443L40.3123 25.5213C40.8452 25.8157 41.3628 26.1365 41.863 26.4823C43.5023 27.6181 44.5192 28.7704 45.1226 29.8625C45.4591 30.4555 45.6936 31.0994 45.8168 31.7679C46.1332 33.509 45.5087 34.8153 45.1986 35.0961C46.8485 35.0545 48.7853 33.8709 48.8739 30.2078C48.8739 30.0664 48.8739 29.9208 48.8739 29.7731L48.8865 29.8043C48.9266 29.9208 48.9646 30.0331 49.0047 30.1454C50.241 33.8689 50.2537 35.9823 50.2537 35.9823C51.3086 35.0525 52.4943 33.846 52.6504 31.5661C52.7243 31.9468 53.8192 35.7119 53.5619 39.5164C54.3151 39.2647 56.2645 38.8362 57.3848 35.8762C57.7372 36.9163 58.8406 39.1295 59.5453 41.5778C60.0136 43.2024 60.3639 44.9393 60.29 46.6367C60.1698 49.4262 58.8132 50.797 58.7056 51.1132C58.8026 51.1277 61.9568 51.3794 63.8915 48.1531C65.765 51.4834 68.6659 56.5506 73.0691 61.2975Z" fill="#E5ECEF"/>
  <path d="M14.0371 35.9922C14.7629 34.7066 15.9655 32.9011 17.5352 31.5781C17.9571 31.9421 18.2061 32.7576 18.2905 33.2734C18.6238 35.2454 16.841 34.5423 14.0371 35.9922Z" fill="#FFCE55"/>
  <path d="M1.82796 53.3429C1.82796 53.3429 2.19929 50.0334 5.24796 49.2845C4.84921 47.7203 6.02859 44.8226 8.13839 45.4217C8.59833 41.3654 9.72286 36.2691 9.72286 36.2691C9.72286 36.2691 11.9761 36.9452 12.2546 35.7491C12.5331 34.553 13.5205 30.7568 17.0608 29.7167C14.0416 29.7167 12.3285 32.5727 11.1702 34.5489C9.44647 34.4968 8.06033 32.8327 8.60466 30.2326C9.14899 27.6324 9.44858 25.9163 9.44858 25.9163L8.14683 24.4082C8.14683 24.4082 4.91672 27.5887 5.45894 29.7167C6.00116 31.8447 7.45271 34.4781 6.72482 35.9862C5.99694 37.4943 3.28795 46.0208 3.28795 46.0208C1.00936 48.752 0.806818 50.6844 1.82796 53.3429Z" fill="white"/>
  <path d="M49.5138 68.1836C46.9652 68.1836 39.8636 73.1405 39.8636 78.3055C35.9499 79.9696 26.2363 83.4726 26.2363 83.4726L41.1421 81.0451C41.1421 81.0451 45.4482 82.8132 48.3344 81.0451C51.2206 79.2769 50.5033 75.8281 50.5033 75.8281C46.9546 78.8609 41.2349 72.7599 49.5138 68.1836Z" fill="white"/>
  <path d="M36.0898 34.29C40.9297 38.8788 50.9914 49.9472 46.9638 59.7238C45.7105 52.7387 41.2335 42.6667 36.0898 34.29Z" fill="white"/>
  <path d="M3.02539 54.2472C3.02539 54.2472 4.21743 55.1479 5.27233 54.2472C6.84414 52.9055 5.54028 49.4463 6.53822 48.5601C7.53615 47.674 9.58477 47.8674 9.79364 48.2148C9.25143 46.7587 8.78938 45.1633 9.14172 44.5392C9.49405 43.9152 10.7515 40.1709 13.3613 38.5068C12.2473 40.4081 10.3105 45.0426 11.1629 47.104C11.9541 46.0224 15.6104 45.0093 17.2286 46.5777C18.8468 48.1462 18.9544 52.529 17.2286 54.6362C15.5028 56.7434 10.9899 58.9608 9.79364 58.6488C6.24706 57.2551 4.6837 56.1089 3.02539 54.2472Z" fill="#9EA7AC"/>
  <path d="M11.166 47.1036C13.5754 43.4467 16.1852 45.0068 18.3394 40.1705C18.6175 40.8727 18.6175 41.6524 18.3394 42.3546C21.964 40.7966 26.8292 34.0175 25.1878 27.6377C26.6646 29.6471 27.9833 35.9582 27.1394 38.9224C26.2954 41.8866 22.4978 43.9667 21.7593 45.1628C21.0209 46.3589 18.4934 48.231 18.4934 48.231C17.2359 46.0261 13.6788 46.5419 11.166 47.1036Z" fill="#9EA7AC"/>
  <path d="M12.5215 37.257C12.5215 37.257 16.4626 37.6959 18.4859 36.685C20.5092 35.674 21.5936 32.3687 21.5936 31.2246C21.005 32.7847 19.0091 33.8518 19.0091 33.8518C18.2868 34.5813 17.4018 35.1347 16.4246 35.4681C14.838 35.9902 13.1544 36.4769 13.1544 36.4769L12.5215 37.257Z" fill="#9EA7AC"/>
  <path d="M11.168 22.4358C11.168 22.4358 12.1427 21.4727 11.9191 20.1602C11.5647 21.2398 10.8094 21.4478 10.4718 21.4478C10.1342 21.4478 8.80925 19.3676 8.80925 19.3676C8.80925 19.3676 10.2418 18.0322 9.79875 17.1419C9.35358 18.0509 8.14256 18.858 8.14256 18.858L6.72266 16.9193C6.72266 16.9193 8.4105 16.1538 8.14256 15.4258C7.61721 15.4258 13.628 20.7197 13.628 20.7197L14.837 22.6543C14.837 22.6543 14.837 23.7983 13.0268 24.9133C11.6216 23.3428 11.168 22.4358 11.168 22.4358Z" fill="#9EA7AC"/>
  <path d="M27.604 36.1142C29.4691 35.1324 25.1777 29.1416 25.1777 27.6377C32.0346 33.7845 37.9421 43.6547 35.3048 52.2061C34.6719 50.438 32.8785 46.8269 32.8785 46.8269C32.8785 46.8269 35.942 55.0434 30.9291 60.6598C31.4017 53.3793 28.3319 42.4129 26.8656 41.0025C28.1842 38.7456 27.604 36.1142 27.604 36.1142Z" fill="#9EA7AC"/>
  <path d="M45.0752 67.3262C41.6995 67.0391 35.7266 69.3959 34.1443 74.0762C34.2413 72.3455 33.9523 70.3673 36.1528 68.1832C33.1991 68.1832 29.4014 72.3435 29.4014 75.8277C24.4413 78.1158 9.3583 85.2049 8.14305 86.245C6.9278 87.285 7.12401 88.3854 9.14732 93.1427C7.87932 96.6457 6.00371 98.7195 10.7571 102.782C12.715 104.446 13.6307 104.654 13.6307 104.654L15.6561 100.552C15.6561 100.552 10.8689 91.7844 12.2487 89.5732C15.5042 87.3891 16.7405 87.077 16.7405 87.077C16.7405 87.077 17.8988 83.6448 23.8062 81.9807C29.7137 80.3166 37.2162 76.8844 37.2162 76.8844C38.7859 69.1879 43.6384 68.2165 45.0752 67.3262Z" fill="#9EA7AC"/>
  <path d="M57.6706 83.1249C57.6706 83.1249 58.5145 73.7643 53.9827 69.916C55.1388 72.3082 55.6705 77.0925 53.9827 79.4846C54.0057 77.3573 53.2575 75.2919 51.8729 73.6603C51.8729 73.6603 54.1599 82.0848 47.7609 84.1129C42.7163 85.205 40.6909 82.9168 40.6909 82.9168C35.3109 84.789 27.6101 85.517 25.3948 86.0371C23.9179 89.3653 23.9179 96.0841 29.0363 100.866C28.6599 99.6874 28.3597 98.4862 28.1375 97.2698C28.1375 97.2698 29.7684 99.8699 31.5343 99.4539C33.3002 99.0379 35.813 96.6686 38.6718 100.402C37.5367 96.5417 36.2033 95.0856 36.2033 95.0856L32.5639 95.2936L30.0322 93.9416L28.2388 89.2613L36.2033 89.9893C36.2033 89.9893 44.056 94.3721 49.0204 91.4454C53.9848 88.5186 57.6706 83.1249 57.6706 83.1249Z" fill="#9EA7AC"/>
  <path d="M13.3177 49.1683C13.4659 49.1653 13.6137 49.1836 13.7566 49.2224C13.7102 50.4975 12.1405 52.1179 12.1405 52.1179C13.3747 51.4294 14.2123 50.8449 14.7018 49.811C14.9604 50.0823 15.15 50.4103 15.2549 50.768C15.3598 51.1256 15.377 51.5028 15.3052 51.8683C15.0773 52.8439 11.0286 54.4892 9.14453 55.2485C11.8514 53.5199 11.9886 49.2036 13.3177 49.1683Z" fill="white"/>
  <path d="M65.9 48.5927L64.2121 46.0217C64.2121 46.0217 61.9757 49.3229 60.5199 49.9469C61.8365 44.3305 59.3596 37.7677 57.2498 34.2897C57.0659 35.1907 56.6765 36.0385 56.111 36.769C55.5455 37.4996 54.8188 38.0936 53.9859 38.5062C53.9859 38.5062 54.045 34.8576 53.2052 31.9454C52.9924 31.1304 52.6484 30.3544 52.1862 29.6469C52.1043 30.6624 51.9018 31.665 51.5828 32.6339C51.4053 33.2207 51.1469 33.7807 50.8148 34.2981C50.8148 34.2981 50.6925 33.83 50.4963 33.1415C50.2853 32.4197 50.0026 31.4524 49.6882 30.5247C49.2536 29.2308 48.7683 28.016 48.3886 27.6458C48.3358 28.3884 48.5573 29.7592 48.3274 31.182C48.1931 32.1712 47.7702 33.1006 47.11 33.8571L46.9666 33.6615C46.8874 33.1221 46.7782 32.5874 46.6395 32.0598C46.2471 30.5392 45.4412 28.3156 43.9179 27.1091C43.7575 26.9822 43.5761 26.847 43.3778 26.7097C42.6647 26.2084 41.7342 25.6447 40.7447 25.0789C37.8965 23.4585 34.5482 21.8443 34.3984 21.7715C36.2488 22.9261 37.9652 24.2772 39.5168 25.8007C40.1681 26.4504 40.771 27.1456 41.3207 27.8808C42.96 30.0899 43.5972 32.1056 43.7259 33.7427C43.7818 34.4273 43.7456 35.1163 43.6183 35.7916C41.6836 34.1587 39.3185 32.4051 37.5378 31.856C38.4936 32.7421 40.7025 35.3256 42.7469 37.7989L42.7153 37.8301C42.806 37.9092 42.8925 37.9965 42.9811 38.0797C43.9875 39.2945 44.9454 40.4677 45.6859 41.3788C49.5637 47.3509 51.5047 56.464 49.2346 61.7059C51.6081 61.3419 54.2074 57.2045 53.9289 53.6974C53.7179 50.9932 52.6208 47.6338 51.9605 45.7929C65.7396 59.1494 66.9021 68.5849 67.2734 69.5064C65.4041 66.9478 58.8068 60.8593 58.6 60.67C58.7182 60.878 63.9167 69.8829 65.6573 74.0036C69.1575 69.1361 71.9488 64.1251 73.9193 59.2617L65.9 48.5927Z" fill="#9EA7AC"/>
  <path d="M22.1206 24.6206C23.7157 24.2212 25.8655 23.4765 26.393 22.3325C27.6589 22.8525 30.5071 25.5525 29.7159 27.6368C31.3363 25.7085 29.851 20.9388 25.9858 19.3683C25.9858 18.5362 25.6018 15.416 25.6018 15.416C25.6018 15.416 17.7955 20.7952 20.4328 25.3299C20.8548 23.3309 22.3316 21.2924 22.3316 21.2924L22.1206 24.6206Z" fill="#9EA7AC"/>
  <path d="M8.89435 16.3586C8.89435 16.3586 8.59264 11.048 10.0083 9.31527C10.0083 10.9087 10.8839 13.9082 13.5359 15.4246C11.8017 11.8114 11.4261 3.67188 11.4261 3.67188C7.11156 7.49932 6.77399 11.229 8.89435 16.3586Z" fill="#F0ABAB"/>
  <path d="M12.4473 13.8235C12.4473 13.8235 11.2658 5.22633 17.9771 2.93819C24.6884 0.650041 25.18 1.55074 25.18 1.55074C25.18 1.55074 18.7767 7.8265 17.0572 11.1193C17.0572 9.3866 17.7155 6.08543 19.8886 4.46292C16.1859 4.87895 12.806 10.0938 12.4473 13.8235Z" fill="#F0ABAB"/>
  <path d="M20.3438 7.14911C23.2806 6.44187 28.8188 5.79703 32.914 7.23648C28.2724 8.06853 25.4242 9.83665 24.4937 11.3614C29.1881 9.28125 34.8634 8.5844 37.6167 10.7727C40.37 12.961 43.5601 17.2211 48.3282 12.961C48.3282 14.5169 48.7628 15.6943 48.3282 17.0131C50.8959 17.7432 51.8326 17.0131 51.8326 17.0131C51.8326 17.0131 52.1111 10.286 47.9653 8.62185C47.9231 10.883 45.3618 12.3661 43.252 11.8107C41.1422 11.2553 37.5366 7.30512 37.5366 7.30512C37.5366 7.30512 37.2665 3.51096 28.2703 4.25357C23.2806 4.15788 20.3438 7.14911 20.3438 7.14911Z" fill="#F0ABAB"/>
  <path d="M39.0293 14.2412C39.8732 16.2423 41.5611 19.1316 44.5549 19.6496C47.5487 20.1675 50.2978 18.7946 51.8421 19.6496C53.3865 20.5045 58.0977 22.0667 60.2814 20.1654C61.0557 21.037 59.0851 24.2259 57.469 23.8806C53.0384 22.7531 54.1144 22.8176 49.6627 22.7698C54.4899 24.3611 58.2285 26.5806 59.4944 28.5213C60.7603 30.4621 62.6781 34.2895 67.0897 33.8527C66.5981 35.0384 65.7542 35.6375 63.6444 35.469C64.2773 36.4945 66.0348 37.9339 67.7226 37.9339C66.7416 38.506 64.136 38.506 64.136 38.506C64.136 38.506 68.3746 42.6663 68.9168 45.7511C70.2017 49.1334 71.5414 49.7616 71.5414 49.7616C71.5414 49.7616 73.1385 43.6543 69.1995 39.8227C72.2946 38.506 72.7166 37.9859 72.7166 37.9859L68.8493 35.9911C68.8493 35.9911 73.6153 33.3972 71.592 30.3935C68.0054 31.2255 66.9146 31.238 64.5031 29.4387C62.0916 27.6394 60.1991 24.904 60.1991 24.904C60.1991 24.904 65.6128 22.2809 62.1 15.4165C59.4269 17.7982 57.7454 18.3141 53.9435 17.3365C50.1416 16.3588 45.4326 17.8003 44.3059 17.3365C43.1793 16.8726 39.0293 14.2412 39.0293 14.2412Z" fill="#F0ABAB"/>
  <path d="M25.8827 75.3902C25.1802 70.8139 26.6718 63.7914 28.8048 60.6566C28.8048 63.0488 30.364 66.6537 30.364 66.6537C30.364 66.6537 36.033 60.0513 35.3072 55.2441C37.2187 59.7206 33.6827 66.9324 30.5391 69.9132C27.3955 72.8941 25.8827 75.3902 25.8827 75.3902Z" fill="white"/>
  <path d="M23.0694 84.5817C21.0039 84.7897 18.3392 87.8059 19.2718 89.886C20.2043 91.9661 23.0694 96.3344 23.0694 96.3344L21.1136 90.458C21.1136 90.458 23.0694 89.21 23.0694 87.5979C23.0694 85.9858 25.1328 84.3736 23.0694 84.5817Z" fill="white"/>
  <path d="M42.7129 37.8242C47.5654 44.1541 49.2681 49.1152 49.6858 52.3976C49.8968 54.095 49.9474 56.5288 50.0972 57.5252C50.9636 56.1275 51.3451 54.4897 51.1838 52.8594C50.3757 43.9315 43.0399 38.0489 42.7129 37.8242Z" fill="#083751"/>
  <path d="M6.69821 47.7329C5.73825 48.1719 5.99353 50.0211 6.13067 51.3565L6.31423 51.1485C6.53575 49.2535 6.86488 48.2093 7.88181 48.0949C7.88181 48.0866 7.66028 47.294 6.69821 47.7329Z" fill="#083751"/>
  <path d="M18.7782 36.3773C17.6516 36.9347 15.9026 37.1199 14.8477 37.3612C16.1663 37.8708 18.0989 37.5941 19.1369 37.0616C20.4977 36.3773 21.0631 34.8068 21.1243 33.3174C20.3817 34.5551 20.0146 35.7615 18.7782 36.3773Z" fill="#082E44"/>
  <path d="M69.7691 52.4546C69.9379 51.8701 70.3598 50.9985 70.1552 49.4072C70.6421 50.3166 70.9452 51.3106 71.0477 52.3339C74.9782 47.6287 71.1109 40.8932 70.5603 40.421C72.0646 40.005 73.092 38.8006 74.147 37.0928C72.6701 37.1386 71.8008 37.0533 70.4843 36.5915C73.1511 35.2228 72.5646 31.4827 72.0646 29.3963C70.4885 30.4738 67.8829 30.193 66.2141 29.1883C64.2034 27.9735 63.8806 26.4488 61.4291 24.9324C62.1593 24.656 62.788 24.1688 63.2329 23.5345C63.7198 22.8255 64.0372 22.0168 64.1612 21.1694C64.5579 18.8064 63.8511 15.9295 62.3173 14.0449C59.3319 18.0305 53.3084 16.5057 52.8843 16.4038C53.2514 13.814 51.3463 7.45924 46.8672 7.38019C47.3102 10.9019 44.5928 11.9794 42.0695 10.1364C41.0969 8.03543 39.7276 6.06555 37.7275 4.89027C35.4278 3.53611 32.4108 3.26777 29.7883 3.35098C27.6447 3.4113 25.5814 3.9875 23.9125 4.56161C24.4273 3.12424 26.3704 1.68687 26.7185 1.54542C21.655 -0.990262 13.1673 2.08625 12.0638 7.7359C11.8529 4.97764 11.9035 2.63333 11.9816 2.33795C6.85684 4.45553 6.72814 11.1203 6.78933 13.4999L0.645575 7.73174L6.90748 21.991C6.74502 22.4466 6.5256 22.9895 6.27453 23.5636C5.85257 24.5246 5.37787 25.5772 4.97067 26.4945C4.6287 27.1992 4.33616 27.9262 4.09511 28.6704C3.85459 29.7541 5.54243 33.7188 5.36099 35.1063C5.17289 36.4746 4.90164 37.8305 4.54871 39.1667C4.06768 41.0659 3.4706 42.965 2.94737 44.4232C2.71951 45.0597 2.5022 45.613 2.31443 46.0436C0.208846 47.7431 0.16243 50.5305 0.137112 51.8347C0.0949161 54.0064 3.45795 56.4796 4.76602 57.2659C4.977 57.3907 5.22174 57.5322 5.48969 57.682C6.40874 58.1972 7.36577 58.6436 8.35269 59.0174C8.98581 59.2694 9.65493 59.4224 10.3359 59.4709C12.393 59.5104 17.4481 56.5233 18.1253 55.6684C18.8026 54.8135 19.4228 50.1352 20.1338 48.4753C21.3533 45.6193 22.2436 46.8112 26.1341 42.4242C26.9084 43.8969 28.6321 47.6058 29.5562 52.9413C24.7543 57.4906 23.0454 63.4419 22.8745 68.7275C22.3839 69.2023 21.9245 69.7074 21.4989 70.2397C20.475 71.4902 19.604 72.8551 18.9038 74.3064C17.9818 76.2367 15.6653 77.4973 13.1251 78.5478C12.3381 78.8723 11.5279 79.1718 10.7326 79.4776C9.5595 79.9207 8.41177 80.3492 7.40961 80.8068C4.05713 82.3399 2.67521 84.2557 2.11189 86.4398C1.67094 88.1559 2.62246 90.6646 3.05075 91.663C2.80813 93.5975 2.16885 99.1806 2.70896 100.574C3.36722 102.272 3.52546 102.64 5.82304 105.392C6.64797 109.646 8.75356 115.327 12.931 116.647C16.5936 116.078 18.8785 106.59 18.9418 102.883L18.6422 102.243C18.6422 102.243 14.3762 97.6476 14.1842 96.1041C13.9922 94.5606 14.2306 93.4519 13.0365 90.0114C13.8891 89.6283 14.7754 89.3227 15.6843 89.0982C15.8045 90.105 16.256 91.7795 17.7561 93.8825C20.2731 97.4042 21.8365 104.029 23.5053 105.069C25.1742 106.11 28.3579 105.159 28.3579 105.159C28.3579 105.159 37.1051 112.712 45.3439 108.518C45.6625 106.569 44.962 103.501 44.0632 100.774C43.7826 99.9191 43.4788 99.0995 43.1835 98.3548C42.464 96.5492 41.7783 95.2076 41.4956 94.9642C41.4956 94.9642 39.0609 93.4748 33.6387 94.569C33.28 94.2008 31.7061 93.8451 31.1069 93.7619C30.609 92.8113 29.6638 90.1778 30.1259 89.9032C30.6196 89.6099 33.3665 90.1112 35.1894 90.5065C37.2148 90.9433 39.5377 93.4831 43.8691 93.5622C48.5107 93.6495 55.3655 90.3733 57.5365 86.2817C59.9775 81.6909 59.1484 75.0844 55.7452 72.4842C58.0344 77.3143 57.4331 81.383 55.5068 84.4595C52.6291 89.0254 47.2533 90.9849 44.0168 90.9246C41.564 90.8526 39.1693 90.1715 37.0545 88.9443C37.0545 88.9443 28.0583 86.7643 27.4675 88.7716C27.2038 89.6827 27.6954 91.2283 28.3114 92.6511C28.8078 93.7718 29.3714 94.8623 29.9993 95.9169C29.9993 95.9169 32.145 95.8129 32.337 97.3376C32.8651 96.9021 33.4653 96.5594 34.1113 96.3246C34.5061 96.1806 34.9136 96.0734 35.3287 96.0043C36.1333 96.5373 36.7463 97.3076 37.0798 98.205C37.4469 99.2181 37.411 100.306 37.2486 101.325C37.0608 102.509 36.6979 103.597 36.6009 104.373C36.5007 105.122 36.7055 105.881 37.1705 106.482C34.4383 105.954 31.4297 104.818 29.8558 102.871C25.7459 103.145 24.9927 104.154 23.6741 100.146C22.3555 96.1374 19.4081 92.0666 18.2013 90.4108C17.8497 89.8762 17.7107 89.2325 17.8109 88.6031C17.9357 87.699 18.2899 86.8404 18.8405 86.107C19.49 85.1937 20.378 84.4707 21.4103 84.0144C24.3007 82.7663 36.0418 79.7938 37.776 77.5098C39.5103 75.2258 38.7212 70.3541 47.1583 67.2506C44.7468 66.4789 37.7739 69.9007 36.0418 75.9559C32.7673 78.0673 24.4041 80.4657 22.1276 81.1292C20.1665 81.6867 18.409 82.7878 17.0641 84.3014C16.4692 84.967 15.9972 85.7301 15.6695 86.5563C15.6695 86.5792 15.6505 86.6021 15.6442 86.6249C13.7833 87.2719 10.7515 88.3098 10.7241 89.7451C10.6925 91.3531 11.8529 93.6787 11.779 97.011C11.7621 97.8681 13.2348 99.6653 14.6104 101.159C14.3066 104.354 10.7579 105.587 9.31476 106.655C8.91729 106.945 8.60141 107.33 8.397 107.774C8.05699 106.65 7.82876 105.496 7.71553 104.329C5.89899 101.881 5.2344 101.209 4.89894 100.169C4.64998 99.3949 5.01287 95.2055 5.2344 92.8882C5.50446 92.857 6.09309 93.2647 7.25559 93.9012C5.7281 91.5673 3.79551 88.9318 4.5677 86.5563C5.12047 84.8922 6.39901 84.2494 8.61009 83.045C9.2578 82.6914 10.4836 82.1963 11.9204 81.6181C12.6778 81.3123 13.4922 80.9815 14.3129 80.6342C17.235 79.4027 20.2203 77.9653 20.8659 76.6819C21.8449 74.7183 22.5538 73.7697 23.0623 72.9377C23.253 74.6311 23.6257 76.2997 24.1741 77.9154C24.0412 66.2667 28.3325 58.9675 30.0267 56.5462C30.2181 58.8715 30.2181 61.2081 30.0267 63.5334C32.7969 60.9769 32.5268 48.1924 27.6827 40.109C29.4761 36.2608 27.7819 32.4125 26.4168 30.9356C27.0329 33.6689 27.5371 35.7199 26.4548 38.2723C26.5842 36.988 26.3938 35.692 25.8999 34.4968C25.8788 34.4386 25.7923 34.4781 25.805 34.5343C26.208 36.2337 25.978 37.9581 25.383 39.5911C25.1868 40.1194 24.9611 40.6436 24.7121 41.1512C23.0517 43.1606 20.4081 43.7929 19.0473 46.1768C18.024 45.7441 15.7644 44.9495 14.1399 45.5943C13.6886 45.7358 13.2601 45.9404 12.8677 46.2017C12.5055 46.4313 12.2028 46.7411 11.9837 47.1066C12.5027 46.5345 14.0935 46.0665 15.3594 46.0852C15.5703 46.0998 16.6611 46.2475 17.2582 47.6328C17.2582 47.662 17.2434 47.6869 17.2413 47.6973L17.2666 47.6474C17.5578 48.3422 17.7244 49.3469 17.6 50.7947C17.2518 52.2237 16.9143 53.5155 16.4185 54.1083C15.4775 55.2399 12.393 57.0558 10.7347 57.3699C10.0158 57.486 9.27833 57.3957 8.61009 57.1099C9.19631 56.6445 9.83316 56.2448 10.5089 55.918C13.8846 54.3142 15.6146 53.3345 16.1041 52.4359C16.7708 51.2169 15.4712 49.1992 13.9943 48.3567C14.5851 48.1778 15.2433 48.3796 15.7243 48.4982C15.0513 47.7514 13.1209 47.3354 12.3909 48.0322C10.6102 49.7317 10.6292 53.5134 7.56784 54.7698C6.77535 55.0849 5.94615 55.3015 5.09937 55.4146L5.08249 55.4021C3.37355 54.2352 2.31865 52.6272 2.19628 51.35C2.05914 49.998 2.33553 48.2298 3.48748 47.1898C3.6372 47.0527 3.80047 46.9307 3.97485 46.8258C4.3525 45.9313 4.81877 44.5376 5.2977 43.017C6.29985 39.7762 7.30412 35.9633 7.39484 35.1521C7.52776 33.9601 6.04879 30.7588 6.18592 29.2611C6.25555 28.4665 7.1501 26.8482 7.7725 25.806C7.98348 25.4586 8.15648 25.182 8.26197 25.0072L8.52992 25.6084L8.77887 26.1721C8.82756 26.226 8.87971 26.2767 8.935 26.324C8.16281 28.1961 8.09108 30.5758 8.56578 32.4645C8.6776 31.2684 8.77676 30.089 9.11433 28.9283C9.32531 28.194 9.59537 27.4868 9.86331 26.7733C10.6123 26.9334 11.7896 26.8232 13.5238 25.7519C14.2554 25.33 14.8429 24.7029 15.2117 23.9505C15.2178 23.9342 15.2249 23.9182 15.2328 23.9027L16.4986 22.4736C16.5848 22.8229 16.7159 23.1599 16.889 23.4763C16.889 22.7649 17.2708 21.6873 17.7835 20.7055C17.9333 20.4164 18.0958 20.1356 18.2603 19.8735C19.638 17.7039 22.2669 17.0507 23.9378 16.2478C23.2753 16.8573 22.5749 17.4356 21.9293 18.0638C21.3213 18.6348 20.8175 19.3047 20.4398 20.044C20.0203 20.8914 19.8465 21.8366 19.9376 22.7753V22.8876C19.9545 22.846 19.9714 22.8023 19.9862 22.7607C20.4081 21.6472 21.0212 20.6136 21.7985 19.705C22.3377 19.0785 22.9352 18.5033 23.5834 17.9868C24.0053 17.6415 24.6383 17.1818 25.1763 16.6534C25.078 17.4361 24.9279 18.2115 24.7269 18.9749C24.5319 19.6951 24.202 20.3731 23.7543 20.9739C23.48 21.3316 23.1635 21.6853 22.8576 22.0451C21.8343 23.2495 20.9482 24.5038 22.3597 26.0556C21.8554 24.7139 23.6952 23.4305 24.4695 22.5901C24.8076 22.2289 25.1099 21.8368 25.3725 21.419C25.6434 20.9891 25.8757 20.5367 26.0666 20.0669C26.496 20.3222 26.9 20.6168 27.2734 20.9468C29.9086 23.2558 31.2462 27.1997 28.3136 28.0047C29.7503 28.8097 35.7759 29.2715 34.8835 22.5485C36.622 23.6073 38.4701 24.4997 40.3036 25.519C47.7786 29.6792 45.8207 34.5072 45.1899 35.1063C46.903 35.0647 48.9242 33.7875 48.8652 29.7791C48.8652 29.7895 48.8757 29.8019 48.8799 29.8144C50.2323 33.7459 50.245 35.9883 50.245 35.9883C51.3125 35.0605 52.4877 33.852 52.6417 31.5742C52.7177 31.9549 53.8105 35.7178 53.5553 39.5245C54.3064 39.2749 56.2558 38.8443 57.3761 35.8843C57.7285 36.9243 58.834 39.1376 59.5387 41.5859C60.007 43.2105 60.3552 44.9474 60.2834 46.6448C60.1611 49.4342 58.8066 50.805 58.699 51.1212C58.796 51.1358 61.9523 51.3875 63.8827 48.1633C65.7816 51.5456 68.7522 56.7334 73.284 61.551C73.4317 61.7091 73.6575 61.9379 73.917 62.1917C74.2356 61.1724 74.5668 60.1573 74.9191 59.1485C73.284 57.6736 71.438 55.5145 69.7691 52.4546ZM37.2169 95.9169C37.9985 95.9685 38.7715 96.1081 39.5208 96.3329C39.8943 97.2107 40.3964 98.413 40.9006 99.6757C41.2171 100.47 41.5336 101.29 41.8184 102.076C42.5716 104.142 43.1181 105.958 42.8733 106.376C42.6286 106.794 41.2319 106.942 39.3753 106.792C38.2613 105.225 38.295 104.061 38.5313 102.145C38.563 101.879 38.601 101.596 38.6389 101.296C38.7128 100.561 38.6571 99.8196 38.4744 99.1037C38.191 97.9941 37.7686 96.9236 37.2169 95.9169ZM13.0175 105.951C14.239 105.047 15.0787 103.455 15.5957 102.186C16.0872 102.69 16.5029 103.098 16.7413 103.328C16.4965 106.54 15.5788 112.558 12.1503 114.072C11.0954 113.656 10.1713 112.271 9.43713 110.638C9.8169 108.244 10.9098 107.518 13.0175 105.951ZM13.3171 49.1638C13.4652 49.1609 13.613 49.1791 13.7559 49.2179C13.7095 50.493 12.1398 52.1135 12.1398 52.1135C13.374 51.4249 14.2116 50.8404 14.7011 49.8066C14.9597 50.0779 15.1493 50.4059 15.2542 50.7635C15.3591 51.1212 15.3764 51.4983 15.3045 51.8638C15.0766 52.8394 11.0279 54.4848 9.14387 55.244C11.8507 53.5175 11.9879 49.2013 13.3171 49.1659V49.1638ZM12.8445 24.535C12.0744 25.1196 11.0343 25.4711 10.2642 25.2714L10.2241 25.1861L9.0869 22.8626L4.23435 12.957L7.47501 16.1729C7.2999 16.4829 7.06782 16.8282 6.7197 16.9093C6.9223 16.955 7.13394 16.9424 7.32951 16.8731C7.52509 16.8038 7.6964 16.6806 7.82313 16.5182L9.35063 18.0409C9.03838 18.7273 8.5257 19.5719 7.73452 19.705C8.74934 19.992 9.52574 19.3555 9.88652 18.5775L11.8318 20.5142C11.6208 21.263 11.1988 22.1783 10.165 22.5943C9.91642 22.6964 9.65544 22.7664 9.38861 22.8023C10.5448 23.0727 11.3739 22.7337 11.8993 22.1783C12.165 21.8856 12.3611 21.538 12.4731 21.1611L13.1757 21.8579L13.8445 22.5256C14.066 23.2183 13.5766 23.9838 12.8445 24.5371V24.535ZM68.7543 50.4348C68.1382 49.8586 65.8006 47.1835 64.8047 45.8939C65.2879 44.4066 65.2014 43.379 64.8701 41.8646C64.4482 44.3608 62.638 47.2272 61.7054 48.3775C62.1274 46.8216 61.9628 45.1492 61.7054 43.5828C61.3914 41.8268 60.8725 40.1125 60.1589 38.474C58.6209 34.7714 58.6209 34.7714 57.2917 31.5513C56.5216 34.6279 55.8634 36.0631 54.838 37.3071C54.893 36.3224 54.8271 35.3348 54.6418 34.3658C54.568 33.9601 53.9329 30.8067 50.9349 26.5673C51.1986 28.5331 51.9898 30.8628 51.0488 33.0615C50.9855 31.4141 49.8842 26.6443 46.5423 24.741C47.4769 26.3302 48.2997 31.31 47.1752 32.5852C47.2849 29.8394 45.346 27.3099 43.232 25.6438C41.6707 24.4144 33.029 19.6613 32.9994 19.6613C33.0142 19.6821 34.6092 26.5445 31.1175 27.0874C31.8665 25.4233 30.7651 22.457 28.995 20.5246C28.2481 19.7071 27.381 19.0685 26.4822 18.8001C26.5012 18.7107 26.5181 18.6212 26.5329 18.5297C26.824 16.9114 26.7101 15.0309 26.1552 13.606C24.6425 15.2077 20.8385 15.2764 18.7751 17.0403C17.8764 17.7954 16.9354 18.952 16.5535 20.2749L15.8952 21.1715L15.41 21.8309C15.3862 21.6971 15.336 21.5692 15.2623 21.4544L15.1568 21.3545L9.57849 16.1168C8.28096 13.683 7.92651 7.8087 10.7093 5.19397C10.5849 6.74367 10.6925 14.1677 13.5323 15.4157C11.5638 10.8395 13.6546 2.32131 23.5264 2.26931C21.7183 3.59851 20.3343 5.77433 19.7288 7.23042C19.0763 7.93348 18.4981 8.70014 18.0029 9.51857C18.7161 9.10254 21.0242 5.23558 29.6849 5.21061C31.9846 5.21061 34.4826 5.45815 36.5207 6.60222C33.0184 5.74729 29.2862 7.64229 26.3789 9.57057C28.4296 8.92157 31.4086 6.97665 35.605 7.78582C38.4237 8.32873 39.582 10.8894 41.9091 12.2123C43.808 13.2899 46.5043 13.2108 47.747 11.1972C48.0552 10.6966 48.2098 10.1186 48.1921 9.53313C48.7246 10.0906 49.1897 10.7069 49.5783 11.3699C50.442 12.8454 50.8036 14.5549 50.61 16.2478C49.6191 16.1863 48.6243 16.2323 47.6436 16.3851C46.5887 16.512 45.5338 16.6368 44.4789 16.5182C42.9997 16.3362 41.575 15.8531 40.2951 15.0996C39.8548 14.8413 39.4319 14.555 39.0293 14.2426C39.2703 14.5857 39.5346 14.9123 39.8204 15.2202C40.8791 16.3803 42.2584 17.2103 43.789 17.6082C46.2638 18.2655 48.6774 17.3503 51.1501 17.7809C52.7472 18.0575 54.5764 18.7585 56.4478 18.9353C57.8909 19.0705 59.3572 18.8937 60.7602 17.9743C61.3289 17.5891 61.8072 17.0884 62.1633 16.5057C62.6524 17.832 62.7136 19.275 62.3384 20.6369L62.2751 20.8449C62.0524 21.6131 61.649 22.3186 61.0978 22.9042L61.0366 22.9666C60.5028 23.4846 59.8572 23.6614 59.2496 24.0192C57.2073 23.1871 54.9224 22.9042 52.7092 22.7711C54.6967 23.3951 56.7347 24.0192 58.6167 24.9053C60.4986 25.7915 61.7645 27.1935 63.081 28.7536C64.176 30.0557 65.4524 31.2352 67.1677 31.6366C68.346 31.9122 69.5793 31.8531 70.7249 31.4661C71.0329 33.1614 69.4379 35.9259 67.2162 36.292C68.2915 36.9676 69.4491 37.5065 70.6616 37.8957C69.8176 38.6467 67.8028 39.2041 66.5052 39.2707C69.6214 40.8807 71.1869 45.17 71.1173 48.6542C70.6194 47.5892 70.0434 46.366 68.7374 45.4362C69.1087 46.9402 69.0412 48.7582 68.7627 50.4369L68.7543 50.4348Z" fill="#083751"/>
  <path d="M19.3218 33.0965C19.1826 32.3435 18.8999 31.5115 18.364 30.9498C19.15 30.3998 20.0538 30.0354 21.0055 29.8848C18.6509 29.3273 17.0686 30.2052 15.2752 31.9233C14.1549 32.9967 12.8215 35.6946 12.5493 36.4851C12.2265 37.4211 10.0176 36.6556 10.0176 36.6556C10.4775 37.2298 11.4333 37.962 12.4502 37.9807C13.2118 37.9952 13.2308 37.5917 13.581 36.8761C15.655 35.938 17.8977 35.9255 18.7458 35.2412C19.3936 34.719 19.4632 33.9286 19.3218 33.0965ZM14.0473 35.9879C14.7731 34.7024 15.9757 32.8968 17.5454 31.5739C17.9673 31.9379 18.2163 32.7533 18.3007 33.2692C18.6256 35.2432 16.8428 34.5402 14.0389 35.99L14.0473 35.9879Z" fill="#083751"/>
  <path d="M6.56462 45.1966C4.53499 46.6631 4.55608 50.3533 5.39368 51.645C5.17215 49.9019 5.64263 46.2637 7.33259 46.2367C8.43812 46.2138 8.99722 46.5466 9.25462 46.7796L9.44028 46.998C9.46383 46.8294 9.45525 46.658 9.41496 46.4926C9.39386 44.3583 10.6492 42.4384 11.4235 40.4248C10.1661 41.7927 9.10804 43.3266 8.27989 44.9824C7.80518 44.7307 7.21022 44.7307 6.56462 45.1966Z" fill="#083751"/>
</svg>