<svg width="30" height="30" viewBox="0 0 30 30" fill="none"
  xmlns="http://www.w3.org/2000/svg">
  <path fill-rule="evenodd" clip-rule="evenodd" d="M7.06152 9C7.55362 5.05368 10.92 2 14.9996 2C19.0792 2 22.4456 5.05368 22.9377 9H7.06152ZM13 6C13 6.55228 12.5523 7 12 7C11.4477 7 11 6.55228 11 6C11 5.44772 11.4477 5 12 5C12.5523 5 13 5.44772 13 6ZM19 6C19 6.55228 18.5523 7 18 7C17.4477 7 17 6.55228 17 6C17 5.44772 17.4477 5 18 5C18.5523 5 19 5.44772 19 6Z" fill="#8B8BB8" class="icon-token-purple" />
  <path d="M5 9C3.89543 9 3 9.89542 3 11V18C3 19.1046 3.89543 20 5 20C6.10457 20 6 19.1046 6 18V11C6 9.89542 6.10457 9 5 9Z" fill="#8B8BB8" class="icon-token-purple" />
  <path d="M23 10H7V20C7 21.1046 7.89543 22 9 22V26C9 27.1046 9.89543 28 11 28C12.1046 28 13 27.1046 13 26V22H17V26C17 27.1046 17.8954 28 19 28C20.1046 28 21 27.1046 21 26V22C22.1046 22 23 21.1046 23 20V10Z" fill="#8B8BB8" class="icon-token-purple" />
  <path d="M24 11C24 9.89542 23.8954 9 25 9C26.1046 9 27 9.89542 27 11V18C27 19.1046 26.1046 20 25 20C23.8954 20 24 19.1046 24 18V11Z" fill="#8B8BB8" class="icon-token-purple" />
  <path fill-rule="evenodd" clip-rule="evenodd" d="M6.29289 3.29289C6.68342 2.90237 7.31658 2.90237 7.70711 3.29289L10.7071 6.29289C11.0976 6.68342 11.0976 7.31658 10.7071 7.70711C10.3166 8.09763 9.68342 8.09763 9.29289 7.70711L6.29289 4.70711C5.90237 4.31658 5.90237 3.68342 6.29289 3.29289Z" fill="#8B8BB8" class="icon-token-purple" />
  <path fill-rule="evenodd" clip-rule="evenodd" d="M23.7071 3.29289C24.0976 3.68342 24.0976 4.31658 23.7071 4.70711L20.7071 7.70711C20.3166 8.09763 19.6834 8.09763 19.2929 7.70711C18.9024 7.31658 18.9024 6.68342 19.2929 6.29289L22.2929 3.29289C22.6834 2.90237 23.3166 2.90237 23.7071 3.29289Z" fill="#8B8BB8" class="icon-token-purple" />
</svg>