<svg width="26" height="29" viewBox="0 0 26 29" fill="none" xmlns="http://www.w3.org/2000/svg">
<path fill-rule="evenodd" clip-rule="evenodd" d="M13.0001 0L5.01809 4.44196L7.95263 6.08294L13.0001 3.28195L18.0474 6.08294L20.982 4.44196L13.0001 0ZM18.0474 8.40294L20.982 10.0439V13.3259L15.9345 16.1269V21.7288L13.0001 23.3699L10.0655 21.7288V16.1269L5.01809 13.3259V10.0439L7.95263 8.40294L13.0001 11.2039L18.0474 8.40294ZM20.982 15.6459V18.9278L18.0474 20.5689V17.2868L20.982 15.6459ZM18.0181 22.8888L23.0655 20.0878V14.4858L26 12.8449V21.7288L18.0181 26.1707V22.8888ZM23.0655 8.88391L20.131 7.24294L23.0655 5.60196L26 7.24294V10.5249L23.0655 12.1659V8.88391ZM10.0655 27.3591V24.0771L13.0001 25.7181L15.9345 24.0771V27.3591L13.0001 29L10.0655 27.3591ZM7.95263 20.5689L5.01809 18.9278V15.6459L7.95263 17.2868V20.5689ZM13.0001 8.88391L10.0655 7.24294L13.0001 5.60196L15.9345 7.24294L13.0001 8.88391ZM5.86908 7.24294L2.93453 8.88391V12.1659L0 10.5249V7.24294L2.93453 5.60196L5.86908 7.24294ZM0 12.8449L2.93453 14.4858V20.0878L7.98194 22.8888V26.1707L0 21.7288V12.8449Z" class="icon-token-orange" fill="#8B8BB8"/>
</svg>
