<svg width="40" height="40" viewBox="0 0 40 40" fill="none" xmlns="http://www.w3.org/2000/svg">
<path d="M20 6C22.5426 6 24.8874 6.61976 27.0344 7.85984C29.1813 9.09992 30.8815 10.7829 32.1343 12.9077C33.3871 15.0325 34.0138 17.3534 34.0138 19.8697C34.0138 22.8916 33.1226 25.6096 31.3406 28.0231C29.558 30.4372 27.2563 32.1078 24.4345 33.0343C24.1055 33.0947 23.8627 33.0529 23.7041 32.9083C23.6277 32.8409 23.5669 32.7575 23.526 32.6639C23.485 32.5703 23.4649 32.4688 23.467 32.3665L23.476 30.9852C23.4821 30.0999 23.4849 29.2903 23.4849 28.5559C23.4849 27.3881 23.1688 26.5333 22.5365 25.9916C23.2299 25.9192 23.8532 25.8108 24.4065 25.6667C24.9603 25.5221 25.5321 25.287 26.1218 24.9622C26.712 24.6373 27.2048 24.2368 27.6 23.7611C27.9952 23.286 28.3175 22.6538 28.5669 21.8651C28.8164 21.0764 28.9414 20.1702 28.9414 19.1477C28.9414 17.7144 28.4604 16.4743 27.4996 15.4269C27.9498 14.3308 27.901 13.1032 27.3539 11.7433C27.0131 11.6343 26.5203 11.701 25.8757 11.9411C25.2311 12.1823 24.6711 12.4473 24.1968 12.736L23.5034 13.1693C22.3618 12.8551 21.1834 12.6974 20 12.7004C18.8165 12.6974 17.6381 12.8551 16.4965 13.1693C16.2427 12.9995 15.9841 12.8369 15.7212 12.6817C15.3984 12.4897 14.8905 12.258 14.1971 11.9868C13.5037 11.7157 12.9869 11.6343 12.6466 11.7428C12.0989 13.1032 12.0502 14.3314 12.5009 15.4269C11.5395 16.4743 11.0585 17.7149 11.0585 19.1471C11.0585 20.1702 11.1836 21.0736 11.433 21.8561C11.6824 22.6385 12.0014 23.2707 12.391 23.7521C12.78 24.234 13.2699 24.6373 13.8596 24.9622C14.4499 25.287 15.0217 25.5221 15.5749 25.6667C16.1288 25.8108 16.7521 25.9192 17.4455 25.9916C16.9707 26.4249 16.6731 27.0452 16.5514 27.852C16.2892 27.9745 16.0136 28.0653 15.7302 28.1226C15.4382 28.183 15.0912 28.213 14.6898 28.213C14.2885 28.213 13.8899 28.083 13.4947 27.8248C13.0995 27.5655 12.7621 27.1893 12.4824 26.6961C12.2602 26.3205 11.9576 25.9997 11.5967 25.7571C11.2379 25.5159 10.9369 25.3718 10.6942 25.3232L10.3287 25.269C10.0737 25.269 9.89708 25.2961 9.79954 25.3503C9.70256 25.4046 9.67229 25.4741 9.70873 25.5582C9.74517 25.643 9.79954 25.7266 9.87297 25.8108C9.94585 25.8955 10.0243 25.9673 10.1101 26.0277L10.2379 26.1181C10.5053 26.2384 10.7704 26.4672 11.0316 26.8045C11.2929 27.1412 11.4846 27.4486 11.6062 27.7254L11.789 28.1406C11.947 28.5983 12.215 28.9683 12.5917 29.2513C12.9689 29.5338 13.3764 29.7146 13.8137 29.7931C14.252 29.8711 14.6747 29.9135 15.0822 29.9197C15.4897 29.9253 15.8278 29.9044 16.0951 29.8564L16.515 29.7841C16.515 30.2417 16.5178 30.7745 16.524 31.3824L16.5329 32.3665C16.5329 32.5835 16.4539 32.7637 16.2958 32.9083C16.1377 33.0529 15.8945 33.0947 15.566 33.0349C12.7436 32.1078 10.4414 30.4372 8.65937 28.0237C6.87681 25.6085 5.98608 22.8911 5.98608 19.8697C5.98608 17.3534 6.61278 15.0325 7.86563 12.9077C9.11847 10.7829 10.8186 9.09992 12.9656 7.85984C15.1125 6.61976 17.4573 6 20 6ZM11.2962 25.9192C11.3327 25.8351 11.2901 25.7627 11.1684 25.7029C11.0468 25.6667 10.9677 25.6786 10.9313 25.739C10.8949 25.8232 10.9369 25.8955 11.0585 25.9554C11.1684 26.0277 11.2475 26.0158 11.2962 25.9192ZM11.8618 26.5333C11.947 26.4735 11.9347 26.3769 11.8254 26.2446C11.7037 26.1362 11.6062 26.1181 11.5333 26.1904C11.4481 26.2503 11.4605 26.3469 11.5698 26.4791C11.6914 26.5994 11.7884 26.6175 11.8613 26.5333H11.8618ZM12.4089 27.3463C12.5188 27.2616 12.5188 27.1475 12.4089 27.0028C12.3119 26.8463 12.2082 26.8107 12.0989 26.8944C11.9896 26.9548 11.9896 27.0633 12.0989 27.2198C12.2082 27.3763 12.3119 27.4181 12.4089 27.3463ZM13.1758 28.1045C13.2727 28.0084 13.2486 27.8938 13.1029 27.7616C12.9566 27.6169 12.8349 27.5989 12.7374 27.7073C12.6281 27.8034 12.6522 27.9181 12.8103 28.0503C12.956 28.1949 13.0782 28.213 13.1758 28.1045ZM14.2156 28.5565C14.252 28.4237 14.173 28.3271 13.9785 28.2672C13.7957 28.2192 13.6803 28.2615 13.6315 28.3937C13.5833 28.5259 13.6623 28.6163 13.8692 28.6644C14.0514 28.7367 14.1668 28.7005 14.2156 28.5559V28.5565ZM15.3647 28.6468C15.3647 28.4898 15.2616 28.4237 15.0547 28.4474C14.8602 28.4474 14.7633 28.5141 14.7633 28.6463C14.7633 28.8028 14.8664 28.8689 15.0732 28.8451C15.2678 28.8451 15.3647 28.7785 15.3647 28.6463V28.6468ZM16.4236 28.4661C16.399 28.3333 16.2896 28.2796 16.0951 28.3034C15.9006 28.3395 15.8149 28.4293 15.8395 28.5745C15.8642 28.7186 15.9735 28.7666 16.168 28.7186C16.3625 28.6706 16.4483 28.5864 16.4236 28.4655V28.4661Z" fill="#FFFFFF"/>
</svg>
