<svg width="30" height="30" viewBox="0 0 30 30" fill="none"
  xmlns="http://www.w3.org/2000/svg">
  <rect x="2" y="2" width="26" height="26" fill="#8B8BB8" class="icon-token-purple" />
  <path d="M9.77217 20.7746L9.7747 20.7754L8.85709 22.3854C8.52216 22.9731 7.78028 23.1745 7.20013 22.8352C6.62001 22.4959 6.42123 21.7444 6.75616 21.1567L7.43214 19.9706L7.497 19.8568C7.61286 19.6881 7.89877 19.397 8.47065 19.4517C8.47065 19.4517 9.81642 19.5996 9.9138 20.3082C9.91382 20.3082 9.9271 20.5414 9.77217 20.7746V20.7746ZM22.787 16.6623H19.9256C19.7307 16.6491 19.6456 16.5786 19.6122 16.5377L19.6101 16.5339L16.547 11.1594L16.543 11.1621L16.3593 10.8953C16.0583 10.4289 15.5802 11.6218 15.5802 11.6218C15.0094 12.9509 15.6612 14.4622 15.8885 14.9189L20.1429 22.3838C20.4778 22.9715 21.2197 23.1728 21.7998 22.8335C22.38 22.4942 22.5787 21.7427 22.2438 21.155L21.1799 19.2884C21.1593 19.2432 21.1235 19.1203 21.3416 19.1198H22.787C23.4569 19.1198 24 18.5697 24 17.8911C24 17.2125 23.4569 16.6623 22.787 16.6623ZM17.2292 18.3328C17.2292 18.3328 17.3819 19.1198 16.7909 19.1198H16.1999V19.1198H6.21296C5.54307 19.1198 5 18.5697 5 17.8911C5 17.2125 5.54307 16.6623 6.21296 16.6623H8.93244C9.3715 16.6366 9.47559 16.3798 9.47559 16.3798L9.47798 16.3811L13.0278 10.1525L13.0268 10.1523C13.0915 10.032 13.0376 9.91828 13.0282 9.90028L11.8559 7.84333C11.5209 7.25564 11.7197 6.50413 12.2999 6.16483C12.88 5.82551 13.6218 6.02688 13.9568 6.61458L14.5005 7.56859L15.0432 6.61628C15.3782 6.02858 16.12 5.82721 16.7002 6.16653C17.2803 6.50585 17.4791 7.25736 17.1441 7.84503L12.2044 16.5122C12.1829 16.5649 12.1762 16.6478 12.3369 16.6623H15.2896L15.2902 16.6915C15.2902 16.6915 16.9968 16.7184 17.2292 18.3328Z" fill="white"/>
</svg>