<svg width="30" height="30" viewBox="0 0 30 30" fill="none" xmlns="http://www.w3.org/2000/svg">
<path fill-rule="evenodd" clip-rule="evenodd" d="M11.6119 28.581C19.1137 30.4509 26.7113 25.8869 28.5814 18.3869C30.4515 10.8864 25.8865 3.28881 18.3852 1.41895C10.8856 -0.45092 3.28842 4.11393 1.4192 11.6148C-0.451318 19.1144 4.11363 26.7111 11.6119 28.581ZM8.92443 8.17067C9.03757 8.0629 9.18691 8 9.34078 8H23.7049C23.9674 8 24.0987 8.31441 23.9131 8.49854L21.0756 11.3147C20.967 11.4225 20.8176 11.4854 20.6592 11.4854H6.29508C6.03259 11.4854 5.90135 11.171 6.0869 10.9869L8.92443 8.17067ZM8.92443 18.6853C9.03305 18.5775 9.18238 18.5146 9.34078 18.5146H23.7049C23.9674 18.5146 24.0987 18.829 23.9131 19.0131L21.0756 21.8293C20.967 21.9371 20.8176 22 20.6592 22H6.29508C6.03259 22 5.90135 21.6856 6.0869 21.5015L8.92443 18.6853ZM21.0756 13.3943C20.967 13.2865 20.8176 13.2236 20.6592 13.2236H6.29508C6.03259 13.2236 5.90135 13.538 6.0869 13.7222L8.92443 16.5383C9.03305 16.6462 9.18238 16.709 9.34078 16.709H23.7049C23.9674 16.709 24.0987 16.3946 23.9131 16.2105L21.0756 13.3943Z" fill="#8B8BB8" class="icon-token-orange"/>
</svg>
