<svg width="40" height="40" viewBox="0 0 40 40" fill="none" xmlns="http://www.w3.org/2000/svg">
<path d="M6.47706 19.9863L12.6966 22.4554L15.1088 30.6857C15.2618 31.212 15.8739 31.4034 16.2699 31.0589L19.7352 28.0539C20.0952 27.7381 20.6173 27.719 20.9953 28.0156L27.2508 32.8485C27.6829 33.1835 28.2949 32.9347 28.4029 32.3796L32.9843 8.94242C33.1013 8.3395 32.5433 7.83228 32.0032 8.0524L6.46806 18.5317C5.83801 18.79 5.84701 19.7375 6.47706 19.9863ZM14.7218 21.1443L26.8818 13.182C27.0978 13.0384 27.3228 13.3542 27.1338 13.5361L17.098 23.4603C16.7469 23.8048 16.5219 24.2737 16.4499 24.7809L16.1079 27.4701C16.0629 27.8338 15.5858 27.8625 15.4958 27.518L14.1817 22.6085C14.0377 22.0535 14.2537 21.4505 14.7218 21.1443Z" fill="#FFFFFF"/>
</svg>
