<svg width="26" height="26" viewBox="0 0 26 26" fill="none" 
    xmlns="http://www.w3.org/2000/svg">
    <path fill-rule="evenodd" clip-rule="evenodd" d="M5.06152 7C5.55362 3.05368 8.92001 0 12.9996 0C17.0792 0 20.4456 3.05368 20.9377 7H5.06152ZM11 4C11 4.55228 10.5523 5 10 5C9.44771 5 9 4.55228 9 4C9 3.44772 9.44771 3 10 3C10.5523 3 11 3.44772 11 4ZM17 4C17 4.55228 16.5523 5 16 5C15.4477 5 15 4.55228 15 4C15 3.44772 15.4477 3 16 3C16.5523 3 17 3.44772 17 4Z" fill="#8B8BB8"/>
    <path d="M3 7C1.89543 7 1 7.89542 1 9V16C1 17.1046 1.89543 18 3 18C4.10457 18 4 17.1046 4 16V9C4 7.89542 4.10457 7 3 7Z" fill="#8B8BB8"/>
    <path d="M21 8H5V18C5 19.1046 5.89543 20 7 20V24C7 25.1046 7.89543 26 9 26C10.1046 26 11 25.1046 11 24V20H15V24C15 25.1046 15.8954 26 17 26C18.1046 26 19 25.1046 19 24V20C20.1046 20 21 19.1046 21 18V8Z" fill="#8B8BB8"/>
    <path d="M22 9C22 7.89542 21.8954 7 23 7C24.1046 7 25 7.89542 25 9V16C25 17.1046 24.1046 18 23 18C21.8954 18 22 17.1046 22 16V9Z" fill="#8B8BB8"/>
</svg>