<svg width="26" height="26" viewBox="0 0 26 26" fill="none" 
    xmlns="http://www.w3.org/2000/svg">
    <path d="M25.6113 16.1449C23.8748 23.1093 16.8199 27.3472 9.85392 25.6109C2.89123 23.8746 -1.34765 16.8205 0.389262 9.85663C2.12496 2.89151 9.17947 -1.34728 16.1434 0.389021C23.1089 2.12533 27.3474 9.18023 25.6109 16.1449H25.6113Z" fill="#8B8BB8"/>
    <path d="M18.54 10.9887C18.7907 9.33007 17.5124 8.43844 15.7645 7.84363L16.3315 5.59682L14.9467 5.25598L14.3947 7.44358C14.0311 7.35399 13.6573 7.26946 13.2859 7.18571L13.8419 4.9837L12.4583 4.64286L11.8909 6.88889C11.5896 6.82111 11.2939 6.75411 11.0069 6.68361L11.0084 6.67659L9.09923 6.20565L8.73095 7.66639C8.73095 7.66639 9.75811 7.89894 9.73642 7.91335C10.2971 8.05164 10.3988 8.41818 10.3815 8.70877L9.73563 11.2684C9.77427 11.2781 9.82435 11.2921 9.87955 11.314L9.73366 11.2781L8.82795 14.8637C8.75934 15.032 8.58546 15.2844 8.19352 15.1886C8.20732 15.2085 7.18727 14.9405 7.18727 14.9405L6.5 16.5064L8.30195 16.9501C8.63711 17.033 8.96556 17.1199 9.28849 17.2017L8.71558 19.4746L10.0984 19.8155L10.6662 17.5671C11.0435 17.6684 11.4102 17.7618 11.769 17.8499L11.2036 20.0877L12.588 20.4286L13.1609 18.1603C15.5216 18.6017 17.2971 18.4237 18.0435 16.3147C18.6456 14.6164 18.014 13.6367 16.7719 12.9975C17.6765 12.7907 18.3578 12.2029 18.5396 10.9887H18.54ZM15.3765 15.3705C14.9483 17.0689 12.0541 16.1511 11.1153 15.9205L11.8755 12.9099C12.8139 13.1412 15.8228 13.5993 15.3769 15.3705H15.3765ZM15.8043 10.9642C15.414 12.509 13.0048 11.7241 12.2229 11.5317L12.9121 8.80109C13.694 8.99352 16.2112 9.35267 15.8043 10.9642V10.9642Z" fill="white"/>
</svg>