<svg width="26" height="26" viewBox="0 0 26 26" fill="none" 
    xmlns="http://www.w3.org/2000/svg">
    <mask id="path-1-inside-1" fill="white">
        <path fill-rule="evenodd" clip-rule="evenodd" d="M13 19.5C16.5899 19.5 19.5 16.5899 19.5 13C19.5 9.41015 16.5899 6.5 13 6.5C9.41015 6.5 6.5 9.41015 6.5 13C6.5 16.5899 9.41015 19.5 13 19.5ZM16.7143 13C16.7143 15.0513 15.0513 16.7143 13 16.7143C10.9487 16.7143 9.28571 15.0513 9.28571 13C9.28571 10.9487 10.9487 9.28571 13 9.28571C15.0513 9.28571 16.7143 10.9487 16.7143 13Z"/>
        <path fill-rule="evenodd" clip-rule="evenodd" d="M13 26C20.1797 26 26 20.1797 26 13C26 5.8203 20.1797 0 13 0C5.8203 0 0 5.8203 0 13C0 20.1797 5.8203 26 13 26ZM23.2143 13C23.2143 18.6412 18.6412 23.2143 13 23.2143C7.35881 23.2143 2.78571 18.6412 2.78571 13C2.78571 7.35881 7.35881 2.78571 13 2.78571C18.6412 2.78571 23.2143 7.35881 23.2143 13Z"/>
    </mask>
    <path d="M13 26.2143C20.298 26.2143 26.2143 20.298 26.2143 13H20.2143C20.2143 16.9843 16.9843 20.2143 13 20.2143V26.2143ZM-0.214286 13C-0.214286 20.298 5.70195 26.2143 13 26.2143V20.2143C9.01566 20.2143 5.78571 16.9843 5.78571 13H-0.214286ZM13 -0.214286C5.70195 -0.214286 -0.214286 5.70195 -0.214286 13H5.78571C5.78571 9.01566 9.01566 5.78571 13 5.78571V-0.214286ZM26.2143 13C26.2143 5.70195 20.298 -0.214286 13 -0.214286V5.78571C16.9843 5.78571 20.2143 9.01566 20.2143 13H26.2143ZM23 13C23 18.5228 18.5228 23 13 23V29C21.8366 29 29 21.8366 29 13H23ZM13 3C18.5228 3 23 7.47715 23 13H29C29 4.16344 21.8366 -3 13 -3V3ZM3 13C3 7.47715 7.47715 3 13 3V-3C4.16344 -3 -3 4.16344 -3 13H3ZM13 23C7.47715 23 3 18.5228 3 13H-3C-3 21.8366 4.16344 29 13 29V23ZM13 19.7143C16.7082 19.7143 19.7143 16.7082 19.7143 13H13.7143C13.7143 13.3945 13.3945 13.7143 13 13.7143V19.7143ZM6.28571 13C6.28571 16.7082 9.2918 19.7143 13 19.7143V13.7143C12.6055 13.7143 12.2857 13.3945 12.2857 13H6.28571ZM13 6.28571C9.2918 6.28571 6.28571 9.2918 6.28571 13H12.2857C12.2857 12.6055 12.6055 12.2857 13 12.2857V6.28571ZM19.7143 13C19.7143 9.2918 16.7082 6.28571 13 6.28571V12.2857C13.3945 12.2857 13.7143 12.6055 13.7143 13H19.7143ZM16.5 13C16.5 14.933 14.933 16.5 13 16.5V22.5C18.2467 22.5 22.5 18.2467 22.5 13H16.5ZM13 9.5C14.933 9.5 16.5 11.067 16.5 13H22.5C22.5 7.75329 18.2467 3.5 13 3.5V9.5ZM9.5 13C9.5 11.067 11.067 9.5 13 9.5V3.5C7.75329 3.5 3.5 7.75329 3.5 13H9.5ZM13 16.5C11.067 16.5 9.5 14.933 9.5 13H3.5C3.5 18.2467 7.75329 22.5 13 22.5V16.5Z" fill="#8B8BB8" mask="url(#path-1-inside-1)"/>
</svg>