<svg width="26" height="26" viewBox="0 0 26 26" fill="none" 
    xmlns="http://www.w3.org/2000/svg">
    <path d="M13 26C20.1797 26 26 20.1797 26 13C26 5.8203 20.1797 0 13 0C5.8203 0 0 5.8203 0 13C0 20.1797 5.8203 26 13 26Z" fill="#8B8BB8"/>
    <path fill-rule="evenodd" clip-rule="evenodd" d="M13 2.78572C13.1437 2.78477 13.2828 2.85283 13.371 2.97481L17.442 8.60598C17.4796 8.65798 17.506 8.71737 17.5196 8.78035L19.4894 17.8919C19.5307 18.0827 19.4492 18.2793 19.2858 18.3829L13.245 22.2153C13.1698 22.263 13.0847 22.2863 13 22.2857C12.9153 22.2863 12.8302 22.263 12.755 22.2153L6.7142 18.3829C6.55084 18.2793 6.46934 18.0827 6.5106 17.8919L8.48037 8.78035C8.49399 8.71737 8.52044 8.65798 8.55804 8.60598L12.629 2.97481C12.7172 2.85283 12.8563 2.78477 13 2.78572ZM12.5408 4.66142L9.43101 8.963L10.1698 11.312L12.5408 7.07572V4.66142ZM13 8.12938L10.5472 12.5119L12.1249 17.5285H13.8751L15.4528 12.5119L13 8.12938ZM16.0659 13.6072L14.8326 17.5285H18.2606L16.0659 13.6072ZM17.455 18.4534H14.5417L13.8155 20.7623L17.455 18.4534ZM13 20.3107L13.5842 18.4534H12.4158L13 20.3107ZM11.1674 17.5285L9.93413 13.6072L7.73945 17.5285H11.1674ZM8.04708 15.1047L9.55676 12.4073L9.00765 10.6614L8.04708 15.1047ZM8.545 18.4534H11.4583L12.1845 20.7623L8.545 18.4534ZM17.9529 15.1047L16.4432 12.4073L16.9923 10.6614L17.9529 15.1047ZM16.569 8.963L15.8302 11.312L13.4592 7.07573V4.66142L16.569 8.963Z" fill="white"/>
</svg>