<svg width="26" height="26" viewBox="0 0 26 26" fill="none" 
    xmlns="http://www.w3.org/2000/svg">
    <g clip-path="url(#clip0)">
        <path d="M5.19995 14.1603C7.94862 15.6618 10.8168 17.2336 13.032 18.4498L20.8 14.1603C17.9873 18.4586 15.6441 22.0368 13.032 25.997C10.4156 22.0456 7.52608 17.6858 5.19995 14.1603ZM5.49872 12.9748L13.0405 8.83463L20.4841 12.9441L13.0448 17.0887L5.49872 12.9748ZM13.032 7.5087L5.19995 11.7499L12.9978 0.00537109L20.8 11.7762L13.032 7.5087V7.5087Z" fill="#8B8BB8"/>
        <path d="M13.0319 18.4487L20.7999 14.1592C17.9872 18.4575 13.0319 25.9959 13.0319 25.9959V18.4487ZM13.0405 8.83353L20.4841 12.943L13.0448 17.0876L13.0405 8.83353V8.83353ZM13.0319 7.5076L12.9978 0.00427246L20.7999 11.7751L13.0319 7.5076Z" fill="#8B8BB8"/>
        <path d="M5.49878 12.9736L13.0406 13.6102L20.4842 12.9473L13.0448 17.0919L5.49878 12.9736Z" fill="#8B8BB8"/>
        <path d="M13.0405 13.6102L20.4841 12.9473L13.0448 17.0919L13.0405 13.6102V13.6102Z" fill="#8B8BB8"/>
    </g>
    <defs>
        <clipPath id="clip0">
            <rect x="5.19995" width="15.6" height="26" fill="white"/>
        </clipPath>
    </defs>
</svg>