<svg width="30" height="30" viewBox="0 0 30 30" fill="none"
  xmlns="http://www.w3.org/2000/svg">
  <g clip-path="url(#clip0)">
    <path d="M6 16.3365C9.17155 18.069 12.481 19.8826 15.0369 21.2859L24 16.3365C20.7546 21.296 18.0509 25.4248 15.0369 29.9943C12.0181 25.4349 8.68399 20.4044 6 16.3365ZM6.34473 14.9687L15.0468 10.1915L23.6356 14.9332L15.0517 19.7155L6.34473 14.9687ZM15.0369 8.66159L6 13.5553L14.9975 0.00390625L24 13.5857L15.0369 8.66159V8.66159Z" fill="#8B8BB8" class="icon-token-orange"/>
    <path d="M15.0355 21.2859L23.9986 16.3365C20.7531 21.296 15.0355 29.9943 15.0355 29.9943V21.2859ZM15.0453 10.1915L23.6341 14.9332L15.0503 19.7155L15.0453 10.1915V10.1915ZM15.0355 8.66159L14.9961 0.00390625L23.9986 13.5857L15.0355 8.66159Z" fill="#8B8BB8" class="icon-token-orange"/>
    <path d="M6.34375 14.9679L15.0458 15.7025L23.6346 14.9375L15.0507 19.7197L6.34375 14.9679Z" fill="#8B8BB8" class="icon-token-orange" />
    <path d="M15.0469 15.7025L23.6357 14.9375L15.0518 19.7197L15.0469 15.7025V15.7025Z" fill="#8B8BB8" class="icon-token-orange" />
  </g>
  <defs>
    <clipPath id="clip0">
      <rect width="18" height="30" fill="white" transform="translate(6)"/>
    </clipPath>
  </defs>
</svg>