<svg width="24" height="23" viewBox="0 0 24 23" fill="none"
  xmlns="http://www.w3.org/2000/svg">
  <path d="M12.0002 0.800781C14.0343 0.800781 15.9101 1.29659 17.6277 2.28865C19.3452 3.28071 20.7054 4.62712 21.7076 6.32696C22.7099 8.0268 23.2113 9.88347 23.2113 11.8965C23.2113 14.3141 22.4982 16.4885 21.0726 18.4193C19.6466 20.3505 17.8053 21.687 15.5478 22.4282C15.2846 22.4766 15.0904 22.4431 14.9635 22.3274C14.9024 22.2735 14.8537 22.2068 14.821 22.1319C14.7882 22.057 14.7721 21.9758 14.7738 21.894L14.781 20.7889C14.7859 20.0807 14.7881 19.433 14.7881 18.8455C14.7881 17.9113 14.5352 17.2275 14.0294 16.794C14.5841 16.7362 15.0828 16.6494 15.5254 16.5341C15.9684 16.4184 16.4259 16.2304 16.8976 15.9705C17.3698 15.7107 17.764 15.3902 18.0802 15.0097C18.3963 14.6296 18.6542 14.1238 18.8537 13.4929C19.0533 12.8619 19.1533 12.137 19.1533 11.3189C19.1533 10.1723 18.7685 9.18022 17.9999 8.34227C18.36 7.46546 18.321 6.48334 17.8833 5.39546C17.6106 5.30823 17.2165 5.36156 16.7008 5.55365C16.185 5.74664 15.737 5.95861 15.3577 6.18956L14.8029 6.53622C13.8896 6.28486 12.9469 6.15868 12.0002 6.16109C11.0534 6.15868 10.1107 6.28486 9.19739 6.53622C8.99433 6.40036 8.78751 6.2703 8.57719 6.14617C8.31889 5.9925 7.9126 5.8072 7.35787 5.59026C6.80315 5.37331 6.38968 5.30823 6.11748 5.39501C5.67935 6.48334 5.64033 7.46591 6.00088 8.34227C5.2318 9.18022 4.84703 10.1727 4.84703 11.3185C4.84703 12.137 4.94704 12.8597 5.14659 13.4856C5.34615 14.1116 5.60132 14.6174 5.91298 15.0024C6.2242 15.388 6.61614 15.7107 7.08791 15.9705C7.56012 16.2304 8.01753 16.4184 8.46015 16.5341C8.90321 16.6494 9.40188 16.7362 9.95661 16.794C9.57677 17.1407 9.33865 17.6369 9.24134 18.2823C9.03158 18.3804 8.81106 18.453 8.58437 18.4988C8.35073 18.5472 8.07314 18.5711 7.75205 18.5711C7.43097 18.5711 7.11212 18.4672 6.79597 18.2606C6.47982 18.0532 6.20985 17.7522 5.98608 17.3576C5.80835 17.0572 5.56628 16.8005 5.27754 16.6065C4.99054 16.4135 4.74972 16.2982 4.55554 16.2593L4.26316 16.216C4.05912 16.216 3.91786 16.2377 3.83983 16.281C3.76225 16.3244 3.73803 16.38 3.76718 16.4474C3.79633 16.5152 3.83983 16.582 3.89857 16.6494C3.95687 16.7172 4.01965 16.7746 4.08827 16.8229L4.19051 16.8953C4.40442 16.9915 4.61653 17.1746 4.82551 17.4444C5.03448 17.7138 5.18785 17.9596 5.28516 18.1811L5.43136 18.5133C5.55782 18.8794 5.77217 19.1754 6.07353 19.4019C6.37533 19.6278 6.70135 19.7725 7.05114 19.8353C7.40182 19.8977 7.73995 19.9316 8.06596 19.9365C8.39198 19.9411 8.6624 19.9243 8.8763 19.8859L9.21219 19.8281C9.21219 20.1942 9.21443 20.6204 9.21936 21.1067L9.22654 21.894C9.22654 22.0675 9.16331 22.2117 9.03685 22.3274C8.91039 22.4431 8.71576 22.4766 8.45297 22.4287C6.19506 21.687 4.3533 20.3505 2.92769 18.4197C1.50164 16.4876 0.789062 14.3136 0.789062 11.8965C0.789062 9.88347 1.29042 8.0268 2.2927 6.32696C3.29497 4.62712 4.6551 3.28071 6.37264 2.28865C8.09018 1.29659 9.96602 0.800781 12.0002 0.800781ZM5.03717 16.7362C5.06632 16.6688 5.03224 16.611 4.93493 16.5631C4.83762 16.5341 4.77438 16.5436 4.74524 16.592C4.71609 16.6593 4.74972 16.7172 4.84703 16.7651C4.93493 16.8229 4.99816 16.8135 5.03717 16.7362ZM5.48965 17.2275C5.55782 17.1795 5.54795 17.1023 5.4605 16.9965C5.36319 16.9097 5.28516 16.8953 5.22687 16.9531C5.1587 17.001 5.16857 17.0783 5.25601 17.1841C5.35333 17.2803 5.43091 17.2948 5.48921 17.2275H5.48965ZM5.92734 17.8778C6.01523 17.81 6.01523 17.7187 5.92734 17.603C5.84975 17.4778 5.76679 17.4494 5.67935 17.5163C5.5919 17.5646 5.5919 17.6514 5.67935 17.7766C5.76679 17.9018 5.84975 17.9352 5.92734 17.8778ZM6.54081 18.4844C6.61839 18.4075 6.5991 18.3158 6.48251 18.21C6.36546 18.0943 6.26815 18.0799 6.19012 18.1666C6.10268 18.2435 6.12196 18.3352 6.24842 18.441C6.36502 18.5567 6.46278 18.5711 6.54081 18.4844ZM7.37267 18.8459C7.40182 18.7397 7.33859 18.6624 7.18298 18.6145C7.03679 18.5761 6.94441 18.61 6.90539 18.7158C6.86683 18.8215 6.93006 18.8939 7.09553 18.9323C7.24128 18.9901 7.33366 18.9612 7.37267 18.8455V18.8459ZM8.29198 18.9183C8.29198 18.7926 8.20947 18.7397 8.04399 18.7587C7.88838 18.7587 7.8108 18.812 7.8108 18.9178C7.8108 19.043 7.89331 19.0959 8.05879 19.0769C8.2144 19.0769 8.29198 19.0236 8.29198 18.9178V18.9183ZM9.13909 18.7736C9.11936 18.6674 9.03191 18.6245 8.8763 18.6435C8.72069 18.6724 8.65208 18.7442 8.67181 18.8604C8.69154 18.9757 8.77899 19.0141 8.9346 18.9757C9.09021 18.9372 9.15882 18.8699 9.13909 18.7732V18.7736Z" fill="white"/>
</svg>