<svg width="26" height="26" viewBox="0 0 26 26" fill="none" 
    xmlns="http://www.w3.org/2000/svg">
    <rect width="26" height="26" fill="#8B8BB8"/>
    <path d="M7.77217 18.7746L7.7747 18.7754L6.85709 20.3854C6.52216 20.9731 5.78028 21.1745 5.20013 20.8352C4.62001 20.4959 4.42123 19.7444 4.75616 19.1567L5.43214 17.9706L5.497 17.8568C5.61286 17.6881 5.89877 17.397 6.47065 17.4517C6.47065 17.4517 7.81642 17.5996 7.9138 18.3082C7.91382 18.3082 7.9271 18.5414 7.77217 18.7746V18.7746ZM20.787 14.6623H17.9256C17.7307 14.6491 17.6456 14.5786 17.6122 14.5377L17.6101 14.5339L14.547 9.15944L14.543 9.16213L14.3593 8.89529C14.0583 8.42892 13.5802 9.62178 13.5802 9.62178C13.0094 10.9509 13.6612 12.4622 13.8885 12.9189L18.1429 20.3838C18.4778 20.9715 19.2197 21.1728 19.7998 20.8335C20.38 20.4942 20.5787 19.7427 20.2438 19.155L19.1799 17.2884C19.1593 17.2432 19.1235 17.1203 19.3416 17.1198H20.787C21.4569 17.1198 22 16.5697 22 15.8911C22 15.2125 21.4569 14.6623 20.787 14.6623ZM15.2292 16.3328C15.2292 16.3328 15.3819 17.1198 14.7909 17.1198H14.1999V17.1198H4.21296C3.54307 17.1198 3 16.5697 3 15.8911C3 15.2125 3.54307 14.6623 4.21296 14.6623H6.93244C7.3715 14.6366 7.47559 14.3798 7.47559 14.3798L7.47798 14.3811L11.0278 8.1525L11.0268 8.15229C11.0915 8.03196 11.0376 7.91828 11.0282 7.90028L9.85589 5.84333C9.52093 5.25564 9.71971 4.50413 10.2999 4.16483C10.88 3.82551 11.6218 4.02688 11.9568 4.61458L12.5005 5.56859L13.0432 4.61628C13.3782 4.02858 14.12 3.82721 14.7002 4.16653C15.2803 4.50585 15.4791 5.25736 15.1441 5.84503L10.2044 14.5122C10.1829 14.5649 10.1762 14.6478 10.3369 14.6623H13.2896L13.2902 14.6915C13.2902 14.6915 14.9968 14.7184 15.2292 16.3328Z" fill="white"/>
</svg>