<svg width="26" height="26" viewBox="0 0 26 26" fill="none" xmlns="http://www.w3.org/2000/svg">
<path d="M16.5 8C15.9527 8.3588 14.26 9.7972 14 10C13.4826 10.403 12.507 10.3939 12 10C11.74 9.7985 10.0473 8.3588 9.5 8C8.87989 7.5944 8.80839 7.2912 9.5 7C11.78 6.04001 14.0902 6 16.5 7C17.1422 7.2665 17.0889 7.6126 16.5 8ZM25.7921 17.7216C24.5876 14.992 22.903 12.5007 20.8183 10.3662C20.1124 9.64341 19.6872 8.83741 19.4207 7.92221C19.2959 7.48801 19.2049 7.04471 19.1113 6.60271C18.8682 5.46 18.7265 4.2926 18.2195 3.2136C17.2549 1.1635 15.587 0.0936001 13.2144 0C10.8484 0.065 9.10377 1.0582 8.07286 3.1161C7.79335 3.6725 7.60225 4.2601 7.47095 4.8633C7.25254 5.8656 7.05494 6.87311 6.82354 7.87281C6.63794 8.72541 6.20255 9.5034 5.57292 10.1075C3.50976 12.1209 1.80602 14.4723 0.535333 17.0599C0.35333 17.4291 0.166127 17.8061 0.0543254 18.1987C-0.192679 19.0619 0.431331 19.656 1.34395 19.4545C1.91076 19.3284 2.48406 19.2153 3.03397 19.0385C3.55658 18.8721 3.76849 18.9735 3.92709 19.5117C4.7461 22.2937 6.58953 24.2619 9.40668 25.337C14.7654 27.3832 21.0159 24.4946 22.3679 19.396C22.4615 19.0463 22.5889 18.9189 22.988 19.0398C23.5821 19.2205 24.1944 19.3544 24.8041 19.4818C25.4437 19.6144 25.9026 19.2868 25.9884 18.6732C26.0365 18.3352 25.9273 18.0271 25.7921 17.7216Z" fill="#8B8BB8"/>
</svg>
