<svg width="26" height="26" viewBox="0 0 26 26" fill="none" 
    xmlns="http://www.w3.org/2000/svg">
    <path d="M20.3937 13.7396C20.382 11.6093 21.3523 10.0014 23.3162 8.81723C22.2173 7.25578 20.5574 6.3967 18.3656 6.22836C16.2906 6.06584 14.0228 7.42992 13.1929 7.42992C12.3162 7.42992 10.3055 6.28641 8.72742 6.28641C5.46599 6.33865 2 8.86947 2 14.0182C2 15.539 2.28055 17.1101 2.84166 18.7315C3.5898 20.8618 6.29012 26.086 9.10733 25.9989C10.5802 25.9641 11.6206 24.9599 13.5377 24.9599C15.3964 24.9599 16.3608 25.9989 18.0032 25.9989C20.8438 25.9583 23.2869 21.2101 24 19.074C20.1892 17.292 20.3937 13.8498 20.3937 13.7396V13.7396ZM17.0855 4.20835C18.6812 2.32766 18.5351 0.61529 18.4883 0C17.0797 0.0812648 15.449 0.951959 14.5197 2.02581C13.4968 3.17513 12.8948 4.59726 13.0234 6.19934C14.5489 6.31543 15.94 5.53761 17.0855 4.20835V4.20835Z" fill="#8B8BB8"/>
</svg>