<svg width="26" height="26" viewBox="0 0 26 26" fill="none" 
    xmlns="http://www.w3.org/2000/svg">
    <path d="M9.41379 10.8593C12.1371 10.8593 14.3448 8.65219 14.3448 5.92963C14.3448 3.20707 12.1371 1 9.41379 1C6.69046 1 4.48276 3.20707 4.48276 5.92963C4.48276 8.65219 6.69046 10.8593 9.41379 10.8593Z" fill="#8B8BB8"/>
    <path fill-rule="evenodd" clip-rule="evenodd" d="M17.931 12.6519H16.1379V19.8222H26V12.6519H24.2069V11.3074C24.2069 9.57487 22.802 8.17037 21.069 8.17037C19.3359 8.17037 17.931 9.57487 17.931 11.3074V12.6519ZM19.7241 12.6519H22.4138V11.3074C22.4138 10.5649 21.8117 9.96296 21.069 9.96296C20.3262 9.96296 19.7241 10.5649 19.7241 11.3074V12.6519Z" fill="#8B8BB8"/>
    <path d="M14.3448 14.0447C12.9108 13.1614 11.2218 12.6519 9.41379 12.6519C4.2147 12.6519 0 16.8654 0 22.063V25.2H18.8276V22.063C18.8276 21.9127 18.8241 21.7633 18.8171 21.6148H14.3448V14.0447Z" fill="#8B8BB8"/>
</svg>