<svg width="30" height="30" viewBox="0 0 30 30" fill="none" xmlns="http://www.w3.org/2000/svg">
<path d="M9.85762 2.89699C9.16584 2.49006 8.30784 2.49006 7.61606 2.89699L2.08974 6.14777C1.41456 6.54493 1 7.26977 1 8.0531V14.5786C1 15.362 1.41457 16.0868 2.08975 16.484L7.61606 19.7348C8.30784 20.1417 9.16584 20.1417 9.85762 19.7348L21.2632 13.0256L26.0526 15.843V21.5256L21.2632 24.343L16.4737 21.5256V17.9475L13.5263 19.7896V21.9471C13.5263 22.7304 13.9409 23.4552 14.6161 23.8524L20.1424 27.1032C20.8342 27.5101 21.6922 27.5101 22.3839 27.1032L27.9103 23.8524C28.5854 23.4552 29 22.7304 29 21.9471V15.4215C29 14.6382 28.5854 13.9134 27.9103 13.5162L22.3839 10.2654C21.6922 9.85849 20.8342 9.85848 20.1424 10.2654L8.73684 16.9746L3.94737 14.1572V8.47453L8.73684 5.65719L13.5263 8.47453V12.0527L16.4737 10.2106V8.0531C16.4737 7.26977 16.0591 6.54493 15.3839 6.14777L9.85762 2.89699Z" fill="#8B8BB8" class="icon-token-orange"/>
</svg>
