<svg width="26" height="27" viewBox="0 0 26 27" fill="none" 
    xmlns="http://www.w3.org/2000/svg">
    <path fill-rule="evenodd" clip-rule="evenodd" d="M14.9332 17.3594L14.9632 17.3594C15.1591 17.3588 15.3515 17.3102 15.5211 17.2185C15.6896 17.1289 15.8518 16.9968 16.0171 16.8143C16.0426 16.786 16.0735 16.7522 16.1094 16.7132C17.6663 18.2335 17.9628 19.8129 18.0003 20.627C18.0163 20.9786 18.2385 20.8403 18.3549 20.6703C20.6612 17.3018 20.1816 14.8496 19.2508 13.3112C20.1936 12.2737 21.2533 11.0882 22.308 9.86594C24.246 7.62133 24.1127 4.45618 23.8607 2.76923C23.7689 2.15422 23.6308 1.53817 23.4718 1.03456C23.2343 0.283114 23.0844 0.169698 23.0096 0.120059L23.0028 0.115473C22.9299 0.0673095 22.7785 -0.0327567 21.9258 0.0124503C21.3694 0.0419999 20.7072 0.127356 20.0612 0.253095C18.427 0.571158 17.2272 1.0679 16.509 1.42864C15.1503 2.1117 14.1198 2.98468 13.4462 4.02467C12.5681 5.38032 11.7292 6.72789 11.002 7.91817C9.11843 7.66471 6.50652 8.13713 3.90182 11.2578C3.76733 11.4195 3.70112 11.663 4.06673 11.5565C4.90312 11.3132 6.58951 11.0367 8.64093 11.8526C8.62499 11.879 8.61059 11.9026 8.59774 11.9235C8.43101 12.1958 8.23031 12.6098 8.4171 13.061C8.52948 13.3327 8.762 13.5766 9.18651 13.8668C9.03686 13.9959 8.89962 14.1421 8.77804 14.3046C8.76398 14.3234 8.7515 14.3427 8.73901 14.3619C8.73153 14.3735 8.72403 14.385 8.71621 14.3965C7.1208 16.5981 6.85366 19.035 8.13612 19.8827C9.41873 20.7311 11.769 19.6709 13.4342 17.5158C13.4427 17.5055 13.4514 17.4955 13.4601 17.4855C13.4755 17.4676 13.4909 17.4498 13.505 17.4307C13.6279 17.2666 13.7286 17.094 13.8077 16.9162C14.2711 17.2187 14.609 17.3514 14.9332 17.3594ZM19.9368 7.80688C19.1254 8.8856 17.5296 9.14494 16.3741 8.38569C15.2191 7.62631 14.9416 6.13717 15.7536 5.05804C16.5655 3.97892 18.1607 3.72012 19.3162 4.47937C20.4717 5.23861 20.7481 6.72816 19.9368 7.80688Z" fill="#8B8BB8"/>
    <path d="M2.01538 25.818L6.06404 20.4938L6.35823 20.6887L2.30957 26.0129L2.01538 25.818Z" fill="#8B8BB8"/>
    <path d="M4.338 25.1383L6.7064 22.009L7.00235 22.2041L4.63396 25.3334L4.338 25.1383Z" fill="#8B8BB8"/>
</svg>