<svg width="20" height="18" viewBox="0 0 20 18" fill="none"
  xmlns="http://www.w3.org/2000/svg">
  <path d="M0.533957 8.49003L4.88763 10.2184L6.57617 15.9796C6.68328 16.348 7.11171 16.482 7.38894 16.2409L9.81464 14.1373C10.0667 13.9163 10.4321 13.9029 10.6967 14.1105L15.0756 17.4936C15.378 17.728 15.8064 17.5539 15.8821 17.1653L19.089 0.759301C19.1709 0.33726 18.7803 -0.0177911 18.4023 0.136287L0.527657 7.47177C0.0866195 7.65264 0.09292 8.31585 0.533957 8.49003ZM6.30525 9.30062L14.8173 3.72699C14.9685 3.6265 15.126 3.84757 14.9937 3.97485L7.96859 10.9218C7.72287 11.163 7.56535 11.4912 7.51495 11.8463L7.27553 13.7287C7.24402 13.9833 6.9101 14.0034 6.84709 13.7622L5.92721 10.3256C5.82641 9.93703 5.97762 9.51499 6.30525 9.30062Z" fill="white"/>
</svg>