<svg width="26" height="26" viewBox="0 0 26 26" fill="none" 
    xmlns="http://www.w3.org/2000/svg">
    <path d="M13 26C20.1797 26 26 20.1797 26 13C26 5.8203 20.1797 0 13 0C5.8203 0 0 5.8203 0 13C0 20.1797 5.8203 26 13 26Z" fill="#8B8BB8"/>
    <path d="M21.5421 9.15115C20.8047 8.63542 20.0162 8.08558 19.2447 7.54001C19.2277 7.52722 19.2106 7.51443 19.1893 7.50165C19.1041 7.43771 19.0061 7.36952 18.8867 7.33115L18.8782 7.32689C16.8152 6.8282 14.7182 6.31673 12.6893 5.8223C10.848 5.37476 9.01097 4.92722 7.16966 4.47968C7.12278 4.46689 7.07589 4.4541 7.02474 4.44132C6.85851 4.39443 6.66671 4.34329 6.46212 4.36886C6.40245 4.37738 6.3513 4.3987 6.30442 4.42853L6.25327 4.47115C6.17229 4.54788 6.12966 4.64591 6.10835 4.70132L6.09556 4.73542V4.93148L6.10409 4.96132C7.26769 8.22197 8.46114 11.5295 9.61196 14.7305C10.4985 17.1941 11.4192 19.7472 12.3185 22.2535C12.3739 22.4239 12.5316 22.5348 12.7277 22.5518H12.7703C12.9536 22.5518 13.1156 22.4623 13.1965 22.3174L16.5723 17.3944C17.3949 16.1967 18.2175 14.9948 19.0402 13.7971C19.3769 13.3069 19.7136 12.8125 20.0503 12.3223C20.6044 11.5125 21.1756 10.6771 21.7424 9.86296L21.7723 9.82033V9.76919C21.7851 9.62001 21.7893 9.31312 21.5421 9.15115V9.15115ZM17.5867 10.9456C16.7939 11.359 15.9841 11.7853 15.17 12.2072C15.6431 11.7 16.1205 11.1885 16.5936 10.6813C17.1861 10.042 17.8041 9.38132 18.4093 8.73345L18.4221 8.72066C18.4733 8.65247 18.5372 8.58853 18.6054 8.52033C18.6523 8.47345 18.7034 8.42656 18.7503 8.37115C19.0657 8.58853 19.3854 8.81017 19.6923 9.02755C19.9139 9.18525 20.1398 9.34296 20.37 9.50066C19.4323 9.97804 18.4946 10.4682 17.5867 10.9456ZM15.5493 10.741C14.9398 11.4016 14.309 12.0794 13.6824 12.7485C12.4677 11.2738 11.2274 9.77771 10.0254 8.33279C9.47983 7.6764 8.92999 7.01574 8.38442 6.35935L8.38015 6.35509C8.25655 6.21443 8.1372 6.06099 8.01786 5.91607C7.94114 5.81804 7.86015 5.72427 7.77917 5.62624C8.2736 5.7541 8.77229 5.87345 9.26245 5.98853C9.69294 6.09083 10.1405 6.19738 10.5795 6.3082C13.0516 6.90919 15.528 7.51017 18.0002 8.11115C17.1775 8.98919 16.3506 9.88001 15.5493 10.741ZM13.4054 19.0482C13.4523 18.6007 13.5034 18.1403 13.5461 17.6885C13.5844 17.3262 13.6228 16.9554 13.6611 16.6016C13.7208 16.0348 13.7847 15.4466 13.8359 14.8712L13.8487 14.7689C13.8913 14.4023 13.9339 14.023 13.9595 13.6436C14.0064 13.618 14.0575 13.5925 14.1129 13.5712C14.1769 13.5413 14.2408 13.5157 14.3047 13.4774C15.2893 12.9616 16.2739 12.4459 17.2628 11.9344C18.2474 11.423 19.2575 10.8944 20.2592 10.3702C19.347 11.6915 18.4306 13.0256 17.5441 14.3256C16.7811 15.438 15.9969 16.5846 15.2169 17.7141C14.91 18.1659 14.5903 18.6262 14.2877 19.0695C13.9467 19.5639 13.5972 20.0712 13.2562 20.5784C13.2988 20.0669 13.35 19.5512 13.4054 19.0482V19.0482ZM7.46376 6.63214C7.40835 6.4787 7.34868 6.32099 7.29753 6.17181C8.44835 7.56132 9.60769 8.95935 10.7372 10.3148C11.3211 11.018 11.9051 11.7171 12.489 12.4246C12.6041 12.5567 12.7192 12.6974 12.83 12.8338C12.9749 13.0085 13.1198 13.1918 13.2775 13.3666C13.2264 13.8056 13.1838 14.2489 13.1369 14.6751C13.107 14.9735 13.0772 15.2718 13.0431 15.5744V15.5787C13.0303 15.7705 13.0047 15.9623 12.9834 16.1498C12.9536 16.4098 12.8854 16.998 12.8854 16.998L12.8811 17.0279C12.8044 17.8889 12.7106 18.7584 12.6211 19.6023C12.5828 19.9518 12.5487 20.3098 12.5103 20.6679C12.489 20.6039 12.4634 20.54 12.4421 20.4803C12.3782 20.3098 12.3143 20.1308 12.2546 19.9561L11.7985 18.6902C10.3536 14.6708 8.90868 10.6557 7.46376 6.63214Z" fill="white"/>
</svg>