<svg width="40" height="40" viewBox="0 0 40 40" fill="none" xmlns="http://www.w3.org/2000/svg">
<path fill-rule="evenodd" clip-rule="evenodd" d="M36 10.0778C34.8963 10.5998 33.71 10.9527 32.465 11.1114C33.7356 10.299 34.7117 9.01273 35.1712 7.47992C33.9818 8.23221 32.6647 8.77838 31.2627 9.0727C30.14 7.79705 28.5403 7 26.7701 7C23.3711 7 20.6153 9.93878 20.6153 13.5636C20.6153 14.078 20.6697 14.5789 20.7746 15.0595C15.6594 14.7857 11.1242 12.1726 8.08854 8.20131C7.55863 9.17081 7.25514 10.2983 7.25514 11.5013C7.25514 13.7785 8.34179 15.7875 9.99332 16.9646C8.98429 16.9304 8.03536 16.6351 7.20546 16.1436C7.2049 16.171 7.2049 16.1984 7.2049 16.2262C7.2049 19.4063 9.32659 22.0589 12.1422 22.6623C11.6257 22.8122 11.082 22.8924 10.5206 22.8924C10.124 22.8924 9.73849 22.8513 9.36258 22.7748C10.1459 25.3823 12.4188 27.28 15.1122 27.3328C13.0057 29.0933 10.3519 30.1428 7.4681 30.1428C6.97134 30.1428 6.48148 30.1115 6 30.051C8.72381 31.9133 11.959 33 15.4348 33C26.7559 33 32.9467 22.9984 32.9467 14.3247C32.9467 14.0401 32.9407 13.757 32.9288 13.4755C34.1314 12.5501 35.1749 11.394 36 10.0778Z" fill="#FFFFFF"/>
</svg>
