<svg width="22" height="19" viewBox="0 0 22 19" fill="none"
  xmlns="http://www.w3.org/2000/svg">
  <path fill-rule="evenodd" clip-rule="evenodd" d="M21.7 2.55485C20.9274 2.92027 20.097 3.16727 19.2255 3.27835C20.1149 2.70969 20.7982 1.8093 21.1199 0.736336C20.2873 1.26293 19.3653 1.64525 18.3839 1.85128C17.598 0.958328 16.4782 0.400391 15.2391 0.400391C12.8598 0.400391 10.9307 2.45754 10.9307 4.99491C10.9307 5.35501 10.9688 5.70565 11.0422 6.04202C7.46162 5.85036 4.28696 4.0212 2.16199 1.24131C1.79105 1.91996 1.57861 2.70918 1.57861 3.55128C1.57861 5.14535 2.33926 6.55164 3.49533 7.37558C2.78902 7.35168 2.12476 7.14497 1.54384 6.80092C1.54344 6.82009 1.54344 6.83927 1.54344 6.8587C1.54344 9.08479 3.02863 10.9417 4.99953 11.364C4.63802 11.4689 4.25741 11.5251 3.86445 11.5251C3.58682 11.5251 3.31695 11.4963 3.05382 11.4427C3.60211 13.268 5.1932 14.5964 7.07856 14.6333C5.60398 15.8657 3.74635 16.6003 1.72768 16.6003C1.37995 16.6003 1.03705 16.5785 0.700012 16.5361C2.60668 17.8397 4.87129 18.6004 7.30438 18.6004C15.2291 18.6004 19.5627 11.5993 19.5627 5.52767C19.5627 5.32849 19.5585 5.13032 19.5502 4.93324C20.392 4.28543 21.1224 3.47619 21.7 2.55485Z" fill="white"/>
</svg>