<svg width="26" height="26" viewBox="0 0 26 26" fill="none" 
    xmlns="http://www.w3.org/2000/svg">
    <path fill-rule="evenodd" clip-rule="evenodd" d="M13.1391 0.00180531L13.1397 0.00178088L13.1403 0.00176216L13.1446 0.00161467L13.1523 0.00137791C13.164 0.00104385 13.1831 0.000598491 13.2092 0.000305705C13.2614 -0.000279969 13.3416 -0.00025432 13.4469 0.0024886C13.6578 0.00797673 13.9688 0.0243282 14.3573 0.0682782C15.1353 0.156275 16.2186 0.354295 17.4291 0.793872C19.6378 1.59601 22.2751 3.20291 24.2669 6.44122H13.7733C13.5398 6.41648 13.3026 6.4038 13.0626 6.4038C12.8194 6.4038 12.5792 6.41681 12.3428 6.44218C12.3262 6.44271 12.3079 6.44345 12.288 6.44448C12.1981 6.44911 12.0742 6.45955 11.9217 6.48231C11.6169 6.52784 11.1975 6.62281 10.7102 6.81967C10.6005 6.864 10.4876 6.91337 10.3721 6.96834C8.30209 7.88094 6.77943 9.81429 6.43679 12.1333C5.91764 11.2316 5.33731 10.2212 4.78198 9.25329C4.15635 8.16287 3.56324 7.12772 3.12652 6.36518L2.60425 5.453L2.60027 5.44605C2.69182 5.3093 2.81781 5.13085 2.98001 4.92225C3.37892 4.40919 3.9947 3.71636 4.85311 3.01267C6.56489 1.6094 9.24914 0.1554 13.1361 0.00193L13.1379 0.00186038L13.1386 0.00182964L13.1391 0.00180531ZM4.79417 11.946L6.45871 14.8488C7.26223 17.6888 9.85942 19.7674 12.9384 19.7709C13.8836 19.7709 14.7835 19.5748 15.6 19.2207C15.0724 20.1417 14.4778 21.1772 13.9083 22.168C13.2771 23.2663 12.6774 24.3082 12.2356 25.0756L11.707 25.9934L11.7032 26C11.5384 25.9886 11.3202 25.968 11.0577 25.9308C10.4117 25.8394 9.5007 25.6484 8.45825 25.2503C6.37943 24.4562 3.7678 22.8355 1.68038 19.5062L1.67946 19.5048L1.67914 19.5043L1.67904 19.5041L1.67854 19.5033L1.6782 19.5028L1.67184 19.4925C1.66566 19.4823 1.65568 19.4658 1.6423 19.4431C1.61553 19.3976 1.57522 19.3272 1.5246 19.2334C1.42332 19.0457 1.28109 18.7647 1.12382 18.4018C0.808927 17.6751 0.43594 16.6251 0.208776 15.342C-0.20574 13.0006 -0.137133 9.87812 1.67234 6.5C2.43399 7.82942 3.65553 9.96015 4.79417 11.946ZM18.0254 17.4485L16.1481 20.6432C15.0002 22.5967 13.7685 24.6926 13 26C16.8386 25.8899 19.5793 24.413 21.3998 22.9059C22.3975 22.08 23.1198 21.2437 23.591 20.6163C23.8264 20.3029 23.9984 20.0427 24.1101 19.8635C24.1659 19.774 24.2066 19.7048 24.2325 19.6595C24.2455 19.6368 24.2548 19.6201 24.2604 19.6099L24.2662 19.5993L24.2665 19.5988L24.2669 19.598L24.267 19.5978L24.2672 19.5973L24.268 19.5959C26.1017 16.1672 26.1912 13.1305 25.8326 10.9577C25.6528 9.86806 25.3596 8.99314 25.1137 8.39449C25.0137 8.15133 24.9218 7.95427 24.8488 7.8075L24.8412 7.80749L23.7793 7.80563C22.8916 7.80417 21.6863 7.80242 20.4162 7.80126C19.2622 7.8002 18.056 7.79963 16.986 7.80018C17.0643 7.8592 17.14 7.9193 17.2131 7.98042C17.8899 8.54591 18.3257 9.17745 18.7048 9.72677L18.7688 9.81945L18.7909 9.86631C19.6175 11.6188 19.6922 13.0781 19.541 14.1206C19.4748 14.5775 19.3659 14.9495 19.2623 15.2268C18.9957 16.0478 18.5718 16.7998 18.0254 17.4485ZM12.7832 8.23336C10.0291 8.23336 7.79991 10.4663 7.79991 13.2167C7.79991 15.9671 10.0328 18.2 12.7832 18.2C15.5374 18.2 17.7666 15.9671 17.7666 13.2167C17.7666 10.4626 15.5337 8.23336 12.7832 8.23336Z" fill="#8B8BB8"/>
</svg>