<svg width="30" height="30" viewBox="0 0 30 30" fill="none"
  xmlns="http://www.w3.org/2000/svg">
  <path fill-rule="evenodd" clip-rule="evenodd" d="M15.1391 2.00181L15.1397 2.00178L15.1403 2.00176L15.1446 2.00161L15.1523 2.00138C15.164 2.00104 15.1831 2.0006 15.2092 2.00031C15.2614 1.99972 15.3416 1.99975 15.4469 2.00249C15.6578 2.00798 15.9688 2.02433 16.3573 2.06828C17.1353 2.15627 18.2186 2.3543 19.4291 2.79387C21.6378 3.59601 24.2751 5.20291 26.2669 8.44122H15.7733C15.5398 8.41648 15.3026 8.4038 15.0626 8.4038C14.8194 8.4038 14.5792 8.41681 14.3428 8.44218C14.3262 8.44271 14.3079 8.44345 14.288 8.44448C14.1981 8.44911 14.0742 8.45955 13.9217 8.48231C13.6169 8.52784 13.1975 8.62281 12.7102 8.81967C12.6005 8.864 12.4876 8.91337 12.3721 8.96834C10.3021 9.88094 8.77943 11.8143 8.43679 14.1333C7.91764 13.2316 7.33731 12.2212 6.78198 11.2533C6.15635 10.1629 5.56324 9.12772 5.12652 8.36518L4.60425 7.453L4.60027 7.44605C4.69182 7.3093 4.81781 7.13085 4.98001 6.92225C5.37892 6.40919 5.9947 5.71636 6.85311 5.01267C8.56489 3.6094 11.2491 2.1554 15.1361 2.00193L15.1379 2.00186L15.1386 2.00183L15.1391 2.00181ZM6.79417 13.946L8.45871 16.8488C9.26223 19.6888 11.8594 21.7674 14.9384 21.7709C15.8836 21.7709 16.7835 21.5748 17.6 21.2207C17.0724 22.1417 16.4778 23.1772 15.9083 24.168C15.2771 25.2663 14.6774 26.3082 14.2356 27.0756L13.707 27.9934L13.7032 28C13.5384 27.9886 13.3202 27.968 13.0577 27.9308C12.4117 27.8394 11.5007 27.6484 10.4583 27.2503C8.37943 26.4562 5.7678 24.8355 3.68038 21.5062L3.67946 21.5048L3.67914 21.5043L3.67904 21.5041L3.67854 21.5033L3.6782 21.5028L3.67184 21.4925C3.66566 21.4823 3.65568 21.4658 3.6423 21.4431C3.61553 21.3976 3.57522 21.3272 3.5246 21.2334C3.42332 21.0457 3.28109 20.7647 3.12382 20.4018C2.80893 19.6751 2.43594 18.6251 2.20878 17.342C1.79426 15.0006 1.86287 11.8781 3.67234 8.5C4.43399 9.82942 5.65553 11.9601 6.79417 13.946ZM20.0254 19.4485L18.1481 22.6432C17.0002 24.5967 15.7685 26.6926 15 28C18.8386 27.8899 21.5793 26.413 23.3998 24.9059C24.3975 24.08 25.1198 23.2437 25.591 22.6163C25.8264 22.3029 25.9984 22.0427 26.1101 21.8635C26.1659 21.774 26.2066 21.7048 26.2325 21.6595C26.2455 21.6368 26.2548 21.6201 26.2604 21.6099L26.2662 21.5993L26.2665 21.5988L26.2669 21.598L26.267 21.5978L26.2672 21.5973L26.268 21.5959C28.1017 18.1672 28.1912 15.1305 27.8326 12.9577C27.6528 11.8681 27.3596 10.9931 27.1137 10.3945C27.0137 10.1513 26.9218 9.95427 26.8488 9.8075L26.8412 9.80749L25.7793 9.80563C24.8916 9.80417 23.6863 9.80242 22.4162 9.80126C21.2622 9.8002 20.056 9.79963 18.986 9.80018C19.0643 9.8592 19.14 9.9193 19.2131 9.98042C19.8899 10.5459 20.3257 11.1774 20.7048 11.7268L20.7688 11.8195L20.7909 11.8663C21.6175 13.6188 21.6922 15.0781 21.541 16.1206C21.4748 16.5775 21.3659 16.9495 21.2623 17.2268C20.9957 18.0478 20.5718 18.7998 20.0254 19.4485ZM14.7832 10.2334C12.0291 10.2334 9.79991 12.4663 9.79991 15.2167C9.79991 17.9671 12.0328 20.2 14.7832 20.2C17.5374 20.2 19.7666 17.9671 19.7666 15.2167C19.7666 12.4626 17.5337 10.2334 14.7832 10.2334Z" fill="#8B8BB8" class="icon-token-purple" />
</svg>