<svg width="40" height="40" viewBox="0 0 40 40" fill="none" xmlns="http://www.w3.org/2000/svg">
<path fill-rule="evenodd" clip-rule="evenodd" d="M31.3565 10.6074C32.6096 10.9458 33.5945 11.9334 33.9275 13.1852C34.5332 15.457 34.5332 20.2 34.5332 20.2C34.5332 20.2 34.5332 24.943 33.9275 27.2148C33.5899 28.4713 32.605 29.4588 31.3565 29.7926C29.0907 30.4 19.9999 30.4 19.9999 30.4C19.9999 30.4 10.9137 30.4 8.64326 29.7926C7.39015 29.4542 6.40523 28.4666 6.0723 27.2148C5.46655 24.943 5.46655 20.2 5.46655 20.2C5.46655 20.2 5.46655 15.457 6.0723 13.1852C6.40986 11.9287 7.39477 10.9412 8.64326 10.6074C10.9137 10 19.9999 10 19.9999 10C19.9999 10 29.0907 10 31.3565 10.6074ZM24.9333 20.1995L17.2 24.5329V15.8662L24.9333 20.1995Z" fill="#FFFFFF"/>
</svg>
