<svg width="26" height="26" fill="none" xmlns="http://www.w3.org/2000/svg"><path fill-rule="evenodd" clip-rule="evenodd" d="M6.12 7.8a6.935 6.935 0 0113.759 0H6.119zm5.146-2.6a.867.867 0 11-1.733 0 .867.867 0 011.733 0zm5.2 0a.867.867 0 11-1.733 0 .867.867 0 011.733 0z" fill="#8B8BB8"/><path d="M4.333 7.8c-.957 0-1.733.776-1.733 1.733V15.6c0 .957.776 1.733 1.733 1.733.957 0 .867-.776.867-1.733V9.533c0-.957.09-1.733-.867-1.733zM19.933 8.667H6.066v8.666c0 .958.776 1.734 1.734 1.734v3.466a1.733 1.733 0 103.466 0v-3.466h3.467v3.466a1.733 1.733 0 003.467 0v-3.466c.957 0 1.733-.776 1.733-1.734V8.667zM20.8 9.533c0-.957-.091-1.733.866-1.733.958 0 1.734.776 1.734 1.733V15.6c0 .957-.776 1.733-1.734 1.733-.957 0-.866-.776-.866-1.733V9.533z" fill="#8B8BB8"/><path fill-rule="evenodd" clip-rule="evenodd" d="M5.454 2.854a.867.867 0 011.226 0l2.6 2.6a.867.867 0 01-1.226 1.225l-2.6-2.6a.867.867 0 010-1.225zM20.546 2.854a.867.867 0 010 1.225l-2.6 2.6a.867.867 0 01-1.226-1.225l2.6-2.6a.867.867 0 011.226 0z" fill="#8B8BB8"/></svg>