<svg viewBox="0 0 345 234" fill="none" xmlns="http://www.w3.org/2000/svg"><g clip-path="url(#clip0)"><path fill="#292984" d="M0 0h345v233.094H0z"/><path d="M-41.895 4.591C-140.683-106-419 24-477-40.669l-11.409 371.079L909 169l-8-185C768 184 738.807 12.03 678 39c-43.789 19.422-59.417 35.549-170.826-47.951C347-129 309 23.999 213 105 108.233 193.397 7.294 59.658-41.895 4.591z" fill="url(#paint0_linear)"/><path d="M-421 84c151 83 174.536-127.788 306.001-40.257C-26 103 27.921 279.311 112 172 188 75 236-50 360.144 43.743 413.887 84.325 472 82 535-10c84.697-123.684 126 96.743 201 53.743" stroke="#373798" stroke-width="3"/><path d="M-422 92c158 110 168-62 291 7 92.674 51.988 164.92 196.311 248.999 89 76-97 136-158 242.145-104.257C409.999 108.987 475.671 130.912 549 53c96-102 125 107 230-40" stroke="#5454B0" stroke-width="3"/><path d="M-422 131.958c158 110 122-39 237 0 98.048 33.251 218.92 203.311 302.999 96C193.999 130.958 255 96.042 317 118c51.688 18.306 117.745 80.659 210 23 104-65 168 73.958 243 30.958" stroke="#1A1A6F" stroke-width="3"/><path d="M-421 70c151 83 174.537-197.531 306.001-110C-25.999 19.257 47.62 263.372 112 142 173 27 219.316-137.237 360.144-18 444 53 484 40 529-46c69.963-133.707 167 104 242 61" stroke="#262691" stroke-width="3"/></g><defs><linearGradient id="paint0_linear" x1="-179.076" y1="-19" x2="-232.721" y2="221.01" gradientUnits="userSpaceOnUse"><stop stop-color="#1F1F76"/><stop offset="1" stop-color="#1F1F76" stop-opacity="0"/></linearGradient><clipPath id="clip0"><path fill="#fff" d="M0 0h345v233.094H0z"/></clipPath></defs></svg>