<svg width="1390" height="846" fill="none" xmlns="http://www.w3.org/2000/svg"><path fill="url(#paint0_linear)" d="M907 182.153h10v442.565h-10z"/><path fill="url(#paint1_linear)" d="M1106 372.402h10v234.775h-10z"/><path fill="url(#paint2_linear)" d="M885 352h10v255.014h-10z"/><path fill="url(#paint3_linear)" d="M1202 440h10v145.722h-10z"/><path fill="url(#paint4_linear)" d="M1068 252h10v354h-10z"/><path fill="url(#paint5_linear)" d="M1280 310h10v263.11h-10z"/><path fill="url(#paint6_linear)" d="M1019 523.521h10v125.483h-10z"/><path fill="url(#paint7_linear)" d="M770 512.727h10V846h-10z"/><path fill="url(#paint8_linear)" d="M243 170h10v442.565h-10z"/><path fill="url(#paint9_linear)" d="M80 426.536h10v310.335H80z"/><path fill="url(#paint10_linear)" d="M555 418.44h10v234.775h-10z"/><path fill="url(#paint11_linear)" d="M196 299h10v327.876h-10z"/><path fill="url(#paint12_linear)" d="M355 321.455h10v375.1h-10z"/><path fill="url(#paint13_linear)" d="M1348 323h10v137.627h-10z"/><path fill="url(#paint14_linear)" d="M1196 114h10v242.871h-10z"/><path fill="url(#paint15_linear)" d="M1380 0h10v234.775h-10z"/><path fill="url(#paint16_linear)" d="M941 221.282h10v234.775h-10z"/><path fill="url(#paint17_linear)" d="M1036 240h10v442.565h-10z"/><path fill="url(#paint18_linear)" d="M989 369h10v327.876h-10z"/><path fill="url(#paint19_linear)" d="M873 147h10v196.995h-10z"/><path fill="url(#paint20_linear)" d="M1148 391.455h10v375.1h-10z"/><path fill="url(#paint21_linear)" d="M399 169h10v147h-10z"/><path fill="url(#paint22_linear)" d="M47 27h10v234.775H47z"/><path fill="url(#paint23_linear)" d="M784 304h10v137.627h-10z"/><path fill="url(#paint24_linear)" d="M142 182.153h10v442.565h-10z"/><path fill="url(#paint25_linear)" d="M0 239h10v233H0z"/><path fill="url(#paint26_linear)" d="M1288 217.234h10v352.163h-10z"/><path fill="url(#paint27_linear)" d="M656 249h10v357.56h-10z"/><path fill="url(#paint28_linear)" d="M341 372.402h10v234.775h-10z"/><path fill="url(#paint29_linear)" d="M589 383.196h10v117.388h-10z"/><path fill="url(#paint30_linear)" d="M120 352h10v255.014h-10z"/><path fill="url(#paint31_linear)" d="M437 440h10v145.722h-10z"/><path fill="url(#paint32_linear)" d="M303 252h10v354h-10z"/><path fill="url(#paint33_linear)" d="M515 310h10v263.11h-10z"/><path fill="url(#paint34_linear)" d="M705 416h10v263.11h-10z"/><path fill="url(#paint35_linear)" d="M584 219h10v85.005h-10z"/><path fill="url(#paint36_linear)" d="M218 310h10v172h-10z"/><defs><linearGradient id="paint0_linear" x1="912" y1="182.153" x2="912" y2="624.718" gradientUnits="userSpaceOnUse"><stop stop-color="#FF961C" stop-opacity=".2"/><stop offset="1" stop-color="#FF961C" stop-opacity="0"/></linearGradient><linearGradient id="paint1_linear" x1="1111" y1="372.402" x2="1111" y2="607.177" gradientUnits="userSpaceOnUse"><stop stop-color="#FF961C" stop-opacity=".2"/><stop offset="1" stop-color="#FF961C" stop-opacity="0"/></linearGradient><linearGradient id="paint2_linear" x1="890" y1="352" x2="890" y2="607.014" gradientUnits="userSpaceOnUse"><stop stop-color="#05D2DD" stop-opacity=".3"/><stop offset="1" stop-color="#05D2DD" stop-opacity="0"/></linearGradient><linearGradient id="paint3_linear" x1="1207" y1="440" x2="1207" y2="585.722" gradientUnits="userSpaceOnUse"><stop stop-color="#05D2DD" stop-opacity=".3"/><stop offset="1" stop-color="#05D2DD" stop-opacity="0"/></linearGradient><linearGradient id="paint4_linear" x1="1073" y1="252" x2="1073" y2="606" gradientUnits="userSpaceOnUse"><stop stop-color="#05D2DD" stop-opacity=".3"/><stop offset="1" stop-color="#05D2DD" stop-opacity="0"/></linearGradient><linearGradient id="paint5_linear" x1="1285" y1="310" x2="1285" y2="573.11" gradientUnits="userSpaceOnUse"><stop stop-color="#8F68FC" stop-opacity=".15"/><stop offset="1" stop-color="#8F68FC" stop-opacity="0"/></linearGradient><linearGradient id="paint6_linear" x1="1024" y1="523.521" x2="1024" y2="649.005" gradientUnits="userSpaceOnUse"><stop stop-color="#8F68FC" stop-opacity=".15"/><stop offset="1" stop-color="#8F68FC" stop-opacity="0"/></linearGradient><linearGradient id="paint7_linear" x1="775" y1="512.727" x2="775" y2="846" gradientUnits="userSpaceOnUse"><stop stop-color="#8F68FC" stop-opacity=".15"/><stop offset="1" stop-color="#8F68FC" stop-opacity="0"/></linearGradient><linearGradient id="paint8_linear" x1="248" y1="170" x2="248" y2="612.565" gradientUnits="userSpaceOnUse"><stop stop-color="#FF961C" stop-opacity=".2"/><stop offset="1" stop-color="#FF961C" stop-opacity="0"/></linearGradient><linearGradient id="paint9_linear" x1="85" y1="426.536" x2="85" y2="736.871" gradientUnits="userSpaceOnUse"><stop stop-color="#FF961C" stop-opacity=".2"/><stop offset="1" stop-color="#FF961C" stop-opacity="0"/></linearGradient><linearGradient id="paint10_linear" x1="560" y1="418.44" x2="560" y2="653.215" gradientUnits="userSpaceOnUse"><stop stop-color="#FF961C" stop-opacity=".2"/><stop offset="1" stop-color="#FF961C" stop-opacity="0"/></linearGradient><linearGradient id="paint11_linear" x1="201" y1="299" x2="201" y2="626.876" gradientUnits="userSpaceOnUse"><stop stop-color="#05D2DD" stop-opacity=".3"/><stop offset="1" stop-color="#05D2DD" stop-opacity="0"/></linearGradient><linearGradient id="paint12_linear" x1="360" y1="321.455" x2="360" y2="696.555" gradientUnits="userSpaceOnUse"><stop stop-color="#8F68FC" stop-opacity=".15"/><stop offset="1" stop-color="#8F68FC" stop-opacity="0"/></linearGradient><linearGradient id="paint13_linear" x1="1353" y1="323" x2="1353" y2="460.627" gradientUnits="userSpaceOnUse"><stop stop-color="#05D2DD" stop-opacity=".2"/><stop offset="1" stop-color="#05D2DD" stop-opacity="0"/></linearGradient><linearGradient id="paint14_linear" x1="1201" y1="114" x2="1201" y2="356.871" gradientUnits="userSpaceOnUse"><stop stop-color="#05D2DD" stop-opacity=".2"/><stop offset="1" stop-color="#05D2DD" stop-opacity="0"/></linearGradient><linearGradient id="paint15_linear" x1="1385" y1="0" x2="1385" y2="234.775" gradientUnits="userSpaceOnUse"><stop stop-color="#8F68FC" stop-opacity=".15"/><stop offset="1" stop-color="#8F68FC" stop-opacity="0"/></linearGradient><linearGradient id="paint16_linear" x1="946" y1="221.282" x2="946" y2="456.057" gradientUnits="userSpaceOnUse"><stop stop-color="#8F68FC" stop-opacity=".15"/><stop offset="1" stop-color="#8F68FC" stop-opacity="0"/></linearGradient><linearGradient id="paint17_linear" x1="1041" y1="240" x2="1041" y2="682.565" gradientUnits="userSpaceOnUse"><stop stop-color="#FF961C" stop-opacity=".2"/><stop offset="1" stop-color="#FF961C" stop-opacity="0"/></linearGradient><linearGradient id="paint18_linear" x1="994" y1="369" x2="994" y2="696.876" gradientUnits="userSpaceOnUse"><stop stop-color="#05D2DD" stop-opacity=".3"/><stop offset="1" stop-color="#05D2DD" stop-opacity="0"/></linearGradient><linearGradient id="paint19_linear" x1="878" y1="147" x2="878" y2="343.995" gradientUnits="userSpaceOnUse"><stop stop-color="#05D2DD" stop-opacity=".3"/><stop offset="1" stop-color="#05D2DD" stop-opacity="0"/></linearGradient><linearGradient id="paint20_linear" x1="1153" y1="391.455" x2="1153" y2="766.555" gradientUnits="userSpaceOnUse"><stop stop-color="#8F68FC" stop-opacity=".15"/><stop offset="1" stop-color="#8F68FC" stop-opacity="0"/></linearGradient><linearGradient id="paint21_linear" x1="404" y1="169" x2="404" y2="316" gradientUnits="userSpaceOnUse"><stop stop-color="#8F68FC" stop-opacity=".15"/><stop offset="1" stop-color="#8F68FC" stop-opacity="0"/></linearGradient><linearGradient id="paint22_linear" x1="52" y1="27" x2="52" y2="261.775" gradientUnits="userSpaceOnUse"><stop stop-color="#8F68FC" stop-opacity=".15"/><stop offset="1" stop-color="#8F68FC" stop-opacity="0"/></linearGradient><linearGradient id="paint23_linear" x1="789" y1="304" x2="789" y2="441.627" gradientUnits="userSpaceOnUse"><stop stop-color="#8F68FC" stop-opacity=".15"/><stop offset="1" stop-color="#8F68FC" stop-opacity="0"/></linearGradient><linearGradient id="paint24_linear" x1="147" y1="182.153" x2="147" y2="624.718" gradientUnits="userSpaceOnUse"><stop stop-color="#FF961C" stop-opacity=".2"/><stop offset="1" stop-color="#FF961C" stop-opacity="0"/></linearGradient><linearGradient id="paint25_linear" x1="5" y1="239" x2="5" y2="472" gradientUnits="userSpaceOnUse"><stop stop-color="#FF961C" stop-opacity=".2"/><stop offset="1" stop-color="#FF961C" stop-opacity="0"/></linearGradient><linearGradient id="paint26_linear" x1="1293" y1="217.234" x2="1293" y2="569.397" gradientUnits="userSpaceOnUse"><stop stop-color="#FF961C" stop-opacity=".2"/><stop offset="1" stop-color="#FF961C" stop-opacity="0"/></linearGradient><linearGradient id="paint27_linear" x1="661" y1="249" x2="661" y2="606.56" gradientUnits="userSpaceOnUse"><stop stop-color="#FF961C" stop-opacity=".2"/><stop offset="1" stop-color="#FF961C" stop-opacity="0"/></linearGradient><linearGradient id="paint28_linear" x1="346" y1="372.402" x2="346" y2="607.177" gradientUnits="userSpaceOnUse"><stop stop-color="#FF961C" stop-opacity=".2"/><stop offset="1" stop-color="#FF961C" stop-opacity="0"/></linearGradient><linearGradient id="paint29_linear" x1="594" y1="383.196" x2="594" y2="500.584" gradientUnits="userSpaceOnUse"><stop stop-color="#FF961C" stop-opacity=".2"/><stop offset="1" stop-color="#FF961C" stop-opacity="0"/></linearGradient><linearGradient id="paint30_linear" x1="125" y1="352" x2="125" y2="607.014" gradientUnits="userSpaceOnUse"><stop stop-color="#05D2DD" stop-opacity=".3"/><stop offset="1" stop-color="#05D2DD" stop-opacity="0"/></linearGradient><linearGradient id="paint31_linear" x1="442" y1="440" x2="442" y2="585.722" gradientUnits="userSpaceOnUse"><stop stop-color="#05D2DD" stop-opacity=".3"/><stop offset="1" stop-color="#05D2DD" stop-opacity="0"/></linearGradient><linearGradient id="paint32_linear" x1="308" y1="252" x2="308" y2="606" gradientUnits="userSpaceOnUse"><stop stop-color="#05D2DD" stop-opacity=".3"/><stop offset="1" stop-color="#05D2DD" stop-opacity="0"/></linearGradient><linearGradient id="paint33_linear" x1="520" y1="310" x2="520" y2="573.11" gradientUnits="userSpaceOnUse"><stop stop-color="#8F68FC" stop-opacity=".15"/><stop offset="1" stop-color="#8F68FC" stop-opacity="0"/></linearGradient><linearGradient id="paint34_linear" x1="710" y1="416" x2="710" y2="679.11" gradientUnits="userSpaceOnUse"><stop stop-color="#8F68FC" stop-opacity=".15"/><stop offset="1" stop-color="#8F68FC" stop-opacity="0"/></linearGradient><linearGradient id="paint35_linear" x1="589" y1="219" x2="589" y2="304.005" gradientUnits="userSpaceOnUse"><stop stop-color="#8F68FC" stop-opacity=".15"/><stop offset="1" stop-color="#8F68FC" stop-opacity="0"/></linearGradient><linearGradient id="paint36_linear" x1="223" y1="310" x2="223" y2="482" gradientUnits="userSpaceOnUse"><stop stop-color="#8F68FC" stop-opacity=".15"/><stop offset="1" stop-color="#8F68FC" stop-opacity="0"/></linearGradient></defs></svg>