<svg width="815" height="206" viewBox="0 0 815 206" fill="none" xmlns="http://www.w3.org/2000/svg">
<path d="M606.1 144.8L606.9 145.4L638.1 100.7L637.3 100.1L606.1 144.8ZM534.6 100.7L565.8 145.4L566.6 144.8L535.4 100.2L534.6 100.7ZM657.7 49.8C649.4 49.8 642.5 56.5 642.4 64.7V92.8C642.4 93.7 643.1 94.4 644 94.4C644.9 94.4 645.6 93.7 645.6 92.8V87.9C645.6 87 646.3 86.3 647.2 86.3C648.1 86.3 648.8 87 648.8 87.9V90.3C648.8 91.2 649.5 91.9 650.4 91.9C651.3 91.9 652 91.2 652 90.3V87.9C652 87 652.7 86.3 653.6 86.3C654.5 86.3 655.2 87 655.2 87.9V88.5C655.2 89.4 655.9 90.1 656.8 90.1C657.7 90.1 658.4 89.4 658.4 88.5V87.9C658.4 87 659.1 86.3 660 86.3C660.9 86.3 661.6 87 661.6 87.9V90.3C661.6 91.2 662.3 91.9 663.2 91.9C664.1 91.9 664.8 91.2 664.8 90.3V87.9C664.8 87 665.5 86.3 666.4 86.3C667.3 86.3 668 87 668 87.9V92.8C668 93.7 668.7 94.4 669.6 94.4C670.5 94.4 671.2 93.7 671.2 92.8V86.1L672.1 64.7C672.7 56.4 666 49.8 657.7 49.8ZM652 67.2C650.5 67.2 649.3 65.8 649.3 64C649.3 62.2 650.5 60.8 652 60.8C653.5 60.8 654.7 62.2 654.7 64C654.7 65.8 653.5 67.2 652 67.2ZM657.8 71.7C656.4 71.7 655.3 70.9 655.3 69.9C655.3 68.9 656.4 69.5 657.8 69.5C659.2 69.5 660.3 68.9 660.3 69.9C660.3 70.9 659.2 71.7 657.8 71.7ZM663.3 67.2C661.8 67.2 660.6 65.8 660.6 64C660.6 62.2 661.8 60.8 663.3 60.8C664.8 60.8 666 62.2 666 64C666 65.8 664.8 67.2 663.3 67.2ZM638 44.7L606.8 0L606 0.6L637.1 45.3L638 44.7ZM586.3 152.2C577.9 152.2 571.1 158.9 571 167.1V195.2C571 196.1 571.7 196.8 572.6 196.8C573.5 196.8 574.2 196.1 574.2 195.2V190.1C574.2 189.2 574.9 188.5 575.8 188.5C576.7 188.5 577.4 189.2 577.4 190.1V192.5C577.4 193.4 578.1 194.1 579 194.1C579.9 194.1 580.6 193.4 580.6 192.5V190.1C580.6 189.2 581.3 188.5 582.2 188.5C583.1 188.5 583.8 189.2 583.8 190.1V190.7C583.8 191.6 584.5 192.3 585.4 192.3C586.3 192.3 587 191.6 587 190.7V190.1C587 189.2 587.7 188.5 588.6 188.5C589.5 188.5 590.2 189.2 590.2 190.1V192.5C590.2 193.4 590.9 194.1 591.8 194.1C592.7 194.1 593.4 193.4 593.4 192.5V190.1C593.4 189.2 594.1 188.5 595 188.5C595.9 188.5 596.6 189.2 596.6 190.1V195C596.6 195.9 597.3 196.6 598.2 196.6C599.1 196.6 599.8 195.9 599.8 195V188.3L600.7 167C601.3 158.8 594.6 152.2 586.3 152.2ZM580.6 169.6C579.1 169.6 577.9 168.2 577.9 166.4C577.9 164.6 579.1 163.2 580.6 163.2C582.1 163.2 583.3 164.6 583.3 166.4C583.3 168.2 582.2 169.6 580.6 169.6ZM586.4 173.9C585 173.9 583.9 173.1 583.9 172.1C583.9 171.2 585 171.7 586.4 171.7C587.8 171.7 588.9 171.1 588.9 172.1C588.9 173.1 587.8 173.9 586.4 173.9ZM591.9 169.6C590.4 169.6 589.2 168.2 589.2 166.4C589.2 164.6 590.4 163.2 591.9 163.2C593.4 163.2 594.6 164.6 594.6 166.4C594.6 168.2 593.4 169.6 591.9 169.6ZM566.5 0.7L565.7 0.1L534.5 44.8L535.3 45.4L566.5 0.7ZM144.3 196.8C145.2 196.8 145.9 196.1 145.9 195.2V190.1C145.9 189.2 146.6 188.5 147.5 188.5C148.4 188.5 149.1 189.2 149.1 190.1V192.5C149.1 193.4 149.8 194.1 150.7 194.1C151.6 194.1 152.3 193.4 152.3 192.5V190.1C152.3 189.2 153 188.5 153.9 188.5C154.8 188.5 155.5 189.2 155.5 190.1V190.7C155.5 191.6 156.2 192.3 157.1 192.3C158 192.3 158.7 191.6 158.7 190.7V190.1C158.7 189.2 159.4 188.5 160.3 188.5C161.2 188.5 161.9 189.2 161.9 190.1V192.5C161.9 193.4 162.6 194.1 163.5 194.1C164.4 194.1 165.1 193.4 165.1 192.5V190.1C165.1 189.2 165.8 188.5 166.7 188.5C167.6 188.5 168.3 189.2 168.3 190.1V195C168.3 195.9 169 196.6 169.9 196.6C170.8 196.6 171.5 195.9 171.5 195V188.3L172.4 167C172.2 158.7 165.5 152.1 157.1 152.1C148.7 152.1 141.9 158.8 141.8 167V195.1C142.6 196.1 143.4 196.8 144.3 196.8ZM163.6 163.2C165.1 163.2 166.3 164.6 166.3 166.4C166.3 168.2 165.1 169.6 163.6 169.6C162.1 169.6 160.9 168.2 160.9 166.4C160.9 164.6 162.1 163.2 163.6 163.2ZM158.1 171.8C159.5 171.8 160.6 171.2 160.6 172.2C160.6 173.1 159.5 174 158.1 174C156.7 174 155.6 173.2 155.6 172.2C155.6 171.2 156.6 171.8 158.1 171.8ZM152.3 163.2C153.8 163.2 155 164.6 155 166.4C155 168.2 153.8 169.6 152.3 169.6C150.8 169.6 149.6 168.2 149.6 166.4C149.6 164.6 150.8 163.2 152.3 163.2ZM423.7 0.7L422.9 0.1L391.7 44.8L392.5 45.4L423.7 0.7ZM300.7 152.2C292.3 152.2 285.5 158.9 285.4 167.1V195.2C285.4 196.1 286.1 196.8 287 196.8C287.9 196.8 288.6 196.1 288.6 195.2V190.1C288.6 189.2 289.3 188.5 290.2 188.5C291.1 188.5 291.8 189.2 291.8 190.1V192.5C291.8 193.4 292.5 194.1 293.4 194.1C294.3 194.1 295 193.4 295 192.5V190.1C295 189.2 295.7 188.5 296.6 188.5C297.5 188.5 298.2 189.2 298.2 190.1V190.7C298.2 191.6 298.9 192.3 299.8 192.3C300.7 192.3 301.4 191.6 301.4 190.7V190.1C301.4 189.2 302.1 188.5 303 188.5C303.9 188.5 304.6 189.2 304.6 190.1V192.5C304.6 193.4 305.3 194.1 306.2 194.1C307.1 194.1 307.8 193.4 307.8 192.5V190.1C307.8 189.2 308.5 188.5 309.4 188.5C310.3 188.5 311 189.2 311 190.1V195C311 195.9 311.7 196.6 312.6 196.6C313.5 196.6 314.2 195.9 314.2 195V188.3L315.1 167C315.8 158.8 309.1 152.2 300.7 152.2ZM295.1 169.6C293.6 169.6 292.4 168.2 292.4 166.4C292.4 164.6 293.6 163.2 295.1 163.2C296.6 163.2 297.8 164.6 297.8 166.4C297.8 168.2 296.6 169.6 295.1 169.6ZM300.8 173.9C299.4 173.9 298.3 173.1 298.3 172.1C298.3 171.2 299.4 171.7 300.8 171.7C302.2 171.7 303.3 171.1 303.3 172.1C303.3 173.1 302.2 173.9 300.8 173.9ZM306.4 169.6C304.9 169.6 303.7 168.2 303.7 166.4C303.7 164.6 304.9 163.2 306.4 163.2C307.9 163.2 309.1 164.6 309.1 166.4C309.1 168.2 307.9 169.6 306.4 169.6ZM106.2 100.7L137.4 145.4L138.2 144.8L107 100.1L106.2 100.7ZM320.5 144.8L321.3 145.4L352.5 100.7L351.7 100.1L320.5 144.8ZM106.2 44.8L107 45.4L138.2 0.7L137.4 0.1L106.2 44.8ZM320.5 0.7L351.7 45.4L352.5 44.8L321.4 0.1L320.5 0.7ZM177.8 0.6L209 45.4L209.8 44.8L178.6 0L177.8 0.6ZM229.3 49.8C221 49.8 214.1 56.5 214 64.7V92.8C214 93.7 214.7 94.4 215.6 94.4C216.5 94.4 217.2 93.7 217.2 92.8V87.9C217.2 87 217.9 86.3 218.8 86.3C219.7 86.3 220.4 87 220.4 87.9V90.3C220.4 91.2 221.1 91.9 222 91.9C222.9 91.9 223.6 91.2 223.6 90.3V87.9C223.6 87 224.3 86.3 225.2 86.3C226.1 86.3 226.8 87 226.8 87.9V88.5C226.8 89.4 227.5 90.1 228.4 90.1C229.3 90.1 230 89.4 230 88.5V87.9C230 87 230.7 86.3 231.6 86.3C232.5 86.3 233.2 87 233.2 87.9V90.3C233.2 91.2 233.9 91.9 234.8 91.9C235.7 91.9 236.4 91.2 236.4 90.3V87.9C236.4 87 237.1 86.3 238 86.3C238.9 86.3 239.6 87 239.6 87.9V92.8C239.6 93.7 240.3 94.4 241.2 94.4C242.1 94.4 242.8 93.7 242.8 92.8V86.1L243.7 64.7C244.4 56.4 237.7 49.8 229.3 49.8ZM223.7 67.2C222.2 67.2 221 65.8 221 64C221 62.2 222.2 60.8 223.7 60.8C225.2 60.8 226.4 62.2 226.4 64C226.4 65.8 225.2 67.2 223.7 67.2ZM229.4 71.7C228 71.7 226.9 70.9 226.9 69.9C226.9 68.9 228 69.5 229.4 69.5C230.8 69.5 231.9 68.9 231.9 69.9C231.9 70.9 230.9 71.7 229.4 71.7ZM235 67.2C233.5 67.2 232.3 65.8 232.3 64C232.3 62.2 233.5 60.8 235 60.8C236.5 60.8 237.7 62.2 237.7 64C237.7 65.8 236.5 67.2 235 67.2ZM249 100.7L280.2 145.4L281 144.8L249.8 100.1L249 100.7ZM249 44.8L249.8 45.4L281 0.7L280.2 0.1L249 44.8ZM177.8 144.8L178.6 145.4L209.8 100.7L209 100.1L177.8 144.8ZM443.5 152.2C435.1 152.2 428.3 158.9 428.2 167.1V195.2C428.2 196.1 428.9 196.8 429.8 196.8C430.7 196.8 431.4 196.1 431.4 195.2V190.1C431.4 189.2 432.1 188.5 433 188.5C433.9 188.5 434.6 189.2 434.6 190.1V192.5C434.6 193.4 435.3 194.1 436.2 194.1C437.1 194.1 437.8 193.4 437.8 192.5V190.1C437.8 189.2 438.5 188.5 439.4 188.5C440.3 188.5 441 189.2 441 190.1V190.7C441 191.6 441.7 192.3 442.6 192.3C443.5 192.3 444.2 191.6 444.2 190.7V190.1C444.2 189.2 444.9 188.5 445.8 188.5C446.7 188.5 447.4 189.2 447.4 190.1V192.5C447.4 193.4 448.1 194.1 449 194.1C449.9 194.1 450.6 193.4 450.6 192.5V190.1C450.6 189.2 451.3 188.5 452.2 188.5C453.1 188.5 453.8 189.2 453.8 190.1V195C453.8 195.9 454.5 196.6 455.4 196.6C456.3 196.6 457 195.9 457 195V188.3L457.9 167C458.5 158.8 451.8 152.2 443.5 152.2ZM437.9 169.6C436.4 169.6 435.2 168.2 435.2 166.4C435.2 164.6 436.4 163.2 437.9 163.2C439.4 163.2 440.6 164.6 440.6 166.4C440.6 168.2 439.4 169.6 437.9 169.6ZM443.6 173.9C442.2 173.9 441.1 173.1 441.1 172.1C441.1 171.2 442.2 171.7 443.6 171.7C445 171.7 446.1 171.1 446.1 172.1C446.1 173.1 445 173.9 443.6 173.9ZM449.1 169.6C447.6 169.6 446.4 168.2 446.4 166.4C446.4 164.6 447.6 163.2 449.1 163.2C450.6 163.2 451.8 164.6 451.8 166.4C451.8 168.2 450.7 169.6 449.1 169.6ZM72.9 94.5C73.8 94.5 74.5 93.8 74.5 92.9V88C74.5 87.1 75.2 86.4 76.1 86.4C77 86.4 77.7 87.1 77.7 88V90.4C77.7 91.3 78.4 92 79.3 92C80.2 92 80.9 91.3 80.9 90.4V88C80.9 87.1 81.6 86.4 82.5 86.4C83.4 86.4 84.1 87.1 84.1 88V88.6C84.1 89.5 84.8 90.2 85.7 90.2C86.6 90.2 87.3 89.5 87.3 88.6V88C87.3 87.1 88 86.4 88.9 86.4C89.8 86.4 90.5 87.1 90.5 88V90.4C90.5 91.3 91.2 92 92.1 92C93 92 93.7 91.3 93.7 90.4V88C93.7 87.1 94.4 86.4 95.3 86.4C96.2 86.4 96.9 87.1 96.9 88V92.9C96.9 93.8 97.6 94.5 98.5 94.5C99.4 94.5 100.1 93.8 100.1 92.9V86.2L101 64.8C100.8 56.5 94.1 49.9 85.7 49.9C77.3 49.9 70.5 56.6 70.4 64.8V92.9C71.3 93.8 72 94.5 72.9 94.5ZM92.2 60.8C93.7 60.8 94.9 62.2 94.9 64C94.9 65.8 93.7 67.2 92.2 67.2C90.7 67.2 89.5 65.8 89.5 64C89.5 62.2 90.7 60.8 92.2 60.8ZM86.7 69.5C88.1 69.5 89.2 68.9 89.2 69.9C89.2 70.9 88.1 71.7 86.7 71.7C85.3 71.7 84.2 70.9 84.2 69.9C84.2 68.9 85.3 69.5 86.7 69.5ZM80.9 60.8C82.4 60.8 83.6 62.2 83.6 64C83.6 65.8 82.4 67.2 80.9 67.2C79.4 67.2 78.2 65.8 78.2 64C78.2 62.2 79.4 60.8 80.9 60.8ZM514.9 49.8C506.5 49.8 499.7 56.5 499.6 64.7V92.8C499.6 93.7 500.3 94.4 501.2 94.4C502.1 94.4 502.8 93.7 502.8 92.8V87.9C502.8 87 503.5 86.3 504.4 86.3C505.3 86.3 506 87 506 87.9V90.3C506 91.2 506.7 91.9 507.6 91.9C508.5 91.9 509.2 91.2 509.2 90.3V87.9C509.2 87 509.9 86.3 510.8 86.3C511.7 86.3 512.4 87 512.4 87.9V88.5C512.4 89.4 513.1 90.1 514 90.1C514.9 90.1 515.6 89.4 515.6 88.5V87.9C515.6 87 516.3 86.3 517.2 86.3C518.1 86.3 518.8 87 518.8 87.9V90.3C518.8 91.2 519.5 91.9 520.4 91.9C521.3 91.9 522 91.2 522 90.3V87.9C522 87 522.7 86.3 523.6 86.3C524.5 86.3 525.2 87 525.2 87.9V92.8C525.2 93.7 525.9 94.4 526.8 94.4C527.7 94.4 528.4 93.7 528.4 92.8V86.1L529.3 64.7C529.9 56.4 523.2 49.8 514.9 49.8ZM509.2 67.2C507.7 67.2 506.5 65.8 506.5 64C506.5 62.2 507.7 60.8 509.2 60.8C510.7 60.8 511.9 62.2 511.9 64C511.9 65.8 510.8 67.2 509.2 67.2ZM515 71.7C513.6 71.7 512.5 70.9 512.5 69.9C512.5 68.9 513.6 69.5 515 69.5C516.4 69.5 517.5 68.9 517.5 69.9C517.5 70.9 516.4 71.7 515 71.7ZM520.5 67.2C519 67.2 517.8 65.8 517.8 64C517.8 62.2 519 60.8 520.5 60.8C522 60.8 523.2 62.2 523.2 64C523.2 65.8 522.1 67.2 520.5 67.2ZM463.3 144.8L464.1 145.4L495.3 100.7L494.5 100.1L463.3 144.8ZM463.3 0.7L494.5 45.4L495.3 44.8L464.1 0.1L463.3 0.7ZM372.1 49.8C363.8 49.8 356.9 56.5 356.8 64.7V92.8C356.8 93.7 357.5 94.4 358.4 94.4C359.3 94.4 360 93.7 360 92.8V87.9C360 87 360.7 86.3 361.6 86.3C362.5 86.3 363.2 87 363.2 87.9V90.3C363.2 91.2 363.9 91.9 364.8 91.9C365.7 91.9 366.4 91.2 366.4 90.3V87.9C366.4 87 367.1 86.3 368 86.3C368.9 86.3 369.6 87 369.6 87.9V88.5C369.6 89.4 370.3 90.1 371.2 90.1C372.1 90.1 372.8 89.4 372.8 88.5V87.9C372.8 87 373.5 86.3 374.4 86.3C375.3 86.3 376 87 376 87.9V90.3C376 91.2 376.7 91.9 377.6 91.9C378.5 91.9 379.2 91.2 379.2 90.3V87.9C379.2 87 379.9 86.3 380.8 86.3C381.7 86.3 382.4 87 382.4 87.9V92.8C382.4 93.7 383.1 94.4 384 94.4C384.9 94.4 385.6 93.7 385.6 92.8V86.1L386.5 64.7C387.2 56.4 380.5 49.8 372.1 49.8ZM366.5 67.2C365 67.2 363.8 65.8 363.8 64C363.8 62.2 365 60.8 366.5 60.8C368 60.8 369.2 62.2 369.2 64C369.2 65.8 368 67.2 366.5 67.2ZM372.2 71.7C370.8 71.7 369.7 70.9 369.7 69.9C369.7 68.9 370.8 69.5 372.2 69.5C373.6 69.5 374.7 68.9 374.7 69.9C374.7 70.9 373.6 71.7 372.2 71.7ZM377.8 67.2C376.3 67.2 375.1 65.8 375.1 64C375.1 62.2 376.3 60.8 377.8 60.8C379.3 60.8 380.5 62.2 380.5 64C380.5 65.8 379.3 67.2 377.8 67.2ZM35 0.7L66.2 45.4L67 44.8L35.8 0.1L35 0.7ZM35 144.8L35.8 145.4L67 100.7L66.2 100.1L35 144.8ZM15.3 152.2C6.9 152.2 0.1 158.9 0 167.1V195.2C0 196.1 0.7 196.8 1.6 196.8C2.5 196.8 3.2 196.1 3.2 195.2V190.1C3.2 189.2 3.9 188.5 4.8 188.5C5.7 188.5 6.4 189.2 6.4 190.1V192.5C6.4 193.4 7.1 194.1 8 194.1C8.9 194.1 9.6 193.4 9.6 192.5V190.1C9.6 189.2 10.3 188.5 11.2 188.5C12.1 188.5 12.8 189.2 12.8 190.1V190.7C12.8 191.6 13.5 192.3 14.4 192.3C15.3 192.3 16 191.6 16 190.7V190.1C16 189.2 16.7 188.5 17.6 188.5C18.5 188.5 19.2 189.2 19.2 190.1V192.5C19.2 193.4 19.9 194.1 20.8 194.1C21.7 194.1 22.4 193.4 22.4 192.5V190.1C22.4 189.2 23.1 188.5 24 188.5C24.9 188.5 25.6 189.2 25.6 190.1V195C25.6 195.9 26.3 196.6 27.2 196.6C28.1 196.6 28.8 195.9 28.8 195V188.3L29.7 167C30.3 158.8 23.6 152.2 15.3 152.2ZM9.5 169.6C8 169.6 6.8 168.2 6.8 166.4C6.8 164.6 8 163.2 9.5 163.2C11 163.2 12.2 164.6 12.2 166.4C12.2 168.2 11 169.6 9.5 169.6ZM15.3 173.9C13.9 173.9 12.8 173.1 12.8 172.1C12.8 171.2 13.9 171.7 15.3 171.7C16.7 171.7 17.8 171.1 17.8 172.1C17.7 173.1 16.7 173.9 15.3 173.9ZM20.8 169.6C19.3 169.6 18.1 168.2 18.1 166.4C18.1 164.6 19.3 163.2 20.8 163.2C22.3 163.2 23.5 164.6 23.5 166.4C23.5 168.2 22.3 169.6 20.8 169.6ZM391.8 100.7L423 145.4L423.8 144.8L392.6 100.1L391.8 100.7ZM729.1 152.2C720.7 152.2 713.9 158.9 713.8 167.1V195.2C713.8 196.1 714.5 196.8 715.4 196.8C716.3 196.8 717 196.1 717 195.2V190.1C717 189.2 717.7 188.5 718.6 188.5C719.5 188.5 720.2 189.2 720.2 190.1V192.5C720.2 193.4 720.9 194.1 721.8 194.1C722.7 194.1 723.4 193.4 723.4 192.5V190.1C723.4 189.2 724.1 188.5 725 188.5C725.9 188.5 726.6 189.2 726.6 190.1V190.7C726.6 191.6 727.3 192.3 728.2 192.3C729.1 192.3 729.8 191.6 729.8 190.7V190.1C729.8 189.2 730.5 188.5 731.4 188.5C732.3 188.5 733 189.2 733 190.1V192.5C733 193.4 733.7 194.1 734.6 194.1C735.5 194.1 736.2 193.4 736.2 192.5V190.1C736.2 189.2 736.9 188.5 737.8 188.5C738.7 188.5 739.4 189.2 739.4 190.1V195C739.4 195.9 740.1 196.6 741 196.6C741.9 196.6 742.6 195.9 742.6 195V188.3L743.5 167C744.1 158.8 737.4 152.2 729.1 152.2ZM723.4 169.6C721.9 169.6 720.7 168.2 720.7 166.4C720.7 164.6 721.9 163.2 723.4 163.2C724.9 163.2 726.1 164.6 726.1 166.4C726.1 168.2 724.9 169.6 723.4 169.6ZM729.2 173.9C727.8 173.9 726.7 173.1 726.7 172.1C726.7 171.2 727.8 171.7 729.2 171.7C730.6 171.7 731.7 171.1 731.7 172.1C731.6 173.1 730.6 173.9 729.2 173.9ZM734.7 169.6C733.2 169.6 732 168.2 732 166.4C732 164.6 733.2 163.2 734.7 163.2C736.2 163.2 737.4 164.6 737.4 166.4C737.4 168.2 736.2 169.6 734.7 169.6ZM677.2 44.8L678 45.4L709.2 0.7L708.4 0.1L677.2 44.8ZM677.2 100.7L708.4 145.4L709.2 144.8L678 100.1L677.2 100.7ZM748.9 0.7L780.1 45.4L780.9 44.8L749.7 0.1L748.9 0.7ZM780.7 100.7L779.9 100.1L748.7 144.8L749.5 145.4L780.7 100.7ZM800.4 49.8C792.1 49.8 785.2 56.5 785.1 64.7V92.8C785.1 93.7 785.8 94.4 786.7 94.4C787.6 94.4 788.3 93.7 788.3 92.8V87.9C788.3 87 789 86.3 789.9 86.3C790.8 86.3 791.5 87 791.5 87.9V90.3C791.5 91.2 792.2 91.9 793.1 91.9C794 91.9 794.7 91.2 794.7 90.3V87.9C794.7 87 795.4 86.3 796.3 86.3C797.2 86.3 797.9 87 797.9 87.9V88.5C797.9 89.4 798.6 90.1 799.5 90.1C800.4 90.1 801.1 89.4 801.1 88.5V87.9C801.1 87 801.8 86.3 802.7 86.3C803.6 86.3 804.3 87 804.3 87.9V90.3C804.3 91.2 805 91.9 805.9 91.9C806.8 91.9 807.5 91.2 807.5 90.3V87.9C807.5 87 808.2 86.3 809.1 86.3C810 86.3 810.7 87 810.7 87.9V92.8C810.7 93.7 811.4 94.4 812.3 94.4C813.2 94.4 813.9 93.7 813.9 92.8V86.1L814.8 64.7C815.5 56.4 808.8 49.8 800.4 49.8ZM794.8 67.2C793.3 67.2 792.1 65.8 792.1 64C792.1 62.2 793.3 60.8 794.8 60.8C796.3 60.8 797.5 62.2 797.5 64C797.5 65.8 796.3 67.2 794.8 67.2ZM800.6 71.7C799.2 71.7 798.1 70.9 798.1 69.9C798.1 68.9 799.2 69.5 800.6 69.5C802 69.5 803.1 68.9 803.1 69.9C803.1 70.9 802 71.7 800.6 71.7ZM806.1 67.2C804.6 67.2 803.4 65.8 803.4 64C803.4 62.2 804.6 60.8 806.1 60.8C807.6 60.8 808.8 62.2 808.8 64C808.8 65.8 807.6 67.2 806.1 67.2Z" fill="url(#paint0_linear)"/>
<defs>
<linearGradient id="paint0_linear" x1="-13.9862" y1="14.9695" x2="815" y2="14.9695" gradientUnits="userSpaceOnUse">
<stop stop-color="#2EBAC6" stop-opacity="0.25"/>
<stop offset="1" stop-color="#B6509E" stop-opacity="0.25"/>
</linearGradient>
</defs>
</svg>
