<svg width="1390" height="846" viewBox="0 0 1390 846" fill="none" xmlns="http://www.w3.org/2000/svg">
<rect x="907" y="182.153" width="10" height="442.565" fill="url(#paint0_linear)"/>
<rect x="1106" y="372.402" width="10" height="234.775" fill="url(#paint1_linear)"/>
<rect x="885" y="352" width="10" height="255.014" fill="url(#paint2_linear)"/>
<rect x="1202" y="440" width="10" height="145.722" fill="url(#paint3_linear)"/>
<rect x="1068" y="252" width="10" height="354" fill="url(#paint4_linear)"/>
<rect x="1280" y="310" width="10" height="263.11" fill="url(#paint5_linear)"/>
<rect x="1019" y="523.521" width="10" height="125.483" fill="url(#paint6_linear)"/>
<rect x="770" y="512.727" width="10" height="333.273" fill="url(#paint7_linear)"/>
<rect x="243" y="170" width="10" height="442.565" fill="url(#paint8_linear)"/>
<rect x="80" y="426.536" width="10" height="310.335" fill="url(#paint9_linear)"/>
<rect x="555" y="418.44" width="10" height="234.775" fill="url(#paint10_linear)"/>
<rect x="196" y="299" width="10" height="327.876" fill="url(#paint11_linear)"/>
<rect x="355" y="321.455" width="10" height="375.1" fill="url(#paint12_linear)"/>
<rect x="1348" y="323" width="10" height="137.627" fill="url(#paint13_linear)"/>
<rect x="1196" y="114" width="10" height="242.871" fill="url(#paint14_linear)"/>
<rect x="1380" width="10" height="234.775" fill="url(#paint15_linear)"/>
<rect x="941" y="221.282" width="10" height="234.775" fill="url(#paint16_linear)"/>
<rect x="1036" y="240" width="10" height="442.565" fill="url(#paint17_linear)"/>
<rect x="989" y="369" width="10" height="327.876" fill="url(#paint18_linear)"/>
<rect x="873" y="147" width="10" height="196.995" fill="url(#paint19_linear)"/>
<rect x="1148" y="391.455" width="10" height="375.1" fill="url(#paint20_linear)"/>
<rect x="399" y="169" width="10" height="147" fill="url(#paint21_linear)"/>
<rect x="47" y="27" width="10" height="234.775" fill="url(#paint22_linear)"/>
<rect x="784" y="304" width="10" height="137.627" fill="url(#paint23_linear)"/>
<rect x="142" y="182.153" width="10" height="442.565" fill="url(#paint24_linear)"/>
<rect y="239" width="10" height="233" fill="url(#paint25_linear)"/>
<rect x="1288" y="217.234" width="10" height="352.163" fill="url(#paint26_linear)"/>
<rect x="656" y="249" width="10" height="357.56" fill="url(#paint27_linear)"/>
<rect x="341" y="372.402" width="10" height="234.775" fill="url(#paint28_linear)"/>
<rect x="589" y="383.196" width="10" height="117.388" fill="url(#paint29_linear)"/>
<rect x="120" y="352" width="10" height="255.014" fill="url(#paint30_linear)"/>
<rect x="437" y="440" width="10" height="145.722" fill="url(#paint31_linear)"/>
<rect x="303" y="252" width="10" height="354" fill="url(#paint32_linear)"/>
<rect x="515" y="310" width="10" height="263.11" fill="url(#paint33_linear)"/>
<rect x="705" y="416" width="10" height="263.11" fill="url(#paint34_linear)"/>
<rect x="584" y="219" width="10" height="85.0048" fill="url(#paint35_linear)"/>
<rect x="218" y="310" width="10" height="172" fill="url(#paint36_linear)"/>
<defs>
<linearGradient id="paint0_linear" x1="912" y1="182.153" x2="912" y2="624.718" gradientUnits="userSpaceOnUse">
<stop stop-color="#FF961C" stop-opacity="0.2"/>
<stop offset="1" stop-color="#FF961C" stop-opacity="0"/>
</linearGradient>
<linearGradient id="paint1_linear" x1="1111" y1="372.402" x2="1111" y2="607.177" gradientUnits="userSpaceOnUse">
<stop stop-color="#FF961C" stop-opacity="0.2"/>
<stop offset="1" stop-color="#FF961C" stop-opacity="0"/>
</linearGradient>
<linearGradient id="paint2_linear" x1="890" y1="352" x2="890" y2="607.014" gradientUnits="userSpaceOnUse">
<stop stop-color="#05D2DD" stop-opacity="0.3"/>
<stop offset="1" stop-color="#05D2DD" stop-opacity="0"/>
</linearGradient>
<linearGradient id="paint3_linear" x1="1207" y1="440" x2="1207" y2="585.722" gradientUnits="userSpaceOnUse">
<stop stop-color="#05D2DD" stop-opacity="0.3"/>
<stop offset="1" stop-color="#05D2DD" stop-opacity="0"/>
</linearGradient>
<linearGradient id="paint4_linear" x1="1073" y1="252" x2="1073" y2="606" gradientUnits="userSpaceOnUse">
<stop stop-color="#05D2DD" stop-opacity="0.3"/>
<stop offset="1" stop-color="#05D2DD" stop-opacity="0"/>
</linearGradient>
<linearGradient id="paint5_linear" x1="1285" y1="310" x2="1285" y2="573.11" gradientUnits="userSpaceOnUse">
<stop stop-color="#8F68FC" stop-opacity="0.15"/>
<stop offset="1" stop-color="#8F68FC" stop-opacity="0"/>
</linearGradient>
<linearGradient id="paint6_linear" x1="1024" y1="523.521" x2="1024" y2="649.005" gradientUnits="userSpaceOnUse">
<stop stop-color="#8F68FC" stop-opacity="0.15"/>
<stop offset="1" stop-color="#8F68FC" stop-opacity="0"/>
</linearGradient>
<linearGradient id="paint7_linear" x1="775" y1="512.727" x2="775" y2="846" gradientUnits="userSpaceOnUse">
<stop stop-color="#8F68FC" stop-opacity="0.15"/>
<stop offset="1" stop-color="#8F68FC" stop-opacity="0"/>
</linearGradient>
<linearGradient id="paint8_linear" x1="248" y1="170" x2="248" y2="612.565" gradientUnits="userSpaceOnUse">
<stop stop-color="#FF961C" stop-opacity="0.2"/>
<stop offset="1" stop-color="#FF961C" stop-opacity="0"/>
</linearGradient>
<linearGradient id="paint9_linear" x1="85" y1="426.536" x2="85" y2="736.871" gradientUnits="userSpaceOnUse">
<stop stop-color="#FF961C" stop-opacity="0.2"/>
<stop offset="1" stop-color="#FF961C" stop-opacity="0"/>
</linearGradient>
<linearGradient id="paint10_linear" x1="560" y1="418.44" x2="560" y2="653.215" gradientUnits="userSpaceOnUse">
<stop stop-color="#FF961C" stop-opacity="0.2"/>
<stop offset="1" stop-color="#FF961C" stop-opacity="0"/>
</linearGradient>
<linearGradient id="paint11_linear" x1="201" y1="299" x2="201" y2="626.876" gradientUnits="userSpaceOnUse">
<stop stop-color="#05D2DD" stop-opacity="0.3"/>
<stop offset="1" stop-color="#05D2DD" stop-opacity="0"/>
</linearGradient>
<linearGradient id="paint12_linear" x1="360" y1="321.455" x2="360" y2="696.555" gradientUnits="userSpaceOnUse">
<stop stop-color="#8F68FC" stop-opacity="0.15"/>
<stop offset="1" stop-color="#8F68FC" stop-opacity="0"/>
</linearGradient>
<linearGradient id="paint13_linear" x1="1353" y1="323" x2="1353" y2="460.627" gradientUnits="userSpaceOnUse">
<stop stop-color="#05D2DD" stop-opacity="0.2"/>
<stop offset="1" stop-color="#05D2DD" stop-opacity="0"/>
</linearGradient>
<linearGradient id="paint14_linear" x1="1201" y1="114" x2="1201" y2="356.871" gradientUnits="userSpaceOnUse">
<stop stop-color="#05D2DD" stop-opacity="0.2"/>
<stop offset="1" stop-color="#05D2DD" stop-opacity="0"/>
</linearGradient>
<linearGradient id="paint15_linear" x1="1385" y1="0" x2="1385" y2="234.775" gradientUnits="userSpaceOnUse">
<stop stop-color="#8F68FC" stop-opacity="0.15"/>
<stop offset="1" stop-color="#8F68FC" stop-opacity="0"/>
</linearGradient>
<linearGradient id="paint16_linear" x1="946" y1="221.282" x2="946" y2="456.057" gradientUnits="userSpaceOnUse">
<stop stop-color="#8F68FC" stop-opacity="0.15"/>
<stop offset="1" stop-color="#8F68FC" stop-opacity="0"/>
</linearGradient>
<linearGradient id="paint17_linear" x1="1041" y1="240" x2="1041" y2="682.565" gradientUnits="userSpaceOnUse">
<stop stop-color="#FF961C" stop-opacity="0.2"/>
<stop offset="1" stop-color="#FF961C" stop-opacity="0"/>
</linearGradient>
<linearGradient id="paint18_linear" x1="994" y1="369" x2="994" y2="696.876" gradientUnits="userSpaceOnUse">
<stop stop-color="#05D2DD" stop-opacity="0.3"/>
<stop offset="1" stop-color="#05D2DD" stop-opacity="0"/>
</linearGradient>
<linearGradient id="paint19_linear" x1="878" y1="147" x2="878" y2="343.995" gradientUnits="userSpaceOnUse">
<stop stop-color="#05D2DD" stop-opacity="0.3"/>
<stop offset="1" stop-color="#05D2DD" stop-opacity="0"/>
</linearGradient>
<linearGradient id="paint20_linear" x1="1153" y1="391.455" x2="1153" y2="766.555" gradientUnits="userSpaceOnUse">
<stop stop-color="#8F68FC" stop-opacity="0.15"/>
<stop offset="1" stop-color="#8F68FC" stop-opacity="0"/>
</linearGradient>
<linearGradient id="paint21_linear" x1="404" y1="169" x2="404" y2="316" gradientUnits="userSpaceOnUse">
<stop stop-color="#8F68FC" stop-opacity="0.15"/>
<stop offset="1" stop-color="#8F68FC" stop-opacity="0"/>
</linearGradient>
<linearGradient id="paint22_linear" x1="52" y1="27" x2="52" y2="261.775" gradientUnits="userSpaceOnUse">
<stop stop-color="#8F68FC" stop-opacity="0.15"/>
<stop offset="1" stop-color="#8F68FC" stop-opacity="0"/>
</linearGradient>
<linearGradient id="paint23_linear" x1="789" y1="304" x2="789" y2="441.627" gradientUnits="userSpaceOnUse">
<stop stop-color="#8F68FC" stop-opacity="0.15"/>
<stop offset="1" stop-color="#8F68FC" stop-opacity="0"/>
</linearGradient>
<linearGradient id="paint24_linear" x1="147" y1="182.153" x2="147" y2="624.718" gradientUnits="userSpaceOnUse">
<stop stop-color="#FF961C" stop-opacity="0.2"/>
<stop offset="1" stop-color="#FF961C" stop-opacity="0"/>
</linearGradient>
<linearGradient id="paint25_linear" x1="5" y1="239" x2="5" y2="472" gradientUnits="userSpaceOnUse">
<stop stop-color="#FF961C" stop-opacity="0.2"/>
<stop offset="1" stop-color="#FF961C" stop-opacity="0"/>
</linearGradient>
<linearGradient id="paint26_linear" x1="1293" y1="217.234" x2="1293" y2="569.397" gradientUnits="userSpaceOnUse">
<stop stop-color="#FF961C" stop-opacity="0.2"/>
<stop offset="1" stop-color="#FF961C" stop-opacity="0"/>
</linearGradient>
<linearGradient id="paint27_linear" x1="661" y1="249" x2="661" y2="606.56" gradientUnits="userSpaceOnUse">
<stop stop-color="#FF961C" stop-opacity="0.2"/>
<stop offset="1" stop-color="#FF961C" stop-opacity="0"/>
</linearGradient>
<linearGradient id="paint28_linear" x1="346" y1="372.402" x2="346" y2="607.177" gradientUnits="userSpaceOnUse">
<stop stop-color="#FF961C" stop-opacity="0.2"/>
<stop offset="1" stop-color="#FF961C" stop-opacity="0"/>
</linearGradient>
<linearGradient id="paint29_linear" x1="594" y1="383.196" x2="594" y2="500.584" gradientUnits="userSpaceOnUse">
<stop stop-color="#FF961C" stop-opacity="0.2"/>
<stop offset="1" stop-color="#FF961C" stop-opacity="0"/>
</linearGradient>
<linearGradient id="paint30_linear" x1="125" y1="352" x2="125" y2="607.014" gradientUnits="userSpaceOnUse">
<stop stop-color="#05D2DD" stop-opacity="0.3"/>
<stop offset="1" stop-color="#05D2DD" stop-opacity="0"/>
</linearGradient>
<linearGradient id="paint31_linear" x1="442" y1="440" x2="442" y2="585.722" gradientUnits="userSpaceOnUse">
<stop stop-color="#05D2DD" stop-opacity="0.3"/>
<stop offset="1" stop-color="#05D2DD" stop-opacity="0"/>
</linearGradient>
<linearGradient id="paint32_linear" x1="308" y1="252" x2="308" y2="606" gradientUnits="userSpaceOnUse">
<stop stop-color="#05D2DD" stop-opacity="0.3"/>
<stop offset="1" stop-color="#05D2DD" stop-opacity="0"/>
</linearGradient>
<linearGradient id="paint33_linear" x1="520" y1="310" x2="520" y2="573.11" gradientUnits="userSpaceOnUse">
<stop stop-color="#8F68FC" stop-opacity="0.15"/>
<stop offset="1" stop-color="#8F68FC" stop-opacity="0"/>
</linearGradient>
<linearGradient id="paint34_linear" x1="710" y1="416" x2="710" y2="679.11" gradientUnits="userSpaceOnUse">
<stop stop-color="#8F68FC" stop-opacity="0.15"/>
<stop offset="1" stop-color="#8F68FC" stop-opacity="0"/>
</linearGradient>
<linearGradient id="paint35_linear" x1="589" y1="219" x2="589" y2="304.005" gradientUnits="userSpaceOnUse">
<stop stop-color="#8F68FC" stop-opacity="0.15"/>
<stop offset="1" stop-color="#8F68FC" stop-opacity="0"/>
</linearGradient>
<linearGradient id="paint36_linear" x1="223" y1="310" x2="223" y2="482" gradientUnits="userSpaceOnUse">
<stop stop-color="#8F68FC" stop-opacity="0.15"/>
<stop offset="1" stop-color="#8F68FC" stop-opacity="0"/>
</linearGradient>
</defs>
</svg>
