<svg width="2243" height="206" viewBox="0 0 2243 206" fill="none" xmlns="http://www.w3.org/2000/svg">
<path d="M606.1 144.8L606.9 145.4L638.1 100.7L637.3 100.1L606.1 144.8ZM2214.3 94.7C2215.2 94.7 2216 94 2216 93.1V88.2C2216 87.3 2216.7 86.6 2217.6 86.6C2218.5 86.6 2219.2 87.3 2219.2 88.2V90.6C2219.2 91.5 2219.9 92.2 2220.9 92.2C2221.9 92.2 2222.5 91.5 2222.5 90.6V88.2C2222.5 87.3 2223.2 86.6 2224.2 86.6C2225.1 86.6 2225.8 87.3 2225.8 88.2V88.8C2225.8 89.7 2226.5 90.4 2227.4 90.4C2228.3 90.4 2229 89.7 2229 88.8V88.2C2229 87.3 2229.7 86.6 2230.6 86.6C2231.5 86.6 2232.2 87.3 2232.2 88.2V90.6C2232.2 91.5 2232.9 92.2 2233.8 92.2C2234.7 92.2 2235.4 91.5 2235.4 90.6V88.2C2235.4 87.3 2236.1 86.6 2237 86.6C2237.9 86.6 2238.6 87.3 2238.6 88.2V93.1C2238.6 94 2239.3 94.7 2240.2 94.7C2241.1 94.7 2241.8 94 2241.8 93.1V86.3L2242.7 64.9C2242.5 56.6 2235.8 50 2227.4 50C2219 50 2212.2 56.7 2212.1 64.9V93C2212.7 94 2213.4 94.7 2214.3 94.7ZM2233.5 61.1C2235 61.1 2236.2 62.5 2236.2 64.3C2236.2 66.1 2235 67.5 2233.5 67.5C2232 67.5 2230.8 66.1 2230.8 64.3C2230.8 62.5 2232 61.1 2233.5 61.1ZM2228 69.8C2229.4 69.8 2230.5 69.2 2230.5 70.2C2230.5 71.2 2229.4 72 2228 72C2226.6 72 2225.5 71.2 2225.5 70.2C2225.5 69.2 2226.6 69.8 2228 69.8ZM2222.2 61.1C2223.7 61.1 2224.9 62.5 2224.9 64.3C2224.9 66.1 2223.7 67.5 2222.2 67.5C2220.7 67.5 2219.5 66.1 2219.5 64.3C2219.5 62.5 2220.7 61.1 2222.2 61.1ZM534.6 100.7L565.8 145.4L566.6 144.8L535.4 100.2L534.6 100.7ZM657.7 49.8C649.4 49.8 642.5 56.5 642.4 64.7V92.8C642.4 93.7 643.1 94.4 644 94.4C644.9 94.4 645.6 93.7 645.6 92.8V87.9C645.6 87 646.3 86.3 647.2 86.3C648.1 86.3 648.8 87 648.8 87.9V90.3C648.8 91.2 649.5 91.9 650.4 91.9C651.3 91.9 652 91.2 652 90.3V87.9C652 87 652.7 86.3 653.6 86.3C654.5 86.3 655.2 87 655.2 87.9V88.5C655.2 89.4 655.9 90.1 656.8 90.1C657.7 90.1 658.4 89.4 658.4 88.5V87.9C658.4 87 659.1 86.3 660 86.3C660.9 86.3 661.6 87 661.6 87.9V90.3C661.6 91.2 662.3 91.9 663.2 91.9C664.1 91.9 664.8 91.2 664.8 90.3V87.9C664.8 87 665.5 86.3 666.4 86.3C667.3 86.3 668 87 668 87.9V92.8C668 93.7 668.7 94.4 669.6 94.4C670.5 94.4 671.2 93.7 671.2 92.8V86.1L672.1 64.7C672.7 56.4 666 49.8 657.7 49.8ZM652 67.2C650.5 67.2 649.3 65.8 649.3 64C649.3 62.2 650.5 60.8 652 60.8C653.5 60.8 654.7 62.2 654.7 64C654.7 65.8 653.5 67.2 652 67.2ZM657.8 71.7C656.4 71.7 655.3 70.9 655.3 69.9C655.3 68.9 656.4 69.5 657.8 69.5C659.2 69.5 660.3 68.9 660.3 69.9C660.3 70.9 659.2 71.7 657.8 71.7ZM663.3 67.2C661.8 67.2 660.6 65.8 660.6 64C660.6 62.2 661.8 60.8 663.3 60.8C664.8 60.8 666 62.2 666 64C666 65.8 664.8 67.2 663.3 67.2ZM638 44.7L606.8 0L606 0.6L637.1 45.3L638 44.7ZM586.3 152.2C577.9 152.2 571.1 158.9 571 167.1V195.2C571 196.1 571.7 196.8 572.6 196.8C573.5 196.8 574.2 196.1 574.2 195.2V190.1C574.2 189.2 574.9 188.5 575.8 188.5C576.7 188.5 577.4 189.2 577.4 190.1V192.5C577.4 193.4 578.1 194.1 579 194.1C579.9 194.1 580.6 193.4 580.6 192.5V190.1C580.6 189.2 581.3 188.5 582.2 188.5C583.1 188.5 583.8 189.2 583.8 190.1V190.7C583.8 191.6 584.5 192.3 585.4 192.3C586.3 192.3 587 191.6 587 190.7V190.1C587 189.2 587.7 188.5 588.6 188.5C589.5 188.5 590.2 189.2 590.2 190.1V192.5C590.2 193.4 590.9 194.1 591.8 194.1C592.7 194.1 593.4 193.4 593.4 192.5V190.1C593.4 189.2 594.1 188.5 595 188.5C595.9 188.5 596.6 189.2 596.6 190.1V195C596.6 195.9 597.3 196.6 598.2 196.6C599.1 196.6 599.8 195.9 599.8 195V188.3L600.7 167C601.3 158.8 594.6 152.2 586.3 152.2ZM580.6 169.6C579.1 169.6 577.9 168.2 577.9 166.4C577.9 164.6 579.1 163.2 580.6 163.2C582.1 163.2 583.3 164.6 583.3 166.4C583.3 168.2 582.2 169.6 580.6 169.6ZM586.4 173.9C585 173.9 583.9 173.1 583.9 172.1C583.9 171.2 585 171.7 586.4 171.7C587.8 171.7 588.9 171.1 588.9 172.1C588.9 173.1 587.8 173.9 586.4 173.9ZM591.9 169.6C590.4 169.6 589.2 168.2 589.2 166.4C589.2 164.6 590.4 163.2 591.9 163.2C593.4 163.2 594.6 164.6 594.6 166.4C594.6 168.2 593.4 169.6 591.9 169.6ZM852 0.7L851.2 0.1L820 44.8L820.8 45.4L852 0.7ZM566.5 0.7L565.7 0.1L534.5 44.8L535.3 45.4L566.5 0.7ZM144.3 196.8C145.2 196.8 145.9 196.1 145.9 195.2V190.1C145.9 189.2 146.6 188.5 147.5 188.5C148.4 188.5 149.1 189.2 149.1 190.1V192.5C149.1 193.4 149.8 194.1 150.7 194.1C151.6 194.1 152.3 193.4 152.3 192.5V190.1C152.3 189.2 153 188.5 153.9 188.5C154.8 188.5 155.5 189.2 155.5 190.1V190.7C155.5 191.6 156.2 192.3 157.1 192.3C158 192.3 158.7 191.6 158.7 190.7V190.1C158.7 189.2 159.4 188.5 160.3 188.5C161.2 188.5 161.9 189.2 161.9 190.1V192.5C161.9 193.4 162.6 194.1 163.5 194.1C164.4 194.1 165.1 193.4 165.1 192.5V190.1C165.1 189.2 165.8 188.5 166.7 188.5C167.6 188.5 168.3 189.2 168.3 190.1V195C168.3 195.9 169 196.6 169.9 196.6C170.8 196.6 171.5 195.9 171.5 195V188.3L172.4 167C172.2 158.7 165.5 152.1 157.1 152.1C148.7 152.1 141.9 158.8 141.8 167V195.1C142.6 196.1 143.4 196.8 144.3 196.8ZM163.6 163.2C165.1 163.2 166.3 164.6 166.3 166.4C166.3 168.2 165.1 169.6 163.6 169.6C162.1 169.6 160.9 168.2 160.9 166.4C160.9 164.6 162.1 163.2 163.6 163.2ZM158.1 171.8C159.5 171.8 160.6 171.2 160.6 172.2C160.6 173.1 159.5 174 158.1 174C156.7 174 155.6 173.2 155.6 172.2C155.6 171.2 156.6 171.8 158.1 171.8ZM152.3 163.2C153.8 163.2 155 164.6 155 166.4C155 168.2 153.8 169.6 152.3 169.6C150.8 169.6 149.6 168.2 149.6 166.4C149.6 164.6 150.8 163.2 152.3 163.2ZM423.7 0.7L422.9 0.1L391.7 44.8L392.5 45.4L423.7 0.7ZM300.7 152.2C292.3 152.2 285.5 158.9 285.4 167.1V195.2C285.4 196.1 286.1 196.8 287 196.8C287.9 196.8 288.6 196.1 288.6 195.2V190.1C288.6 189.2 289.3 188.5 290.2 188.5C291.1 188.5 291.8 189.2 291.8 190.1V192.5C291.8 193.4 292.5 194.1 293.4 194.1C294.3 194.1 295 193.4 295 192.5V190.1C295 189.2 295.7 188.5 296.6 188.5C297.5 188.5 298.2 189.2 298.2 190.1V190.7C298.2 191.6 298.9 192.3 299.8 192.3C300.7 192.3 301.4 191.6 301.4 190.7V190.1C301.4 189.2 302.1 188.5 303 188.5C303.9 188.5 304.6 189.2 304.6 190.1V192.5C304.6 193.4 305.3 194.1 306.2 194.1C307.1 194.1 307.8 193.4 307.8 192.5V190.1C307.8 189.2 308.5 188.5 309.4 188.5C310.3 188.5 311 189.2 311 190.1V195C311 195.9 311.7 196.6 312.6 196.6C313.5 196.6 314.2 195.9 314.2 195V188.3L315.1 167C315.8 158.8 309.1 152.2 300.7 152.2ZM295.1 169.6C293.6 169.6 292.4 168.2 292.4 166.4C292.4 164.6 293.6 163.2 295.1 163.2C296.6 163.2 297.8 164.6 297.8 166.4C297.8 168.2 296.6 169.6 295.1 169.6ZM300.8 173.9C299.4 173.9 298.3 173.1 298.3 172.1C298.3 171.2 299.4 171.7 300.8 171.7C302.2 171.7 303.3 171.1 303.3 172.1C303.3 173.1 302.2 173.9 300.8 173.9ZM306.4 169.6C304.9 169.6 303.7 168.2 303.7 166.4C303.7 164.6 304.9 163.2 306.4 163.2C307.9 163.2 309.1 164.6 309.1 166.4C309.1 168.2 307.9 169.6 306.4 169.6ZM106.2 100.7L137.4 145.4L138.2 144.8L107 100.1L106.2 100.7ZM320.5 144.8L321.3 145.4L352.5 100.7L351.7 100.1L320.5 144.8ZM106.2 44.8L107 45.4L138.2 0.7L137.4 0.1L106.2 44.8ZM320.5 0.7L351.7 45.4L352.5 44.8L321.4 0.1L320.5 0.7ZM177.8 0.6L209 45.4L209.8 44.8L178.6 0L177.8 0.6ZM229.3 49.8C221 49.8 214.1 56.5 214 64.7V92.8C214 93.7 214.7 94.4 215.6 94.4C216.5 94.4 217.2 93.7 217.2 92.8V87.9C217.2 87 217.9 86.3 218.8 86.3C219.7 86.3 220.4 87 220.4 87.9V90.3C220.4 91.2 221.1 91.9 222 91.9C222.9 91.9 223.6 91.2 223.6 90.3V87.9C223.6 87 224.3 86.3 225.2 86.3C226.1 86.3 226.8 87 226.8 87.9V88.5C226.8 89.4 227.5 90.1 228.4 90.1C229.3 90.1 230 89.4 230 88.5V87.9C230 87 230.7 86.3 231.6 86.3C232.5 86.3 233.2 87 233.2 87.9V90.3C233.2 91.2 233.9 91.9 234.8 91.9C235.7 91.9 236.4 91.2 236.4 90.3V87.9C236.4 87 237.1 86.3 238 86.3C238.9 86.3 239.6 87 239.6 87.9V92.8C239.6 93.7 240.3 94.4 241.2 94.4C242.1 94.4 242.8 93.7 242.8 92.8V86.1L243.7 64.7C244.4 56.4 237.7 49.8 229.3 49.8ZM223.7 67.2C222.2 67.2 221 65.8 221 64C221 62.2 222.2 60.8 223.7 60.8C225.2 60.8 226.4 62.2 226.4 64C226.4 65.8 225.2 67.2 223.7 67.2ZM229.4 71.7C228 71.7 226.9 70.9 226.9 69.9C226.9 68.9 228 69.5 229.4 69.5C230.8 69.5 231.9 68.9 231.9 69.9C231.9 70.9 230.9 71.7 229.4 71.7ZM235 67.2C233.5 67.2 232.3 65.8 232.3 64C232.3 62.2 233.5 60.8 235 60.8C236.5 60.8 237.7 62.2 237.7 64C237.7 65.8 236.5 67.2 235 67.2ZM249 100.7L280.2 145.4L281 144.8L249.8 100.1L249 100.7ZM249 44.8L249.8 45.4L281 0.7L280.2 0.1L249 44.8ZM177.8 144.8L178.6 145.4L209.8 100.7L209 100.1L177.8 144.8ZM443.5 152.2C435.1 152.2 428.3 158.9 428.2 167.1V195.2C428.2 196.1 428.9 196.8 429.8 196.8C430.7 196.8 431.4 196.1 431.4 195.2V190.1C431.4 189.2 432.1 188.5 433 188.5C433.9 188.5 434.6 189.2 434.6 190.1V192.5C434.6 193.4 435.3 194.1 436.2 194.1C437.1 194.1 437.8 193.4 437.8 192.5V190.1C437.8 189.2 438.5 188.5 439.4 188.5C440.3 188.5 441 189.2 441 190.1V190.7C441 191.6 441.7 192.3 442.6 192.3C443.5 192.3 444.2 191.6 444.2 190.7V190.1C444.2 189.2 444.9 188.5 445.8 188.5C446.7 188.5 447.4 189.2 447.4 190.1V192.5C447.4 193.4 448.1 194.1 449 194.1C449.9 194.1 450.6 193.4 450.6 192.5V190.1C450.6 189.2 451.3 188.5 452.2 188.5C453.1 188.5 453.8 189.2 453.8 190.1V195C453.8 195.9 454.5 196.6 455.4 196.6C456.3 196.6 457 195.9 457 195V188.3L457.9 167C458.5 158.8 451.8 152.2 443.5 152.2ZM437.9 169.6C436.4 169.6 435.2 168.2 435.2 166.4C435.2 164.6 436.4 163.2 437.9 163.2C439.4 163.2 440.6 164.6 440.6 166.4C440.6 168.2 439.4 169.6 437.9 169.6ZM443.6 173.9C442.2 173.9 441.1 173.1 441.1 172.1C441.1 171.2 442.2 171.7 443.6 171.7C445 171.7 446.1 171.1 446.1 172.1C446.1 173.1 445 173.9 443.6 173.9ZM449.1 169.6C447.6 169.6 446.4 168.2 446.4 166.4C446.4 164.6 447.6 163.2 449.1 163.2C450.6 163.2 451.8 164.6 451.8 166.4C451.8 168.2 450.7 169.6 449.1 169.6ZM72.9 94.5C73.8 94.5 74.5 93.8 74.5 92.9V88C74.5 87.1 75.2 86.4 76.1 86.4C77 86.4 77.7 87.1 77.7 88V90.4C77.7 91.3 78.4 92 79.3 92C80.2 92 80.9 91.3 80.9 90.4V88C80.9 87.1 81.6 86.4 82.5 86.4C83.4 86.4 84.1 87.1 84.1 88V88.6C84.1 89.5 84.8 90.2 85.7 90.2C86.6 90.2 87.3 89.5 87.3 88.6V88C87.3 87.1 88 86.4 88.9 86.4C89.8 86.4 90.5 87.1 90.5 88V90.4C90.5 91.3 91.2 92 92.1 92C93 92 93.7 91.3 93.7 90.4V88C93.7 87.1 94.4 86.4 95.3 86.4C96.2 86.4 96.9 87.1 96.9 88V92.9C96.9 93.8 97.6 94.5 98.5 94.5C99.4 94.5 100.1 93.8 100.1 92.9V86.2L101 64.8C100.8 56.5 94.1 49.9 85.7 49.9C77.3 49.9 70.5 56.6 70.4 64.8V92.9C71.3 93.8 72 94.5 72.9 94.5ZM92.2 60.8C93.7 60.8 94.9 62.2 94.9 64C94.9 65.8 93.7 67.2 92.2 67.2C90.7 67.2 89.5 65.8 89.5 64C89.5 62.2 90.7 60.8 92.2 60.8ZM86.7 69.5C88.1 69.5 89.2 68.9 89.2 69.9C89.2 70.9 88.1 71.7 86.7 71.7C85.3 71.7 84.2 70.9 84.2 69.9C84.2 68.9 85.3 69.5 86.7 69.5ZM80.9 60.8C82.4 60.8 83.6 62.2 83.6 64C83.6 65.8 82.4 67.2 80.9 67.2C79.4 67.2 78.2 65.8 78.2 64C78.2 62.2 79.4 60.8 80.9 60.8ZM514.9 49.8C506.5 49.8 499.7 56.5 499.6 64.7V92.8C499.6 93.7 500.3 94.4 501.2 94.4C502.1 94.4 502.8 93.7 502.8 92.8V87.9C502.8 87 503.5 86.3 504.4 86.3C505.3 86.3 506 87 506 87.9V90.3C506 91.2 506.7 91.9 507.6 91.9C508.5 91.9 509.2 91.2 509.2 90.3V87.9C509.2 87 509.9 86.3 510.8 86.3C511.7 86.3 512.4 87 512.4 87.9V88.5C512.4 89.4 513.1 90.1 514 90.1C514.9 90.1 515.6 89.4 515.6 88.5V87.9C515.6 87 516.3 86.3 517.2 86.3C518.1 86.3 518.8 87 518.8 87.9V90.3C518.8 91.2 519.5 91.9 520.4 91.9C521.3 91.9 522 91.2 522 90.3V87.9C522 87 522.7 86.3 523.6 86.3C524.5 86.3 525.2 87 525.2 87.9V92.8C525.2 93.7 525.9 94.4 526.8 94.4C527.7 94.4 528.4 93.7 528.4 92.8V86.1L529.3 64.7C529.9 56.4 523.2 49.8 514.9 49.8ZM509.2 67.2C507.7 67.2 506.5 65.8 506.5 64C506.5 62.2 507.7 60.8 509.2 60.8C510.7 60.8 511.9 62.2 511.9 64C511.9 65.8 510.8 67.2 509.2 67.2ZM515 71.7C513.6 71.7 512.5 70.9 512.5 69.9C512.5 68.9 513.6 69.5 515 69.5C516.4 69.5 517.5 68.9 517.5 69.9C517.5 70.9 516.4 71.7 515 71.7ZM520.5 67.2C519 67.2 517.8 65.8 517.8 64C517.8 62.2 519 60.8 520.5 60.8C522 60.8 523.2 62.2 523.2 64C523.2 65.8 522.1 67.2 520.5 67.2ZM463.3 144.8L464.1 145.4L495.3 100.7L494.5 100.1L463.3 144.8ZM463.3 0.7L494.5 45.4L495.3 44.8L464.1 0.1L463.3 0.7ZM372.1 49.8C363.8 49.8 356.9 56.5 356.8 64.7V92.8C356.8 93.7 357.5 94.4 358.4 94.4C359.3 94.4 360 93.7 360 92.8V87.9C360 87 360.7 86.3 361.6 86.3C362.5 86.3 363.2 87 363.2 87.9V90.3C363.2 91.2 363.9 91.9 364.8 91.9C365.7 91.9 366.4 91.2 366.4 90.3V87.9C366.4 87 367.1 86.3 368 86.3C368.9 86.3 369.6 87 369.6 87.9V88.5C369.6 89.4 370.3 90.1 371.2 90.1C372.1 90.1 372.8 89.4 372.8 88.5V87.9C372.8 87 373.5 86.3 374.4 86.3C375.3 86.3 376 87 376 87.9V90.3C376 91.2 376.7 91.9 377.6 91.9C378.5 91.9 379.2 91.2 379.2 90.3V87.9C379.2 87 379.9 86.3 380.8 86.3C381.7 86.3 382.4 87 382.4 87.9V92.8C382.4 93.7 383.1 94.4 384 94.4C384.9 94.4 385.6 93.7 385.6 92.8V86.1L386.5 64.7C387.2 56.4 380.5 49.8 372.1 49.8ZM366.5 67.2C365 67.2 363.8 65.8 363.8 64C363.8 62.2 365 60.8 366.5 60.8C368 60.8 369.2 62.2 369.2 64C369.2 65.8 368 67.2 366.5 67.2ZM372.2 71.7C370.8 71.7 369.7 70.9 369.7 69.9C369.7 68.9 370.8 69.5 372.2 69.5C373.6 69.5 374.7 68.9 374.7 69.9C374.7 70.9 373.6 71.7 372.2 71.7ZM377.8 67.2C376.3 67.2 375.1 65.8 375.1 64C375.1 62.2 376.3 60.8 377.8 60.8C379.3 60.8 380.5 62.2 380.5 64C380.5 65.8 379.3 67.2 377.8 67.2ZM35 0.7L66.2 45.4L67 44.8L35.8 0.1L35 0.7ZM35 144.8L35.8 145.4L67 100.7L66.2 100.1L35 144.8ZM15.3 152.2C6.9 152.2 0.1 158.9 0 167.1V195.2C0 196.1 0.7 196.8 1.6 196.8C2.5 196.8 3.2 196.1 3.2 195.2V190.1C3.2 189.2 3.9 188.5 4.8 188.5C5.7 188.5 6.4 189.2 6.4 190.1V192.5C6.4 193.4 7.1 194.1 8 194.1C8.9 194.1 9.6 193.4 9.6 192.5V190.1C9.6 189.2 10.3 188.5 11.2 188.5C12.1 188.5 12.8 189.2 12.8 190.1V190.7C12.8 191.6 13.5 192.3 14.4 192.3C15.3 192.3 16 191.6 16 190.7V190.1C16 189.2 16.7 188.5 17.6 188.5C18.5 188.5 19.2 189.2 19.2 190.1V192.5C19.2 193.4 19.9 194.1 20.8 194.1C21.7 194.1 22.4 193.4 22.4 192.5V190.1C22.4 189.2 23.1 188.5 24 188.5C24.9 188.5 25.6 189.2 25.6 190.1V195C25.6 195.9 26.3 196.6 27.2 196.6C28.1 196.6 28.8 195.9 28.8 195V188.3L29.7 167C30.3 158.8 23.6 152.2 15.3 152.2ZM9.5 169.6C8 169.6 6.8 168.2 6.8 166.4C6.8 164.6 8 163.2 9.5 163.2C11 163.2 12.2 164.6 12.2 166.4C12.2 168.2 11 169.6 9.5 169.6ZM15.3 173.9C13.9 173.9 12.8 173.1 12.8 172.1C12.8 171.2 13.9 171.7 15.3 171.7C16.7 171.7 17.8 171.1 17.8 172.1C17.7 173.1 16.7 173.9 15.3 173.9ZM20.8 169.6C19.3 169.6 18.1 168.2 18.1 166.4C18.1 164.6 19.3 163.2 20.8 163.2C22.3 163.2 23.5 164.6 23.5 166.4C23.5 168.2 22.3 169.6 20.8 169.6ZM391.8 100.7L423 145.4L423.8 144.8L392.6 100.1L391.8 100.7ZM1728.3 152.4C1720 152.4 1713.1 159.1 1713 167.3V195.4C1713 196.3 1713.7 197 1714.6 197C1715.6 197 1716.3 196.3 1716.3 195.4V190.5C1716.3 189.6 1717 188.9 1718 188.9C1718.9 188.9 1719.6 189.6 1719.6 190.5V192.9C1719.6 193.8 1720.3 194.5 1721.3 194.5C1722.2 194.5 1722.9 193.8 1722.9 192.9V190.5C1722.9 189.6 1723.6 188.9 1724.5 188.9C1725.4 188.9 1726.2 189.6 1726.2 190.5V191.1C1726.2 192 1726.9 192.7 1727.9 192.7C1728.8 192.7 1729.5 192 1729.5 191.1V190.5C1729.5 189.6 1730.2 188.9 1731.1 188.9C1732 188.9 1732.8 189.6 1732.8 190.5V192.9C1732.8 193.8 1733.5 194.5 1734.4 194.5C1735.3 194.5 1736.1 193.8 1736.1 192.9V190.5C1736.1 189.6 1736.8 188.9 1737.8 188.9C1738.7 188.9 1739.4 189.6 1739.4 190.5V195.4C1739.4 196.3 1740.1 197 1741 197C1741.9 197 1742.7 196.3 1742.7 195.4V188.7L1743.6 167.3C1743.3 159 1736.6 152.4 1728.3 152.4ZM1722.5 169.8C1721 169.8 1719.8 168.4 1719.8 166.6C1719.8 164.8 1721 163.4 1722.5 163.4C1724 163.4 1725.2 164.8 1725.2 166.6C1725.3 168.4 1724 169.8 1722.5 169.8ZM1728.3 174.2C1726.9 174.2 1725.8 173.4 1725.8 172.4C1725.8 171.4 1726.9 172 1728.3 172C1729.7 172 1730.8 171.4 1730.8 172.4C1730.8 173.4 1729.7 174.2 1728.3 174.2ZM1733.9 169.8C1732.4 169.8 1731.2 168.4 1731.2 166.6C1731.2 164.8 1732.4 163.4 1733.9 163.4C1735.4 163.4 1736.6 164.8 1736.6 166.6C1736.6 168.4 1735.3 169.8 1733.9 169.8ZM1676.5 45L1677.3 45.6L1708.4 0.9L1707.6 0.3L1676.5 45ZM1676.5 101L1707.7 145.7L1708.5 145.1L1677.3 100.4L1676.5 101ZM1819.2 101L1850.4 145.7L1851.2 145.1L1820 100.4L1819.2 101ZM1819.2 45L1820 45.6L1851.2 0.9L1850.4 0.3L1819.2 45ZM1748 0.9L1779.2 45.6L1780 45L1748.8 0.3L1748 0.9ZM1748 145.1L1748.8 145.7L1780 101L1779.2 100.4L1748 145.1ZM1799.7 50C1791.4 50 1784.5 56.7 1784.4 64.9V93C1784.4 93.9 1785.1 94.6 1786 94.6C1786.9 94.6 1787.7 93.9 1787.7 93V88.1C1787.7 87.2 1788.4 86.5 1789.4 86.5C1790.3 86.5 1791 87.2 1791 88.1V90.5C1791 91.4 1791.7 92.1 1792.6 92.1C1793.5 92.1 1794.3 91.4 1794.3 90.5V88.1C1794.3 87.2 1795 86.5 1795.9 86.5C1796.8 86.5 1797.6 87.2 1797.6 88.1V88.7C1797.6 89.6 1798.3 90.3 1799.3 90.3C1800.2 90.3 1800.9 89.6 1800.9 88.7V88.1C1800.9 87.2 1801.6 86.5 1802.5 86.5C1803.4 86.5 1804.2 87.2 1804.2 88.1V90.5C1804.2 91.4 1804.9 92.1 1805.8 92.1C1806.7 92.1 1807.5 91.4 1807.5 90.5V88.1C1807.5 87.2 1808.2 86.5 1809.2 86.5C1810.1 86.5 1810.8 87.2 1810.8 88.1V93C1810.8 93.9 1811.5 94.6 1812.4 94.6C1813.3 94.6 1814.1 93.9 1814.1 93V86.3L1815 64.9C1814.7 56.6 1808 50 1799.7 50ZM1793.9 67.4C1792.4 67.4 1791.2 66 1791.2 64.2C1791.2 62.4 1792.4 61 1793.9 61C1795.4 61 1796.6 62.4 1796.6 64.2C1796.6 66 1795.4 67.4 1793.9 67.4ZM1799.7 71.9C1798.3 71.9 1797.2 71.1 1797.2 70.1C1797.2 69.1 1798.3 69.7 1799.7 69.7C1801.1 69.7 1802.2 69.1 1802.2 70.1C1802.2 71.1 1801.1 71.9 1799.7 71.9ZM1805.2 67.4C1803.7 67.4 1802.5 66 1802.5 64.2C1802.5 62.4 1803.7 61 1805.2 61C1806.7 61 1807.9 62.4 1807.9 64.2C1807.9 66 1806.7 67.4 1805.2 67.4ZM1605.2 145.1L1606 145.7L1637.2 101L1636.4 100.4L1605.2 145.1ZM1533.7 45L1534.5 45.6L1565.7 0.9L1564.9 0.3L1533.7 45ZM1533.7 101L1564.9 145.7L1565.7 145.1L1534.5 100.4L1533.7 101ZM1462.4 145.1L1463.2 145.7L1494.4 101L1493.6 100.4L1462.4 145.1ZM1462.4 0.9L1493.6 45.6L1494.4 45L1463.2 0.3L1462.4 0.9ZM1514.1 50C1505.8 50 1498.9 56.7 1498.8 64.9V93C1498.8 93.9 1499.5 94.6 1500.5 94.6C1501.4 94.6 1502.1 93.9 1502.1 93V88.1C1502.1 87.2 1502.8 86.5 1503.8 86.5C1504.7 86.5 1505.5 87.2 1505.5 88.1V90.5C1505.5 91.4 1506.2 92.1 1507.1 92.1C1508 92.1 1508.8 91.4 1508.8 90.5V88.1C1508.8 87.2 1509.5 86.5 1510.4 86.5C1511.3 86.5 1512 87.2 1512 88.1V88.7C1512 89.6 1512.7 90.3 1513.7 90.3C1514.6 90.3 1515.4 89.6 1515.4 88.7V88.1C1515.4 87.2 1516.1 86.5 1517 86.5C1517.9 86.5 1518.7 87.2 1518.7 88.1V90.5C1518.7 91.4 1519.4 92.1 1520.3 92.1C1521.2 92.1 1521.9 91.4 1521.9 90.5V88.1C1521.9 87.2 1522.6 86.5 1523.6 86.5C1524.5 86.5 1525.3 87.2 1525.3 88.1V93C1525.3 93.9 1526 94.6 1526.9 94.6C1527.8 94.6 1528.6 93.9 1528.6 93V86.3L1529.5 64.9C1529.2 56.6 1522.5 50 1514.1 50ZM1508.3 67.4C1506.8 67.4 1505.6 66 1505.6 64.2C1505.6 62.4 1506.8 61 1508.3 61C1509.8 61 1511 62.4 1511 64.2C1511 66 1509.9 67.4 1508.3 67.4ZM1514.2 71.9C1512.8 71.9 1511.7 71.1 1511.7 70.1C1511.7 69.1 1512.8 69.7 1514.2 69.7C1515.6 69.7 1516.7 69.1 1516.7 70.1C1516.7 71.1 1515.5 71.9 1514.2 71.9ZM1519.7 67.4C1518.2 67.4 1517 66 1517 64.2C1517 62.4 1518.2 61 1519.7 61C1521.2 61 1522.4 62.4 1522.4 64.2C1522.4 66 1521.2 67.4 1519.7 67.4ZM1605.2 0.9L1636.4 45.6L1637.2 45L1606 0.3L1605.2 0.9ZM1656.9 50C1648.6 50 1641.7 56.7 1641.6 64.9V93C1641.6 93.9 1642.3 94.6 1643.3 94.6C1644.2 94.6 1644.9 93.9 1644.9 93V88.1C1644.9 87.2 1645.6 86.5 1646.6 86.5C1647.5 86.5 1648.3 87.2 1648.3 88.1V90.5C1648.3 91.4 1649 92.1 1649.9 92.1C1650.8 92.1 1651.5 91.4 1651.5 90.5V88.1C1651.5 87.2 1652.2 86.5 1653.1 86.5C1654.1 86.5 1654.8 87.2 1654.8 88.1V88.7C1654.8 89.6 1655.5 90.3 1656.5 90.3C1657.4 90.3 1658.1 89.6 1658.1 88.7V88.1C1658.1 87.2 1658.8 86.5 1659.8 86.5C1660.7 86.5 1661.4 87.2 1661.4 88.1V90.5C1661.4 91.4 1662.1 92.1 1663 92.1C1663.9 92.1 1664.7 91.4 1664.7 90.5V88.1C1664.7 87.2 1665.4 86.5 1666.4 86.5C1667.3 86.5 1668 87.2 1668 88.1V93C1668 93.9 1668.7 94.6 1669.7 94.6C1670.6 94.6 1671.3 93.9 1671.3 93V86.3L1672.2 64.9C1671.9 56.6 1665.2 50 1656.9 50ZM1651.1 67.4C1649.6 67.4 1648.4 66 1648.4 64.2C1648.4 62.4 1649.6 61 1651.1 61C1652.6 61 1653.8 62.4 1653.8 64.2C1653.8 66 1652.6 67.4 1651.1 67.4ZM1657 71.9C1655.6 71.9 1654.5 71.1 1654.5 70.1C1654.5 69.1 1655.6 69.7 1657 69.7C1658.4 69.7 1659.5 69.1 1659.5 70.1C1659.5 71.1 1658.3 71.9 1657 71.9ZM1662.5 67.4C1661 67.4 1659.8 66 1659.8 64.2C1659.8 62.4 1661 61 1662.5 61C1664 61 1665.2 62.4 1665.2 64.2C1665.2 66 1663.9 67.4 1662.5 67.4ZM1585.5 152.4C1577.2 152.4 1570.3 159.1 1570.2 167.3V195.4C1570.2 196.3 1570.9 197 1571.8 197C1572.7 197 1573.4 196.3 1573.4 195.4V190.5C1573.4 189.6 1574.1 188.9 1575.1 188.9C1576 188.9 1576.8 189.6 1576.8 190.5V192.9C1576.8 193.8 1577.5 194.5 1578.4 194.5C1579.3 194.5 1580.1 193.8 1580.1 192.9V190.5C1580.1 189.6 1580.8 188.9 1581.7 188.9C1582.6 188.9 1583.3 189.6 1583.3 190.5V191.1C1583.3 192 1584 192.7 1585 192.7C1585.9 192.7 1586.7 192 1586.7 191.1V190.5C1586.7 189.6 1587.4 188.9 1588.3 188.9C1589.2 188.9 1590 189.6 1590 190.5V192.9C1590 193.8 1590.7 194.5 1591.6 194.5C1592.6 194.5 1593.3 193.8 1593.3 192.9V190.5C1593.3 189.6 1594 188.9 1595 188.9C1596 188.9 1596.6 189.6 1596.6 190.5V195.4C1596.6 196.3 1597.3 197 1598.3 197C1599.2 197 1599.9 196.3 1599.9 195.4V188.7L1600.8 167.3C1600.5 159 1593.8 152.4 1585.5 152.4ZM1579.7 169.8C1578.2 169.8 1577 168.4 1577 166.6C1577 164.8 1578.2 163.4 1579.7 163.4C1581.2 163.4 1582.4 164.8 1582.4 166.6C1582.6 168.4 1581.2 169.8 1579.7 169.8ZM1585.6 174.2C1584.2 174.2 1583.1 173.4 1583.1 172.4C1583.1 171.4 1584.2 172 1585.6 172C1587 172 1588.1 171.4 1588.1 172.4C1588.1 173.4 1586.9 174.2 1585.6 174.2ZM1591.1 169.8C1589.6 169.8 1588.4 168.4 1588.4 166.6C1588.4 164.8 1589.6 163.4 1591.1 163.4C1592.6 163.4 1593.8 164.8 1593.8 166.6C1593.8 168.4 1592.6 169.8 1591.1 169.8ZM2104.8 45L2105.6 45.6L2136.8 0.9L2136 0.3L2104.8 45ZM2104.8 101L2136 145.7L2136.8 145.1L2105.6 100.4L2104.8 101ZM2033.5 145.1L2034.3 145.7L2065.5 101L2064.7 100.4L2033.5 145.1ZM2085.2 50C2076.8 50 2070 56.7 2069.9 64.9V93C2069.9 93.9 2070.6 94.6 2071.5 94.6C2072.4 94.6 2073.2 93.9 2073.2 93V88.1C2073.2 87.2 2073.9 86.5 2074.8 86.5C2075.7 86.5 2076.5 87.2 2076.5 88.1V90.5C2076.5 91.4 2077.2 92.1 2078.1 92.1C2079 92.1 2079.7 91.4 2079.7 90.5V88.1C2079.7 87.2 2080.4 86.5 2081.4 86.5C2082.4 86.5 2083 87.2 2083 88.1V88.7C2083 89.6 2083.7 90.3 2084.6 90.3C2085.5 90.3 2086.2 89.6 2086.2 88.7V88.1C2086.2 87.2 2086.9 86.5 2087.8 86.5C2088.7 86.5 2089.4 87.2 2089.4 88.1V90.5C2089.4 91.4 2090.1 92.1 2091 92.1C2091.9 92.1 2092.7 91.4 2092.7 90.5V88.1C2092.7 87.2 2093.4 86.5 2094.3 86.5C2095.2 86.5 2096 87.2 2096 88.1V93C2096 93.9 2096.7 94.6 2097.6 94.6C2098.5 94.6 2099.2 93.9 2099.2 93V86.3L2100.1 64.9C2100.3 56.6 2093.6 50 2085.2 50ZM2079.5 67.4C2078 67.4 2076.8 66 2076.8 64.2C2076.8 62.4 2078 61 2079.5 61C2081 61 2082.2 62.4 2082.2 64.2C2082.2 66 2081 67.4 2079.5 67.4ZM2085.2 71.9C2083.8 71.9 2082.7 71.1 2082.7 70.1C2082.7 69.1 2083.8 69.7 2085.2 69.7C2086.6 69.7 2087.7 69.1 2087.7 70.1C2087.7 71.1 2086.6 71.9 2085.2 71.9ZM2090.7 67.4C2089.2 67.4 2088 66 2088 64.2C2088 62.4 2089.2 61 2090.7 61C2092.2 61 2093.4 62.4 2093.4 64.2C2093.4 66 2092.3 67.4 2090.7 67.4ZM2176.3 145.1L2177.1 145.7L2208.3 101L2207.5 100.4L2176.3 145.1ZM2176.3 0.9L2207.5 45.6L2208.3 45L2177.1 0.3L2176.3 0.9ZM2156.6 152.4C2148.3 152.4 2141.4 159.1 2141.3 167.3V195.4C2141.3 196.3 2142 197 2143 197C2144 197 2144.6 196.3 2144.6 195.4V190.5C2144.6 189.6 2145.3 188.9 2146.2 188.9C2147.1 188.9 2147.8 189.6 2147.8 190.5V192.9C2147.8 193.8 2148.5 194.5 2149.4 194.5C2150.3 194.5 2151 193.8 2151 192.9V190.5C2151 189.6 2151.7 188.9 2152.6 188.9C2153.5 188.9 2154.3 189.6 2154.3 190.5V191.1C2154.3 192 2155 192.7 2155.9 192.7C2156.8 192.7 2157.5 192 2157.5 191.1V190.5C2157.5 189.6 2158.2 188.9 2159.2 188.9C2160.2 188.9 2160.8 189.6 2160.8 190.5V192.9C2160.8 193.8 2161.5 194.5 2162.5 194.5C2163.4 194.5 2164.1 193.8 2164.1 192.9V190.5C2164.1 189.6 2164.8 188.9 2165.7 188.9C2166.6 188.9 2167.3 189.6 2167.3 190.5V195.4C2167.3 196.3 2168 197 2168.9 197C2169.8 197 2170.5 196.3 2170.5 195.4V188.7L2171.4 167.3C2171.7 159 2165 152.4 2156.6 152.4ZM2150.8 169.8C2149.3 169.8 2148.1 168.4 2148.1 166.6C2148.1 164.8 2149.3 163.4 2150.8 163.4C2152.3 163.4 2153.5 164.8 2153.5 166.6C2153.5 168.4 2152.4 169.8 2150.8 169.8ZM2156.6 174.2C2155.2 174.2 2154.1 173.4 2154.1 172.4C2154.1 171.4 2155.2 172 2156.6 172C2158 172 2159.1 171.4 2159.1 172.4C2159.1 173.4 2158 174.2 2156.6 174.2ZM2162.1 169.8C2160.6 169.8 2159.4 168.4 2159.4 166.6C2159.4 164.8 2160.6 163.4 2162.1 163.4C2163.6 163.4 2164.8 164.8 2164.8 166.6C2165 168.4 2163.7 169.8 2162.1 169.8ZM2033.5 0.9L2064.7 45.6L2065.5 45L2034.4 0.4L2033.5 0.9ZM1890.7 145.1L1891.5 145.7L1922.7 101L1921.9 100.4L1890.7 145.1ZM1890.7 0.9L1921.9 45.6L1922.7 45L1891.5 0.3L1890.7 0.9ZM1942.4 50C1934 50 1927.2 56.7 1927.1 64.9V93C1927.1 93.9 1927.8 94.6 1928.7 94.6C1929.6 94.6 1930.4 93.9 1930.4 93V88.1C1930.4 87.2 1931.1 86.5 1932 86.5C1932.9 86.5 1933.6 87.2 1933.6 88.1V90.5C1933.6 91.4 1934.3 92.1 1935.3 92.1C1936.2 92.1 1937 91.4 1937 90.5V88.1C1937 87.2 1937.7 86.5 1938.6 86.5C1939.5 86.5 1940.3 87.2 1940.3 88.1V88.7C1940.3 89.6 1941 90.3 1941.9 90.3C1942.8 90.3 1943.5 89.6 1943.5 88.7V88.1C1943.5 87.2 1944.2 86.5 1945.2 86.5C1946.1 86.5 1946.8 87.2 1946.8 88.1V90.5C1946.8 91.4 1947.5 92.1 1948.5 92.1C1949.4 92.1 1950.2 91.4 1950.2 90.5V88.1C1950.2 87.2 1950.9 86.5 1951.8 86.5C1952.8 86.5 1953.5 87.2 1953.5 88.1V93C1953.5 93.9 1954.2 94.6 1955.2 94.6C1956.1 94.6 1956.8 93.9 1956.8 93V86.3L1957.7 64.9C1957.5 56.6 1950.8 50 1942.4 50ZM1936.7 67.4C1935.2 67.4 1934 66 1934 64.2C1934 62.4 1935.2 61 1936.7 61C1938.2 61 1939.4 62.4 1939.4 64.2C1939.4 66 1938.2 67.4 1936.7 67.4ZM1942.4 71.9C1941 71.9 1939.9 71.1 1939.9 70.1C1939.9 69.1 1941 69.7 1942.4 69.7C1943.8 69.7 1944.9 69.1 1944.9 70.1C1944.9 71.1 1943.8 71.9 1942.4 71.9ZM1948 67.4C1946.5 67.4 1945.3 66 1945.3 64.2C1945.3 62.4 1946.5 61 1948 61C1949.5 61 1950.7 62.4 1950.7 64.2C1950.7 66 1949.5 67.4 1948 67.4ZM1871.1 152.4C1862.8 152.4 1855.9 159.1 1855.8 167.3V195.4C1855.8 196.3 1856.5 197 1857.4 197C1858.3 197 1859.1 196.3 1859.1 195.4V190.5C1859.1 189.6 1859.8 188.9 1860.8 188.9C1861.7 188.9 1862.4 189.6 1862.4 190.5V192.9C1862.4 193.8 1863.1 194.5 1864.1 194.5C1865 194.5 1865.8 193.8 1865.8 192.9V190.5C1865.8 189.6 1866.5 188.9 1867.4 188.9C1868.3 188.9 1869.1 189.6 1869.1 190.5V191.1C1869.1 192 1869.8 192.7 1870.8 192.7C1871.7 192.7 1872.4 192 1872.4 191.1V190.5C1872.4 189.6 1873.1 188.9 1874.1 188.9C1875 188.9 1875.8 189.6 1875.8 190.5V192.9C1875.8 193.8 1876.5 194.5 1877.4 194.5C1878.3 194.5 1879.1 193.8 1879.1 192.9V190.5C1879.1 189.6 1879.8 188.9 1880.7 188.9C1881.6 188.9 1882.3 189.6 1882.3 190.5V195.4C1882.3 196.3 1883 197 1884 197C1884.9 197 1885.6 196.3 1885.6 195.4V188.7L1886.5 167.3C1886.1 159 1879.4 152.4 1871.1 152.4ZM1865.3 169.8C1863.8 169.8 1862.6 168.4 1862.6 166.6C1862.6 164.8 1863.8 163.4 1865.3 163.4C1866.8 163.4 1868 164.8 1868 166.6C1868.1 168.4 1866.8 169.8 1865.3 169.8ZM1871.1 174.2C1869.7 174.2 1868.6 173.4 1868.6 172.4C1868.6 171.4 1869.6 172 1871.1 172C1872.5 172 1873.6 171.4 1873.6 172.4C1873.6 173.4 1872.5 174.2 1871.1 174.2ZM1876.6 169.8C1875.1 169.8 1873.9 168.4 1873.9 166.6C1873.9 164.8 1875.1 163.4 1876.6 163.4C1878.1 163.4 1879.3 164.8 1879.3 166.6C1879.4 168.4 1878.1 169.8 1876.6 169.8ZM2013.8 152.4C2005.4 152.4 1998.6 159.1 1998.5 167.3V195.4C1998.5 196.3 1999.2 197 2000.1 197C2001 197 2001.8 196.3 2001.8 195.4V190.5C2001.8 189.6 2002.5 188.9 2003.4 188.9C2004.3 188.9 2005 189.6 2005 190.5V192.9C2005 193.8 2005.7 194.5 2006.7 194.5C2007.6 194.5 2008.3 193.8 2008.3 192.9V190.5C2008.3 189.6 2009 188.9 2010 188.9C2010.9 188.9 2011.7 189.6 2011.7 190.5V191.1C2011.7 192 2012.4 192.7 2013.3 192.7C2014.3 192.7 2015 192 2015 191.1V190.5C2015 189.6 2015.7 188.9 2016.7 188.9C2017.7 188.9 2018.3 189.6 2018.3 190.5V192.9C2018.3 193.8 2019 194.5 2020 194.5C2020.9 194.5 2021.6 193.8 2021.6 192.9V190.5C2021.6 189.6 2022.3 188.9 2023.2 188.9C2024.1 188.9 2024.9 189.6 2024.9 190.5V195.4C2024.9 196.3 2025.6 197 2026.6 197C2027.5 197 2028.2 196.3 2028.2 195.4V188.7L2029.1 167.3C2028.9 159 2022.2 152.4 2013.8 152.4ZM2008.1 169.8C2006.6 169.8 2005.4 168.4 2005.4 166.6C2005.4 164.8 2006.6 163.4 2008.1 163.4C2009.6 163.4 2010.8 164.8 2010.8 166.6C2010.8 168.4 2009.6 169.8 2008.1 169.8ZM2013.8 174.2C2012.4 174.2 2011.3 173.4 2011.3 172.4C2011.3 171.4 2012.4 172 2013.8 172C2015.2 172 2016.3 171.4 2016.3 172.4C2016.3 173.4 2015.2 174.2 2013.8 174.2ZM2019.3 169.8C2017.8 169.8 2016.6 168.4 2016.6 166.6C2016.6 164.8 2017.8 163.4 2019.3 163.4C2020.8 163.4 2022 164.8 2022 166.6C2022.2 168.4 2020.9 169.8 2019.3 169.8ZM1962 101L1993.2 145.7L1994 145.1L1962.8 100.4L1962 101ZM1962 45L1962.8 45.6L1994 0.9L1993.2 0.3L1962 45ZM962.9 44.7L963.7 45.3L994.9 0.6L994.1 0L962.9 44.7ZM962.9 100.7L994.1 145.4L994.9 144.8L963.7 100.1L962.9 100.7ZM891.6 0.7L922.8 45.4L923.6 44.8L892.5 0.1L891.6 0.7ZM923.5 100.7L922.7 100.1L891.5 144.8L892.3 145.4L923.5 100.7ZM943.2 49.8C934.8 49.8 928 56.5 927.9 64.7V92.8C927.9 93.7 928.6 94.4 929.5 94.4C930.4 94.4 931.1 93.7 931.1 92.8V87.9C931.1 87 931.8 86.3 932.7 86.3C933.6 86.3 934.3 87 934.3 87.9V90.3C934.3 91.2 935 91.9 935.9 91.9C936.8 91.9 937.5 91.2 937.5 90.3V87.9C937.5 87 938.2 86.3 939.1 86.3C940 86.3 940.7 87 940.7 87.9V88.5C940.7 89.4 941.4 90.1 942.3 90.1C943.2 90.1 943.9 89.4 943.9 88.5V87.9C943.9 87 944.6 86.3 945.5 86.3C946.4 86.3 947.1 87 947.1 87.9V90.3C947.1 91.2 947.8 91.9 948.7 91.9C949.6 91.9 950.3 91.2 950.3 90.3V87.9C950.3 87 951 86.3 951.9 86.3C952.8 86.3 953.5 87 953.5 87.9V92.8C953.5 93.7 954.2 94.4 955.1 94.4C956 94.4 956.7 93.7 956.7 92.8V86.1L957.6 64.7C958.3 56.4 951.6 49.8 943.2 49.8ZM937.6 67.2C936.1 67.2 934.9 65.8 934.9 64C934.9 62.2 936.1 60.8 937.6 60.8C939.1 60.8 940.3 62.2 940.3 64C940.3 65.8 939.1 67.2 937.6 67.2ZM943.3 71.7C941.9 71.7 940.8 70.9 940.8 69.9C940.8 68.9 941.9 69.5 943.3 69.5C944.7 69.5 945.8 68.9 945.8 69.9C945.8 70.9 944.7 71.7 943.3 71.7ZM948.9 67.2C947.4 67.2 946.2 65.8 946.2 64C946.2 62.2 947.4 60.8 948.9 60.8C950.4 60.8 951.6 62.2 951.6 64C951.6 65.8 950.4 67.2 948.9 67.2ZM1086 49.8C1077.7 49.8 1070.8 56.5 1070.7 64.7V92.8C1070.7 93.7 1071.4 94.4 1072.3 94.4C1073.2 94.4 1073.9 93.7 1073.9 92.8V87.9C1073.9 87 1074.6 86.3 1075.6 86.3C1076.6 86.3 1077.3 87 1077.3 87.9V90.3C1077.3 91.2 1078 91.9 1078.9 91.9C1079.8 91.9 1080.5 91.2 1080.5 90.3V87.9C1080.5 87 1081.2 86.3 1082.2 86.3C1083.1 86.3 1083.8 87 1083.8 87.9V88.5C1083.8 89.4 1084.5 90.1 1085.5 90.1C1086.4 90.1 1087.2 89.4 1087.2 88.5V87.9C1087.2 87 1087.9 86.3 1088.8 86.3C1089.7 86.3 1090.4 87 1090.4 87.9V90.3C1090.4 91.2 1091.1 91.9 1092 91.9C1093 91.9 1093.7 91.2 1093.7 90.3V87.9C1093.7 87 1094.4 86.3 1095.4 86.3C1096.3 86.3 1097 87 1097 87.9V92.8C1097 93.7 1097.7 94.4 1098.7 94.4C1099.6 94.4 1100.3 93.7 1100.3 92.8V86.1L1101.2 64.7C1101.1 56.4 1094.3 49.8 1086 49.8ZM1080.3 67.2C1078.8 67.2 1077.6 65.8 1077.6 64C1077.6 62.2 1078.8 60.8 1080.3 60.8C1081.8 60.8 1083 62.2 1083 64C1083 65.8 1081.9 67.2 1080.3 67.2ZM1086.1 71.7C1084.7 71.7 1083.6 70.9 1083.6 69.9C1083.6 68.9 1084.7 69.5 1086.1 69.5C1087.5 69.5 1088.6 68.9 1088.6 69.9C1088.6 70.9 1087.5 71.7 1086.1 71.7ZM1091.6 67.2C1090.1 67.2 1088.9 65.8 1088.9 64C1088.9 62.2 1090.1 60.8 1091.6 60.8C1093.1 60.8 1094.3 62.2 1094.3 64C1094.3 65.8 1093.2 67.2 1091.6 67.2ZM1014.6 152.2C1006.2 152.2 999.4 158.9 999.3 167.1V195.2C999.3 196.1 1000 196.8 1001 196.8C1002 196.8 1002.6 196.1 1002.6 195.2V190.1C1002.6 189.2 1003.3 188.5 1004.2 188.5C1005.1 188.5 1005.9 189.2 1005.9 190.1V192.5C1005.9 193.4 1006.6 194.1 1007.5 194.1C1008.4 194.1 1009.1 193.4 1009.1 192.5V190.1C1009.1 189.2 1009.8 188.5 1010.8 188.5C1011.8 188.5 1012.4 189.2 1012.4 190.1V190.7C1012.4 191.6 1013.1 192.3 1014 192.3C1014.9 192.3 1015.7 191.6 1015.7 190.7V190.1C1015.7 189.2 1016.4 188.5 1017.3 188.5C1018.2 188.5 1018.9 189.2 1018.9 190.1V192.5C1018.9 193.4 1019.6 194.1 1020.6 194.1C1021.5 194.1 1022.2 193.4 1022.2 192.5V190.1C1022.2 189.2 1022.9 188.5 1023.9 188.5C1024.8 188.5 1025.6 189.2 1025.6 190.1V195C1025.6 195.9 1026.3 196.6 1027.2 196.6C1028.1 196.6 1028.9 195.9 1028.9 195V188.3L1029.8 167C1029.7 158.8 1023 152.2 1014.6 152.2ZM1009 169.6C1007.5 169.6 1006.3 168.2 1006.3 166.4C1006.3 164.6 1007.5 163.2 1009 163.2C1010.5 163.2 1011.7 164.6 1011.7 166.4C1011.7 168.2 1010.5 169.6 1009 169.6ZM1014.7 173.9C1013.3 173.9 1012.2 173.1 1012.2 172.1C1012.2 171.2 1013.3 171.7 1014.7 171.7C1016.1 171.7 1017.2 171.1 1017.2 172.1C1017.2 173.1 1016.1 173.9 1014.7 173.9ZM1020.3 169.6C1018.8 169.6 1017.6 168.2 1017.6 166.4C1017.6 164.6 1018.8 163.2 1020.3 163.2C1021.8 163.2 1023 164.6 1023 166.4C1023 168.2 1021.8 169.6 1020.3 169.6ZM1066.3 100.7L1065.5 100.1L1034.3 144.8L1035.1 145.4L1066.3 100.7ZM1034.4 0.7L1065.6 45.4L1066.4 44.8L1035.2 0.1L1034.4 0.7ZM729.1 152.2C720.7 152.2 713.9 158.9 713.8 167.1V195.2C713.8 196.1 714.5 196.8 715.4 196.8C716.3 196.8 717 196.1 717 195.2V190.1C717 189.2 717.7 188.5 718.6 188.5C719.5 188.5 720.2 189.2 720.2 190.1V192.5C720.2 193.4 720.9 194.1 721.8 194.1C722.7 194.1 723.4 193.4 723.4 192.5V190.1C723.4 189.2 724.1 188.5 725 188.5C725.9 188.5 726.6 189.2 726.6 190.1V190.7C726.6 191.6 727.3 192.3 728.2 192.3C729.1 192.3 729.8 191.6 729.8 190.7V190.1C729.8 189.2 730.5 188.5 731.4 188.5C732.3 188.5 733 189.2 733 190.1V192.5C733 193.4 733.7 194.1 734.6 194.1C735.5 194.1 736.2 193.4 736.2 192.5V190.1C736.2 189.2 736.9 188.5 737.8 188.5C738.7 188.5 739.4 189.2 739.4 190.1V195C739.4 195.9 740.1 196.6 741 196.6C741.9 196.6 742.6 195.9 742.6 195V188.3L743.5 167C744.1 158.8 737.4 152.2 729.1 152.2ZM723.4 169.6C721.9 169.6 720.7 168.2 720.7 166.4C720.7 164.6 721.9 163.2 723.4 163.2C724.9 163.2 726.1 164.6 726.1 166.4C726.1 168.2 724.9 169.6 723.4 169.6ZM729.2 173.9C727.8 173.9 726.7 173.1 726.7 172.1C726.7 171.2 727.8 171.7 729.2 171.7C730.6 171.7 731.7 171.1 731.7 172.1C731.6 173.1 730.6 173.9 729.2 173.9ZM734.7 169.6C733.2 169.6 732 168.2 732 166.4C732 164.6 733.2 163.2 734.7 163.2C736.2 163.2 737.4 164.6 737.4 166.4C737.4 168.2 736.2 169.6 734.7 169.6ZM677.2 44.8L678 45.4L709.2 0.7L708.4 0.1L677.2 44.8ZM677.2 100.7L708.4 145.4L709.2 144.8L678 100.1L677.2 100.7ZM820.1 100.7L851.3 145.4L852.1 144.8L820.9 100.1L820.1 100.7ZM871.8 152.2C863.4 152.2 856.6 158.9 856.5 167.1V195.2C856.5 196.1 857.2 196.8 858.1 196.8C859 196.8 859.7 196.1 859.7 195.2V190.1C859.7 189.2 860.4 188.5 861.3 188.5C862.2 188.5 862.9 189.2 862.9 190.1V192.5C862.9 193.4 863.6 194.1 864.5 194.1C865.4 194.1 866.1 193.4 866.1 192.5V190.1C866.1 189.2 866.8 188.5 867.7 188.5C868.6 188.5 869.3 189.2 869.3 190.1V190.7C869.3 191.6 870 192.3 870.9 192.3C871.8 192.3 872.5 191.6 872.5 190.7V190.1C872.5 189.2 873.2 188.5 874.1 188.5C875 188.5 875.7 189.2 875.7 190.1V192.5C875.7 193.4 876.4 194.1 877.3 194.1C878.2 194.1 878.9 193.4 878.9 192.5V190.1C878.9 189.2 879.6 188.5 880.5 188.5C881.4 188.5 882.1 189.2 882.1 190.1V195C882.1 195.9 882.8 196.6 883.7 196.6C884.6 196.6 885.3 195.9 885.3 195V188.3L886.2 167C886.9 158.8 880.2 152.2 871.8 152.2ZM866.2 169.6C864.7 169.6 863.5 168.2 863.5 166.4C863.5 164.6 864.7 163.2 866.2 163.2C867.7 163.2 868.9 164.6 868.9 166.4C868.9 168.2 867.7 169.6 866.2 169.6ZM871.9 173.9C870.5 173.9 869.4 173.1 869.4 172.1C869.4 171.2 870.5 171.7 871.9 171.7C873.3 171.7 874.4 171.1 874.4 172.1C874.4 173.1 873.4 173.9 871.9 173.9ZM877.5 169.6C876 169.6 874.8 168.2 874.8 166.4C874.8 164.6 876 163.2 877.5 163.2C879 163.2 880.2 164.6 880.2 166.4C880.2 168.2 879 169.6 877.5 169.6ZM748.9 0.7L780.1 45.4L780.9 44.8L749.7 0.1L748.9 0.7ZM780.7 100.7L779.9 100.1L748.7 144.8L749.5 145.4L780.7 100.7ZM800.4 49.8C792.1 49.8 785.2 56.5 785.1 64.7V92.8C785.1 93.7 785.8 94.4 786.7 94.4C787.6 94.4 788.3 93.7 788.3 92.8V87.9C788.3 87 789 86.3 789.9 86.3C790.8 86.3 791.5 87 791.5 87.9V90.3C791.5 91.2 792.2 91.9 793.1 91.9C794 91.9 794.7 91.2 794.7 90.3V87.9C794.7 87 795.4 86.3 796.3 86.3C797.2 86.3 797.9 87 797.9 87.9V88.5C797.9 89.4 798.6 90.1 799.5 90.1C800.4 90.1 801.1 89.4 801.1 88.5V87.9C801.1 87 801.8 86.3 802.7 86.3C803.6 86.3 804.3 87 804.3 87.9V90.3C804.3 91.2 805 91.9 805.9 91.9C806.8 91.9 807.5 91.2 807.5 90.3V87.9C807.5 87 808.2 86.3 809.1 86.3C810 86.3 810.7 87 810.7 87.9V92.8C810.7 93.7 811.4 94.4 812.3 94.4C813.2 94.4 813.9 93.7 813.9 92.8V86.1L814.8 64.7C815.5 56.4 808.8 49.8 800.4 49.8ZM794.8 67.2C793.3 67.2 792.1 65.8 792.1 64C792.1 62.2 793.3 60.8 794.8 60.8C796.3 60.8 797.5 62.2 797.5 64C797.5 65.8 796.3 67.2 794.8 67.2ZM800.6 71.7C799.2 71.7 798.1 70.9 798.1 69.9C798.1 68.9 799.2 69.5 800.6 69.5C802 69.5 803.1 68.9 803.1 69.9C803.1 70.9 802 71.7 800.6 71.7ZM806.1 67.2C804.6 67.2 803.4 65.8 803.4 64C803.4 62.2 804.6 60.8 806.1 60.8C807.6 60.8 808.8 62.2 808.8 64C808.8 65.8 807.6 67.2 806.1 67.2ZM1319.6 0.9L1350.8 45.6L1351.6 45L1320.4 0.4L1319.6 0.9ZM1319.6 145.1L1320.4 145.7L1351.6 101L1350.8 100.4L1319.6 145.1ZM1371.3 50C1362.9 50 1356.1 56.7 1356 64.9V93C1356 93.9 1356.7 94.6 1357.7 94.6C1358.6 94.6 1359.3 93.9 1359.3 93V88.1C1359.3 87.2 1360 86.5 1360.9 86.5C1361.8 86.5 1362.6 87.2 1362.6 88.1V90.5C1362.6 91.4 1363.3 92.1 1364.2 92.1C1365.2 92.1 1365.9 91.4 1365.9 90.5V88.1C1365.9 87.2 1366.6 86.5 1367.6 86.5C1368.5 86.5 1369.2 87.2 1369.2 88.1V88.7C1369.2 89.6 1369.9 90.3 1370.8 90.3C1371.7 90.3 1372.5 89.6 1372.5 88.7V88.1C1372.5 87.2 1373.2 86.5 1374.1 86.5C1375 86.5 1375.8 87.2 1375.8 88.1V90.5C1375.8 91.4 1376.5 92.1 1377.5 92.1C1378.4 92.1 1379.1 91.4 1379.1 90.5V88.1C1379.1 87.2 1379.8 86.5 1380.7 86.5C1381.6 86.5 1382.4 87.2 1382.4 88.1V93C1382.4 93.9 1383.1 94.6 1384 94.6C1384.9 94.6 1385.7 93.9 1385.7 93V86.3L1386.6 64.9C1386.4 56.6 1379.7 50 1371.3 50ZM1365.7 67.4C1364.2 67.4 1363 66 1363 64.2C1363 62.4 1364.2 61 1365.7 61C1367.2 61 1368.4 62.4 1368.4 64.2C1368.4 66 1367.1 67.4 1365.7 67.4ZM1371.4 71.9C1370 71.9 1368.9 71.1 1368.9 70.1C1368.9 69.1 1370 69.7 1371.4 69.7C1372.8 69.7 1373.9 69.1 1373.9 70.1C1373.9 71.1 1372.7 71.9 1371.4 71.9ZM1377 67.4C1375.5 67.4 1374.3 66 1374.3 64.2C1374.3 62.4 1375.5 61 1377 61C1378.5 61 1379.7 62.4 1379.7 64.2C1379.7 66 1378.4 67.4 1377 67.4ZM1299.9 152.4C1291.6 152.4 1284.7 159.1 1284.6 167.3V195.4C1284.6 196.3 1285.3 197 1286.3 197C1287.2 197 1288 196.3 1288 195.4V190.5C1288 189.6 1288.7 188.9 1289.6 188.9C1290.5 188.9 1291.2 189.6 1291.2 190.5V192.9C1291.2 193.8 1291.9 194.5 1292.9 194.5C1293.8 194.5 1294.5 193.8 1294.5 192.9V190.5C1294.5 189.6 1295.2 188.9 1296.2 188.9C1297.1 188.9 1297.8 189.6 1297.8 190.5V191.1C1297.8 192 1298.5 192.7 1299.5 192.7C1300.4 192.7 1301.1 192 1301.1 191.1V190.5C1301.1 189.6 1301.8 188.9 1302.7 188.9C1303.7 188.9 1304.4 189.6 1304.4 190.5V192.9C1304.4 193.8 1305.1 194.5 1306.1 194.5C1307 194.5 1307.7 193.8 1307.7 192.9V190.5C1307.7 189.6 1308.4 188.9 1309.3 188.9C1310.2 188.9 1311 189.6 1311 190.5V195.4C1311 196.3 1311.7 197 1312.6 197C1313.5 197 1314.3 196.3 1314.3 195.4V188.7L1315.2 167.3C1315 159 1308.3 152.4 1299.9 152.4ZM1294.3 169.8C1292.8 169.8 1291.6 168.4 1291.6 166.6C1291.6 164.8 1292.8 163.4 1294.3 163.4C1295.8 163.4 1297 164.8 1297 166.6C1297 168.4 1295.7 169.8 1294.3 169.8ZM1300.1 174.2C1298.7 174.2 1297.6 173.4 1297.6 172.4C1297.6 171.4 1298.7 172 1300.1 172C1301.5 172 1302.6 171.4 1302.6 172.4C1302.6 173.4 1301.3 174.2 1300.1 174.2ZM1305.6 169.8C1304.1 169.8 1302.9 168.4 1302.9 166.6C1302.9 164.8 1304.1 163.4 1305.6 163.4C1307.1 163.4 1308.3 164.8 1308.3 166.6C1308.3 168.4 1307 169.8 1305.6 169.8ZM1442.7 152.4C1434.3 152.4 1427.5 159.1 1427.4 167.3V195.4C1427.4 196.3 1428.1 197 1429.1 197C1430 197 1430.7 196.3 1430.7 195.4V190.5C1430.7 189.6 1431.4 188.9 1432.3 188.9C1433.2 188.9 1434 189.6 1434 190.5V192.9C1434 193.8 1434.7 194.5 1435.6 194.5C1436.5 194.5 1437.3 193.8 1437.3 192.9V190.5C1437.3 189.6 1438 188.9 1439 188.9C1439.9 188.9 1440.6 189.6 1440.6 190.5V191.1C1440.6 192 1441.3 192.7 1442.3 192.7C1443.2 192.7 1444 192 1444 191.1V190.5C1444 189.6 1444.7 188.9 1445.6 188.9C1446.5 188.9 1447.3 189.6 1447.3 190.5V192.9C1447.3 193.8 1448 194.5 1449 194.5C1449.9 194.5 1450.6 193.8 1450.6 192.9V190.5C1450.6 189.6 1451.3 188.9 1452.3 188.9C1453.2 188.9 1454 189.6 1454 190.5V195.4C1454 196.3 1454.7 197 1455.6 197C1456.5 197 1457.3 196.3 1457.3 195.4V188.7L1458.2 167.3C1457.8 159 1451.1 152.4 1442.7 152.4ZM1437 169.8C1435.5 169.8 1434.3 168.4 1434.3 166.6C1434.3 164.8 1435.5 163.4 1437 163.4C1438.5 163.4 1439.7 164.8 1439.7 166.6C1439.8 168.4 1438.5 169.8 1437 169.8ZM1442.8 174.2C1441.4 174.2 1440.3 173.4 1440.3 172.4C1440.3 171.4 1441.4 172 1442.8 172C1444.2 172 1445.3 171.4 1445.3 172.4C1445.3 173.4 1444.1 174.2 1442.8 174.2ZM1448.4 169.8C1446.9 169.8 1445.7 168.4 1445.7 166.6C1445.7 164.8 1446.9 163.4 1448.4 163.4C1449.9 163.4 1451.1 164.8 1451.1 166.6C1451.1 168.4 1449.8 169.8 1448.4 169.8ZM1390.9 45L1391.7 45.6L1422.9 0.9L1422.1 0.3L1390.9 45ZM1390.9 101L1422.1 145.7L1422.9 145.1L1391.7 100.4L1390.9 101ZM1177 0.8L1208.2 45.5L1209 44.9L1177.8 0.2L1177 0.8ZM1177 145.1L1177.8 145.7L1209 101L1208.2 100.4L1177 145.1ZM1105.6 44.8L1106.4 45.4L1137.6 0.7L1136.8 0.1L1105.6 44.8ZM1105.6 100.7L1136.8 145.4L1137.6 144.8L1106.4 100.1L1105.6 100.7ZM1157.4 152.2C1149.1 152.2 1142.2 158.9 1142.1 167.1V195.2C1142.1 196.1 1142.8 196.8 1143.8 196.8C1144.7 196.8 1145.4 196.1 1145.4 195.2V190.1C1145.4 189.2 1146.1 188.5 1147.1 188.5C1148 188.5 1148.8 189.2 1148.8 190.1V192.5C1148.8 193.4 1149.5 194.1 1150.4 194.1C1151.3 194.1 1152 193.4 1152 192.5V190.1C1152 189.2 1152.7 188.5 1153.6 188.5C1154.6 188.5 1155.3 189.2 1155.3 190.1V190.7C1155.3 191.6 1156 192.3 1157 192.3C1157.9 192.3 1158.6 191.6 1158.6 190.7V190.1C1158.6 189.2 1159.3 188.5 1160.3 188.5C1161.2 188.5 1161.9 189.2 1161.9 190.1V192.5C1161.9 193.4 1162.6 194.1 1163.5 194.1C1164.4 194.1 1165.2 193.4 1165.2 192.5V190.1C1165.2 189.2 1165.9 188.5 1166.9 188.5C1167.8 188.5 1168.5 189.2 1168.5 190.1V195C1168.5 195.9 1169.2 196.6 1170.1 196.6C1171 196.6 1171.8 195.9 1171.8 195V188.3L1172.7 167C1172.4 158.8 1165.7 152.2 1157.4 152.2ZM1151.7 169.6C1150.2 169.6 1149 168.2 1149 166.4C1149 164.6 1150.2 163.2 1151.7 163.2C1153.2 163.2 1154.4 164.6 1154.4 166.4C1154.5 168.2 1153.3 169.6 1151.7 169.6ZM1157.5 173.9C1156.1 173.9 1155 173.1 1155 172.1C1155 171.2 1156 171.7 1157.5 171.7C1158.9 171.7 1160 171.1 1160 172.1C1160 173.1 1158.9 173.9 1157.5 173.9ZM1163 169.6C1161.5 169.6 1160.3 168.2 1160.3 166.4C1160.3 164.6 1161.5 163.2 1163 163.2C1164.5 163.2 1165.7 164.6 1165.7 166.4C1165.7 168.2 1164.6 169.6 1163 169.6ZM1248.1 101L1279.3 145.7L1280.1 145.1L1248.9 100.4L1248.1 101ZM1248.1 45L1248.9 45.6L1280.1 0.9L1279.3 0.3L1248.1 45ZM1228.5 50C1220.2 50 1213.3 56.7 1213.2 64.9V93C1213.2 93.9 1213.9 94.6 1214.9 94.6C1215.9 94.6 1216.6 93.9 1216.6 93V88.1C1216.6 87.2 1217.3 86.5 1218.2 86.5C1219.1 86.5 1219.8 87.2 1219.8 88.1V90.5C1219.8 91.4 1220.5 92.1 1221.5 92.1C1222.4 92.1 1223.1 91.4 1223.1 90.5V88.1C1223.1 87.2 1223.8 86.5 1224.8 86.5C1225.7 86.5 1226.5 87.2 1226.5 88.1V88.7C1226.5 89.6 1227.2 90.3 1228.1 90.3C1229 90.3 1229.7 89.6 1229.7 88.7V88.1C1229.7 87.2 1230.4 86.5 1231.4 86.5C1232.3 86.5 1233 87.2 1233 88.1V90.5C1233 91.4 1233.7 92.1 1234.7 92.1C1235.6 92.1 1236.3 91.4 1236.3 90.5V88.1C1236.3 87.2 1237 86.5 1238 86.5C1238.9 86.5 1239.6 87.2 1239.6 88.1V93C1239.6 93.9 1240.3 94.6 1241.2 94.6C1242.2 94.6 1242.9 93.9 1242.9 93V86.3L1243.8 64.9C1243.6 56.6 1236.9 50 1228.5 50ZM1222.9 67.4C1221.4 67.4 1220.2 66 1220.2 64.2C1220.2 62.4 1221.4 61 1222.9 61C1224.4 61 1225.6 62.4 1225.6 64.2C1225.6 66 1224.3 67.4 1222.9 67.4ZM1228.7 71.9C1227.3 71.9 1226.2 71.1 1226.2 70.1C1226.2 69.1 1227.3 69.7 1228.7 69.7C1230.1 69.7 1231.2 69.1 1231.2 70.1C1231.2 71.1 1230 71.9 1228.7 71.9ZM1234.2 67.4C1232.7 67.4 1231.5 66 1231.5 64.2C1231.5 62.4 1232.7 61 1234.2 61C1235.7 61 1236.9 62.4 1236.9 64.2C1236.9 66 1235.6 67.4 1234.2 67.4Z" fill="url(#paint0_linear)"/>
<defs>
<linearGradient id="paint0_linear" x1="-13.9862" y1="14.9695" x2="2242.4" y2="14.9694" gradientUnits="userSpaceOnUse">
<stop stop-color="#2EBAC6" stop-opacity="0.25"/>
<stop offset="1" stop-color="#B6509E" stop-opacity="0.25"/>
</linearGradient>
</defs>
</svg>
