<svg width="26" height="26" fill="none" xmlns="http://www.w3.org/2000/svg"><path d="M24.77 15.935c-1.62 6.5-8.205 10.456-14.707 8.835C3.565 23.15-.392 16.566 1.23 10.066 2.85 3.566 9.434-.39 15.933 1.23c6.502 1.62 10.457 8.205 8.837 14.705z" fill="#FF961C"/><path d="M18.17 11.123c.235-1.548-.958-2.38-2.59-2.936l.53-2.097-1.293-.318-.515 2.042c-.34-.084-.688-.163-1.035-.24l.519-2.056-1.291-.318-.53 2.096a43.619 43.619 0 01-.825-.191l.002-.007-1.782-.44-.344 1.364s.958.217.938.23c.524.13.618.472.602.743l-.602 2.389c.036.009.082.022.134.042l-.136-.033-.846 3.346c-.064.157-.226.393-.592.304.013.018-.939-.232-.939-.232l-.641 1.462 1.681.414c.313.077.62.158.921.235l-.535 2.12 1.291.319.53-2.098c.352.094.695.181 1.03.263l-.528 2.09 1.292.317.534-2.117c2.204.412 3.86.246 4.558-1.722.562-1.585-.028-2.5-1.187-3.096.844-.193 1.48-.742 1.65-1.875zm-2.952 4.09c-.4 1.585-3.1.728-3.977.513l.71-2.81c.876.216 3.684.643 3.268 2.296zm.4-4.113c-.365 1.442-2.613.71-3.343.53l.643-2.549c.73.18 3.08.515 2.7 2.019z" fill="#fff"/></svg>