<svg width="18" height="19" fill="none" xmlns="http://www.w3.org/2000/svg"><mask id="a" fill="#fff"><path fill-rule="evenodd" clip-rule="evenodd" d="M0 0h18v14H6l-6 5V0zm3 4h12v2H3V4zm0 4h7v2H3V8z"/></mask><path fill-rule="evenodd" clip-rule="evenodd" d="M0 0h18v14H6l-6 5V0zm3 4h12v2H3V4zm0 4h7v2H3V8z" fill="#8F68FC"/><path d="M18 0h2v-2h-2v2zM0 0v-2h-2v2h2zm18 14v2h2v-2h-2zM6 14v-2h-.724l-.556.464L6 14zm-6 5h-2v4.27l3.28-2.734L0 19zM15 4h2V2h-2v2zM3 4V2H1v2h2zm12 2v2h2V6h-2zM3 6H1v2h2V6zm7 2h2V6h-2v2zM3 8V6H1v2h2zm7 2v2h2v-2h-2zm-7 0H1v2h2v-2zM18-2H0v4h18v-4zm2 16V0h-4v14h4zM6 16h12v-4H6v4zm-4.72 4.536l6-5-2.56-3.072-6 5 2.56 3.072zM-2 17v2h4v-2h-4zm0-3v3h4v-3h-4zm0-14v14h4V0h-4zm17 2H3v4h12V2zm2 4V4h-4v2h4zM3 8h12V4H3v4zM1 4v2h4V4H1zm9 2H3v4h7V6zm2 4V8H8v2h4zm-9 2h7V8H3v4zM1 8v2h4V8H1z" fill="#8F68FC" mask="url(#a)"/></svg>