<svg width="18" height="19" viewBox="0 0 18 19" fill="none" xmlns="http://www.w3.org/2000/svg">
<mask id="path-1-inside-1" fill="white">
<path fill-rule="evenodd" clip-rule="evenodd" d="M0 0H18V14H6L0 19V17V14V0ZM3 4H15V6H3V4ZM3 8H10V10H3V8Z"/>
</mask>
<path fill-rule="evenodd" clip-rule="evenodd" d="M0 0H18V14H6L0 19V17V14V0ZM3 4H15V6H3V4ZM3 8H10V10H3V8Z" fill="#8F68FC"/>
<path d="M18 0H20V-2H18V0ZM0 0V-2H-2V0H0ZM18 14V16H20V14H18ZM6 14V12H5.2759L4.71963 12.4636L6 14ZM0 19H-2V23.2701L1.28037 20.5364L0 19ZM15 4H17V2H15V4ZM3 4V2H1V4H3ZM15 6V8H17V6H15ZM3 6H1V8H3V6ZM10 8H12V6H10V8ZM3 8V6H1V8H3ZM10 10V12H12V10H10ZM3 10H1V12H3V10ZM18 -2H0V2H18V-2ZM20 14V0H16V14H20ZM6 16H18V12H6V16ZM1.28037 20.5364L7.28037 15.5364L4.71963 12.4636L-1.28037 17.4636L1.28037 20.5364ZM-2 17V19H2V17H-2ZM-2 14V17H2V14H-2ZM-2 0V14H2V0H-2ZM15 2H3V6H15V2ZM17 6V4H13V6H17ZM3 8H15V4H3V8ZM1 4V6H5V4H1ZM10 6H3V10H10V6ZM12 10V8H8V10H12ZM3 12H10V8H3V12ZM1 8V10H5V8H1Z" fill="#8F68FC" mask="url(#path-1-inside-1)"/>
</svg>
