<svg width="65" height="65" fill="none" xmlns="http://www.w3.org/2000/svg"><path d="M64 32.5C64 49.912 50.106 64 33 64S2 49.912 2 32.5 15.894 1 33 1s31 14.088 31 31.5z" fill="#fff" stroke="#FFCE45" stroke-width="2" stroke-miterlimit="10"/><path d="M32.5 8.938l22.75 22.75-22.75 22.75-22.75-22.75L32.5 8.937z" fill="#FFCE45"/><path d="M32.5 39L9.75 31.603 32.5 8.937l22.75 22.666L32.5 39z" fill="#FEBE44"/><path d="M17.875 30.875h10.35l4.435-5.093 4.928 5.093h10.35L32.66 13.812 17.875 30.875z" fill="#fff"/><path opacity=".42" d="M32.5 54.438v-45.5l22.75 22.75-22.75 22.75z" fill="#D9A547"/></svg>