<svg width="65" height="65" viewBox="0 0 65 65" fill="none" xmlns="http://www.w3.org/2000/svg">
<path d="M64 32.5C64 49.9116 50.1063 64 33 64C15.8937 64 2 49.9116 2 32.5C2 15.0884 15.8937 1 33 1C50.1063 1 64 15.0884 64 32.5Z" fill="white" stroke="#FFCE45" stroke-width="2" stroke-miterlimit="10"/>
<path d="M32.5 8.9375L55.25 31.6874L32.5 54.4375L9.75 31.6874L32.5 8.9375Z" fill="#FFCE45"/>
<path d="M32.5 39L9.75 31.6029L32.5 8.9375L55.25 31.6029L32.5 39Z" fill="#FEBE44"/>
<path d="M17.875 30.875H28.2244L32.6598 25.7816L37.5881 30.875H47.9375L32.6598 13.8125L17.875 30.875Z" fill="white"/>
<path opacity="0.42" d="M32.5 54.4375V8.9375L55.25 31.6875L32.5 54.4375Z" fill="#D9A547"/>
</svg>
