<svg width="136" height="91" viewBox="0 0 136 91" fill="none" xmlns="http://www.w3.org/2000/svg">
    <circle cx="40.5" cy="45.5" r="39.5" fill="white" stroke="#FFCE45" stroke-width="2"/>
    <path d="M40 19.9688L65 44.9686L40 69.9688L15 44.9686L40 19.9688Z" fill="#FFCE45"/>
    <path d="M40 53.0045L15 44.8758L40 19.9688L65 44.8758L40 53.0045Z" fill="#FEBE44"/>
    <path d="M23.9287 44.0762H35.3017L40.1758 38.479L45.5915 44.0762H56.9644L40.1758 25.3262L23.9287 44.0762Z" fill="white"/>
    <path opacity="0.42" d="M40 69.9688V19.9688L65 44.9687L40 69.9688Z" fill="#D9A547"/>
    <circle cx="90.5" cy="45.5" r="43" fill="#B640A6" stroke="white" stroke-width="5"/>
    <path fill-rule="evenodd" clip-rule="evenodd" d="M90.6681 17.0264C90.6142 17.0091 90.5575 17 90.5 17C90.4427 17 90.3863 17.009 90.3326 17.0262C90.2151 17.0639 90.1109 17.1409 90.0404 17.2491C90.0359 17.2559 90.0316 17.2628 90.0275 17.2699L73.0781 45.5763C73.0028 45.702 72.9808 45.8528 73.0171 45.9949C73.0533 46.137 73.1447 46.2587 73.2711 46.3329L90.2213 56.2957C90.2232 56.2968 90.2252 56.298 90.2272 56.2991C90.3961 56.3959 90.6037 56.396 90.7728 56.2991C90.7733 56.2988 90.7738 56.2985 90.7744 56.2982C90.7757 56.2974 90.7771 56.2966 90.7784 56.2959L107.729 46.3329C107.855 46.2587 107.947 46.137 107.983 45.9949C108.019 45.8528 107.997 45.702 107.922 45.5763L90.9726 17.2699C90.9684 17.2629 90.9641 17.2559 90.9596 17.2491C90.8923 17.1459 90.7907 17.0659 90.6681 17.0264ZM91.049 19.5357V37.8089L106.076 44.6309L91.049 19.5357ZM91.049 39.016V54.862L106.26 45.9216L91.049 39.016ZM89.951 54.862V39.016L74.7402 45.9216L89.951 54.862ZM89.951 37.8089V19.5357L74.9245 44.6309L89.951 37.8089Z" fill="white"/>
    <path fill-rule="evenodd" clip-rule="evenodd" d="M74.3358 50.5734C74.1863 50.3614 74.2053 50.0734 74.3815 49.883C74.5576 49.6925 74.8429 49.6514 75.0656 49.7844L90.4657 58.9816L105.866 49.7844C106.088 49.6514 106.374 49.6925 106.55 49.883C106.726 50.0734 106.745 50.3614 106.596 50.5734L90.9485 72.7673C90.8369 72.9256 90.6527 73.0107 90.4657 72.9989C90.2786 73.0107 90.0945 72.9256 89.9828 72.7673L74.3358 50.5734ZM89.8824 70.7183V59.9134L76.7245 52.0552L89.8824 70.7183ZM91.049 70.7183V59.9134L104.207 52.0552L91.049 70.7183Z" fill="white"/>
</svg>
