<svg width="26" height="26" fill="none" xmlns="http://www.w3.org/2000/svg"><path d="M13 25.133c6.7 0 12.133-5.432 12.133-12.133C25.133 6.299 19.7.867 13 .867 6.297.867.865 6.299.865 13c0 6.701 5.432 12.133 12.133 12.133z" fill="#FF961C"/><path fill-rule="evenodd" clip-rule="evenodd" d="M13 3.467c.134-.001.264.062.347.176l3.8 5.256c.034.048.059.104.072.163l1.838 8.504a.434.434 0 01-.19.458l-5.638 3.577a.42.42 0 01-.229.066.42.42 0 01-.228-.066l-5.638-3.577a.434.434 0 01-.19-.458l1.838-8.504a.434.434 0 01.072-.163l3.8-5.256A.424.424 0 0113 3.467zm-.428 1.75L9.669 9.232l.69 2.193 2.213-3.954V5.217zM13 8.454l-2.289 4.09 1.473 4.683h1.633l1.473-4.683L13 8.454zm2.862 5.113l-1.151 3.66h3.2l-2.05-3.66zm1.296 4.523H14.44l-.678 2.155 3.397-2.155zM13 19.823l.546-1.733h-1.091L13 19.823zm-1.71-2.596l-1.151-3.66-2.049 3.66h3.2zm-2.912-2.263l1.409-2.517-.513-1.63-.896 4.147zm.464 3.126h2.72l.677 2.155-3.397-2.155zm8.781-3.126l-1.41-2.517.514-1.63.896 4.147zm-1.292-5.732l-.69 2.193L13.43 7.47V5.217l2.902 4.015z" fill="#fff"/></svg>