<svg width="16" height="26" viewBox="0 0 16 26" fill="none" xmlns="http://www.w3.org/2000/svg">
<g clip-path="url(#clip0)">
<path d="M0.200195 14.1603C2.94887 15.6618 5.81705 17.2336 8.03221 18.4498L15.8002 14.1603C12.9875 18.4586 10.6443 22.0368 8.03221 25.997C5.41584 22.0456 2.52632 17.6858 0.200195 14.1603ZM0.498964 12.9748L8.04074 8.83463L15.4844 12.9441L8.04501 17.0887L0.498964 12.9748ZM8.03221 7.5087L0.200195 11.7499L7.99806 0.00537109L15.8002 11.7762L8.03221 7.5087Z" fill="#FF961C"/>
<path d="M8.03219 18.4487L15.8002 14.1592C12.9875 18.4575 8.03219 25.9959 8.03219 25.9959V18.4487ZM8.04073 8.83353L15.4843 12.943L8.045 17.0876L8.04073 8.83353ZM8.03219 7.5076L7.99805 0.00427246L15.8002 11.7751L8.03219 7.5076Z" fill="#FF961C"/>
<path d="M0.499023 12.9736L8.0408 13.6102L15.4844 12.9473L8.04507 17.0919L0.499023 12.9736Z" fill="#FF961C"/>
<path d="M8.04102 13.6102L15.4846 12.9473L8.04528 17.0919L8.04102 13.6102Z" fill="#FF961C"/>
</g>
<defs>
<clipPath id="clip0">
<rect width="15.6" height="26" fill="white" transform="translate(0.200195)"/>
</clipPath>
</defs>
</svg>
