<svg width="16" height="26" fill="none" xmlns="http://www.w3.org/2000/svg"><g clip-path="url(#clip0)" fill="#FF961C"><path d="M.2 14.16c2.749 1.502 5.617 3.074 7.832 4.29l7.768-4.29a3755.319 3755.319 0 01-7.768 11.837C5.416 22.046 2.526 17.686.2 14.16zM.5 12.975l7.542-4.14 7.443 4.11-7.439 4.144-7.546-4.114zm7.533-5.466L.2 11.749 7.998.006 15.8 11.776 8.032 7.51z"/><path d="M8.032 18.449l7.768-4.29c-2.813 4.298-7.768 11.837-7.768 11.837v-7.547zm.009-9.615l7.443 4.109-7.439 4.145-.004-8.254zm-.009-1.326L7.998.004 15.8 11.775 8.032 7.508z"/><path d="M.499 12.974l7.542.636 7.443-.663-7.439 4.145L.5 12.974z"/><path d="M8.041 13.61l7.444-.663-7.44 4.145-.004-3.482z"/></g><defs><clipPath id="clip0"><path fill="#fff" transform="translate(.2)" d="M0 0h15.6v26H0z"/></clipPath></defs></svg>