<svg width="26" height="26" fill="none" xmlns="http://www.w3.org/2000/svg"><path fill="#8B8BB8" d="M1.733 1.733h22.533v22.533H1.733z"/><path d="M8.469 18.005h.002l-.795 1.396c-.29.509-.933.684-1.436.39a1.073 1.073 0 01-.385-1.455l.586-1.028.056-.099c.1-.146.348-.398.844-.35 0 0 1.166.127 1.25.741 0 0 .012.202-.122.405zm11.28-3.564h-2.48c-.17-.012-.243-.073-.272-.108l-.002-.004-2.655-4.657-.003.002-.16-.231c-.26-.405-.675.63-.675.63-.494 1.151.07 2.46.268 2.857l3.687 6.47c.29.509.933.683 1.436.389.503-.294.675-.945.385-1.455l-.922-1.617c-.018-.04-.05-.146.14-.146h1.252c.581 0 1.052-.477 1.052-1.065s-.471-1.065-1.052-1.065zm-4.817 1.447s.132.682-.38.682H5.384c-.58 0-1.051-.476-1.051-1.064 0-.588.47-1.065 1.051-1.065h2.357c.38-.023.47-.245.47-.245h.003L11.29 8.8a.24.24 0 000-.219l-1.015-1.782c-.29-.51-.118-1.161.384-1.455a1.044 1.044 0 011.437.39l.47.826.471-.825c.29-.51.933-.684 1.436-.39.503.294.675.946.385 1.455l-4.281 7.512c-.019.045-.025.117.115.13h2.559v.025s1.48.023 1.68 1.422z" fill="#fff"/></svg>