<svg width="242" height="46" fill="none" xmlns="http://www.w3.org/2000/svg"><path d="M28 18H10v-8h10V0h8v18z" fill="#292984"/><path d="M28 28V10h8v10h10v8H28z" fill="#8F68FC"/><path d="M18 28h18v8H26v10h-8V28z" fill="#05D2DD"/><path d="M18 18v18h-8V26H0v-8h18z" fill="#FF961C"/><path d="M64.503 30.063c-1.075-1.008-1.613-2.62-1.613-4.839 0-1.478.269-2.755.806-3.83.538-1.076 1.277-1.882 2.218-2.42.941-.538 1.95-.807 3.159-.807 1.411 0 2.621.336 3.63 1.008V12.32l3.629.336v18.617h-3.16l-.2-1.21c-.539.47-1.143.874-1.816 1.076a7.922 7.922 0 01-2.352.336c-1.814.067-3.293-.47-4.301-1.412zm6.855-1.478a3.94 3.94 0 001.277-.874v-5.847a3.768 3.768 0 00-2.621-1.008c-1.143 0-1.95.403-2.554 1.142-.538.672-.874 1.748-.874 3.226 0 1.344.27 2.285.807 2.823.537.538 1.344.806 2.42.806.604 0 1.075-.067 1.545-.268zM80.767 29.862c-1.277-1.143-1.882-2.823-1.882-5.041 0-2.083.538-3.696 1.68-4.906 1.143-1.143 2.756-1.748 4.84-1.748 1.949 0 3.495.538 4.57 1.546 1.075 1.008 1.613 2.42 1.613 4.1v2.352h-9.342c.202 1.008.605 1.68 1.344 2.084.74.403 1.815.605 3.226.605.672 0 1.411-.068 2.084-.202.672-.135 1.344-.269 1.814-.47v2.553c-1.21.538-2.755.807-4.704.807-2.151 0-3.966-.538-5.243-1.68zm7.595-5.982v-.672c0-1.613-.941-2.352-2.823-2.352-1.21 0-2.016.269-2.487.739-.47.47-.739 1.277-.739 2.352h6.049v-.067zM94.814 21.259h-1.815v-2.823h1.815v-1.949c0-1.344.403-2.486 1.142-3.293.807-.874 1.882-1.277 3.36-1.277 1.076 0 2.017.202 2.891.538v2.486a4.522 4.522 0 00-1.613-.268c-.807 0-1.344.134-1.613.403-.336.269-.47.74-.47 1.478v1.882h2.486l-.336 2.823h-2.084v10.014h-3.629V21.259h-.134z" fill="#292984"/><path d="M112.758 18.436h3.226l.202 1.21c.605-.47 1.21-.874 1.882-1.075.672-.27 1.411-.336 2.352-.336 1.949 0 3.428.537 4.369 1.545 1.008 1.076 1.478 2.689 1.478 4.974s-.537 3.965-1.613 5.108c-1.075 1.142-2.554 1.747-4.503 1.747-1.478 0-2.688-.336-3.696-1.008v6.586h-3.629v-18.75h-.068zm8.939 9.41c.538-.673.807-1.748.807-3.16 0-1.344-.269-2.352-.74-2.957-.537-.604-1.344-.873-2.419-.873-1.143 0-2.084.403-2.89 1.142v5.847c.403.336.806.538 1.277.74.403.134.941.268 1.478.268 1.076 0 1.949-.336 2.487-1.008zM128.754 18.436h3.36l.135 1.344c.605-.403 1.344-.739 2.15-1.008.874-.269 1.681-.47 2.487-.605v2.756c-.806.134-1.613.269-2.487.538-.873.268-1.613.537-2.083.806v8.939h-3.562v-12.77zM140.919 21.125h-1.949l.336-2.689h5.242v12.837h-3.629V21.125zM147.707 18.436h3.36l.135 1.277c1.344-1.008 2.822-1.546 4.368-1.546.874 0 1.546.135 2.084.404.537.268.873.672 1.209 1.21.672-.538 1.344-.874 2.151-1.143.739-.269 1.68-.403 2.621-.403 1.479 0 2.554.403 3.293 1.142.74.74 1.076 1.95 1.076 3.495v8.468h-3.63v-8.065c0-.806-.201-1.411-.537-1.814-.336-.404-.941-.538-1.748-.538-.537 0-1.008.134-1.478.336-.471.202-.874.47-1.21.874.067.336.134.672.134 1.142v8.132h-3.427v-8.065c0-.806-.135-1.41-.403-1.814-.269-.403-.807-.538-1.546-.538-.941 0-1.882.47-2.823 1.412v9.073h-3.629V18.436zM172.305 29.862c-1.277-1.143-1.882-2.823-1.882-5.041 0-2.083.538-3.696 1.68-4.906 1.143-1.143 2.756-1.748 4.839-1.748 1.949 0 3.495.538 4.571 1.546 1.075 1.008 1.613 2.42 1.613 4.1v2.352h-9.342c.201 1.008.604 1.68 1.344 2.084.739.403 1.814.605 3.226.605.672 0 1.411-.068 2.083-.202.672-.135 1.344-.269 1.815-.47v2.553c-1.21.538-2.756.807-4.705.807-2.15 0-3.965-.538-5.242-1.68zm7.595-5.982v-.672c0-1.613-.941-2.352-2.823-2.352-1.21 0-2.016.269-2.487.739-.47.47-.739 1.277-.739 2.352h6.049v-.067z" fill="#8F68FC"/><path d="M194.82 29.862c-1.21-1.143-1.815-2.823-1.815-4.974 0-2.218.672-3.898 1.949-4.973 1.277-1.143 3.025-1.68 5.31-1.68.873 0 1.68.067 2.352.201a8.807 8.807 0 011.882.605v2.621c-1.008-.47-2.151-.672-3.495-.672-1.411 0-2.487.269-3.159.874-.672.605-1.075 1.613-1.075 3.091 0 1.412.336 2.42 1.008 3.025.672.605 1.747.94 3.226.94a8.647 8.647 0 003.562-.739v2.689c-1.21.537-2.688.806-4.369.806-2.352-.134-4.099-.739-5.376-1.814zM205.573 24.821c0-2.15.605-3.83 1.748-4.973 1.142-1.143 2.889-1.748 5.242-1.748 2.352 0 4.099.605 5.242 1.748 1.143 1.142 1.747 2.822 1.747 4.973 0 4.436-2.352 6.72-6.989 6.72-4.705 0-6.99-2.217-6.99-6.72zm9.476 2.756c.471-.538.74-1.479.74-2.756 0-1.277-.269-2.218-.74-2.756-.47-.537-1.344-.806-2.553-.806-1.143 0-2.017.269-2.487.806-.471.538-.739 1.48-.739 2.756 0 1.277.268 2.218.739 2.756.47.537 1.344.806 2.487.806 1.209.067 2.016-.202 2.553-.806zM221.703 18.436h3.36l.135 1.277c1.344-1.008 2.823-1.546 4.368-1.546.874 0 1.546.135 2.084.404.538.268.874.672 1.21 1.21.672-.538 1.344-.874 2.15-1.143.74-.269 1.681-.403 2.621-.403 1.479 0 2.554.403 3.294 1.142.672.74 1.075 1.95 1.075 3.495v8.468h-3.629v-8.065c0-.806-.202-1.411-.538-1.814-.336-.404-.941-.538-1.747-.538-.538 0-1.008.134-1.479.336-.47.202-.874.47-1.21.874.068.336.135.672.135 1.142v8.132h-3.428v-8.065c0-.806-.134-1.41-.403-1.814-.269-.403-.807-.538-1.546-.538-.941 0-1.882.47-2.823 1.412v9.073h-3.629V18.436z" fill="#292984"/><path d="M144.615 12.387h-3.696v3.697h3.696v-3.697z" fill="#8F68FC"/><path d="M105.097 21.125h-2.218l.336-2.689h5.578v12.837h-3.629V21.125h-.067zM190.115 27.644h-3.696v3.696h3.696v-3.696z" fill="#292984"/></svg>