<svg width="30" height="30" fill="none" xmlns="http://www.w3.org/2000/svg"><g clip-path="url(#clip0)" fill="#8B8BB8"><path d="M11.5 12a5.5 5.5 0 100-11 5.5 5.5 0 000 11z"/><path d="M29 13v-.5a4.5 4.5 0 10-9 0v.5h-2v10h13V13h-2zm-4-.5v.5h-1v-.5a.5.5 0 011 0z" stroke="#fff" stroke-width="2"/><path d="M17 15.554A10.45 10.45 0 0011.5 14C5.701 14 1 18.701 1 24.5V28h21v-3.5c0-.168-.004-.334-.012-.5H17v-8.446z"/></g><defs><clipPath id="clip0"><path fill="#fff" d="M0 0h30v30H0z"/></clipPath></defs></svg>