<svg width="30" height="30" viewBox="0 0 30 30" fill="none" xmlns="http://www.w3.org/2000/svg">
<mask id="path-1-inside-1" fill="white">
<path fill-rule="evenodd" clip-rule="evenodd" d="M15 22C18.866 22 22 18.866 22 15C22 11.134 18.866 8 15 8C11.134 8 8 11.134 8 15C8 18.866 11.134 22 15 22ZM19 15C19 17.2091 17.2091 19 15 19C12.7909 19 11 17.2091 11 15C11 12.7909 12.7909 11 15 11C17.2091 11 19 12.7909 19 15Z"/>
<path fill-rule="evenodd" clip-rule="evenodd" d="M15 29C22.732 29 29 22.732 29 15C29 7.26801 22.732 1 15 1C7.26801 1 1 7.26801 1 15C1 22.732 7.26801 29 15 29ZM26 15C26 21.0751 21.0751 26 15 26C8.92487 26 4 21.0751 4 15C4 8.92487 8.92487 4 15 4C21.0751 4 26 8.92487 26 15Z"/>
</mask>
<path fill-rule="evenodd" clip-rule="evenodd" d="M15 22C18.866 22 22 18.866 22 15C22 11.134 18.866 8 15 8C11.134 8 8 11.134 8 15C8 18.866 11.134 22 15 22ZM19 15C19 17.2091 17.2091 19 15 19C12.7909 19 11 17.2091 11 15C11 12.7909 12.7909 11 15 11C17.2091 11 19 12.7909 19 15Z" fill="#FF961C"/>
<path fill-rule="evenodd" clip-rule="evenodd" d="M15 29C22.732 29 29 22.732 29 15C29 7.26801 22.732 1 15 1C7.26801 1 1 7.26801 1 15C1 22.732 7.26801 29 15 29ZM26 15C26 21.0751 21.0751 26 15 26C8.92487 26 4 21.0751 4 15C4 8.92487 8.92487 4 15 4C21.0751 4 26 8.92487 26 15Z" fill="#FF961C"/>
<path d="M15 29C22.732 29 29 22.732 29 15H23C23 19.4183 19.4183 23 15 23V29ZM1 15C1 22.732 7.26801 29 15 29V23C10.5817 23 7 19.4183 7 15H1ZM15 1C7.26801 1 1 7.26801 1 15H7C7 10.5817 10.5817 7 15 7V1ZM29 15C29 7.26801 22.732 1 15 1V7C19.4183 7 23 10.5817 23 15H29ZM26 15C26 21.0751 21.0751 26 15 26V32C24.3888 32 32 24.3888 32 15H26ZM15 4C21.0751 4 26 8.92487 26 15H32C32 5.61116 24.3888 -2 15 -2V4ZM4 15C4 8.92487 8.92487 4 15 4V-2C5.61116 -2 -2 5.61116 -2 15H4ZM15 26C8.92487 26 4 21.0751 4 15H-2C-2 24.3888 5.61116 32 15 32V26ZM15 22C18.866 22 22 18.866 22 15H16C16 15.5523 15.5523 16 15 16V22ZM8 15C8 18.866 11.134 22 15 22V16C14.4477 16 14 15.5523 14 15H8ZM15 8C11.134 8 8 11.134 8 15H14C14 14.4477 14.4477 14 15 14V8ZM22 15C22 11.134 18.866 8 15 8V14C15.5523 14 16 14.4477 16 15H22ZM19 15C19 17.2091 17.2091 19 15 19V25C20.5228 25 25 20.5228 25 15H19ZM15 11C17.2091 11 19 12.7909 19 15H25C25 9.47715 20.5228 5 15 5V11ZM11 15C11 12.7909 12.7909 11 15 11V5C9.47715 5 5 9.47715 5 15H11ZM15 19C12.7909 19 11 17.2091 11 15H5C5 20.5228 9.47715 25 15 25V19Z" fill="#FF961C" mask="url(#path-1-inside-1)"/>
</svg>
