<svg width="28" height="28" fill="none" xmlns="http://www.w3.org/2000/svg"><mask id="a" fill="#fff"><path fill-rule="evenodd" clip-rule="evenodd" d="M14 21a7 7 0 100-14 7 7 0 000 14zm4-7a4 4 0 11-8 0 4 4 0 018 0z"/><path fill-rule="evenodd" clip-rule="evenodd" d="M14 28c7.732 0 14-6.268 14-14S21.732 0 14 0 0 6.268 0 14s6.268 14 14 14zm11-14c0 6.075-4.925 11-11 11S3 20.075 3 14 7.925 3 14 3s11 4.925 11 11z"/></mask><path d="M14 28c7.732 0 14-6.268 14-14h-6a8 8 0 01-8 8v6zM0 14c0 7.732 6.268 14 14 14v-6a8 8 0 01-8-8H0zM14 0C6.268 0 0 6.268 0 14h6a8 8 0 018-8V0zm14 14c0-7.732-6.268-14-14-14v6a8 8 0 018 8h6zm-3 0c0 6.075-4.925 11-11 11v6c9.389 0 17-7.611 17-17h-6zM14 3c6.075 0 11 4.925 11 11h6c0-9.389-7.611-17-17-17v6zM3 14C3 7.925 7.925 3 14 3v-6C4.611-3-3 4.611-3 14h6zm11 11C7.925 25 3 20.075 3 14h-6c0 9.389 7.611 17 17 17v-6zm0-4a7 7 0 007-7h-6a1 1 0 01-1 1v6zm-7-7a7 7 0 007 7v-6a1 1 0 01-1-1H7zm7-7a7 7 0 00-7 7h6a1 1 0 011-1V7zm7 7a7 7 0 00-7-7v6a1 1 0 011 1h6zm-3 0a4 4 0 01-4 4v6c5.523 0 10-4.477 10-10h-6zm-4-4a4 4 0 014 4h6c0-5.523-4.477-10-10-10v6zm-4 4a4 4 0 014-4V4C8.477 4 4 8.477 4 14h6zm4 4a4 4 0 01-4-4H4c0 5.523 4.477 10 10 10v-6z" fill="#8B8BB8" mask="url(#a)"/></svg>