<svg width="20" height="26" fill="none" xmlns="http://www.w3.org/2000/svg"><path fill-rule="evenodd" clip-rule="evenodd" d="M11.667 17.064h.026c.17 0 .336-.046.483-.131.146-.084.287-.207.43-.377l.08-.095c1.349 1.42 1.605 2.894 1.637 3.654.014.328.206.2.307.04 2-3.142 1.586-5.43.78-6.867.818-.968 1.737-2.074 2.652-3.214 1.68-2.094 1.567-5.048 1.35-6.623-.08-.574-.2-1.149-.337-1.619-.205-.701-.335-.807-.4-.854L18.67.974c-.063-.045-.194-.139-.933-.097-.482.027-1.056.107-1.616.224-1.417.296-2.457.759-3.08 1.095-1.177.637-2.07 1.45-2.655 2.421a166.873 166.873 0 00-2.12 3.633c-1.633-.238-3.897.202-6.156 3.113-.116.15-.174.378.143.279.725-.227 2.187-.484 3.964.279l-.037.066c-.145.254-.32.64-.157 1.061.097.254.298.482.666.753-.13.12-.249.256-.354.408l-.034.054-.02.032c-1.384 2.054-1.617 4.328-.506 5.12 1.112.793 3.15-.196 4.593-2.206l.023-.028a2.535 2.535 0 00.302-.531c.4.282.694.406.975.414zm4.341-8.913a2.207 2.207 0 01-3.088.538c-1-.71-1.24-2.1-.536-3.106a2.207 2.207 0 013.088-.538c1 .71 1.24 2.1.536 3.106z" fill="#FF961C"/><path d="M.467 24.951l3.511-4.967.255.182-3.511 4.967-.255-.182zM2.48 24.318l2.054-2.92.257.183-2.055 2.92-.256-.183z" fill="#FF961C"/></svg>