<svg width="26" height="26" fill="none" xmlns="http://www.w3.org/2000/svg"><path d="M13 25.133c6.7 0 12.133-5.432 12.133-12.133C25.133 6.299 19.7.867 13 .867 6.297.867.865 6.299.865 13c0 6.701 5.432 12.133 12.133 12.133z" fill="#FF961C"/><path d="M13 25.133c6.7 0 12.133-5.432 12.133-12.133C25.133 6.299 19.7.867 13 .867 6.297.867.865 6.299.865 13c0 6.701 5.432 12.133 12.133 12.133z" fill="#FF961C"/><path d="M20.972 9.408c-.688-.482-1.424-.995-2.144-1.504a.578.578 0 00-.052-.036.966.966 0 00-.282-.159l-.008-.004c-1.925-.465-3.883-.943-5.776-1.404-1.719-.418-3.433-.836-5.152-1.253l-.135-.036c-.155-.044-.334-.092-.525-.068A.366.366 0 006.75 5l-.048.04a.584.584 0 00-.135.215l-.012.031v.183l.008.028c1.086 3.043 2.2 6.13 3.274 9.118.827 2.3 1.686 4.682 2.526 7.022.051.159.199.262.382.278h.04a.448.448 0 00.397-.219l3.15-4.595c.769-1.117 1.537-2.24 2.304-3.357.315-.458.629-.92.943-1.377.517-.755 1.05-1.535 1.58-2.295l.027-.04v-.047c.012-.14.016-.426-.215-.577zm-3.691 1.675c-.74.385-1.496.783-2.256 1.177l1.329-1.424c.553-.597 1.13-1.213 1.695-1.818l.012-.012c.047-.064.107-.123.17-.187.044-.044.092-.088.136-.14.294.204.592.41.879.613.207.148.418.295.633.442-.876.446-1.75.903-2.598 1.348zm-1.902-.191c-.569.616-1.157 1.249-1.742 1.873a1115.078 1115.078 0 00-3.414-4.121L8.692 6.802l-.004-.004c-.115-.131-.227-.274-.338-.41-.072-.091-.147-.179-.223-.27.461.12.927.23 1.384.338.402.095.82.195 1.23.298l6.926 1.683c-.768.82-1.54 1.651-2.288 2.455zm-2 7.753c.043-.418.09-.847.13-1.27l.108-1.014c.056-.529.115-1.078.163-1.615l.012-.095c.04-.342.08-.696.103-1.05.044-.024.092-.048.144-.068.06-.028.119-.052.179-.088.918-.48 1.837-.962 2.76-1.44.92-.477 1.862-.97 2.797-1.46a786.29 786.29 0 00-2.534 3.692c-.712 1.038-1.444 2.109-2.172 3.163-.287.422-.585.851-.867 1.265-.319.461-.645.935-.963 1.408.04-.477.087-.959.14-1.428zM7.832 7.057c-.052-.144-.108-.29-.155-.43 1.074 1.297 2.156 2.602 3.21 3.867.545.656 1.09 1.309 1.635 1.969.107.123.215.255.318.382.135.163.27.334.418.497-.048.41-.088.824-.131 1.221-.028.279-.056.557-.088.84v.004c-.012.179-.036.358-.056.533l-.091.792-.004.027c-.072.804-.16 1.615-.243 2.403-.036.326-.067.66-.103.995-.02-.06-.044-.12-.064-.175-.06-.16-.12-.327-.175-.49l-.426-1.181c-1.348-3.752-2.697-7.499-4.045-11.254z" fill="#fff"/></svg>