<svg width="65" height="65" fill="none" xmlns="http://www.w3.org/2000/svg"><path d="M32.5 65C50.45 65 65 50.45 65 32.5S50.45 0 32.5 0 0 14.55 0 32.5 14.55 65 32.5 65z" fill="#2775CA"/><path d="M26.542 54.98c0 .812-.542 1.083-1.355 1.083-10.02-3.25-17.062-12.459-17.062-23.292 0-10.834 7.042-20.042 17.063-23.292.812-.27 1.354.271 1.354 1.084v1.895c0 .542-.271 1.084-.813 1.354-7.854 2.98-13.27 10.292-13.27 18.959 0 8.666 5.687 16.25 13.27 18.958.542.271.813.813.813 1.354v1.896z" fill="#fff"/><path d="M34.667 48.208c0 .542-.542 1.084-1.084 1.084h-2.166c-.542 0-1.084-.542-1.084-1.084v-3.25c-4.333-.541-6.5-2.979-7.312-6.5 0-.541.27-1.083.813-1.083h2.437c.542 0 .813.27 1.083.813.542 1.895 1.625 3.52 5.146 3.52 2.709 0 4.604-1.354 4.604-3.52 0-2.167-1.083-2.98-4.875-3.521-5.687-.813-8.395-2.438-8.395-7.042 0-3.52 2.708-6.23 6.5-6.77v-3.25c0-.543.541-1.084 1.083-1.084h2.166c.542 0 1.084.541 1.084 1.083v3.25c3.25.542 5.416 2.438 5.958 5.417 0 .541-.27 1.083-.812 1.083h-2.167c-.542 0-.813-.27-1.083-.812-.542-1.896-1.896-2.709-4.334-2.709-2.708 0-4.062 1.355-4.062 3.25 0 1.896.812 2.98 4.875 3.521 5.687.813 8.396 2.438 8.396 7.042 0 3.52-2.709 6.5-6.771 7.312v3.25z" fill="#fff"/><path d="M39.812 56.063c-.812.27-1.354-.271-1.354-1.084v-1.896c0-.541.27-1.083.813-1.354 7.854-2.979 13.27-10.291 13.27-18.958 0-8.667-5.687-16.25-13.27-18.959-.542-.27-.813-.812-.813-1.354v-1.896c0-.812.542-1.083 1.354-1.083 9.75 3.25 17.063 12.459 17.063 23.292 0 10.833-7.042 20.041-17.063 23.291z" fill="#fff"/></svg>