<svg width="112" height="75" viewBox="0 0 112 75" fill="none" xmlns="http://www.w3.org/2000/svg">
    <path d="M32.5 70C50.4493 70 65 55.4493 65 37.5C65 19.5507 50.4493 5 32.5 5C14.5507 5 0 19.5507 0 37.5C0 55.4493 14.5507 70 32.5 70Z" fill="#2775CA"/>
    <path d="M26.5417 59.9791C26.5417 60.7916 26 61.0625 25.1875 61.0625C15.1667 57.8125 8.125 48.6041 8.125 37.7708C8.125 26.9375 15.1667 17.7291 25.1875 14.4791C26 14.2083 26.5417 14.75 26.5417 15.5625V17.4583C26.5417 18 26.2708 18.5416 25.7292 18.8125C17.875 21.7916 12.4583 29.1041 12.4583 37.7708C12.4583 46.4375 18.1458 54.0208 25.7292 56.7291C26.2708 57 26.5417 57.5416 26.5417 58.0833V59.9791Z" fill="white"/>
    <path d="M34.6668 53.2084C34.6668 53.75 34.1252 54.2917 33.5835 54.2917H31.4168C30.8752 54.2917 30.3335 53.75 30.3335 53.2084V49.9584C26.0002 49.4167 23.8335 46.9792 23.021 43.4584C23.021 42.9167 23.2918 42.375 23.8335 42.375H26.271C26.8127 42.375 27.0835 42.6459 27.3543 43.1875C27.896 45.0834 28.9793 46.7084 32.5002 46.7084C35.2085 46.7084 37.1043 45.3542 37.1043 43.1875C37.1043 41.0209 36.021 40.2084 32.2293 39.6667C26.5418 38.8542 23.8335 37.2292 23.8335 32.625C23.8335 29.1042 26.5418 26.3959 30.3335 25.8542V22.6042C30.3335 22.0625 30.8752 21.5209 31.4168 21.5209H33.5835C34.1252 21.5209 34.6668 22.0625 34.6668 22.6042V25.8542C37.9168 26.3959 40.0835 28.2917 40.6252 31.2709C40.6252 31.8125 40.3543 32.3542 39.8127 32.3542H37.646C37.1043 32.3542 36.8335 32.0834 36.5627 31.5417C36.021 29.6459 34.6668 28.8334 32.2293 28.8334C29.521 28.8334 28.1668 30.1875 28.1668 32.0834C28.1668 33.9792 28.9793 35.0625 33.0418 35.6042C38.7293 36.4167 41.4377 38.0417 41.4377 42.6459C41.4377 46.1667 38.7293 49.1459 34.6668 49.9584V53.2084Z" fill="white"/>
    <path d="M39.8122 61.0625C38.9997 61.3333 38.458 60.7916 38.458 59.9791V58.0833C38.458 57.5416 38.7288 57 39.2705 56.7291C47.1247 53.75 52.5413 46.4375 52.5413 37.7708C52.5413 29.1041 46.8538 21.5208 39.2705 18.8125C38.7288 18.5416 38.458 18 38.458 17.4583V15.5625C38.458 14.75 38.9997 14.4791 39.8122 14.4791C49.5622 17.7291 56.8747 26.9375 56.8747 37.7708C56.8747 48.6041 49.833 57.8125 39.8122 61.0625Z" fill="white"/>
    <path d="M107 37.5C107 55.4493 92.4493 70 74.5 70C56.5507 70 42 55.4493 42 37.5C42 19.5507 56.5507 5 74.5 5C92.4493 5 107 19.5507 107 37.5Z" fill="#B640A6"/>
    <path fill-rule="evenodd" clip-rule="evenodd" d="M112 37.5C112 58.2107 95.2107 75 74.5 75C53.7893 75 37 58.2107 37 37.5C37 16.7893 53.7893 0 74.5 0C95.2107 0 112 16.7893 112 37.5ZM74.5 70C92.4493 70 107 55.4493 107 37.5C107 19.5507 92.4493 5 74.5 5C56.5507 5 42 19.5507 42 37.5C42 55.4493 56.5507 70 74.5 70Z" fill="white"/>
    <path fill-rule="evenodd" clip-rule="evenodd" d="M74.6351 14.6509C74.5919 14.6369 74.5464 14.6296 74.5002 14.6296C74.4543 14.6296 74.409 14.6369 74.3659 14.6507C74.2716 14.6809 74.188 14.7427 74.1314 14.8295C74.1278 14.835 74.1244 14.8406 74.121 14.8462L60.5197 37.5612C60.4593 37.6621 60.4416 37.7831 60.4707 37.8971C60.4998 38.0112 60.5732 38.1088 60.6746 38.1684L74.2766 46.1632C74.2781 46.1641 74.2797 46.165 74.2813 46.166C74.4168 46.2436 74.5834 46.2437 74.7191 46.166C74.7196 46.1657 74.72 46.1655 74.7204 46.1652C74.7215 46.1646 74.7226 46.164 74.7236 46.1634L88.3259 38.1684C88.4273 38.1088 88.5007 38.0112 88.5298 37.8971C88.5588 37.7831 88.5412 37.6621 88.4807 37.5612L74.8795 14.8462C74.8761 14.8406 74.8727 14.835 74.8691 14.8295C74.815 14.7467 74.7335 14.6825 74.6351 14.6509ZM74.9408 16.6644V31.3281L86.9991 36.8026L74.9408 16.6644ZM74.9408 32.2968V45.0127L87.147 37.8384L74.9408 32.2968ZM74.0597 45.0127V32.2968L61.8535 37.8384L74.0597 45.0127ZM74.0597 31.3281V16.6644L62.0013 36.8026L74.0597 31.3281Z" fill="white"/>
    <path fill-rule="evenodd" clip-rule="evenodd" d="M61.529 41.5713C61.409 41.4011 61.4243 41.1701 61.5656 41.0172C61.707 40.8643 61.9359 40.8314 62.1146 40.9381L74.4727 48.3186L86.8308 40.9381C87.0095 40.8314 87.2384 40.8643 87.3798 41.0172C87.5212 41.1701 87.5364 41.4011 87.4165 41.5713L74.8602 59.3811C74.7706 59.5082 74.6228 59.5765 74.4727 59.567C74.3226 59.5765 74.1748 59.5082 74.0852 59.3811L61.529 41.5713ZM74.0046 57.7369V49.0663L63.4458 42.7604L74.0046 57.7369ZM74.9408 57.7369V49.0663L85.4996 42.7604L74.9408 57.7369Z" fill="white"/>
</svg>
