<svg width="26" height="26" fill="none" xmlns="http://www.w3.org/2000/svg"><path fill-rule="evenodd" clip-rule="evenodd" d="M13.12 1.735h.012l.05-.001.205.001c.183.005.453.02.79.058.674.076 1.613.247 2.662.628 1.914.696 4.2 2.088 5.926 4.895H13.67a5.846 5.846 0 00-1.24 0l-.047.003a3.316 3.316 0 00-.317.032c-.265.04-.628.122-1.05.293a5.305 5.305 0 00-.293.129 5.833 5.833 0 00-3.411 4.476 2007.77 2007.77 0 01-2.869-5l-.453-.79-.003-.006c.08-.118.189-.273.33-.454.345-.444.878-1.045 1.622-1.655 1.484-1.216 3.81-2.476 7.18-2.609h.001zM5.889 12.086l1.443 2.516c.696 2.462 2.947 4.263 5.616 4.266.819 0 1.599-.17 2.306-.477a2116.478 2116.478 0 01-2.915 5.075l-.459.795-.003.006a7.938 7.938 0 01-.56-.06c-.56-.08-1.349-.245-2.252-.59-1.802-.688-4.065-2.093-5.874-4.978l-.001-.002-.001-.001-.006-.01a3.455 3.455 0 01-.127-.224 9.396 9.396 0 01-.348-.72c-.273-.63-.596-1.54-.793-2.652-.359-2.03-.3-4.736 1.269-7.663l2.705 4.72zm11.467 4.77l-1.627 2.768L13 24.267c3.327-.096 5.702-1.376 7.28-2.682.865-.716 1.49-1.44 1.899-1.984a9.208 9.208 0 00.556-.83l.024-.042.005-.01.001-.001v-.002c1.59-2.971 1.667-5.603 1.357-7.486a10.29 10.29 0 00-.623-2.221 7.807 7.807 0 00-.23-.51h-.926a4135.865 4135.865 0 00-5.888-.006c.068.052.133.104.196.157.587.49.965 1.037 1.293 1.513l.056.08.019.041c.716 1.519.781 2.784.65 3.687a4.651 4.651 0 01-.242.959 5.741 5.741 0 01-1.072 1.925zm-4.543-7.987a4.319 4.319 0 100 8.638 4.319 4.319 0 000-8.638z" fill="#8B8BB8"/></svg>