<svg version="1.1" viewBox="0.0 0.0 904.0 559.0" fill="none" stroke="none" stroke-linecap="square" stroke-miterlimit="10" width="904" height="559" xmlns:xlink="http://www.w3.org/1999/xlink" xmlns="http://www.w3.org/2000/svg"><path fill="#ffffff" d="M0 0L904.0 0L904.0 559.0L0 559.0L0 0Z" fill-rule="nonzero"/><path fill="#5891ad" d="M452.0 122.38583C533.81525 122.38583 609.48474 152.77896 650.7702 202.22318L452.0 283.54916Z" fill-rule="nonzero"/><path fill="#003044" d="M682.23334 318.08417C682.23334 333.71597 678.98444 349.26465 672.58875 364.24164L672.58875 329.70663C678.98444 314.72964 682.23334 299.181 682.23334 283.54916Z" fill-rule="nonzero"/><path fill="#004561" d="M650.7702 202.22318C682.95465 240.76782 690.8554 286.93103 672.58875 329.70663L452.0 283.54916Z" fill-rule="nonzero"/><path fill="#b34e22" d="M672.58875 364.24164C655.45746 404.35858 616.6945 438.23364 564.50714 458.69452L564.50714 424.15952C616.6945 403.69864 655.45746 369.82358 672.58875 329.70663Z" fill-rule="nonzero"/><path fill="#ff6f31" d="M672.58875 329.70663C655.45746 369.82358 616.6945 403.69864 564.50714 424.15952L452.0 283.54916Z" fill-rule="nonzero"/><path fill="#577dc2" d="M419.27017 124.022644C430.11063 122.93282 441.04834 122.38583 452.0 122.38583L452.0 283.54916Z" fill-rule="nonzero"/><path fill="#609faa" d="M380.02206 130.46417C392.81055 127.51784 405.94357 125.3624 419.27017 124.022644L452.0 283.54916Z" fill-rule="nonzero"/><path fill="#ff9a6f" d="M311.9074 155.65503C332.43002 144.6398 355.45718 136.12366 380.02206 130.46417L452.0 283.54916Z" fill-rule="nonzero"/><path fill="#4d7d90" d="M254.18549 201.08928C269.13373 183.51808 288.7229 168.09898 311.9074 155.65503L452.0 283.54916Z" fill-rule="nonzero"/><path fill="#8ab2c6" d="M221.92354 277.6008C223.3478 250.6074 234.44164 224.29758 254.18549 201.08928L452.0 283.54916Z" fill-rule="nonzero"/><path fill="#359a61" d="M265.93735 413.00604C237.23247 385.43552 221.76666 352.19983 221.76666 318.08417L221.76666 283.54916C221.76666 317.66486 237.23247 350.9005 265.93735 378.47104Z" fill-rule="nonzero"/><path fill="#4cdc8b" d="M265.93735 378.47104C235.51915 349.2549 220.01735 313.72812 221.92354 277.6008L452.0 283.54916Z" fill-rule="nonzero"/><path fill="#0b3076" d="M396.63147 474.51767C344.09155 465.40555 297.8179 443.6267 265.93735 413.00604L265.93735 378.47104C297.8179 409.0917 344.09155 430.87057 396.63147 439.98267Z" fill-rule="nonzero"/><path fill="#0f45a8" d="M396.63147 439.98267C344.09155 430.87057 297.8179 409.0917 265.93735 378.47104L452.0 283.54916Z" fill-rule="nonzero"/><path fill="#14535d" d="M564.50714 458.69452C513.45435 478.71057 453.42932 484.36823 396.63147 474.51767L396.63147 439.98267C453.42932 449.83322 513.45435 444.17557 564.50714 424.15952Z" fill-rule="nonzero"/><path fill="#1c7685" d="M564.50714 424.15952C513.45435 444.17557 453.42932 449.83322 396.63147 439.98267L452.0 283.54916Z" fill-rule="nonzero"/><path fill="#1a1a1a" d="M28.98125 106.02002L28.98125 96.004395L33.23125 96.004395Q34.840626 96.004395 35.559376 96.27002Q36.29375 96.535645 36.73125 97.23877Q37.16875 97.92627 37.16875 98.80127Q37.16875 99.941895 36.496876 100.67627Q35.840626 101.410645 34.528126 101.598145Q35.184376 101.973145 35.60625 102.441895Q36.04375 102.89502 36.7625 104.066895L37.98125 106.02002L35.559376 106.02002L34.10625 103.83252Q33.325 102.67627 33.028126 102.379395Q32.746876 102.066895 32.41875 101.95752Q32.10625 101.83252 31.403126 101.83252L30.996876 101.83252L30.996876 106.02002L28.98125 106.02002ZM30.996876 100.23877L32.496876 100.23877Q33.95 100.23877 34.309376 100.11377Q34.684376 99.98877 34.8875 99.691895Q35.090626 99.39502 35.090626 98.941895Q35.090626 98.42627 34.809376 98.129395Q34.54375 97.816895 34.059376 97.723145Q33.809376 97.691895 32.575 97.691895L30.996876 97.691895L30.996876 100.23877ZM38.965626 106.02002L38.965626 96.004395L46.403126 96.004395L46.403126 97.691895L40.996876 97.691895L40.996876 99.910645L46.028126 99.910645L46.028126 101.598145L40.996876 101.598145L40.996876 104.33252L46.590626 104.33252L46.590626 106.02002L38.965626 106.02002ZM47.965626 106.02002L47.965626 96.004395L51.215626 96.004395Q53.059376 96.004395 53.621876 96.14502Q54.48125 96.379395 55.059376 97.129395Q55.653126 97.879395 55.653126 99.08252Q55.653126 100.004395 55.309376 100.629395Q54.98125 101.254395 54.465626 101.61377Q53.95 101.973145 53.403126 102.098145Q52.684376 102.23877 51.309376 102.23877L49.996876 102.23877L49.996876 106.02002L47.965626 106.02002ZM49.996876 97.691895L49.996876 100.535645L51.10625 100.535645Q52.29375 100.535645 52.7 100.379395Q53.10625 100.223145 53.325 99.89502Q53.559376 99.55127 53.559376 99.11377Q53.559376 98.566895 53.23125 98.20752Q52.91875 97.848145 52.41875 97.754395Q52.059376 97.691895 50.965626 97.691895L49.996876 97.691895Z" fill-rule="nonzero"/><path fill="#9e9e9e" d="M35.028126 124.23877L35.028126 126.02002L28.29375 126.02002Q28.403126 125.004395 28.95 124.098145Q29.496876 123.191895 31.121876 121.691895Q32.41875 120.48877 32.715626 120.05127Q33.10625 119.45752 33.10625 118.879395Q33.10625 118.23877 32.7625 117.89502Q32.41875 117.55127 31.809376 117.55127Q31.2 117.55127 30.840626 117.910645Q30.496876 118.27002 30.434376 119.11377L28.528126 118.92627Q28.7 117.33252 29.590626 116.64502Q30.496876 115.95752 31.85625 115.95752Q33.340626 115.95752 34.184376 116.754395Q35.028126 117.55127 35.028126 118.73877Q35.028126 119.42627 34.778126 120.035645Q34.54375 120.64502 34.028126 121.316895Q33.66875 121.754395 32.7625 122.598145Q31.85625 123.42627 31.60625 123.70752Q31.371876 123.973145 31.215626 124.23877L35.028126 124.23877ZM36.903126 124.098145L38.825 124.098145L38.825 125.473145Q38.825 126.30127 38.684376 126.785645Q38.54375 127.27002 38.1375 127.64502Q37.746876 128.03564 37.121876 128.2544L36.746876 127.45752Q37.325 127.27002 37.575 126.92627Q37.825 126.598145 37.840626 126.02002L36.903126 126.02002L36.903126 124.098145ZM40.48125 123.36377L42.340626 123.129395Q42.41875 123.848145 42.809376 124.223145Q43.2 124.598145 43.7625 124.598145Q44.35625 124.598145 44.7625 124.14502Q45.16875 123.691895 45.16875 122.92627Q45.16875 122.20752 44.778126 121.785645Q44.3875 121.36377 43.825 121.36377Q43.45 121.36377 42.95 121.504395L43.153126 119.941895Q43.934376 119.95752 44.340626 119.598145Q44.7625 119.23877 44.7625 118.64502Q44.7625 118.14502 44.45 117.848145Q44.153126 117.535645 43.653126 117.535645Q43.16875 117.535645 42.809376 117.879395Q42.465626 118.223145 42.3875 118.879395L40.621876 118.58252Q40.809376 117.660645 41.16875 117.129395Q41.54375 116.58252 42.215626 116.27002Q42.8875 115.95752 43.715626 115.95752Q45.121876 115.95752 45.98125 116.86377Q46.684376 117.598145 46.684376 118.52002Q46.684376 119.848145 45.246876 120.629395Q46.10625 120.816895 46.621876 121.45752Q47.1375 122.098145 47.1375 123.004395Q47.1375 124.33252 46.16875 125.27002Q45.2 126.191895 43.778126 126.191895Q42.41875 126.191895 41.5125 125.410645Q40.621876 124.629395 40.48125 123.36377ZM48.559376 118.473145Q48.559376 117.129395 49.153126 116.48877Q49.746876 115.83252 50.746876 115.83252Q51.79375 115.83252 52.3875 116.473145Q52.98125 117.11377 52.98125 118.473145Q52.98125 119.816895 52.3875 120.473145Q51.79375 121.11377 50.79375 121.11377Q49.746876 121.11377 49.153126 120.473145Q48.559376 119.83252 48.559376 118.473145ZM50.059376 118.45752Q50.059376 119.441895 50.278126 119.77002Q50.45 120.02002 50.746876 120.02002Q51.059376 120.02002 51.23125 119.77002Q51.45 119.441895 51.45 118.45752Q51.45 117.48877 51.23125 117.160645Q51.059376 116.89502 50.746876 116.89502Q50.45 116.89502 50.278126 117.14502Q50.059376 117.48877 50.059376 118.45752ZM52.215626 126.410645L50.79375 126.410645L56.1375 115.83252L57.5125 115.83252L52.215626 126.410645ZM55.325 123.77002Q55.325 122.42627 55.903126 121.785645Q56.496876 121.129395 57.528126 121.129395Q58.559376 121.129395 59.153126 121.785645Q59.746876 122.42627 59.746876 123.77002Q59.746876 125.129395 59.153126 125.785645Q58.559376 126.42627 57.54375 126.42627Q56.496876 126.42627 55.903126 125.785645Q55.325 125.129395 55.325 123.77002ZM56.809376 123.77002Q56.809376 124.73877 57.04375 125.066895Q57.215626 125.316895 57.5125 125.316895Q57.825 125.316895 57.98125 125.08252Q58.215626 124.73877 58.215626 123.77002Q58.215626 122.785645 57.996876 122.45752Q57.825 122.20752 57.5125 122.20752Q57.2 122.20752 57.04375 122.45752Q56.809376 122.785645 56.809376 123.77002Z" fill-rule="nonzero"/><path stroke="#757575" stroke-width="1.0" stroke-linecap="butt" d="M27.95 111.52002L215.76666 111.52002L436.4137 130.83324" fill-rule="nonzero"/><path fill="#9e9e9e" d="M438.4137 130.83324C438.4137 129.72867 437.51828 128.83324 436.4137 128.83324C435.30914 128.83324 434.4137 129.72867 434.4137 130.83324C434.4137 131.9378 435.30914 132.83324 436.4137 132.83324C437.51828 132.83324 438.4137 131.9378 438.4137 130.83324" fill-rule="nonzero"/><path fill="#1a1a1a" d="M28.98125 133.0044L32.98125 133.0044Q34.16875 133.0044 34.746876 133.09814Q35.340626 133.1919 35.79375 133.52002Q36.2625 133.83252 36.559376 134.34814Q36.871876 134.86377 36.871876 135.52002Q36.871876 136.22314 36.496876 136.8169Q36.121876 137.39502 35.465626 137.6919Q36.3875 137.95752 36.871876 138.59814Q37.371876 139.23877 37.371876 140.11377Q37.371876 140.80127 37.04375 141.4419Q36.73125 142.08252 36.184376 142.47314Q35.6375 142.86377 34.825 142.95752Q34.325 143.0044 32.3875 143.02002L28.98125 143.02002L28.98125 133.0044ZM30.996876 134.66064L30.996876 136.98877L32.325 136.98877Q33.5125 136.98877 33.79375 136.9419Q34.309376 136.89502 34.60625 136.59814Q34.903126 136.28564 34.903126 135.80127Q34.903126 135.34814 34.653126 135.05127Q34.403126 134.7544 33.8875 134.70752Q33.590626 134.66064 32.16875 134.66064L30.996876 134.66064ZM30.996876 138.64502L30.996876 141.33252L32.871876 141.33252Q33.965626 141.33252 34.2625 141.27002Q34.715626 141.1919 34.996876 140.8794Q35.278126 140.55127 35.278126 140.02002Q35.278126 139.5669 35.059376 139.2544Q34.840626 138.9419 34.41875 138.80127Q34.0125 138.64502 32.6375 138.64502L30.996876 138.64502ZM48.0125 143.02002L45.809376 143.02002L44.934376 140.73877L40.91875 140.73877L40.090626 143.02002L37.95 143.02002L41.85625 133.0044L43.996876 133.0044L48.0125 143.02002ZM44.278126 139.05127L42.903126 135.33252L41.54375 139.05127L44.278126 139.05127ZM49.028126 143.02002L49.028126 133.08252L51.04375 133.08252L51.04375 141.33252L56.075 141.33252L56.075 143.02002L49.028126 143.02002Z" fill-rule="nonzero"/><path fill="#9e9e9e" d="M35.028126 161.23877L35.028126 163.02002L28.29375 163.02002Q28.403126 162.0044 28.95 161.09814Q29.496876 160.1919 31.121876 158.6919Q32.41875 157.48877 32.715626 157.05127Q33.10625 156.45752 33.10625 155.8794Q33.10625 155.23877 32.7625 154.89502Q32.41875 154.55127 31.809376 154.55127Q31.2 154.55127 30.840626 154.91064Q30.496876 155.27002 30.434376 156.11377L28.528126 155.92627Q28.7 154.33252 29.590626 153.64502Q30.496876 152.95752 31.85625 152.95752Q33.340626 152.95752 34.184376 153.7544Q35.028126 154.55127 35.028126 155.73877Q35.028126 156.42627 34.778126 157.03564Q34.54375 157.64502 34.028126 158.3169Q33.66875 158.7544 32.7625 159.59814Q31.85625 160.42627 31.60625 160.70752Q31.371876 160.97314 31.215626 161.23877L35.028126 161.23877ZM36.903126 161.09814L38.825 161.09814L38.825 162.47314Q38.825 163.30127 38.684376 163.78564Q38.54375 164.27002 38.1375 164.64502Q37.746876 165.03564 37.121876 165.2544L36.746876 164.45752Q37.325 164.27002 37.575 163.92627Q37.825 163.59814 37.840626 163.02002L36.903126 163.02002L36.903126 161.09814ZM42.2 157.61377Q41.45 157.30127 41.10625 156.7544Q40.778126 156.1919 40.778126 155.53564Q40.778126 154.42627 41.559376 153.6919Q42.340626 152.95752 43.778126 152.95752Q45.2 152.95752 45.996876 153.6919Q46.79375 154.42627 46.79375 155.53564Q46.79375 156.23877 46.41875 156.78564Q46.059376 157.33252 45.403126 157.61377Q46.246876 157.9419 46.66875 158.59814Q47.10625 159.23877 47.10625 160.0669Q47.10625 161.45752 46.215626 162.33252Q45.340626 163.1919 43.871876 163.1919Q42.496876 163.1919 41.590626 162.47314Q40.5125 161.6294 40.5125 160.16064Q40.5125 159.34814 40.91875 158.67627Q41.325 157.98877 42.2 157.61377ZM42.590626 155.67627Q42.590626 156.2544 42.903126 156.58252Q43.23125 156.89502 43.778126 156.89502Q44.325 156.89502 44.653126 156.5669Q44.98125 156.23877 44.98125 155.67627Q44.98125 155.1294 44.653126 154.8169Q44.325 154.48877 43.79375 154.48877Q43.246876 154.48877 42.91875 154.8169Q42.590626 155.14502 42.590626 155.67627ZM42.41875 159.97314Q42.41875 160.77002 42.825 161.20752Q43.23125 161.64502 43.840626 161.64502Q44.434376 161.64502 44.809376 161.22314Q45.2 160.80127 45.2 159.98877Q45.2 159.28564 44.809376 158.86377Q44.41875 158.42627 43.809376 158.42627Q43.10625 158.42627 42.7625 158.92627Q42.41875 159.41064 42.41875 159.97314ZM48.559376 155.47314Q48.559376 154.1294 49.153126 153.48877Q49.746876 152.83252 50.746876 152.83252Q51.79375 152.83252 52.3875 153.47314Q52.98125 154.11377 52.98125 155.47314Q52.98125 156.8169 52.3875 157.47314Q51.79375 158.11377 50.79375 158.11377Q49.746876 158.11377 49.153126 157.47314Q48.559376 156.83252 48.559376 155.47314ZM50.059376 155.45752Q50.059376 156.4419 50.278126 156.77002Q50.45 157.02002 50.746876 157.02002Q51.059376 157.02002 51.23125 156.77002Q51.45 156.4419 51.45 155.45752Q51.45 154.48877 51.23125 154.16064Q51.059376 153.89502 50.746876 153.89502Q50.45 153.89502 50.278126 154.14502Q50.059376 154.48877 50.059376 155.45752ZM52.215626 163.41064L50.79375 163.41064L56.1375 152.83252L57.5125 152.83252L52.215626 163.41064ZM55.325 160.77002Q55.325 159.42627 55.903126 158.78564Q56.496876 158.1294 57.528126 158.1294Q58.559376 158.1294 59.153126 158.78564Q59.746876 159.42627 59.746876 160.77002Q59.746876 162.1294 59.153126 162.78564Q58.559376 163.42627 57.54375 163.42627Q56.496876 163.42627 55.903126 162.78564Q55.325 162.1294 55.325 160.77002ZM56.809376 160.77002Q56.809376 161.73877 57.04375 162.0669Q57.215626 162.3169 57.5125 162.3169Q57.825 162.3169 57.98125 162.08252Q58.215626 161.73877 58.215626 160.77002Q58.215626 159.78564 57.996876 159.45752Q57.825 159.20752 57.5125 159.20752Q57.2 159.20752 57.04375 159.45752Q56.809376 159.78564 56.809376 160.77002Z" fill-rule="nonzero"/><path stroke="#757575" stroke-width="1.0" stroke-linecap="butt" d="M27.95 148.52002L215.76666 148.52002L402.0721 134.48634" fill-rule="nonzero"/><path fill="#9e9e9e" d="M404.0721 134.48634C404.0721 133.38177 403.1767 132.48634 402.0721 132.48634C400.96753 132.48634 400.0721 133.38177 400.0721 134.48634C400.0721 135.59093 400.96753 136.48634 402.0721 136.48634C403.1767 136.48634 404.0721 135.59093 404.0721 134.48634" fill-rule="nonzero"/><path fill="#1a1a1a" d="M28.996876 180.02002L28.996876 170.0044L31.0125 170.0044L31.0125 174.4419L35.10625 170.0044L37.825 170.0044L34.059376 173.89502L38.028126 180.02002L35.41875 180.02002L32.653126 175.3169L31.0125 176.98877L31.0125 180.02002L28.996876 180.02002ZM38.996876 180.02002L38.996876 170.0044L40.965626 170.0044L45.059376 176.6919L45.059376 170.0044L46.934376 170.0044L46.934376 180.02002L44.903126 180.02002L40.871876 173.48877L40.871876 180.02002L38.996876 180.02002ZM55.3875 176.33252L57.340626 176.95752Q56.8875 178.59814 55.840626 179.39502Q54.79375 180.1919 53.184376 180.1919Q51.184376 180.1919 49.8875 178.83252Q48.60625 177.45752 48.60625 175.09814Q48.60625 172.59814 49.903126 171.22314Q51.2 169.83252 53.309376 169.83252Q55.1375 169.83252 56.29375 170.91064Q56.98125 171.55127 57.309376 172.7544L55.309376 173.23877Q55.1375 172.45752 54.575 172.0044Q54.0125 171.55127 53.2 171.55127Q52.090626 171.55127 51.3875 172.36377Q50.7 173.16064 50.7 174.9419Q50.7 176.84814 51.371876 177.66064Q52.059376 178.45752 53.153126 178.45752Q53.965626 178.45752 54.54375 177.95752Q55.121876 177.4419 55.3875 176.33252Z" fill-rule="nonzero"/><path fill="#9e9e9e" d="M28.575 197.4419L30.48125 197.23877Q30.575 197.89502 30.965626 198.27002Q31.371876 198.64502 31.903126 198.64502Q32.496876 198.64502 32.91875 198.16064Q33.340626 197.67627 33.340626 196.6919Q33.340626 195.77002 32.91875 195.3169Q32.5125 194.84814 31.840626 194.84814Q31.0125 194.84814 30.35625 195.58252L28.809376 195.34814L29.79375 190.1294L34.871876 190.1294L34.871876 191.92627L31.246876 191.92627L30.95 193.6294Q31.590626 193.3169 32.2625 193.3169Q33.528126 193.3169 34.41875 194.2544Q35.309376 195.17627 35.309376 196.66064Q35.309376 197.89502 34.590626 198.86377Q33.621876 200.1919 31.8875 200.1919Q30.496876 200.1919 29.621876 199.45752Q28.746876 198.70752 28.575 197.4419ZM36.903126 198.09814L38.825 198.09814L38.825 199.47314Q38.825 200.30127 38.684376 200.78564Q38.54375 201.27002 38.1375 201.64502Q37.746876 202.03564 37.121876 202.2544L36.746876 201.45752Q37.325 201.27002 37.575 200.92627Q37.825 200.59814 37.840626 200.02002L36.903126 200.02002L36.903126 198.09814ZM44.309376 200.02002L44.309376 198.0044L40.215626 198.0044L40.215626 196.3169L44.559376 189.95752L46.16875 189.95752L46.16875 196.3169L47.41875 196.3169L47.41875 198.0044L46.16875 198.0044L46.16875 200.02002L44.309376 200.02002ZM44.309376 196.3169L44.309376 192.89502L42.0125 196.3169L44.309376 196.3169ZM48.559376 192.47314Q48.559376 191.1294 49.153126 190.48877Q49.746876 189.83252 50.746876 189.83252Q51.79375 189.83252 52.3875 190.47314Q52.98125 191.11377 52.98125 192.47314Q52.98125 193.8169 52.3875 194.47314Q51.79375 195.11377 50.79375 195.11377Q49.746876 195.11377 49.153126 194.47314Q48.559376 193.83252 48.559376 192.47314ZM50.059376 192.45752Q50.059376 193.4419 50.278126 193.77002Q50.45 194.02002 50.746876 194.02002Q51.059376 194.02002 51.23125 193.77002Q51.45 193.4419 51.45 192.45752Q51.45 191.48877 51.23125 191.16064Q51.059376 190.89502 50.746876 190.89502Q50.45 190.89502 50.278126 191.14502Q50.059376 191.48877 50.059376 192.45752ZM52.215626 200.41064L50.79375 200.41064L56.1375 189.83252L57.5125 189.83252L52.215626 200.41064ZM55.325 197.77002Q55.325 196.42627 55.903126 195.78564Q56.496876 195.1294 57.528126 195.1294Q58.559376 195.1294 59.153126 195.78564Q59.746876 196.42627 59.746876 197.77002Q59.746876 199.1294 59.153126 199.78564Q58.559376 200.42627 57.54375 200.42627Q56.496876 200.42627 55.903126 199.78564Q55.325 199.1294 55.325 197.77002ZM56.809376 197.77002Q56.809376 198.73877 57.04375 199.0669Q57.215626 199.3169 57.5125 199.3169Q57.825 199.3169 57.98125 199.08252Q58.215626 198.73877 58.215626 197.77002Q58.215626 196.78564 57.996876 196.45752Q57.825 196.20752 57.5125 196.20752Q57.2 196.20752 57.04375 196.45752Q56.809376 196.78564 56.809376 197.77002Z" fill-rule="nonzero"/><path stroke="#757575" stroke-width="1.0" stroke-linecap="butt" d="M27.95 185.52002L215.76666 185.52002L349.82645 148.1761" fill-rule="nonzero"/><path fill="#9e9e9e" d="M351.82645 148.1761C351.82645 147.07153 350.931 146.1761 349.82645 146.1761C348.72186 146.1761 347.82645 147.07153 347.82645 148.1761C347.82645 149.28067 348.72186 150.1761 349.82645 150.1761C350.931 150.1761 351.82645 149.28067 351.82645 148.1761" fill-rule="nonzero"/><path fill="#1a1a1a" d="M29.028126 217.02002L29.028126 207.08252L31.04375 207.08252L31.04375 215.33252L36.075 215.33252L36.075 217.02002L29.028126 217.02002ZM37.98125 217.02002L37.98125 207.0044L42.23125 207.0044Q43.840626 207.0044 44.559376 207.27002Q45.29375 207.53564 45.73125 208.23877Q46.16875 208.92627 46.16875 209.80127Q46.16875 210.9419 45.496876 211.67627Q44.840626 212.41064 43.528126 212.59814Q44.184376 212.97314 44.60625 213.4419Q45.04375 213.89502 45.7625 215.0669L46.98125 217.02002L44.559376 217.02002L43.10625 214.83252Q42.325 213.67627 42.028126 213.3794Q41.746876 213.0669 41.41875 212.95752Q41.10625 212.83252 40.403126 212.83252L39.996876 212.83252L39.996876 217.02002L37.98125 217.02002ZM39.996876 211.23877L41.496876 211.23877Q42.95 211.23877 43.309376 211.11377Q43.684376 210.98877 43.8875 210.6919Q44.090626 210.39502 44.090626 209.9419Q44.090626 209.42627 43.809376 209.1294Q43.54375 208.8169 43.059376 208.72314Q42.809376 208.6919 41.575 208.6919L39.996876 208.6919L39.996876 211.23877ZM54.3875 213.33252L56.340626 213.95752Q55.8875 215.59814 54.840626 216.39502Q53.79375 217.1919 52.184376 217.1919Q50.184376 217.1919 48.8875 215.83252Q47.60625 214.45752 47.60625 212.09814Q47.60625 209.59814 48.903126 208.22314Q50.2 206.83252 52.309376 206.83252Q54.1375 206.83252 55.29375 207.91064Q55.98125 208.55127 56.309376 209.7544L54.309376 210.23877Q54.1375 209.45752 53.575 209.0044Q53.0125 208.55127 52.2 208.55127Q51.090626 208.55127 50.3875 209.36377Q49.7 210.16064 49.7 211.9419Q49.7 213.84814 50.371876 214.66064Q51.059376 215.45752 52.153126 215.45752Q52.965626 215.45752 53.54375 214.95752Q54.121876 214.4419 54.3875 213.33252Z" fill-rule="nonzero"/><path fill="#9e9e9e" d="M35.059376 229.45752L33.2 229.66064Q33.121876 229.08252 32.825 228.8169Q32.54375 228.53564 32.090626 228.53564Q31.48125 228.53564 31.059376 229.08252Q30.6375 229.6294 30.528126 231.36377Q31.246876 230.5044 32.325 230.5044Q33.528126 230.5044 34.371876 231.42627Q35.23125 232.34814 35.23125 233.78564Q35.23125 235.33252 34.325 236.27002Q33.434376 237.1919 32.0125 237.1919Q30.496876 237.1919 29.5125 236.02002Q28.54375 234.83252 28.54375 232.14502Q28.54375 229.39502 29.559376 228.17627Q30.575 226.95752 32.215626 226.95752Q33.35625 226.95752 34.090626 227.59814Q34.840626 228.23877 35.059376 229.45752ZM30.7 233.64502Q30.7 234.58252 31.121876 235.09814Q31.559376 235.59814 32.10625 235.59814Q32.653126 235.59814 32.996876 235.1919Q33.35625 234.77002 33.35625 233.8169Q33.35625 232.83252 32.965626 232.3794Q32.590626 231.92627 32.0125 231.92627Q31.465626 231.92627 31.075 232.36377Q30.7 232.80127 30.7 233.64502ZM36.903126 235.09814L38.825 235.09814L38.825 236.47314Q38.825 237.30127 38.684376 237.78564Q38.54375 238.27002 38.1375 238.64502Q37.746876 239.03564 37.121876 239.2544L36.746876 238.45752Q37.325 238.27002 37.575 237.92627Q37.825 237.59814 37.840626 237.02002L36.903126 237.02002L36.903126 235.09814ZM43.79375 226.95752Q45.246876 226.95752 46.075 227.98877Q47.04375 229.22314 47.04375 232.08252Q47.04375 234.92627 46.059376 236.16064Q45.246876 237.1919 43.79375 237.1919Q42.325 237.1919 41.434376 236.0669Q40.54375 234.9419 40.54375 232.05127Q40.54375 229.22314 41.528126 227.98877Q42.340626 226.95752 43.79375 226.95752ZM43.79375 228.55127Q43.45 228.55127 43.16875 228.77002Q42.903126 228.98877 42.746876 229.5669Q42.54375 230.3169 42.54375 232.08252Q42.54375 233.84814 42.715626 234.5044Q42.903126 235.16064 43.16875 235.3794Q43.45 235.59814 43.79375 235.59814Q44.1375 235.59814 44.403126 235.3794Q44.684376 235.16064 44.840626 234.58252Q45.04375 233.84814 45.04375 232.08252Q45.04375 230.3169 44.85625 229.66064Q44.684376 228.98877 44.403126 228.77002Q44.1375 228.55127 43.79375 228.55127ZM48.559376 229.47314Q48.559376 228.1294 49.153126 227.48877Q49.746876 226.83252 50.746876 226.83252Q51.79375 226.83252 52.3875 227.47314Q52.98125 228.11377 52.98125 229.47314Q52.98125 230.8169 52.3875 231.47314Q51.79375 232.11377 50.79375 232.11377Q49.746876 232.11377 49.153126 231.47314Q48.559376 230.83252 48.559376 229.47314ZM50.059376 229.45752Q50.059376 230.4419 50.278126 230.77002Q50.45 231.02002 50.746876 231.02002Q51.059376 231.02002 51.23125 230.77002Q51.45 230.4419 51.45 229.45752Q51.45 228.48877 51.23125 228.16064Q51.059376 227.89502 50.746876 227.89502Q50.45 227.89502 50.278126 228.14502Q50.059376 228.48877 50.059376 229.45752ZM52.215626 237.41064L50.79375 237.41064L56.1375 226.83252L57.5125 226.83252L52.215626 237.41064ZM55.325 234.77002Q55.325 233.42627 55.903126 232.78564Q56.496876 232.1294 57.528126 232.1294Q58.559376 232.1294 59.153126 232.78564Q59.746876 233.42627 59.746876 234.77002Q59.746876 236.1294 59.153126 236.78564Q58.559376 237.42627 57.54375 237.42627Q56.496876 237.42627 55.903126 236.78564Q55.325 236.1294 55.325 234.77002ZM56.809376 234.77002Q56.809376 235.73877 57.04375 236.0669Q57.215626 236.3169 57.5125 236.3169Q57.825 236.3169 57.98125 236.08252Q58.215626 235.73877 58.215626 234.77002Q58.215626 233.78564 57.996876 233.45752Q57.825 233.20752 57.5125 233.20752Q57.2 233.20752 57.04375 233.45752Q56.809376 233.78564 56.809376 234.77002Z" fill-rule="nonzero"/><path stroke="#757575" stroke-width="1.0" stroke-linecap="butt" d="M27.95 222.52002L215.76666 222.52002L288.55994 181.80441" fill-rule="nonzero"/><path fill="#9e9e9e" d="M290.55994 181.80441C290.55994 180.69984 289.66452 179.80441 288.55994 179.80441C287.45538 179.80441 286.55994 180.69984 286.55994 181.80441C286.55994 182.909 287.45538 183.80441 288.55994 183.80441C289.66452 183.80441 290.55994 182.909 290.55994 181.80441" fill-rule="nonzero"/><path fill="#1a1a1a" d="M28.98125 254.02002L28.98125 244.0044L33.23125 244.0044Q34.840626 244.0044 35.559376 244.27002Q36.29375 244.53564 36.73125 245.23877Q37.16875 245.92627 37.16875 246.80127Q37.16875 247.9419 36.496876 248.67627Q35.840626 249.41064 34.528126 249.59814Q35.184376 249.97314 35.60625 250.4419Q36.04375 250.89502 36.7625 252.0669L37.98125 254.02002L35.559376 254.02002L34.10625 251.83252Q33.325 250.67627 33.028126 250.3794Q32.746876 250.0669 32.41875 249.95752Q32.10625 249.83252 31.403126 249.83252L30.996876 249.83252L30.996876 254.02002L28.98125 254.02002ZM30.996876 248.23877L32.496876 248.23877Q33.95 248.23877 34.309376 248.11377Q34.684376 247.98877 34.8875 247.6919Q35.090626 247.39502 35.090626 246.9419Q35.090626 246.42627 34.809376 246.1294Q34.54375 245.8169 34.059376 245.72314Q33.809376 245.6919 32.575 245.6919L30.996876 245.6919L30.996876 248.23877ZM38.965626 254.02002L38.965626 244.0044L46.403126 244.0044L46.403126 245.6919L40.996876 245.6919L40.996876 247.91064L46.028126 247.91064L46.028126 249.59814L40.996876 249.59814L40.996876 252.33252L46.590626 252.33252L46.590626 254.02002L38.965626 254.02002ZM47.996876 254.02002L47.996876 244.0044L49.965626 244.0044L54.059376 250.6919L54.059376 244.0044L55.934376 244.0044L55.934376 254.02002L53.903126 254.02002L49.871876 247.48877L49.871876 254.02002L47.996876 254.02002Z" fill-rule="nonzero"/><path fill="#9e9e9e" d="M30.2 268.61377Q29.45 268.30127 29.10625 267.7544Q28.778126 267.1919 28.778126 266.53564Q28.778126 265.42627 29.559376 264.6919Q30.340626 263.95752 31.778126 263.95752Q33.2 263.95752 33.996876 264.6919Q34.79375 265.42627 34.79375 266.53564Q34.79375 267.23877 34.41875 267.78564Q34.059376 268.33252 33.403126 268.61377Q34.246876 268.9419 34.66875 269.59814Q35.10625 270.23877 35.10625 271.0669Q35.10625 272.45752 34.215626 273.33252Q33.340626 274.1919 31.871876 274.1919Q30.496876 274.1919 29.590626 273.47314Q28.5125 272.6294 28.5125 271.16064Q28.5125 270.34814 28.91875 269.67627Q29.325 268.98877 30.2 268.61377ZM30.590626 266.67627Q30.590626 267.2544 30.903126 267.58252Q31.23125 267.89502 31.778126 267.89502Q32.325 267.89502 32.653126 267.5669Q32.98125 267.23877 32.98125 266.67627Q32.98125 266.1294 32.653126 265.8169Q32.325 265.48877 31.79375 265.48877Q31.246876 265.48877 30.91875 265.8169Q30.590626 266.14502 30.590626 266.67627ZM30.41875 270.97314Q30.41875 271.77002 30.825 272.20752Q31.23125 272.64502 31.840626 272.64502Q32.434376 272.64502 32.809376 272.22314Q33.2 271.80127 33.2 270.98877Q33.2 270.28564 32.809376 269.86377Q32.41875 269.42627 31.809376 269.42627Q31.10625 269.42627 30.7625 269.92627Q30.41875 270.41064 30.41875 270.97314ZM36.903126 272.09814L38.825 272.09814L38.825 273.47314Q38.825 274.30127 38.684376 274.78564Q38.54375 275.27002 38.1375 275.64502Q37.746876 276.03564 37.121876 276.2544L36.746876 275.45752Q37.325 275.27002 37.575 274.92627Q37.825 274.59814 37.840626 274.02002L36.903126 274.02002L36.903126 272.09814ZM43.79375 263.95752Q45.246876 263.95752 46.075 264.98877Q47.04375 266.22314 47.04375 269.08252Q47.04375 271.92627 46.059376 273.16064Q45.246876 274.1919 43.79375 274.1919Q42.325 274.1919 41.434376 273.0669Q40.54375 271.9419 40.54375 269.05127Q40.54375 266.22314 41.528126 264.98877Q42.340626 263.95752 43.79375 263.95752ZM43.79375 265.55127Q43.45 265.55127 43.16875 265.77002Q42.903126 265.98877 42.746876 266.5669Q42.54375 267.3169 42.54375 269.08252Q42.54375 270.84814 42.715626 271.5044Q42.903126 272.16064 43.16875 272.3794Q43.45 272.59814 43.79375 272.59814Q44.1375 272.59814 44.403126 272.3794Q44.684376 272.16064 44.840626 271.58252Q45.04375 270.84814 45.04375 269.08252Q45.04375 267.3169 44.85625 266.66064Q44.684376 265.98877 44.403126 265.77002Q44.1375 265.55127 43.79375 265.55127ZM48.559376 266.47314Q48.559376 265.1294 49.153126 264.48877Q49.746876 263.83252 50.746876 263.83252Q51.79375 263.83252 52.3875 264.47314Q52.98125 265.11377 52.98125 266.47314Q52.98125 267.8169 52.3875 268.47314Q51.79375 269.11377 50.79375 269.11377Q49.746876 269.11377 49.153126 268.47314Q48.559376 267.83252 48.559376 266.47314ZM50.059376 266.45752Q50.059376 267.4419 50.278126 267.77002Q50.45 268.02002 50.746876 268.02002Q51.059376 268.02002 51.23125 267.77002Q51.45 267.4419 51.45 266.45752Q51.45 265.48877 51.23125 265.16064Q51.059376 264.89502 50.746876 264.89502Q50.45 264.89502 50.278126 265.14502Q50.059376 265.48877 50.059376 266.45752ZM52.215626 274.41064L50.79375 274.41064L56.1375 263.83252L57.5125 263.83252L52.215626 274.41064ZM55.325 271.77002Q55.325 270.42627 55.903126 269.78564Q56.496876 269.1294 57.528126 269.1294Q58.559376 269.1294 59.153126 269.78564Q59.746876 270.42627 59.746876 271.77002Q59.746876 273.1294 59.153126 273.78564Q58.559376 274.42627 57.54375 274.42627Q56.496876 274.42627 55.903126 273.78564Q55.325 273.1294 55.325 271.77002ZM56.809376 271.77002Q56.809376 272.73877 57.04375 273.0669Q57.215626 273.3169 57.5125 273.3169Q57.825 273.3169 57.98125 273.08252Q58.215626 272.73877 58.215626 271.77002Q58.215626 270.78564 57.996876 270.45752Q57.825 270.20752 57.5125 270.20752Q57.2 270.20752 57.04375 270.45752Q56.809376 270.78564 56.809376 271.77002Z" fill-rule="nonzero"/><path stroke="#757575" stroke-width="1.0" stroke-linecap="butt" d="M27.95 259.52002L215.76666 259.52002L242.22543 240.2068" fill-rule="nonzero"/><path fill="#9e9e9e" d="M244.22543 240.2068C244.22543 239.10223 243.33 238.2068 242.22543 238.2068C241.12086 238.2068 240.22543 239.10223 240.22543 240.2068C240.22543 241.31137 241.12086 242.2068 242.22543 242.2068C243.33 242.2068 244.22543 241.31137 244.22543 240.2068" fill-rule="nonzero"/><path fill="#1a1a1a" d="M35.3875 319.08618L37.340626 319.71118Q36.8875 321.3518 35.840626 322.14868Q34.79375 322.94556 33.184376 322.94556Q31.184376 322.94556 29.8875 321.58618Q28.60625 320.21118 28.60625 317.8518Q28.60625 315.3518 29.903126 313.9768Q31.2 312.58618 33.309376 312.58618Q35.1375 312.58618 36.29375 313.6643Q36.98125 314.30493 37.309376 315.50806L35.309376 315.99243Q35.1375 315.21118 34.575 314.75806Q34.0125 314.30493 33.2 314.30493Q32.090626 314.30493 31.3875 315.11743Q30.7 315.9143 30.7 317.69556Q30.7 319.6018 31.371876 320.4143Q32.059376 321.21118 33.153126 321.21118Q33.965626 321.21118 34.54375 320.71118Q35.121876 320.19556 35.3875 319.08618ZM38.559376 317.82056Q38.559376 316.2893 39.0125 315.25806Q39.35625 314.49243 39.95 313.88306Q40.54375 313.27368 41.246876 312.9768Q42.184376 312.58618 43.403126 312.58618Q45.621876 312.58618 46.95 313.96118Q48.278126 315.33618 48.278126 317.77368Q48.278126 320.19556 46.95 321.57056Q45.6375 322.94556 43.434376 322.94556Q41.2 322.94556 39.871876 321.58618Q38.559376 320.21118 38.559376 317.82056ZM40.6375 317.75806Q40.6375 319.46118 41.41875 320.33618Q42.215626 321.21118 43.41875 321.21118Q44.6375 321.21118 45.403126 320.3518Q46.184376 319.4768 46.184376 317.7268Q46.184376 316.00806 45.434376 315.1643Q44.684376 314.30493 43.41875 314.30493Q42.16875 314.30493 41.403126 315.1643Q40.6375 316.02368 40.6375 317.75806ZM49.934376 322.77368L49.934376 312.75806L52.965626 312.75806L54.79375 319.58618L56.590626 312.75806L59.621876 312.75806L59.621876 322.77368L57.746876 322.77368L57.746876 314.88306L55.746876 322.77368L53.809376 322.77368L51.825 314.88306L51.825 322.77368L49.934376 322.77368ZM61.965626 322.77368L61.965626 312.75806L65.21562 312.75806Q67.05937 312.75806 67.62187 312.89868Q68.48125 313.13306 69.05937 313.88306Q69.65312 314.63306 69.65312 315.83618Q69.65312 316.75806 69.30937 317.38306Q68.98125 318.00806 68.46562 318.36743Q67.95 318.7268 67.40312 318.8518Q66.68437 318.99243 65.30937 318.99243L63.996876 318.99243L63.996876 322.77368L61.965626 322.77368ZM63.996876 314.44556L63.996876 317.2893L65.10625 317.2893Q66.29375 317.2893 66.7 317.13306Q67.10625 316.9768 67.325 316.64868Q67.55937 316.30493 67.55937 315.86743Q67.55937 315.32056 67.23125 314.96118Q66.91875 314.6018 66.41875 314.50806Q66.05937 314.44556 64.96562 314.44556L63.996876 314.44556Z" fill-rule="nonzero"/><path fill="#9e9e9e" d="M33.465626 342.77368L31.54375 342.77368L31.54375 335.5393Q30.48125 336.52368 29.059376 336.99243L29.059376 335.24243Q29.809376 335.00806 30.684376 334.32056Q31.575 333.63306 31.903126 332.71118L33.465626 332.71118L33.465626 342.77368ZM39.79375 332.71118Q41.246876 332.71118 42.075 333.74243Q43.04375 334.9768 43.04375 337.83618Q43.04375 340.67993 42.059376 341.9143Q41.246876 342.94556 39.79375 342.94556Q38.325 342.94556 37.434376 341.82056Q36.54375 340.69556 36.54375 337.80493Q36.54375 334.9768 37.528126 333.74243Q38.340626 332.71118 39.79375 332.71118ZM39.79375 334.30493Q39.45 334.30493 39.16875 334.52368Q38.903126 334.74243 38.746876 335.32056Q38.54375 336.07056 38.54375 337.83618Q38.54375 339.6018 38.715626 340.25806Q38.903126 340.9143 39.16875 341.13306Q39.45 341.3518 39.79375 341.3518Q40.1375 341.3518 40.403126 341.13306Q40.684376 340.9143 40.840626 340.33618Q41.04375 339.6018 41.04375 337.83618Q41.04375 336.07056 40.85625 335.4143Q40.684376 334.74243 40.403126 334.52368Q40.1375 334.30493 39.79375 334.30493ZM44.903126 340.8518L46.825 340.8518L46.825 342.2268Q46.825 343.05493 46.684376 343.5393Q46.54375 344.02368 46.1375 344.39868Q45.746876 344.7893 45.121876 345.00806L44.746876 344.21118Q45.325 344.02368 45.575 343.67993Q45.825 343.3518 45.840626 342.77368L44.903126 342.77368L44.903126 340.8518ZM55.059376 335.21118L53.2 335.4143Q53.121876 334.83618 52.825 334.57056Q52.54375 334.2893 52.090626 334.2893Q51.48125 334.2893 51.059376 334.83618Q50.6375 335.38306 50.528126 337.11743Q51.246876 336.25806 52.325 336.25806Q53.528126 336.25806 54.371876 337.17993Q55.23125 338.1018 55.23125 339.5393Q55.23125 341.08618 54.325 342.02368Q53.434376 342.94556 52.0125 342.94556Q50.496876 342.94556 49.5125 341.77368Q48.54375 340.58618 48.54375 337.89868Q48.54375 335.14868 49.559376 333.92993Q50.575 332.71118 52.215626 332.71118Q53.35625 332.71118 54.090626 333.3518Q54.840626 333.99243 55.059376 335.21118ZM50.7 339.39868Q50.7 340.33618 51.121876 340.8518Q51.559376 341.3518 52.10625 341.3518Q52.653126 341.3518 52.996876 340.94556Q53.35625 340.52368 53.35625 339.57056Q53.35625 338.58618 52.965626 338.13306Q52.590626 337.67993 52.0125 337.67993Q51.465626 337.67993 51.075 338.11743Q50.7 338.55493 50.7 339.39868ZM56.559376 335.2268Q56.559376 333.88306 57.153126 333.24243Q57.746876 332.58618 58.746876 332.58618Q59.79375 332.58618 60.3875 333.2268Q60.98125 333.86743 60.98125 335.2268Q60.98125 336.57056 60.3875 337.2268Q59.79375 337.86743 58.79375 337.86743Q57.746876 337.86743 57.153126 337.2268Q56.559376 336.58618 56.559376 335.2268ZM58.059376 335.21118Q58.059376 336.19556 58.278126 336.52368Q58.45 336.77368 58.746876 336.77368Q59.059376 336.77368 59.23125 336.52368Q59.45 336.19556 59.45 335.21118Q59.45 334.24243 59.23125 333.9143Q59.059376 333.64868 58.746876 333.64868Q58.45 333.64868 58.278126 333.89868Q58.059376 334.24243 58.059376 335.21118ZM60.215626 343.1643L58.79375 343.1643L64.1375 332.58618L65.5125 332.58618L60.215626 343.1643ZM63.325 340.52368Q63.325 339.17993 63.903126 338.5393Q64.49687 337.88306 65.52812 337.88306Q66.55937 337.88306 67.15312 338.5393Q67.74687 339.17993 67.74687 340.52368Q67.74687 341.88306 67.15312 342.5393Q66.55937 343.17993 65.54375 343.17993Q64.49687 343.17993 63.903126 342.5393Q63.325 341.88306 63.325 340.52368ZM64.80937 340.52368Q64.80937 341.49243 65.04375 341.82056Q65.21562 342.07056 65.5125 342.07056Q65.825 342.07056 65.98125 341.83618Q66.21562 341.49243 66.21562 340.52368Q66.21562 339.5393 65.99687 339.21118Q65.825 338.96118 65.5125 338.96118Q65.2 338.96118 65.04375 339.21118Q64.80937 339.5393 64.80937 340.52368Z" fill-rule="nonzero"/><path stroke="#757575" stroke-width="1.0" stroke-linecap="butt" d="M27.95 328.27368L215.76666 328.27368L242.81836 328.27368" fill-rule="nonzero"/><path fill="#9e9e9e" d="M244.81836 328.27368C244.81836 327.1691 243.92293 326.27368 242.81836 326.27368C241.71379 326.27368 240.81836 327.1691 240.81836 328.27368C240.81836 329.37827 241.71379 330.27368 242.81836 330.27368C243.92293 330.27368 244.81836 329.37827 244.81836 328.27368" fill-rule="nonzero"/><path fill="#1a1a1a" d="M31.60625 405.10538L31.60625 400.88663L27.934376 395.08975L30.309376 395.08975L32.653126 399.04288L34.965626 395.08975L37.309376 395.08975L33.621876 400.90225L33.621876 405.10538L31.60625 405.10538ZM37.98125 405.10538L37.98125 395.08975L44.85625 395.08975L44.85625 396.77725L40.0125 396.77725L40.0125 399.15225L44.184376 399.15225L44.184376 400.83975L40.0125 400.83975L40.0125 405.10538L37.98125 405.10538ZM46.903126 405.10538L46.903126 395.08975L48.934376 395.08975L48.934376 405.10538L46.903126 405.10538Z" fill-rule="nonzero"/><path fill="#9e9e9e" d="M33.465626 425.10538L31.54375 425.10538L31.54375 417.871Q30.48125 418.85538 29.059376 419.32413L29.059376 417.57413Q29.809376 417.33975 30.684376 416.65225Q31.575 415.96475 31.903126 415.04288L33.465626 415.04288L33.465626 425.10538ZM41.465626 425.10538L39.54375 425.10538L39.54375 417.871Q38.48125 418.85538 37.059376 419.32413L37.059376 417.57413Q37.809376 417.33975 38.684376 416.65225Q39.575 415.96475 39.903126 415.04288L41.465626 415.04288L41.465626 425.10538ZM44.903126 423.1835L46.825 423.1835L46.825 424.5585Q46.825 425.38663 46.684376 425.871Q46.54375 426.35538 46.1375 426.73038Q45.746876 427.121 45.121876 427.33975L44.746876 426.54288Q45.325 426.35538 45.575 426.01163Q45.825 425.6835 45.840626 425.10538L44.903126 425.10538L44.903126 423.1835ZM53.465626 425.10538L51.54375 425.10538L51.54375 417.871Q50.48125 418.85538 49.059376 419.32413L49.059376 417.57413Q49.809376 417.33975 50.684376 416.65225Q51.575 415.96475 51.903126 415.04288L53.465626 415.04288L53.465626 425.10538ZM56.559376 417.5585Q56.559376 416.21475 57.153126 415.57413Q57.746876 414.91788 58.746876 414.91788Q59.79375 414.91788 60.3875 415.5585Q60.98125 416.19913 60.98125 417.5585Q60.98125 418.90225 60.3875 419.5585Q59.79375 420.19913 58.79375 420.19913Q57.746876 420.19913 57.153126 419.5585Q56.559376 418.91788 56.559376 417.5585ZM58.059376 417.54288Q58.059376 418.52725 58.278126 418.85538Q58.45 419.10538 58.746876 419.10538Q59.059376 419.10538 59.23125 418.85538Q59.45 418.52725 59.45 417.54288Q59.45 416.57413 59.23125 416.246Q59.059376 415.98038 58.746876 415.98038Q58.45 415.98038 58.278126 416.23038Q58.059376 416.57413 58.059376 417.54288ZM60.215626 425.496L58.79375 425.496L64.1375 414.91788L65.5125 414.91788L60.215626 425.496ZM63.325 422.85538Q63.325 421.51163 63.903126 420.871Q64.49687 420.21475 65.52812 420.21475Q66.55937 420.21475 67.15312 420.871Q67.74687 421.51163 67.74687 422.85538Q67.74687 424.21475 67.15312 424.871Q66.55937 425.51163 65.54375 425.51163Q64.49687 425.51163 63.903126 424.871Q63.325 424.21475 63.325 422.85538ZM64.80937 422.85538Q64.80937 423.82413 65.04375 424.15225Q65.21562 424.40225 65.5125 424.40225Q65.825 424.40225 65.98125 424.16788Q66.21562 423.82413 66.21562 422.85538Q66.21562 421.871 65.99687 421.54288Q65.825 421.29288 65.5125 421.29288Q65.2 421.29288 65.04375 421.54288Q64.80937 421.871 64.80937 422.85538Z" fill-rule="nonzero"/><path stroke="#757575" stroke-width="1.0" stroke-linecap="butt" d="M27.95 410.60538L215.76666 410.60538L329.9603 410.60538" fill-rule="nonzero"/><path fill="#9e9e9e" d="M331.9603 410.60538C331.9603 409.50082 331.06488 408.60538 329.9603 408.60538C328.8557 408.60538 327.9603 409.50082 327.9603 410.60538C327.9603 411.70996 328.8557 412.60538 329.9603 412.60538C331.06488 412.60538 331.9603 411.70996 331.9603 410.60538" fill-rule="nonzero"/><path fill="#1a1a1a" d="M845.03436 145.25223L845.03436 135.2366L848.0656 135.2366L849.89374 142.06473L851.6906 135.2366L854.72186 135.2366L854.72186 145.25223L852.84686 145.25223L852.84686 137.3616L850.84686 145.25223L848.90936 145.25223L846.925 137.3616L846.925 145.25223L845.03436 145.25223ZM857.09686 145.25223L857.09686 135.2366L859.1125 135.2366L859.1125 139.6741L863.20624 135.2366L865.925 135.2366L862.15936 139.12723L866.1281 145.25223L863.51874 145.25223L860.7531 140.5491L859.1125 142.22098L859.1125 145.25223L857.09686 145.25223ZM867.08124 145.25223L867.08124 135.2366L871.33124 135.2366Q872.9406 135.2366 873.65936 135.50223Q874.39374 135.76785 874.83124 136.47098Q875.26874 137.15848 875.26874 138.03348Q875.26874 139.1741 874.59686 139.90848Q873.9406 140.64285 872.6281 140.83035Q873.28436 141.20535 873.70624 141.6741Q874.14374 142.12723 874.8625 143.2991L876.08124 145.25223L873.65936 145.25223L872.20624 143.06473Q871.425 141.90848 871.1281 141.6116Q870.84686 141.2991 870.51874 141.18973Q870.20624 141.06473 869.5031 141.06473L869.09686 141.06473L869.09686 145.25223L867.08124 145.25223ZM869.09686 139.47098L870.59686 139.47098Q872.05 139.47098 872.40936 139.34598Q872.78436 139.22098 872.9875 138.9241Q873.1906 138.62723 873.1906 138.1741Q873.1906 137.65848 872.90936 137.3616Q872.64374 137.0491 872.15936 136.95535Q871.90936 136.9241 870.675 136.9241L869.09686 136.9241L869.09686 139.47098Z" fill-rule="nonzero"/><path fill="#9e9e9e" d="M841.5656 165.25223L839.64374 165.25223L839.64374 158.01785Q838.58124 159.00223 837.15936 159.47098L837.15936 157.72098Q837.90936 157.4866 838.78436 156.7991Q839.675 156.1116 840.0031 155.18973L841.5656 155.18973L841.5656 165.25223ZM851.15936 157.68973L849.3 157.89285Q849.22186 157.31473 848.925 157.0491Q848.64374 156.76785 848.1906 156.76785Q847.58124 156.76785 847.15936 157.31473Q846.7375 157.8616 846.6281 159.59598Q847.34686 158.7366 848.425 158.7366Q849.6281 158.7366 850.47186 159.65848Q851.33124 160.58035 851.33124 162.01785Q851.33124 163.56473 850.425 164.50223Q849.53436 165.4241 848.1125 165.4241Q846.59686 165.4241 845.6125 164.25223Q844.64374 163.06473 844.64374 160.37723Q844.64374 157.62723 845.65936 156.40848Q846.675 155.18973 848.3156 155.18973Q849.45624 155.18973 850.1906 155.83035Q850.9406 156.47098 851.15936 157.68973ZM846.8 161.87723Q846.8 162.81473 847.22186 163.33035Q847.65936 163.83035 848.20624 163.83035Q848.7531 163.83035 849.09686 163.4241Q849.45624 163.00223 849.45624 162.0491Q849.45624 161.06473 849.0656 160.6116Q848.6906 160.15848 848.1125 160.15848Q847.5656 160.15848 847.175 160.59598Q846.8 161.03348 846.8 161.87723ZM853.0031 163.33035L854.925 163.33035L854.925 164.70535Q854.925 165.53348 854.78436 166.01785Q854.64374 166.50223 854.2375 166.87723Q853.84686 167.26785 853.22186 167.4866L852.84686 166.68973Q853.425 166.50223 853.675 166.15848Q853.925 165.83035 853.9406 165.25223L853.0031 165.25223L853.0031 163.33035ZM863.15936 157.68973L861.3 157.89285Q861.22186 157.31473 860.925 157.0491Q860.64374 156.76785 860.1906 156.76785Q859.58124 156.76785 859.15936 157.31473Q858.7375 157.8616 858.6281 159.59598Q859.34686 158.7366 860.425 158.7366Q861.6281 158.7366 862.47186 159.65848Q863.33124 160.58035 863.33124 162.01785Q863.33124 163.56473 862.425 164.50223Q861.53436 165.4241 860.1125 165.4241Q858.59686 165.4241 857.6125 164.25223Q856.64374 163.06473 856.64374 160.37723Q856.64374 157.62723 857.65936 156.40848Q858.675 155.18973 860.3156 155.18973Q861.45624 155.18973 862.1906 155.83035Q862.9406 156.47098 863.15936 157.68973ZM858.8 161.87723Q858.8 162.81473 859.22186 163.33035Q859.65936 163.83035 860.20624 163.83035Q860.7531 163.83035 861.09686 163.4241Q861.45624 163.00223 861.45624 162.0491Q861.45624 161.06473 861.0656 160.6116Q860.6906 160.15848 860.1125 160.15848Q859.5656 160.15848 859.175 160.59598Q858.8 161.03348 858.8 161.87723ZM864.65936 157.70535Q864.65936 156.3616 865.2531 155.72098Q865.84686 155.06473 866.84686 155.06473Q867.89374 155.06473 868.4875 155.70535Q869.08124 156.34598 869.08124 157.70535Q869.08124 159.0491 868.4875 159.70535Q867.89374 160.34598 866.89374 160.34598Q865.84686 160.34598 865.2531 159.70535Q864.65936 159.06473 864.65936 157.70535ZM866.15936 157.68973Q866.15936 158.6741 866.3781 159.00223Q866.55 159.25223 866.84686 159.25223Q867.15936 159.25223 867.33124 159.00223Q867.55 158.6741 867.55 157.68973Q867.55 156.72098 867.33124 156.39285Q867.15936 156.12723 866.84686 156.12723Q866.55 156.12723 866.3781 156.37723Q866.15936 156.72098 866.15936 157.68973ZM868.3156 165.64285L866.89374 165.64285L872.2375 155.06473L873.6125 155.06473L868.3156 165.64285ZM871.425 163.00223Q871.425 161.65848 872.0031 161.01785Q872.59686 160.3616 873.6281 160.3616Q874.65936 160.3616 875.2531 161.01785Q875.84686 161.65848 875.84686 163.00223Q875.84686 164.3616 875.2531 165.01785Q874.65936 165.65848 873.64374 165.65848Q872.59686 165.65848 872.0031 165.01785Q871.425 164.3616 871.425 163.00223ZM872.90936 163.00223Q872.90936 163.97098 873.14374 164.2991Q873.3156 164.5491 873.6125 164.5491Q873.925 164.5491 874.08124 164.31473Q874.3156 163.97098 874.3156 163.00223Q874.3156 162.01785 874.09686 161.68973Q873.925 161.43973 873.6125 161.43973Q873.3 161.43973 873.14374 161.68973Q872.90936 162.01785 872.90936 163.00223Z" fill-rule="nonzero"/><path stroke="#757575" stroke-width="1.0" stroke-linecap="butt" d="M876.05 150.75223L688.23334 150.75223L560.85455 150.75223" fill-rule="nonzero"/><path fill="#9e9e9e" d="M562.85455 150.75223C562.85455 149.64766 561.95917 148.75223 560.85455 148.75223C559.75 148.75223 558.85455 149.64766 558.85455 150.75223C558.85455 151.8568 559.75 152.75223 560.85455 152.75223C561.95917 152.75223 562.85455 151.8568 562.85455 150.75223" fill-rule="nonzero"/><path fill="#1a1a1a" d="M848.1125 259.83685L845.90936 259.83685L845.03436 257.5556L841.01874 257.5556L840.1906 259.83685L838.05 259.83685L841.95624 249.82123L844.09686 249.82123L848.1125 259.83685ZM844.3781 255.8681L843.0031 252.14935L841.64374 255.8681L844.3781 255.8681ZM858.1125 259.83685L855.90936 259.83685L855.03436 257.5556L851.01874 257.5556L850.1906 259.83685L848.05 259.83685L851.95624 249.82123L854.09686 249.82123L858.1125 259.83685ZM854.3781 255.8681L853.0031 252.14935L851.64374 255.8681L854.3781 255.8681ZM861.6281 259.83685L858.05 249.82123L860.2375 249.82123L862.76874 257.22748L865.22186 249.82123L867.3781 249.82123L863.78436 259.83685L861.6281 259.83685ZM868.0656 259.83685L868.0656 249.82123L875.5031 249.82123L875.5031 251.50873L870.09686 251.50873L870.09686 253.72748L875.1281 253.72748L875.1281 255.41498L870.09686 255.41498L870.09686 258.14935L875.6906 258.14935L875.6906 259.83685L868.0656 259.83685Z" fill-rule="nonzero"/><path fill="#9e9e9e" d="M841.5656 279.83685L839.64374 279.83685L839.64374 272.60248Q838.58124 273.58685 837.15936 274.0556L837.15936 272.3056Q837.90936 272.07123 838.78436 271.38373Q839.675 270.69623 840.0031 269.77435L841.5656 269.77435L841.5656 279.83685ZM844.58124 277.1806L846.4406 276.94623Q846.51874 277.66498 846.90936 278.03998Q847.3 278.41498 847.8625 278.41498Q848.45624 278.41498 848.8625 277.96185Q849.26874 277.50873 849.26874 276.7431Q849.26874 276.02435 848.8781 275.60248Q848.4875 275.1806 847.925 275.1806Q847.55 275.1806 847.05 275.32123L847.2531 273.75873Q848.03436 273.77435 848.4406 273.41498Q848.8625 273.0556 848.8625 272.46185Q848.8625 271.96185 848.55 271.66498Q848.2531 271.35248 847.7531 271.35248Q847.26874 271.35248 846.90936 271.69623Q846.5656 272.03998 846.4875 272.69623L844.72186 272.39935Q844.90936 271.47748 845.26874 270.94623Q845.64374 270.39935 846.3156 270.08685Q846.9875 269.77435 847.8156 269.77435Q849.22186 269.77435 850.08124 270.6806Q850.78436 271.41498 850.78436 272.33685Q850.78436 273.66498 849.34686 274.44623Q850.20624 274.63373 850.72186 275.27435Q851.2375 275.91498 851.2375 276.82123Q851.2375 278.14935 850.26874 279.08685Q849.3 280.00873 847.8781 280.00873Q846.51874 280.00873 845.6125 279.22748Q844.72186 278.44623 844.58124 277.1806ZM853.0031 277.91498L854.925 277.91498L854.925 279.28998Q854.925 280.1181 854.78436 280.60248Q854.64374 281.08685 854.2375 281.46185Q853.84686 281.85248 853.22186 282.07123L852.84686 281.27435Q853.425 281.08685 853.675 280.7431Q853.925 280.41498 853.9406 279.83685L853.0031 279.83685L853.0031 277.91498ZM859.89374 269.77435Q861.34686 269.77435 862.175 270.8056Q863.14374 272.03998 863.14374 274.89935Q863.14374 277.7431 862.15936 278.97748Q861.34686 280.00873 859.89374 280.00873Q858.425 280.00873 857.53436 278.88373Q856.64374 277.75873 856.64374 274.8681Q856.64374 272.03998 857.6281 270.8056Q858.4406 269.77435 859.89374 269.77435ZM859.89374 271.3681Q859.55 271.3681 859.26874 271.58685Q859.0031 271.8056 858.84686 272.38373Q858.64374 273.13373 858.64374 274.89935Q858.64374 276.66498 858.8156 277.32123Q859.0031 277.97748 859.26874 278.19623Q859.55 278.41498 859.89374 278.41498Q860.2375 278.41498 860.5031 278.19623Q860.78436 277.97748 860.9406 277.39935Q861.14374 276.66498 861.14374 274.89935Q861.14374 273.13373 860.95624 272.47748Q860.78436 271.8056 860.5031 271.58685Q860.2375 271.3681 859.89374 271.3681ZM864.65936 272.28998Q864.65936 270.94623 865.2531 270.3056Q865.84686 269.64935 866.84686 269.64935Q867.89374 269.64935 868.4875 270.28998Q869.08124 270.9306 869.08124 272.28998Q869.08124 273.63373 868.4875 274.28998Q867.89374 274.9306 866.89374 274.9306Q865.84686 274.9306 865.2531 274.28998Q864.65936 273.64935 864.65936 272.28998ZM866.15936 272.27435Q866.15936 273.25873 866.3781 273.58685Q866.55 273.83685 866.84686 273.83685Q867.15936 273.83685 867.33124 273.58685Q867.55 273.25873 867.55 272.27435Q867.55 271.3056 867.33124 270.97748Q867.15936 270.71185 866.84686 270.71185Q866.55 270.71185 866.3781 270.96185Q866.15936 271.3056 866.15936 272.27435ZM868.3156 280.22748L866.89374 280.22748L872.2375 269.64935L873.6125 269.64935L868.3156 280.22748ZM871.425 277.58685Q871.425 276.2431 872.0031 275.60248Q872.59686 274.94623 873.6281 274.94623Q874.65936 274.94623 875.2531 275.60248Q875.84686 276.2431 875.84686 277.58685Q875.84686 278.94623 875.2531 279.60248Q874.65936 280.2431 873.64374 280.2431Q872.59686 280.2431 872.0031 279.60248Q871.425 278.94623 871.425 277.58685ZM872.90936 277.58685Q872.90936 278.5556 873.14374 278.88373Q873.3156 279.13373 873.6125 279.13373Q873.925 279.13373 874.08124 278.89935Q874.3156 278.5556 874.3156 277.58685Q874.3156 276.60248 874.09686 276.27435Q873.925 276.02435 873.6125 276.02435Q873.3 276.02435 873.14374 276.27435Q872.90936 276.60248 872.90936 277.58685Z" fill-rule="nonzero"/><path stroke="#757575" stroke-width="1.0" stroke-linecap="butt" d="M876.05 265.33685L688.23334 265.33685L669.1687 265.33685" fill-rule="nonzero"/><path fill="#9e9e9e" d="M671.1687 265.33685C671.1687 264.23227 670.2733 263.33685 669.1687 263.33685C668.06415 263.33685 667.1687 264.23227 667.1687 265.33685C667.1687 266.4414 668.06415 267.33685 669.1687 267.33685C670.2733 267.33685 671.1687 266.4414 671.1687 265.33685" fill-rule="nonzero"/><path fill="#1a1a1a" d="M848.55 370.50073L850.51874 370.31323Q850.70624 371.2976 851.2375 371.76636Q851.78436 372.2351 852.70624 372.2351Q853.6906 372.2351 854.175 371.82886Q854.675 371.40698 854.675 370.8601Q854.675 370.50073 854.47186 370.25073Q854.26874 370.00073 853.7375 369.81323Q853.39374 369.68823 852.1281 369.37573Q850.5031 368.96948 849.84686 368.39136Q848.925 367.56323 848.925 366.37573Q848.925 365.6101 849.34686 364.93823Q849.78436 364.26636 850.59686 363.9226Q851.425 363.57886 852.58124 363.57886Q854.45624 363.57886 855.40936 364.40698Q856.3625 365.2351 856.425 366.6101L854.39374 366.70386Q854.26874 365.9226 853.83124 365.59448Q853.40936 365.25073 852.55 365.25073Q851.675 365.25073 851.175 365.6101Q850.84686 365.84448 850.84686 366.2351Q850.84686 366.59448 851.15936 366.84448Q851.53436 367.15698 853.0031 367.51636Q854.4875 367.8601 855.1906 368.2351Q855.90936 368.6101 856.3 369.25073Q856.70624 369.89136 856.70624 370.84448Q856.70624 371.70386 856.22186 372.46948Q855.7531 373.21948 854.8781 373.57886Q854.0031 373.93823 852.6906 373.93823Q850.78436 373.93823 849.76874 373.06323Q848.7531 372.18823 848.55 370.50073ZM858.09686 373.76636L858.09686 363.75073L860.0656 363.75073L864.15936 370.43823L864.15936 363.75073L866.03436 363.75073L866.03436 373.76636L864.0031 373.76636L859.97186 367.2351L859.97186 373.76636L858.09686 373.76636ZM867.05 373.76636L870.47186 368.53198L867.3781 363.75073L869.7375 363.75073L871.7531 366.96948L873.72186 363.75073L876.0656 363.75073L872.9406 368.6101L876.3625 373.76636L873.925 373.76636L871.70624 370.2976L869.47186 373.76636L867.05 373.76636Z" fill-rule="nonzero"/><path fill="#9e9e9e" d="M841.5656 393.76636L839.64374 393.76636L839.64374 386.53198Q838.58124 387.51636 837.15936 387.9851L837.15936 386.2351Q837.90936 386.00073 838.78436 385.31323Q839.675 384.62573 840.0031 383.70386L841.5656 383.70386L841.5656 393.76636ZM851.1281 391.9851L851.1281 393.76636L844.39374 393.76636Q844.5031 392.75073 845.05 391.84448Q845.59686 390.93823 847.22186 389.43823Q848.51874 388.2351 848.8156 387.7976Q849.20624 387.20386 849.20624 386.62573Q849.20624 385.9851 848.8625 385.64136Q848.51874 385.2976 847.90936 385.2976Q847.3 385.2976 846.9406 385.65698Q846.59686 386.01636 846.53436 386.8601L844.6281 386.6726Q844.8 385.07886 845.6906 384.39136Q846.59686 383.70386 847.95624 383.70386Q849.4406 383.70386 850.28436 384.50073Q851.1281 385.2976 851.1281 386.4851Q851.1281 387.1726 850.8781 387.78198Q850.64374 388.39136 850.1281 389.06323Q849.76874 389.50073 848.8625 390.34448Q847.95624 391.1726 847.70624 391.45386Q847.47186 391.71948 847.3156 391.9851L851.1281 391.9851ZM853.0031 391.84448L854.925 391.84448L854.925 393.21948Q854.925 394.0476 854.78436 394.53198Q854.64374 395.01636 854.2375 395.39136Q853.84686 395.78198 853.22186 396.00073L852.84686 395.20386Q853.425 395.01636 853.675 394.6726Q853.925 394.34448 853.9406 393.76636L853.0031 393.76636L853.0031 391.84448ZM856.58124 391.1101L858.4406 390.87573Q858.51874 391.59448 858.90936 391.96948Q859.3 392.34448 859.8625 392.34448Q860.45624 392.34448 860.8625 391.89136Q861.26874 391.43823 861.26874 390.6726Q861.26874 389.95386 860.8781 389.53198Q860.4875 389.1101 859.925 389.1101Q859.55 389.1101 859.05 389.25073L859.2531 387.68823Q860.03436 387.70386 860.4406 387.34448Q860.8625 386.9851 860.8625 386.39136Q860.8625 385.89136 860.55 385.59448Q860.2531 385.28198 859.7531 385.28198Q859.26874 385.28198 858.90936 385.62573Q858.5656 385.96948 858.4875 386.62573L856.72186 386.32886Q856.90936 385.40698 857.26874 384.87573Q857.64374 384.32886 858.3156 384.01636Q858.9875 383.70386 859.8156 383.70386Q861.22186 383.70386 862.08124 384.6101Q862.78436 385.34448 862.78436 386.26636Q862.78436 387.59448 861.34686 388.37573Q862.20624 388.56323 862.72186 389.20386Q863.2375 389.84448 863.2375 390.75073Q863.2375 392.07886 862.26874 393.01636Q861.3 393.93823 859.8781 393.93823Q858.51874 393.93823 857.6125 393.15698Q856.72186 392.37573 856.58124 391.1101ZM864.65936 386.21948Q864.65936 384.87573 865.2531 384.2351Q865.84686 383.57886 866.84686 383.57886Q867.89374 383.57886 868.4875 384.21948Q869.08124 384.8601 869.08124 386.21948Q869.08124 387.56323 868.4875 388.21948Q867.89374 388.8601 866.89374 388.8601Q865.84686 388.8601 865.2531 388.21948Q864.65936 387.57886 864.65936 386.21948ZM866.15936 386.20386Q866.15936 387.18823 866.3781 387.51636Q866.55 387.76636 866.84686 387.76636Q867.15936 387.76636 867.33124 387.51636Q867.55 387.18823 867.55 386.20386Q867.55 385.2351 867.33124 384.90698Q867.15936 384.64136 866.84686 384.64136Q866.55 384.64136 866.3781 384.89136Q866.15936 385.2351 866.15936 386.20386ZM868.3156 394.15698L866.89374 394.15698L872.2375 383.57886L873.6125 383.57886L868.3156 394.15698ZM871.425 391.51636Q871.425 390.1726 872.0031 389.53198Q872.59686 388.87573 873.6281 388.87573Q874.65936 388.87573 875.2531 389.53198Q875.84686 390.1726 875.84686 391.51636Q875.84686 392.87573 875.2531 393.53198Q874.65936 394.1726 873.64374 394.1726Q872.59686 394.1726 872.0031 393.53198Q871.425 392.87573 871.425 391.51636ZM872.90936 391.51636Q872.90936 392.4851 873.14374 392.81323Q873.3156 393.06323 873.6125 393.06323Q873.925 393.06323 874.08124 392.82886Q874.3156 392.4851 874.3156 391.51636Q874.3156 390.53198 874.09686 390.20386Q873.925 389.95386 873.6125 389.95386Q873.3 389.95386 873.14374 390.20386Q872.90936 390.53198 872.90936 391.51636Z" fill-rule="nonzero"/><path stroke="#757575" stroke-width="1.0" stroke-linecap="butt" d="M876.05 379.26636L688.23334 379.26636L622.7093 379.26636" fill-rule="nonzero"/><path fill="#9e9e9e" d="M624.7093 379.26636C624.7093 378.16177 623.81384 377.26636 622.7093 377.26636C621.60474 377.26636 620.7093 378.16177 620.7093 379.26636C620.7093 380.3709 621.60474 381.26636 622.7093 381.26636C623.81384 381.26636 624.7093 380.3709 624.7093 379.26636" fill-rule="nonzero"/><path fill="#1a1a1a" d="M853.05 419.76935L855.08124 419.76935L855.08124 425.19122Q855.08124 426.4881 855.15936 426.8631Q855.28436 427.4881 855.76874 427.8631Q856.26874 428.22247 857.1125 428.22247Q857.97186 428.22247 858.40936 427.87872Q858.84686 427.51935 858.925 427.01935Q859.01874 426.50372 859.01874 425.3006L859.01874 419.76935L861.05 419.76935L861.05 425.01935Q861.05 426.83185 860.8781 427.58185Q860.72186 428.31622 860.26874 428.83185Q859.83124 429.34747 859.09686 429.65997Q858.3625 429.95685 857.175 429.95685Q855.7375 429.95685 854.9875 429.62872Q854.2531 429.28497 853.8156 428.76935Q853.39374 428.2381 853.2531 427.64435Q853.05 426.78497 853.05 425.1131L853.05 419.76935ZM863.09686 429.78497L863.09686 419.76935L865.0656 419.76935L869.15936 426.45685L869.15936 419.76935L871.03436 419.76935L871.03436 429.78497L869.0031 429.78497L864.97186 423.25372L864.97186 429.78497L863.09686 429.78497ZM873.0031 429.78497L873.0031 419.76935L875.03436 419.76935L875.03436 429.78497L873.0031 429.78497Z" fill-rule="nonzero"/><path fill="#9e9e9e" d="M841.5656 449.78497L839.64374 449.78497L839.64374 442.5506Q838.58124 443.53497 837.15936 444.00372L837.15936 442.25372Q837.90936 442.01935 838.78436 441.33185Q839.675 440.64435 840.0031 439.72247L841.5656 439.72247L841.5656 449.78497ZM851.1281 448.00372L851.1281 449.78497L844.39374 449.78497Q844.5031 448.76935 845.05 447.8631Q845.59686 446.95685 847.22186 445.45685Q848.51874 444.25372 848.8156 443.81622Q849.20624 443.22247 849.20624 442.64435Q849.20624 442.00372 848.8625 441.65997Q848.51874 441.31622 847.90936 441.31622Q847.3 441.31622 846.9406 441.6756Q846.59686 442.03497 846.53436 442.87872L844.6281 442.69122Q844.8 441.09747 845.6906 440.40997Q846.59686 439.72247 847.95624 439.72247Q849.4406 439.72247 850.28436 440.51935Q851.1281 441.31622 851.1281 442.50372Q851.1281 443.19122 850.8781 443.8006Q850.64374 444.40997 850.1281 445.08185Q849.76874 445.51935 848.8625 446.3631Q847.95624 447.19122 847.70624 447.47247Q847.47186 447.7381 847.3156 448.00372L851.1281 448.00372ZM853.0031 447.8631L854.925 447.8631L854.925 449.2381Q854.925 450.06622 854.78436 450.5506Q854.64374 451.03497 854.2375 451.40997Q853.84686 451.8006 853.22186 452.01935L852.84686 451.22247Q853.425 451.03497 853.675 450.69122Q853.925 450.3631 853.9406 449.78497L853.0031 449.78497L853.0031 447.8631ZM859.89374 439.72247Q861.34686 439.72247 862.175 440.75372Q863.14374 441.9881 863.14374 444.84747Q863.14374 447.69122 862.15936 448.9256Q861.34686 449.95685 859.89374 449.95685Q858.425 449.95685 857.53436 448.83185Q856.64374 447.70685 856.64374 444.81622Q856.64374 441.9881 857.6281 440.75372Q858.4406 439.72247 859.89374 439.72247ZM859.89374 441.31622Q859.55 441.31622 859.26874 441.53497Q859.0031 441.75372 858.84686 442.33185Q858.64374 443.08185 858.64374 444.84747Q858.64374 446.6131 858.8156 447.26935Q859.0031 447.9256 859.26874 448.14435Q859.55 448.3631 859.89374 448.3631Q860.2375 448.3631 860.5031 448.14435Q860.78436 447.9256 860.9406 447.34747Q861.14374 446.6131 861.14374 444.84747Q861.14374 443.08185 860.95624 442.4256Q860.78436 441.75372 860.5031 441.53497Q860.2375 441.31622 859.89374 441.31622ZM864.65936 442.2381Q864.65936 440.89435 865.2531 440.25372Q865.84686 439.59747 866.84686 439.59747Q867.89374 439.59747 868.4875 440.2381Q869.08124 440.87872 869.08124 442.2381Q869.08124 443.58185 868.4875 444.2381Q867.89374 444.87872 866.89374 444.87872Q865.84686 444.87872 865.2531 444.2381Q864.65936 443.59747 864.65936 442.2381ZM866.15936 442.22247Q866.15936 443.20685 866.3781 443.53497Q866.55 443.78497 866.84686 443.78497Q867.15936 443.78497 867.33124 443.53497Q867.55 443.20685 867.55 442.22247Q867.55 441.25372 867.33124 440.9256Q867.15936 440.65997 866.84686 440.65997Q866.55 440.65997 866.3781 440.90997Q866.15936 441.25372 866.15936 442.22247ZM868.3156 450.1756L866.89374 450.1756L872.2375 439.59747L873.6125 439.59747L868.3156 450.1756ZM871.425 447.53497Q871.425 446.19122 872.0031 445.5506Q872.59686 444.89435 873.6281 444.89435Q874.65936 444.89435 875.2531 445.5506Q875.84686 446.19122 875.84686 447.53497Q875.84686 448.89435 875.2531 449.5506Q874.65936 450.19122 873.64374 450.19122Q872.59686 450.19122 872.0031 449.5506Q871.425 448.89435 871.425 447.53497ZM872.90936 447.53497Q872.90936 448.50372 873.14374 448.83185Q873.3156 449.08185 873.6125 449.08185Q873.925 449.08185 874.08124 448.84747Q874.3156 448.50372 874.3156 447.53497Q874.3156 446.5506 874.09686 446.22247Q873.925 445.97247 873.6125 445.97247Q873.3 445.97247 873.14374 446.22247Q872.90936 446.5506 872.90936 447.53497Z" fill-rule="nonzero"/><path stroke="#757575" stroke-width="1.0" stroke-linecap="butt" d="M876.05 435.28497L688.23334 435.28497L481.18753 435.28497" fill-rule="nonzero"/><path fill="#9e9e9e" d="M483.18753 435.28497C483.18753 434.18042 482.29208 433.28497 481.18753 433.28497C480.08295 433.28497 479.18753 434.18042 479.18753 435.28497C479.18753 436.38956 480.08295 437.28497 481.18753 437.28497C482.29208 437.28497 483.18753 436.38956 483.18753 435.28497" fill-rule="nonzero"/><path fill="#000000" d="M29.496876 46.95L29.496876 32.6375L34.41875 32.6375Q36.090626 32.6375 36.98125 32.840626Q38.2 33.121876 39.075 33.85625Q40.2 34.825 40.7625 36.309376Q41.325 37.79375 41.325 39.715626Q41.325 41.340626 40.95 42.60625Q40.575 43.85625 39.965626 44.684376Q39.371876 45.5125 38.66875 45.996876Q37.965626 46.465626 36.965626 46.715626Q35.965626 46.95 34.653126 46.95L29.496876 46.95ZM31.3875 45.2625L34.45 45.2625Q35.85625 45.2625 36.653126 44.996876Q37.465626 44.73125 37.95 44.246876Q38.621876 43.575 38.996876 42.45Q39.371876 41.309376 39.371876 39.684376Q39.371876 37.434376 38.6375 36.23125Q37.903126 35.028126 36.840626 34.621876Q36.090626 34.325 34.403126 34.325L31.3875 34.325L31.3875 45.2625ZM50.371876 43.60625L52.184376 43.840626Q51.7625 45.41875 50.590626 46.309376Q49.434376 47.184376 47.621876 47.184376Q45.35625 47.184376 44.0125 45.79375Q42.684376 44.3875 42.684376 41.85625Q42.684376 39.23125 44.028126 37.79375Q45.371876 36.340626 47.528126 36.340626Q49.60625 36.340626 50.91875 37.7625Q52.246876 39.16875 52.246876 41.746876Q52.246876 41.903126 52.23125 42.215626L44.496876 42.215626Q44.590626 43.91875 45.465626 44.825Q46.340626 45.73125 47.6375 45.73125Q48.60625 45.73125 49.278126 45.23125Q49.965626 44.715626 50.371876 43.60625ZM44.590626 40.7625L50.3875 40.7625Q50.278126 39.465626 49.73125 38.809376Q48.8875 37.79375 47.54375 37.79375Q46.340626 37.79375 45.5125 38.60625Q44.684376 39.403126 44.590626 40.7625ZM54.590626 46.95L54.590626 32.6375L64.24687 32.6375L64.24687 34.325L56.48125 34.325L56.48125 38.7625L63.2 38.7625L63.2 40.45L56.48125 40.45L56.48125 46.95L54.590626 46.95ZM66.27812 34.653126L66.27812 32.6375L68.04375 32.6375L68.04375 34.653126L66.27812 34.653126ZM66.27812 46.95L66.27812 36.575L68.04375 36.575L68.04375 46.95L66.27812 46.95ZM76.49687 46.95L76.49687 32.6375L81.8875 32.6375Q83.325 32.6375 84.075 32.7625Q85.12187 32.95 85.84062 33.45Q86.55937 33.934376 86.98125 34.825Q87.41875 35.715626 87.41875 36.778126Q87.41875 38.60625 86.24687 39.871876Q85.09062 41.121876 82.05937 41.121876L78.3875 41.121876L78.3875 46.95L76.49687 46.95ZM78.3875 39.434376L82.09062 39.434376Q83.91875 39.434376 84.68437 38.7625Q85.46562 38.075 85.46562 36.825Q85.46562 35.934376 85.0125 35.29375Q84.55937 34.653126 83.825 34.45Q83.34062 34.325 82.04375 34.325L78.3875 34.325L78.3875 39.434376ZM96.05937 46.95L96.05937 45.41875Q94.85625 47.184376 92.77812 47.184376Q91.85625 47.184376 91.05937 46.840626Q90.2625 46.48125 89.87187 45.95Q89.49687 45.41875 89.34062 44.6375Q89.23125 44.121876 89.23125 42.996876L89.23125 36.575L90.98125 36.575L90.98125 42.325Q90.98125 43.7 91.09062 44.184376Q91.2625 44.871876 91.79375 45.278126Q92.34062 45.66875 93.12187 45.66875Q93.91875 45.66875 94.60625 45.2625Q95.30937 44.85625 95.59062 44.16875Q95.8875 43.465626 95.8875 42.1375L95.8875 36.575L97.6375 36.575L97.6375 46.95L96.05937 46.95ZM100.23125 46.95L100.23125 32.6375L101.98125 32.6375L101.98125 46.95L100.23125 46.95ZM103.55937 43.85625L105.30937 43.575Q105.45 44.621876 106.12187 45.184376Q106.79375 45.73125 107.99687 45.73125Q109.2 45.73125 109.77812 45.246876Q110.37187 44.746876 110.37187 44.090626Q110.37187 43.496876 109.85625 43.153126Q109.49687 42.91875 108.05937 42.559376Q106.12187 42.059376 105.37187 41.715626Q104.6375 41.35625 104.24687 40.73125Q103.85625 40.090626 103.85625 39.325Q103.85625 38.6375 104.16875 38.04375Q104.49687 37.45 105.04375 37.059376Q105.45 36.7625 106.15312 36.559376Q106.87187 36.340626 107.68437 36.340626Q108.90312 36.340626 109.825 36.7Q110.74687 37.04375 111.18437 37.653126Q111.62187 38.246876 111.79375 39.246876L110.075 39.48125Q109.95 38.684376 109.3875 38.246876Q108.825 37.79375 107.80937 37.79375Q106.59062 37.79375 106.075 38.2Q105.55937 38.590626 105.55937 39.121876Q105.55937 39.465626 105.77812 39.746876Q105.98125 40.028126 106.45 40.215626Q106.71562 40.309376 107.99687 40.653126Q109.87187 41.153126 110.60625 41.48125Q111.34062 41.79375 111.7625 42.403126Q112.18437 42.996876 112.18437 43.903126Q112.18437 44.778126 111.66875 45.559376Q111.15312 46.340626 110.18437 46.7625Q109.21562 47.184376 107.99687 47.184376Q105.98125 47.184376 104.91875 46.340626Q103.85625 45.496876 103.55937 43.85625ZM121.37187 43.60625L123.18437 43.840626Q122.7625 45.41875 121.59062 46.309376Q120.43437 47.184376 118.62187 47.184376Q116.35625 47.184376 115.0125 45.79375Q113.68437 44.3875 113.68437 41.85625Q113.68437 39.23125 115.02812 37.79375Q116.37187 36.340626 118.52812 36.340626Q120.60625 36.340626 121.91875 37.7625Q123.24687 39.16875 123.24687 41.746876Q123.24687 41.903126 123.23125 42.215626L115.49687 42.215626Q115.59062 43.91875 116.46562 44.825Q117.34062 45.73125 118.6375 45.73125Q119.60625 45.73125 120.27812 45.23125Q120.96562 44.715626 121.37187 43.60625ZM115.59062 40.7625L121.3875 40.7625Q121.27812 39.465626 120.73125 38.809376Q119.8875 37.79375 118.54375 37.79375Q117.34062 37.79375 116.5125 38.60625Q115.68437 39.403126 115.59062 40.7625ZM131.80937 46.95L131.80937 32.6375L133.71562 32.6375L133.71562 46.95L131.80937 46.95ZM137.2625 46.95L137.2625 36.575L138.85625 36.575L138.85625 38.059376Q139.99687 36.340626 142.15312 36.340626Q143.09062 36.340626 143.87187 36.684376Q144.66875 37.0125 145.05937 37.559376Q145.45 38.10625 145.60625 38.85625Q145.7 39.35625 145.7 40.575L145.7 46.95L143.93437 46.95L143.93437 40.6375Q143.93437 39.559376 143.73125 39.028126Q143.52812 38.496876 142.99687 38.184376Q142.48125 37.871876 141.77812 37.871876Q140.65312 37.871876 139.84062 38.590626Q139.02812 39.29375 139.02812 41.278126L139.02812 46.95L137.2625 46.95ZM154.99687 46.95L154.99687 45.6375Q154.0125 47.184376 152.09062 47.184376Q150.85625 47.184376 149.80937 46.496876Q148.77812 45.809376 148.2 44.590626Q147.6375 43.371876 147.6375 41.778126Q147.6375 40.215626 148.15312 38.95Q148.66875 37.684376 149.7 37.0125Q150.74687 36.340626 152.0125 36.340626Q152.95 36.340626 153.68437 36.746876Q154.41875 37.1375 154.8875 37.7625L154.8875 32.6375L156.62187 32.6375L156.62187 46.95L154.99687 46.95ZM149.43437 41.778126Q149.43437 43.7625 150.27812 44.746876Q151.12187 45.73125 152.2625 45.73125Q153.41875 45.73125 154.21562 44.79375Q155.02812 43.85625 155.02812 41.91875Q155.02812 39.79375 154.2 38.79375Q153.3875 37.79375 152.18437 37.79375Q151.0125 37.79375 150.21562 38.7625Q149.43437 39.715626 149.43437 41.778126ZM166.37187 43.60625L168.18437 43.840626Q167.7625 45.41875 166.59062 46.309376Q165.43437 47.184376 163.62187 47.184376Q161.35625 47.184376 160.0125 45.79375Q158.68437 44.3875 158.68437 41.85625Q158.68437 39.23125 160.02812 37.79375Q161.37187 36.340626 163.52812 36.340626Q165.60625 36.340626 166.91875 37.7625Q168.24687 39.16875 168.24687 41.746876Q168.24687 41.903126 168.23125 42.215626L160.49687 42.215626Q160.59062 43.91875 161.46562 44.825Q162.34062 45.73125 163.6375 45.73125Q164.60625 45.73125 165.27812 45.23125Q165.96562 44.715626 166.37187 43.60625ZM160.59062 40.7625L166.3875 40.7625Q166.27812 39.465626 165.73125 38.809376Q164.8875 37.79375 163.54375 37.79375Q162.34062 37.79375 161.5125 38.60625Q160.68437 39.403126 160.59062 40.7625ZM169.09062 46.95L172.8875 41.559376L169.3875 36.575L171.575 36.575L173.16875 39.0125Q173.62187 39.7 173.8875 40.16875Q174.325 39.528126 174.68437 39.028126L176.43437 36.575L178.52812 36.575L174.95 41.465626L178.80937 46.95L176.65312 46.95L174.5125 43.73125L173.95 42.85625L171.23125 46.95L169.09062 46.95Z" fill-rule="nonzero"/></svg>