<svg version="1.1" viewBox="0.0 0.0 904.0 559.0" fill="none" stroke="none" stroke-linecap="square" stroke-miterlimit="10" width="904" height="559" xmlns:xlink="http://www.w3.org/1999/xlink" xmlns="http://www.w3.org/2000/svg"><path fill="#ffffff" d="M0 0L904.0 0L904.0 559.0L0 559.0L0 0Z" fill-rule="nonzero"/><path fill="#3e6679" d="M682.23334 318.08417C682.23334 368.9599 647.9152 416.8485 589.65765 447.26736L589.65765 412.73236C647.9152 382.3135 682.23334 334.4249 682.23334 283.54916Z" fill-rule="nonzero"/><path fill="#5891ad" d="M452.0 122.38583C551.21027 122.38583 639.2637 166.87282 670.51355 232.78488C701.7635 298.69696 669.18134 371.20953 589.65765 412.73236L452.0 283.54916Z" fill-rule="nonzero"/><path fill="#4cdc8b" d="M432.3502 122.97388C438.88516 122.58202 445.4411 122.38583 452.0 122.38583L452.0 283.54916Z" fill-rule="nonzero"/><path fill="#0f45a8" d="M299.74396 162.65877C336.734 139.831 383.21735 125.919975 432.3502 122.97388L452.0 283.54916Z" fill-rule="nonzero"/><path fill="#1c7685" d="M221.78139 281.7265C222.51857 236.10135 250.84952 192.83315 299.74396 162.65877L452.0 283.54916Z" fill-rule="nonzero"/><path fill="#b34e22" d="M345.41928 460.93896C269.41568 433.15372 221.76666 378.10522 221.76666 318.08417L221.76666 283.54916C221.76666 343.57025 269.41568 398.6187 345.41928 426.40396Z" fill-rule="nonzero"/><path fill="#ff6f31" d="M345.41928 426.40396C268.58563 398.31528 220.80107 342.39917 221.78139 281.7265L452.0 283.54916Z" fill-rule="nonzero"/><path fill="#003044" d="M589.65765 447.26736C518.7561 484.2882 423.82443 489.60214 345.41928 460.93896L345.41928 426.40396C423.82443 455.06714 518.7561 449.7532 589.65765 412.73236Z" fill-rule="nonzero"/><path fill="#004561" d="M589.65765 412.73236C518.7561 449.7532 423.82443 455.06714 345.41928 426.40396L452.0 283.54916Z" fill-rule="nonzero"/><path fill="#1a1a1a" d="M28.934376 112.67692L28.934376 102.66129L31.965626 102.66129L33.79375 109.48942L35.590626 102.66129L38.621876 102.66129L38.621876 112.67692L36.746876 112.67692L36.746876 104.78629L34.746876 112.67692L32.809376 112.67692L30.825 104.78629L30.825 112.67692L28.934376 112.67692ZM40.996876 112.67692L40.996876 102.66129L43.0125 102.66129L43.0125 107.09879L47.10625 102.66129L49.825 102.66129L46.059376 106.55192L50.028126 112.67692L47.41875 112.67692L44.653126 107.97379L43.0125 109.64567L43.0125 112.67692L40.996876 112.67692ZM50.98125 112.67692L50.98125 102.66129L55.23125 102.66129Q56.840626 102.66129 57.559376 102.92692Q58.29375 103.19254 58.73125 103.89567Q59.16875 104.58317 59.16875 105.45817Q59.16875 106.59879 58.496876 107.33317Q57.840626 108.06754 56.528126 108.25504Q57.184376 108.63004 57.60625 109.09879Q58.04375 109.55192 58.7625 110.72379L59.98125 112.67692L57.559376 112.67692L56.10625 110.48942Q55.325 109.33317 55.028126 109.03629Q54.746876 108.72379 54.41875 108.61442Q54.10625 108.48942 53.403126 108.48942L52.996876 108.48942L52.996876 112.67692L50.98125 112.67692ZM52.996876 106.89567L54.496876 106.89567Q55.95 106.89567 56.309376 106.77067Q56.684376 106.64567 56.8875 106.34879Q57.090626 106.05192 57.090626 105.59879Q57.090626 105.08317 56.809376 104.78629Q56.54375 104.47379 56.059376 104.38004Q55.809376 104.34879 54.575 104.34879L52.996876 104.34879L52.996876 106.89567Z" fill-rule="nonzero"/><path fill="#9e9e9e" d="M33.465626 132.67693L31.54375 132.67693L31.54375 125.44255Q30.48125 126.426926 29.059376 126.895676L29.059376 125.145676Q29.809376 124.9113 30.684376 124.2238Q31.575 123.5363 31.903126 122.614426L33.465626 122.614426L33.465626 132.67693ZM36.903126 130.75505L38.825 130.75505L38.825 132.13005Q38.825 132.95818 38.684376 133.44255Q38.54375 133.92693 38.1375 134.30193Q37.746876 134.69255 37.121876 134.9113L36.746876 134.11443Q37.325 133.92693 37.575 133.58318Q37.825 133.25505 37.840626 132.67693L36.903126 132.67693L36.903126 130.75505ZM44.309376 132.67693L44.309376 130.6613L40.215626 130.6613L40.215626 128.9738L44.559376 122.614426L46.16875 122.614426L46.16875 128.9738L47.41875 128.9738L47.41875 130.6613L46.16875 130.6613L46.16875 132.67693L44.309376 132.67693ZM44.309376 128.9738L44.309376 125.551926L42.0125 128.9738L44.309376 128.9738ZM48.559376 125.13005Q48.559376 123.7863 49.153126 123.145676Q49.746876 122.489426 50.746876 122.489426Q51.79375 122.489426 52.3875 123.13005Q52.98125 123.770676 52.98125 125.13005Q52.98125 126.4738 52.3875 127.13005Q51.79375 127.770676 50.79375 127.770676Q49.746876 127.770676 49.153126 127.13005Q48.559376 126.489426 48.559376 125.13005ZM50.059376 125.114426Q50.059376 126.0988 50.278126 126.426926Q50.45 126.676926 50.746876 126.676926Q51.059376 126.676926 51.23125 126.426926Q51.45 126.0988 51.45 125.114426Q51.45 124.145676 51.23125 123.81755Q51.059376 123.551926 50.746876 123.551926Q50.45 123.551926 50.278126 123.801926Q50.059376 124.145676 50.059376 125.114426ZM52.215626 133.06755L50.79375 133.06755L56.1375 122.489426L57.5125 122.489426L52.215626 133.06755ZM55.325 130.42693Q55.325 129.08318 55.903126 128.44255Q56.496876 127.7863 57.528126 127.7863Q58.559376 127.7863 59.153126 128.44255Q59.746876 129.08318 59.746876 130.42693Q59.746876 131.7863 59.153126 132.44255Q58.559376 133.08318 57.54375 133.08318Q56.496876 133.08318 55.903126 132.44255Q55.325 131.7863 55.325 130.42693ZM56.809376 130.42693Q56.809376 131.39568 57.04375 131.7238Q57.215626 131.9738 57.5125 131.9738Q57.825 131.9738 57.98125 131.73943Q58.215626 131.39568 58.215626 130.42693Q58.215626 129.44255 57.996876 129.11443Q57.825 128.86443 57.5125 128.86443Q57.2 128.86443 57.04375 129.11443Q56.809376 129.44255 56.809376 130.42693Z" fill-rule="nonzero"/><path stroke="#757575" stroke-width="1.0" stroke-linecap="butt" d="M27.95 118.17692L215.76666 118.17692L442.6578 130.58372" fill-rule="nonzero"/><path fill="#9e9e9e" d="M444.6578 130.58372C444.6578 129.47916 443.7624 128.58372 442.6578 128.58372C441.55325 128.58372 440.6578 129.47916 440.6578 130.58372C440.6578 131.6883 441.55325 132.58372 442.6578 132.58372C443.7624 132.58372 444.6578 131.6883 444.6578 130.58372" fill-rule="nonzero"/><path fill="#1a1a1a" d="M28.45 146.4113L30.41875 146.2238Q30.60625 147.20818 31.1375 147.67693Q31.684376 148.14568 32.60625 148.14568Q33.590626 148.14568 34.075 147.73943Q34.575 147.31755 34.575 146.77068Q34.575 146.4113 34.371876 146.1613Q34.16875 145.9113 33.6375 145.7238Q33.29375 145.5988 32.028126 145.2863Q30.403126 144.88005 29.746876 144.30193Q28.825 143.4738 28.825 142.2863Q28.825 141.52068 29.246876 140.8488Q29.684376 140.17693 30.496876 139.83318Q31.325 139.48943 32.48125 139.48943Q34.35625 139.48943 35.309376 140.31755Q36.2625 141.14568 36.325 142.52068L34.29375 142.61443Q34.16875 141.83318 33.73125 141.50505Q33.309376 141.1613 32.45 141.1613Q31.575 141.1613 31.075 141.52068Q30.746876 141.75505 30.746876 142.14568Q30.746876 142.50505 31.059376 142.75505Q31.434376 143.06755 32.903126 143.42693Q34.3875 143.77068 35.090626 144.14568Q35.809376 144.52068 36.2 145.1613Q36.60625 145.80193 36.60625 146.75505Q36.60625 147.61443 36.121876 148.38005Q35.653126 149.13005 34.778126 149.48943Q33.903126 149.8488 32.590626 149.8488Q30.684376 149.8488 29.66875 148.9738Q28.653126 148.0988 28.45 146.4113ZM37.996876 149.67693L37.996876 139.6613L39.965626 139.6613L44.059376 146.3488L44.059376 139.6613L45.934376 139.6613L45.934376 149.67693L43.903126 149.67693L39.871876 143.14568L39.871876 149.67693L37.996876 149.67693ZM46.95 149.67693L50.371876 144.44255L47.278126 139.6613L49.6375 139.6613L51.653126 142.88005L53.621876 139.6613L55.965626 139.6613L52.840626 144.52068L56.2625 149.67693L53.825 149.67693L51.60625 146.20818L49.371876 149.67693L46.95 149.67693Z" fill-rule="nonzero"/><path fill="#9e9e9e" d="M33.465626 169.67693L31.54375 169.67693L31.54375 162.44255Q30.48125 163.42693 29.059376 163.89568L29.059376 162.14568Q29.809376 161.9113 30.684376 161.2238Q31.575 160.5363 31.903126 159.61443L33.465626 159.61443L33.465626 169.67693ZM39.79375 159.61443Q41.246876 159.61443 42.075 160.64568Q43.04375 161.88005 43.04375 164.73943Q43.04375 167.58318 42.059376 168.81755Q41.246876 169.8488 39.79375 169.8488Q38.325 169.8488 37.434376 168.7238Q36.54375 167.5988 36.54375 164.70818Q36.54375 161.88005 37.528126 160.64568Q38.340626 159.61443 39.79375 159.61443ZM39.79375 161.20818Q39.45 161.20818 39.16875 161.42693Q38.903126 161.64568 38.746876 162.2238Q38.54375 162.9738 38.54375 164.73943Q38.54375 166.50505 38.715626 167.1613Q38.903126 167.81755 39.16875 168.0363Q39.45 168.25505 39.79375 168.25505Q40.1375 168.25505 40.403126 168.0363Q40.684376 167.81755 40.840626 167.23943Q41.04375 166.50505 41.04375 164.73943Q41.04375 162.9738 40.85625 162.31755Q40.684376 161.64568 40.403126 161.42693Q40.1375 161.20818 39.79375 161.20818ZM44.903126 167.75505L46.825 167.75505L46.825 169.13005Q46.825 169.95818 46.684376 170.44255Q46.54375 170.92693 46.1375 171.30193Q45.746876 171.69255 45.121876 171.9113L44.746876 171.11443Q45.325 170.92693 45.575 170.58318Q45.825 170.25505 45.840626 169.67693L44.903126 169.67693L44.903126 167.75505ZM53.465626 169.67693L51.54375 169.67693L51.54375 162.44255Q50.48125 163.42693 49.059376 163.89568L49.059376 162.14568Q49.809376 161.9113 50.684376 161.2238Q51.575 160.5363 51.903126 159.61443L53.465626 159.61443L53.465626 169.67693ZM56.559376 162.13005Q56.559376 160.7863 57.153126 160.14568Q57.746876 159.48943 58.746876 159.48943Q59.79375 159.48943 60.3875 160.13005Q60.98125 160.77068 60.98125 162.13005Q60.98125 163.4738 60.3875 164.13005Q59.79375 164.77068 58.79375 164.77068Q57.746876 164.77068 57.153126 164.13005Q56.559376 163.48943 56.559376 162.13005ZM58.059376 162.11443Q58.059376 163.0988 58.278126 163.42693Q58.45 163.67693 58.746876 163.67693Q59.059376 163.67693 59.23125 163.42693Q59.45 163.0988 59.45 162.11443Q59.45 161.14568 59.23125 160.81755Q59.059376 160.55193 58.746876 160.55193Q58.45 160.55193 58.278126 160.80193Q58.059376 161.14568 58.059376 162.11443ZM60.215626 170.06755L58.79375 170.06755L64.1375 159.48943L65.5125 159.48943L60.215626 170.06755ZM63.325 167.42693Q63.325 166.08318 63.903126 165.44255Q64.49687 164.7863 65.52812 164.7863Q66.55937 164.7863 67.15312 165.44255Q67.74687 166.08318 67.74687 167.42693Q67.74687 168.7863 67.15312 169.44255Q66.55937 170.08318 65.54375 170.08318Q64.49687 170.08318 63.903126 169.44255Q63.325 168.7863 63.325 167.42693ZM64.80937 167.42693Q64.80937 168.39568 65.04375 168.7238Q65.21562 168.9738 65.5125 168.9738Q65.825 168.9738 65.98125 168.73943Q66.21562 168.39568 66.21562 167.42693Q66.21562 166.44255 65.99687 166.11443Q65.825 165.86443 65.5125 165.86443Q65.2 165.86443 65.04375 166.11443Q64.80937 166.44255 64.80937 167.42693Z" fill-rule="nonzero"/><path stroke="#757575" stroke-width="1.0" stroke-linecap="butt" d="M27.95 155.17693L215.76666 155.17693L366.01886 142.77011" fill-rule="nonzero"/><path fill="#9e9e9e" d="M368.01886 142.77011C368.01886 141.66554 367.1234 140.77011 366.01886 140.77011C364.91428 140.77011 364.01886 141.66554 364.01886 142.77011C364.01886 143.87468 364.91428 144.77011 366.01886 144.77011C367.1234 144.77011 368.01886 143.87468 368.01886 142.77011" fill-rule="nonzero"/><path fill="#1a1a1a" d="M35.3875 210.56862L37.340626 211.19362Q36.8875 212.83424 35.840626 213.63112Q34.79375 214.428 33.184376 214.428Q31.184376 214.428 29.8875 213.06862Q28.60625 211.69362 28.60625 209.33424Q28.60625 206.83424 29.903126 205.45924Q31.2 204.06862 33.309376 204.06862Q35.1375 204.06862 36.29375 205.14674Q36.98125 205.78737 37.309376 206.9905L35.309376 207.47487Q35.1375 206.69362 34.575 206.2405Q34.0125 205.78737 33.2 205.78737Q32.090626 205.78737 31.3875 206.59987Q30.7 207.39674 30.7 209.178Q30.7 211.08424 31.371876 211.89674Q32.059376 212.69362 33.153126 212.69362Q33.965626 212.69362 34.54375 212.19362Q35.121876 211.678 35.3875 210.56862ZM38.98125 214.25612L38.98125 204.2405L43.23125 204.2405Q44.840626 204.2405 45.559376 204.50612Q46.29375 204.77174 46.73125 205.47487Q47.16875 206.16237 47.16875 207.03737Q47.16875 208.178 46.496876 208.91237Q45.840626 209.64674 44.528126 209.83424Q45.184376 210.20924 45.60625 210.678Q46.04375 211.13112 46.7625 212.303L47.98125 214.25612L45.559376 214.25612L44.10625 212.06862Q43.325 210.91237 43.028126 210.6155Q42.746876 210.303 42.41875 210.19362Q42.10625 210.06862 41.403126 210.06862L40.996876 210.06862L40.996876 214.25612L38.98125 214.25612ZM40.996876 208.47487L42.496876 208.47487Q43.95 208.47487 44.309376 208.34987Q44.684376 208.22487 44.8875 207.928Q45.090626 207.63112 45.090626 207.178Q45.090626 206.66237 44.809376 206.3655Q44.54375 206.053 44.059376 205.95924Q43.809376 205.928 42.575 205.928L40.996876 205.928L40.996876 208.47487ZM51.528126 214.25612L47.95 204.2405L50.1375 204.2405L52.66875 211.64674L55.121876 204.2405L57.278126 204.2405L53.684376 214.25612L51.528126 214.25612Z" fill-rule="nonzero"/><path fill="#9e9e9e" d="M33.465626 234.25612L31.54375 234.25612L31.54375 227.02174Q30.48125 228.00612 29.059376 228.47487L29.059376 226.72487Q29.809376 226.4905 30.684376 225.803Q31.575 225.1155 31.903126 224.19362L33.465626 224.19362L33.465626 234.25612ZM36.48125 231.59987L38.340626 231.3655Q38.41875 232.08424 38.809376 232.45924Q39.2 232.83424 39.7625 232.83424Q40.35625 232.83424 40.7625 232.38112Q41.16875 231.928 41.16875 231.16237Q41.16875 230.44362 40.778126 230.02174Q40.3875 229.59987 39.825 229.59987Q39.45 229.59987 38.95 229.7405L39.153126 228.178Q39.934376 228.19362 40.340626 227.83424Q40.7625 227.47487 40.7625 226.88112Q40.7625 226.38112 40.45 226.08424Q40.153126 225.77174 39.653126 225.77174Q39.16875 225.77174 38.809376 226.1155Q38.465626 226.45924 38.3875 227.1155L36.621876 226.81862Q36.809376 225.89674 37.16875 225.3655Q37.54375 224.81862 38.215626 224.50612Q38.8875 224.19362 39.715626 224.19362Q41.121876 224.19362 41.98125 225.09987Q42.684376 225.83424 42.684376 226.75612Q42.684376 228.08424 41.246876 228.8655Q42.10625 229.053 42.621876 229.69362Q43.1375 230.33424 43.1375 231.2405Q43.1375 232.56862 42.16875 233.50612Q41.2 234.428 39.778126 234.428Q38.41875 234.428 37.5125 233.64674Q36.621876 232.8655 36.48125 231.59987ZM44.903126 232.33424L46.825 232.33424L46.825 233.70924Q46.825 234.53737 46.684376 235.02174Q46.54375 235.50612 46.1375 235.88112Q45.746876 236.27174 45.121876 236.4905L44.746876 235.69362Q45.325 235.50612 45.575 235.16237Q45.825 234.83424 45.840626 234.25612L44.903126 234.25612L44.903126 232.33424ZM48.48125 231.59987L50.340626 231.3655Q50.41875 232.08424 50.809376 232.45924Q51.2 232.83424 51.7625 232.83424Q52.35625 232.83424 52.7625 232.38112Q53.16875 231.928 53.16875 231.16237Q53.16875 230.44362 52.778126 230.02174Q52.3875 229.59987 51.825 229.59987Q51.45 229.59987 50.95 229.7405L51.153126 228.178Q51.934376 228.19362 52.340626 227.83424Q52.7625 227.47487 52.7625 226.88112Q52.7625 226.38112 52.45 226.08424Q52.153126 225.77174 51.653126 225.77174Q51.16875 225.77174 50.809376 226.1155Q50.465626 226.45924 50.3875 227.1155L48.621876 226.81862Q48.809376 225.89674 49.16875 225.3655Q49.54375 224.81862 50.215626 224.50612Q50.8875 224.19362 51.715626 224.19362Q53.121876 224.19362 53.98125 225.09987Q54.684376 225.83424 54.684376 226.75612Q54.684376 228.08424 53.246876 228.8655Q54.10625 229.053 54.621876 229.69362Q55.1375 230.33424 55.1375 231.2405Q55.1375 232.56862 54.16875 233.50612Q53.2 234.428 51.778126 234.428Q50.41875 234.428 49.5125 233.64674Q48.621876 232.8655 48.48125 231.59987ZM56.559376 226.70924Q56.559376 225.3655 57.153126 224.72487Q57.746876 224.06862 58.746876 224.06862Q59.79375 224.06862 60.3875 224.70924Q60.98125 225.34987 60.98125 226.70924Q60.98125 228.053 60.3875 228.70924Q59.79375 229.34987 58.79375 229.34987Q57.746876 229.34987 57.153126 228.70924Q56.559376 228.06862 56.559376 226.70924ZM58.059376 226.69362Q58.059376 227.678 58.278126 228.00612Q58.45 228.25612 58.746876 228.25612Q59.059376 228.25612 59.23125 228.00612Q59.45 227.678 59.45 226.69362Q59.45 225.72487 59.23125 225.39674Q59.059376 225.13112 58.746876 225.13112Q58.45 225.13112 58.278126 225.38112Q58.059376 225.72487 58.059376 226.69362ZM60.215626 234.64674L58.79375 234.64674L64.1375 224.06862L65.5125 224.06862L60.215626 234.64674ZM63.325 232.00612Q63.325 230.66237 63.903126 230.02174Q64.49687 229.3655 65.52812 229.3655Q66.55937 229.3655 67.15312 230.02174Q67.74687 230.66237 67.74687 232.00612Q67.74687 233.3655 67.15312 234.02174Q66.55937 234.66237 65.54375 234.66237Q64.49687 234.66237 63.903126 234.02174Q63.325 233.3655 63.325 232.00612ZM64.80937 232.00612Q64.80937 232.97487 65.04375 233.303Q65.21562 233.553 65.5125 233.553Q65.825 233.553 65.98125 233.31862Q66.21562 232.97487 66.21562 232.00612Q66.21562 231.02174 65.99687 230.69362Q65.825 230.44362 65.5125 230.44362Q65.2 230.44362 65.04375 230.69362Q64.80937 231.02174 64.80937 232.00612Z" fill-rule="nonzero"/><path stroke="#757575" stroke-width="1.0" stroke-linecap="butt" d="M27.95 219.75612L215.76666 219.75612L253.16852 219.75612" fill-rule="nonzero"/><path fill="#9e9e9e" d="M255.16852 219.75612C255.16852 218.65155 254.27309 217.75612 253.16852 217.75612C252.06395 217.75612 251.16852 218.65155 251.16852 219.75612C251.16852 220.86069 252.06395 221.75612 253.16852 221.75612C254.27309 221.75612 255.16852 220.86069 255.16852 219.75612" fill-rule="nonzero"/><path fill="#1a1a1a" d="M35.3875 352.95996L37.340626 353.58496Q36.8875 355.2256 35.840626 356.02246Q34.79375 356.81934 33.184376 356.81934Q31.184376 356.81934 29.8875 355.45996Q28.60625 354.08496 28.60625 351.7256Q28.60625 349.2256 29.903126 347.8506Q31.2 346.45996 33.309376 346.45996Q35.1375 346.45996 36.29375 347.5381Q36.98125 348.1787 37.309376 349.38184L35.309376 349.8662Q35.1375 349.08496 34.575 348.63184Q34.0125 348.1787 33.2 348.1787Q32.090626 348.1787 31.3875 348.9912Q30.7 349.7881 30.7 351.56934Q30.7 353.4756 31.371876 354.2881Q32.059376 355.08496 33.153126 355.08496Q33.965626 355.08496 34.54375 354.58496Q35.121876 354.06934 35.3875 352.95996ZM38.559376 351.69434Q38.559376 350.1631 39.0125 349.13184Q39.35625 348.3662 39.95 347.75684Q40.54375 347.14746 41.246876 346.8506Q42.184376 346.45996 43.403126 346.45996Q45.621876 346.45996 46.95 347.83496Q48.278126 349.20996 48.278126 351.64746Q48.278126 354.06934 46.95 355.44434Q45.6375 356.81934 43.434376 356.81934Q41.2 356.81934 39.871876 355.45996Q38.559376 354.08496 38.559376 351.69434ZM40.6375 351.63184Q40.6375 353.33496 41.41875 354.20996Q42.215626 355.08496 43.41875 355.08496Q44.6375 355.08496 45.403126 354.2256Q46.184376 353.3506 46.184376 351.6006Q46.184376 349.88184 45.434376 349.0381Q44.684376 348.1787 43.41875 348.1787Q42.16875 348.1787 41.403126 349.0381Q40.6375 349.89746 40.6375 351.63184ZM49.934376 356.64746L49.934376 346.63184L52.965626 346.63184L54.79375 353.45996L56.590626 346.63184L59.621876 346.63184L59.621876 356.64746L57.746876 356.64746L57.746876 348.75684L55.746876 356.64746L53.809376 356.64746L51.825 348.75684L51.825 356.64746L49.934376 356.64746ZM61.965626 356.64746L61.965626 346.63184L65.21562 346.63184Q67.05937 346.63184 67.62187 346.77246Q68.48125 347.00684 69.05937 347.75684Q69.65312 348.50684 69.65312 349.70996Q69.65312 350.63184 69.30937 351.25684Q68.98125 351.88184 68.46562 352.2412Q67.95 352.6006 67.40312 352.7256Q66.68437 352.8662 65.30937 352.8662L63.996876 352.8662L63.996876 356.64746L61.965626 356.64746ZM63.996876 348.31934L63.996876 351.1631L65.10625 351.1631Q66.29375 351.1631 66.7 351.00684Q67.10625 350.8506 67.325 350.52246Q67.55937 350.1787 67.55937 349.7412Q67.55937 349.19434 67.23125 348.83496Q66.91875 348.4756 66.41875 348.38184Q66.05937 348.31934 64.96562 348.31934L63.996876 348.31934Z" fill-rule="nonzero"/><path fill="#9e9e9e" d="M33.465626 376.64746L31.54375 376.64746L31.54375 369.4131Q30.48125 370.39746 29.059376 370.8662L29.059376 369.1162Q29.809376 368.88184 30.684376 368.19434Q31.575 367.50684 31.903126 366.58496L33.465626 366.58496L33.465626 376.64746ZM36.54375 368.5537L36.54375 366.75684L43.121876 366.75684L43.121876 368.1631Q42.29375 368.95996 41.45 370.45996Q40.621876 371.94434 40.16875 373.63184Q39.73125 375.31934 39.746876 376.64746L37.8875 376.64746Q37.934376 374.56934 38.746876 372.4131Q39.559376 370.2412 40.91875 368.5537L36.54375 368.5537ZM44.903126 374.7256L46.825 374.7256L46.825 376.1006Q46.825 376.9287 46.684376 377.4131Q46.54375 377.89746 46.1375 378.27246Q45.746876 378.6631 45.121876 378.88184L44.746876 378.08496Q45.325 377.89746 45.575 377.5537Q45.825 377.2256 45.840626 376.64746L44.903126 376.64746L44.903126 374.7256ZM48.575 374.06934L50.48125 373.8662Q50.575 374.52246 50.965626 374.89746Q51.371876 375.27246 51.903126 375.27246Q52.496876 375.27246 52.91875 374.7881Q53.340626 374.3037 53.340626 373.31934Q53.340626 372.39746 52.91875 371.94434Q52.5125 371.4756 51.840626 371.4756Q51.0125 371.4756 50.35625 372.20996L48.809376 371.9756L49.79375 366.75684L54.871876 366.75684L54.871876 368.5537L51.246876 368.5537L50.95 370.25684Q51.590626 369.94434 52.2625 369.94434Q53.528126 369.94434 54.41875 370.88184Q55.309376 371.8037 55.309376 373.2881Q55.309376 374.52246 54.590626 375.4912Q53.621876 376.81934 51.8875 376.81934Q50.496876 376.81934 49.621876 376.08496Q48.746876 375.33496 48.575 374.06934ZM56.559376 369.1006Q56.559376 367.75684 57.153126 367.1162Q57.746876 366.45996 58.746876 366.45996Q59.79375 366.45996 60.3875 367.1006Q60.98125 367.7412 60.98125 369.1006Q60.98125 370.44434 60.3875 371.1006Q59.79375 371.7412 58.79375 371.7412Q57.746876 371.7412 57.153126 371.1006Q56.559376 370.45996 56.559376 369.1006ZM58.059376 369.08496Q58.059376 370.06934 58.278126 370.39746Q58.45 370.64746 58.746876 370.64746Q59.059376 370.64746 59.23125 370.39746Q59.45 370.06934 59.45 369.08496Q59.45 368.1162 59.23125 367.7881Q59.059376 367.52246 58.746876 367.52246Q58.45 367.52246 58.278126 367.77246Q58.059376 368.1162 58.059376 369.08496ZM60.215626 377.0381L58.79375 377.0381L64.1375 366.45996L65.5125 366.45996L60.215626 377.0381ZM63.325 374.39746Q63.325 373.0537 63.903126 372.4131Q64.49687 371.75684 65.52812 371.75684Q66.55937 371.75684 67.15312 372.4131Q67.74687 373.0537 67.74687 374.39746Q67.74687 375.75684 67.15312 376.4131Q66.55937 377.0537 65.54375 377.0537Q64.49687 377.0537 63.903126 376.4131Q63.325 375.75684 63.325 374.39746ZM64.80937 374.39746Q64.80937 375.3662 65.04375 375.69434Q65.21562 375.94434 65.5125 375.94434Q65.825 375.94434 65.98125 375.70996Q66.21562 375.3662 66.21562 374.39746Q66.21562 373.4131 65.99687 373.08496Q65.825 372.83496 65.5125 372.83496Q65.2 372.83496 65.04375 373.08496Q64.80937 373.4131 64.80937 374.39746Z" fill-rule="nonzero"/><path stroke="#757575" stroke-width="1.0" stroke-linecap="butt" d="M27.95 362.14746L215.76666 362.14746L264.2991 362.14746" fill-rule="nonzero"/><path fill="#9e9e9e" d="M266.2991 362.14746C266.2991 361.0429 265.40366 360.14746 264.2991 360.14746C263.19452 360.14746 262.2991 361.0429 262.2991 362.14746C262.2991 363.25204 263.19452 364.14746 264.2991 364.14746C265.40366 364.14746 266.2991 363.25204 266.2991 362.14746" fill-rule="nonzero"/><path fill="#1a1a1a" d="M853.05 219.80748L855.08124 219.80748L855.08124 225.22935Q855.08124 226.52623 855.15936 226.90123Q855.28436 227.52623 855.76874 227.90123Q856.26874 228.2606 857.1125 228.2606Q857.97186 228.2606 858.40936 227.91685Q858.84686 227.55748 858.925 227.05748Q859.01874 226.54185 859.01874 225.33873L859.01874 219.80748L861.05 219.80748L861.05 225.05748Q861.05 226.86998 860.8781 227.61998Q860.72186 228.35435 860.26874 228.86998Q859.83124 229.3856 859.09686 229.6981Q858.3625 229.99498 857.175 229.99498Q855.7375 229.99498 854.9875 229.66685Q854.2531 229.3231 853.8156 228.80748Q853.39374 228.27623 853.2531 227.68248Q853.05 226.8231 853.05 225.15123L853.05 219.80748ZM863.09686 229.8231L863.09686 219.80748L865.0656 219.80748L869.15936 226.49498L869.15936 219.80748L871.03436 219.80748L871.03436 229.8231L869.0031 229.8231L864.97186 223.29185L864.97186 229.8231L863.09686 229.8231ZM873.0031 229.8231L873.0031 219.80748L875.03436 219.80748L875.03436 229.8231L873.0031 229.8231Z" fill-rule="nonzero"/><path fill="#9e9e9e" d="M836.58124 247.16685L838.4406 246.93248Q838.51874 247.65123 838.90936 248.02623Q839.3 248.40123 839.8625 248.40123Q840.45624 248.40123 840.8625 247.9481Q841.26874 247.49498 841.26874 246.72935Q841.26874 246.0106 840.8781 245.58873Q840.4875 245.16685 839.925 245.16685Q839.55 245.16685 839.05 245.30748L839.2531 243.74498Q840.03436 243.7606 840.4406 243.40123Q840.8625 243.04185 840.8625 242.4481Q840.8625 241.9481 840.55 241.65123Q840.2531 241.33873 839.7531 241.33873Q839.26874 241.33873 838.90936 241.68248Q838.5656 242.02623 838.4875 242.68248L836.72186 242.3856Q836.90936 241.46373 837.26874 240.93248Q837.64374 240.3856 838.3156 240.0731Q838.9875 239.7606 839.8156 239.7606Q841.22186 239.7606 842.08124 240.66685Q842.78436 241.40123 842.78436 242.3231Q842.78436 243.65123 841.34686 244.43248Q842.20624 244.61998 842.72186 245.2606Q843.2375 245.90123 843.2375 246.80748Q843.2375 248.1356 842.26874 249.0731Q841.3 249.99498 839.8781 249.99498Q838.51874 249.99498 837.6125 249.21373Q836.72186 248.43248 836.58124 247.16685ZM844.6906 247.5106L846.55 247.30748Q846.6125 247.86998 846.89374 248.15123Q847.1906 248.41685 847.65936 248.41685Q848.2531 248.41685 848.65936 247.86998Q849.08124 247.3231 849.20624 245.60435Q848.4875 246.43248 847.39374 246.43248Q846.20624 246.43248 845.34686 245.52623Q844.4875 244.61998 844.4875 243.15123Q844.4875 241.61998 845.39374 240.6981Q846.3 239.7606 847.70624 239.7606Q849.2375 239.7606 850.20624 240.9481Q851.1906 242.11998 851.1906 244.8231Q851.1906 247.5731 850.15936 248.79185Q849.14374 249.99498 847.51874 249.99498Q846.34686 249.99498 845.6125 249.36998Q844.89374 248.74498 844.6906 247.5106ZM849.03436 243.30748Q849.03436 242.3856 848.59686 241.86998Q848.175 241.35435 847.6125 241.35435Q847.08124 241.35435 846.72186 241.77623Q846.3781 242.1981 846.3781 243.15123Q846.3781 244.11998 846.7531 244.5731Q847.14374 245.02623 847.72186 245.02623Q848.26874 245.02623 848.64374 244.58873Q849.03436 244.15123 849.03436 243.30748ZM853.0031 247.90123L854.925 247.90123L854.925 249.27623Q854.925 250.10435 854.78436 250.58873Q854.64374 251.0731 854.2375 251.4481Q853.84686 251.83873 853.22186 252.05748L852.84686 251.2606Q853.425 251.0731 853.675 250.72935Q853.925 250.40123 853.9406 249.8231L853.0031 249.8231L853.0031 247.90123ZM858.3 244.41685Q857.55 244.10435 857.20624 243.55748Q856.8781 242.99498 856.8781 242.33873Q856.8781 241.22935 857.65936 240.49498Q858.4406 239.7606 859.8781 239.7606Q861.3 239.7606 862.09686 240.49498Q862.89374 241.22935 862.89374 242.33873Q862.89374 243.04185 862.51874 243.58873Q862.15936 244.1356 861.5031 244.41685Q862.34686 244.74498 862.76874 245.40123Q863.20624 246.04185 863.20624 246.86998Q863.20624 248.2606 862.3156 249.1356Q861.4406 249.99498 859.97186 249.99498Q858.59686 249.99498 857.6906 249.27623Q856.6125 248.43248 856.6125 246.96373Q856.6125 246.15123 857.01874 245.47935Q857.425 244.79185 858.3 244.41685ZM858.6906 242.47935Q858.6906 243.05748 859.0031 243.3856Q859.33124 243.6981 859.8781 243.6981Q860.425 243.6981 860.7531 243.36998Q861.08124 243.04185 861.08124 242.47935Q861.08124 241.93248 860.7531 241.61998Q860.425 241.29185 859.89374 241.29185Q859.34686 241.29185 859.01874 241.61998Q858.6906 241.9481 858.6906 242.47935ZM858.51874 246.77623Q858.51874 247.5731 858.925 248.0106Q859.33124 248.4481 859.9406 248.4481Q860.53436 248.4481 860.90936 248.02623Q861.3 247.60435 861.3 246.79185Q861.3 246.08873 860.90936 245.66685Q860.51874 245.22935 859.90936 245.22935Q859.20624 245.22935 858.8625 245.72935Q858.51874 246.21373 858.51874 246.77623ZM864.65936 242.27623Q864.65936 240.93248 865.2531 240.29185Q865.84686 239.6356 866.84686 239.6356Q867.89374 239.6356 868.4875 240.27623Q869.08124 240.91685 869.08124 242.27623Q869.08124 243.61998 868.4875 244.27623Q867.89374 244.91685 866.89374 244.91685Q865.84686 244.91685 865.2531 244.27623Q864.65936 243.6356 864.65936 242.27623ZM866.15936 242.2606Q866.15936 243.24498 866.3781 243.5731Q866.55 243.8231 866.84686 243.8231Q867.15936 243.8231 867.33124 243.5731Q867.55 243.24498 867.55 242.2606Q867.55 241.29185 867.33124 240.96373Q867.15936 240.6981 866.84686 240.6981Q866.55 240.6981 866.3781 240.9481Q866.15936 241.29185 866.15936 242.2606ZM868.3156 250.21373L866.89374 250.21373L872.2375 239.6356L873.6125 239.6356L868.3156 250.21373ZM871.425 247.5731Q871.425 246.22935 872.0031 245.58873Q872.59686 244.93248 873.6281 244.93248Q874.65936 244.93248 875.2531 245.58873Q875.84686 246.22935 875.84686 247.5731Q875.84686 248.93248 875.2531 249.58873Q874.65936 250.22935 873.64374 250.22935Q872.59686 250.22935 872.0031 249.58873Q871.425 248.93248 871.425 247.5731ZM872.90936 247.5731Q872.90936 248.54185 873.14374 248.86998Q873.3156 249.11998 873.6125 249.11998Q873.925 249.11998 874.08124 248.8856Q874.3156 248.54185 874.3156 247.5731Q874.3156 246.58873 874.09686 246.2606Q873.925 246.0106 873.6125 246.0106Q873.3 246.0106 873.14374 246.2606Q872.90936 246.58873 872.90936 247.5731Z" fill-rule="nonzero"/><path stroke="#757575" stroke-width="1.0" stroke-linecap="butt" d="M876.05 235.3231L688.23334 235.3231L659.5879 235.3231" fill-rule="nonzero"/><path fill="#9e9e9e" d="M661.5879 235.3231C661.5879 234.21854 660.69244 233.3231 659.5879 233.3231C658.48334 233.3231 657.5879 234.21854 657.5879 235.3231C657.5879 236.42767 658.48334 237.3231 659.5879 237.3231C660.69244 237.3231 661.5879 236.42767 661.5879 235.3231" fill-rule="nonzero"/><path fill="#1a1a1a" d="M848.1125 430.66714L845.90936 430.66714L845.03436 428.3859L841.01874 428.3859L840.1906 430.66714L838.05 430.66714L841.95624 420.65152L844.09686 420.65152L848.1125 430.66714ZM844.3781 426.6984L843.0031 422.97964L841.64374 426.6984L844.3781 426.6984ZM858.1125 430.66714L855.90936 430.66714L855.03436 428.3859L851.01874 428.3859L850.1906 430.66714L848.05 430.66714L851.95624 420.65152L854.09686 420.65152L858.1125 430.66714ZM854.3781 426.6984L853.0031 422.97964L851.64374 426.6984L854.3781 426.6984ZM861.6281 430.66714L858.05 420.65152L860.2375 420.65152L862.76874 428.05777L865.22186 420.65152L867.3781 420.65152L863.78436 430.66714L861.6281 430.66714ZM868.0656 430.66714L868.0656 420.65152L875.5031 420.65152L875.5031 422.33902L870.09686 422.33902L870.09686 424.55777L875.1281 424.55777L875.1281 426.24527L870.09686 426.24527L870.09686 428.97964L875.6906 428.97964L875.6906 430.66714L868.0656 430.66714Z" fill-rule="nonzero"/><path fill="#9e9e9e" d="M841.5656 450.66714L839.64374 450.66714L839.64374 443.43277Q838.58124 444.41714 837.15936 444.8859L837.15936 443.1359Q837.90936 442.90152 838.78436 442.21402Q839.675 441.52652 840.0031 440.60464L841.5656 440.60464L841.5656 450.66714ZM844.64374 442.5734L844.64374 440.77652L851.22186 440.77652L851.22186 442.18277Q850.39374 442.97964 849.55 444.47964Q848.72186 445.96402 848.26874 447.65152Q847.83124 449.33902 847.84686 450.66714L845.9875 450.66714Q846.03436 448.58902 846.84686 446.43277Q847.65936 444.2609 849.01874 442.5734L844.64374 442.5734ZM853.0031 448.74527L854.925 448.74527L854.925 450.12027Q854.925 450.9484 854.78436 451.43277Q854.64374 451.91714 854.2375 452.29214Q853.84686 452.68277 853.22186 452.90152L852.84686 452.10464Q853.425 451.91714 853.675 451.5734Q853.925 451.24527 853.9406 450.66714L853.0031 450.66714L853.0031 448.74527ZM856.6906 448.35464L858.55 448.15152Q858.6125 448.71402 858.89374 448.99527Q859.1906 449.2609 859.65936 449.2609Q860.2531 449.2609 860.65936 448.71402Q861.08124 448.16714 861.20624 446.4484Q860.4875 447.27652 859.39374 447.27652Q858.20624 447.27652 857.34686 446.37027Q856.4875 445.46402 856.4875 443.99527Q856.4875 442.46402 857.39374 441.54214Q858.3 440.60464 859.70624 440.60464Q861.2375 440.60464 862.20624 441.79214Q863.1906 442.96402 863.1906 445.66714Q863.1906 448.41714 862.15936 449.6359Q861.14374 450.83902 859.51874 450.83902Q858.34686 450.83902 857.6125 450.21402Q856.89374 449.58902 856.6906 448.35464ZM861.03436 444.15152Q861.03436 443.22964 860.59686 442.71402Q860.175 442.1984 859.6125 442.1984Q859.08124 442.1984 858.72186 442.62027Q858.3781 443.04214 858.3781 443.99527Q858.3781 444.96402 858.7531 445.41714Q859.14374 445.87027 859.72186 445.87027Q860.26874 445.87027 860.64374 445.43277Q861.03436 444.99527 861.03436 444.15152ZM864.65936 443.12027Q864.65936 441.77652 865.2531 441.1359Q865.84686 440.47964 866.84686 440.47964Q867.89374 440.47964 868.4875 441.12027Q869.08124 441.7609 869.08124 443.12027Q869.08124 444.46402 868.4875 445.12027Q867.89374 445.7609 866.89374 445.7609Q865.84686 445.7609 865.2531 445.12027Q864.65936 444.47964 864.65936 443.12027ZM866.15936 443.10464Q866.15936 444.08902 866.3781 444.41714Q866.55 444.66714 866.84686 444.66714Q867.15936 444.66714 867.33124 444.41714Q867.55 444.08902 867.55 443.10464Q867.55 442.1359 867.33124 441.80777Q867.15936 441.54214 866.84686 441.54214Q866.55 441.54214 866.3781 441.79214Q866.15936 442.1359 866.15936 443.10464ZM868.3156 451.05777L866.89374 451.05777L872.2375 440.47964L873.6125 440.47964L868.3156 451.05777ZM871.425 448.41714Q871.425 447.0734 872.0031 446.43277Q872.59686 445.77652 873.6281 445.77652Q874.65936 445.77652 875.2531 446.43277Q875.84686 447.0734 875.84686 448.41714Q875.84686 449.77652 875.2531 450.43277Q874.65936 451.0734 873.64374 451.0734Q872.59686 451.0734 872.0031 450.43277Q871.425 449.77652 871.425 448.41714ZM872.90936 448.41714Q872.90936 449.3859 873.14374 449.71402Q873.3156 449.96402 873.6125 449.96402Q873.925 449.96402 874.08124 449.72964Q874.3156 449.3859 874.3156 448.41714Q874.3156 447.43277 874.09686 447.10464Q873.925 446.85464 873.6125 446.85464Q873.3 446.85464 873.14374 447.10464Q872.90936 447.43277 872.90936 448.41714Z" fill-rule="nonzero"/><path stroke="#757575" stroke-width="1.0" stroke-linecap="butt" d="M876.05 436.16714L688.23334 436.16714L469.4347 436.16714" fill-rule="nonzero"/><path fill="#9e9e9e" d="M471.4347 436.16714C471.4347 435.06256 470.53928 434.16714 469.4347 434.16714C468.33014 434.16714 467.4347 435.06256 467.4347 436.16714C467.4347 437.27173 468.33014 438.16714 469.4347 438.16714C470.53928 438.16714 471.4347 437.27173 471.4347 436.16714" fill-rule="nonzero"/><path fill="#000000" d="M29.496876 46.95L29.496876 32.6375L34.41875 32.6375Q36.090626 32.6375 36.98125 32.840626Q38.2 33.121876 39.075 33.85625Q40.2 34.825 40.7625 36.309376Q41.325 37.79375 41.325 39.715626Q41.325 41.340626 40.95 42.60625Q40.575 43.85625 39.965626 44.684376Q39.371876 45.5125 38.66875 45.996876Q37.965626 46.465626 36.965626 46.715626Q35.965626 46.95 34.653126 46.95L29.496876 46.95ZM31.3875 45.2625L34.45 45.2625Q35.85625 45.2625 36.653126 44.996876Q37.465626 44.73125 37.95 44.246876Q38.621876 43.575 38.996876 42.45Q39.371876 41.309376 39.371876 39.684376Q39.371876 37.434376 38.6375 36.23125Q37.903126 35.028126 36.840626 34.621876Q36.090626 34.325 34.403126 34.325L31.3875 34.325L31.3875 45.2625ZM43.528126 46.95L43.528126 32.6375L53.8875 32.6375L53.8875 34.325L45.434376 34.325L45.434376 38.7L53.340626 38.7L53.340626 40.3875L45.434376 40.3875L45.434376 45.2625L54.215626 45.2625L54.215626 46.95L43.528126 46.95ZM56.590626 46.95L56.590626 32.6375L66.24687 32.6375L66.24687 34.325L58.48125 34.325L58.48125 38.7625L65.2 38.7625L65.2 40.45L58.48125 40.45L58.48125 46.95L56.590626 46.95ZM68.80937 46.95L68.80937 32.6375L70.71562 32.6375L70.71562 46.95L68.80937 46.95ZM73.77812 43.2L75.62187 43.04375Q75.825 44.3875 76.575 45.075Q77.325 45.746876 78.3875 45.746876Q79.65312 45.746876 80.52812 44.79375Q81.40312 43.840626 81.40312 42.246876Q81.40312 40.746876 80.55937 39.8875Q79.71562 39.0125 78.35625 39.0125Q77.49687 39.0125 76.80937 39.403126Q76.1375 39.778126 75.74687 40.403126L74.09062 40.184376L75.48125 32.825L82.60625 32.825L82.60625 34.5125L76.8875 34.5125L76.12187 38.35625Q77.40312 37.45 78.825 37.45Q80.7 37.45 81.98125 38.7625Q83.27812 40.059376 83.27812 42.090626Q83.27812 44.04375 82.1375 45.45Q80.7625 47.2 78.3875 47.2Q76.43437 47.2 75.18437 46.10625Q73.95 45.0125 73.77812 43.2ZM91.80937 46.95L91.80937 32.6375L93.71562 32.6375L93.71562 46.95L91.80937 46.95ZM97.2625 46.95L97.2625 36.575L98.85625 36.575L98.85625 38.059376Q99.99687 36.340626 102.15312 36.340626Q103.09062 36.340626 103.87187 36.684376Q104.66875 37.0125 105.05937 37.559376Q105.45 38.10625 105.60625 38.85625Q105.7 39.35625 105.7 40.575L105.7 46.95L103.93437 46.95L103.93437 40.6375Q103.93437 39.559376 103.73125 39.028126Q103.52812 38.496876 102.99687 38.184376Q102.48125 37.871876 101.77812 37.871876Q100.65312 37.871876 99.84062 38.590626Q99.02812 39.29375 99.02812 41.278126L99.02812 46.95L97.2625 46.95ZM114.99687 46.95L114.99687 45.6375Q114.0125 47.184376 112.09062 47.184376Q110.85625 47.184376 109.80937 46.496876Q108.77812 45.809376 108.2 44.590626Q107.6375 43.371876 107.6375 41.778126Q107.6375 40.215626 108.15312 38.95Q108.66875 37.684376 109.7 37.0125Q110.74687 36.340626 112.0125 36.340626Q112.95 36.340626 113.68437 36.746876Q114.41875 37.1375 114.8875 37.7625L114.8875 32.6375L116.62187 32.6375L116.62187 46.95L114.99687 46.95ZM109.43437 41.778126Q109.43437 43.7625 110.27812 44.746876Q111.12187 45.73125 112.2625 45.73125Q113.41875 45.73125 114.21562 44.79375Q115.02812 43.85625 115.02812 41.91875Q115.02812 39.79375 114.2 38.79375Q113.3875 37.79375 112.18437 37.79375Q111.0125 37.79375 110.21562 38.7625Q109.43437 39.715626 109.43437 41.778126ZM126.37187 43.60625L128.18437 43.840626Q127.7625 45.41875 126.59062 46.309376Q125.43437 47.184376 123.62187 47.184376Q121.35625 47.184376 120.0125 45.79375Q118.68437 44.3875 118.68437 41.85625Q118.68437 39.23125 120.02812 37.79375Q121.37187 36.340626 123.52812 36.340626Q125.60625 36.340626 126.91875 37.7625Q128.24687 39.16875 128.24687 41.746876Q128.24687 41.903126 128.23125 42.215626L120.49687 42.215626Q120.59062 43.91875 121.46562 44.825Q122.34062 45.73125 123.6375 45.73125Q124.60625 45.73125 125.27812 45.23125Q125.96562 44.715626 126.37187 43.60625ZM120.59062 40.7625L126.3875 40.7625Q126.27812 39.465626 125.73125 38.809376Q124.8875 37.79375 123.54375 37.79375Q122.34062 37.79375 121.5125 38.60625Q120.68437 39.403126 120.59062 40.7625ZM129.09062 46.95L132.8875 41.559376L129.3875 36.575L131.575 36.575L133.16875 39.0125Q133.62187 39.7 133.8875 40.16875Q134.325 39.528126 134.68437 39.028126L136.43437 36.575L138.52812 36.575L134.95 41.465626L138.80937 46.95L136.65312 46.95L134.5125 43.73125L133.95 42.85625L131.23125 46.95L129.09062 46.95Z" fill-rule="nonzero"/></svg>